<svg width="30" height="30" viewBox="0 0 30 30" fill="none" xmlns="http://www.w3.org/2000/svg">
<path fill-rule="evenodd" clip-rule="evenodd" d="M9.80033 26.8266C10.1851 26.8266 10.4663 26.9081 10.6439 27.0711C10.8215 27.2341 10.9104 27.4876 10.9106 27.8316V29.6754H10.3334V27.9096C10.3334 27.5208 10.1154 27.3264 9.67943 27.3264C9.4911 27.3248 9.30621 27.3769 9.14633 27.4764C9.17399 27.5927 9.187 27.712 9.18503 27.8316V29.6754H8.60783V27.9096C8.60783 27.5208 8.38983 27.3264 7.95383 27.3264C7.75489 27.3266 7.55758 27.3623 7.37123 27.432V29.6754H6.79433V27.1155C6.98533 27.0205 7.18752 26.95 7.39613 26.9055C7.61865 26.8536 7.84625 26.8267 8.07473 26.8251C8.43473 26.8251 8.70223 26.8951 8.87723 27.0351C9.16546 26.8974 9.48091 26.8262 9.80033 26.8266ZM12.8882 29.76C12.4482 29.76 12.1175 29.6341 11.8961 29.3823C11.6747 29.1305 11.5639 28.764 11.5637 28.2828C11.5637 27.309 12.0037 26.8222 12.8837 26.8224C13.3271 26.8224 13.6605 26.9473 13.8839 27.1971C14.1073 27.4469 14.2191 27.8088 14.2193 28.2828C14.2193 28.7564 14.1039 29.121 13.8731 29.3766C13.6423 29.6322 13.314 29.76 12.8882 29.76ZM12.8825 29.2656C13.3883 29.2656 13.6411 28.938 13.6409 28.2828C13.6409 27.957 13.5809 27.7136 13.4609 27.5526C13.3409 27.3916 13.1485 27.311 12.8837 27.3108C12.6163 27.3108 12.4249 27.3932 12.3095 27.558C12.1941 27.7228 12.1364 27.9644 12.1364 28.2828C12.1364 28.601 12.1959 28.8444 12.3149 29.013C12.4339 29.1816 12.6231 29.2654 12.8825 29.2644V29.2656ZM16.1462 26.8278C16.5566 26.8278 16.868 26.9518 17.0804 27.1998C17.2928 27.4478 17.3993 27.7991 17.3999 28.2537C17.3999 28.8017 17.2726 29.1895 17.018 29.4171C16.7634 29.6447 16.4398 29.759 16.0472 29.76C15.2594 29.76 14.8655 29.549 14.8655 29.127V25.7715H15.4373V27C15.5523 26.945 15.6731 26.9031 15.7973 26.8749C15.9114 26.8456 16.0285 26.8294 16.1462 26.8266V26.8278ZM16.0031 29.2545C16.3031 29.2545 16.5131 29.1675 16.6331 28.9935C16.7531 28.8195 16.8131 28.5807 16.8131 28.2771C16.8131 27.9663 16.7499 27.7294 16.6235 27.5664C16.4971 27.4034 16.3094 27.322 16.0604 27.3222C15.952 27.3229 15.844 27.3368 15.7388 27.3636C15.6336 27.389 15.5326 27.4294 15.4388 27.4836V28.9836C15.4378 29.1636 15.6259 29.2535 16.0031 29.2533V29.2545ZM18.0521 25.917H18.6677V26.4447H18.0521V25.917ZM18.0686 26.9055H18.6458L18.6512 29.6766H18.0686V26.9055ZM19.4636 29.6766V25.8327H20.0354V29.6754L19.4636 29.6766ZM21.9689 26.82C22.3977 26.82 22.7119 26.96 22.9115 27.24C23.1111 27.52 23.2091 27.9115 23.2055 28.4145H21.2699C21.2885 28.6885 21.3685 28.8968 21.5099 29.0394C21.6513 29.182 21.8519 29.2532 22.1117 29.253C22.423 29.2533 22.7293 29.175 23.0021 29.0253V29.5695C22.7163 29.6965 22.3889 29.76 22.0199 29.76C21.6059 29.76 21.2807 29.6332 21.0443 29.3796C20.8079 29.126 20.6898 28.766 20.69 28.2996C20.69 27.822 20.8017 27.4565 21.0251 27.2031C21.2485 26.9497 21.5631 26.822 21.9689 26.82ZM21.9524 27.3C21.7582 27.3 21.6062 27.3519 21.4964 27.4557C21.3866 27.5595 21.3151 27.7353 21.2819 27.9831H22.6175C22.5917 27.7461 22.5257 27.5731 22.4195 27.4641C22.3133 27.3551 22.1576 27.3004 21.9524 27.3ZM16.4399 4.4538C15.8033 4.2964 15.3133 4.2176 14.9699 4.2174C12.4082 4.2174 10.3313 6.2874 10.3313 8.8401C10.3313 11.3928 12.4091 13.4631 14.9699 13.4631C17.5307 13.4631 19.6088 11.3931 19.6088 8.8401C19.609 8.46715 19.5641 8.09555 19.475 7.7334L23.1629 6.7401C23.4617 7.87581 23.5182 9.06167 23.3287 10.2206C23.1393 11.3796 22.7082 12.4858 22.0634 13.4673L15.9566 24.789H10.2992L14.3192 17.379C14.3411 17.3382 14.2766 17.2482 14.2226 17.2434C9.92693 16.8534 6.56213 13.2534 6.56213 8.8707C6.56213 4.227 10.3391 0.462896 14.9987 0.462896C15.8517 0.461958 16.6999 0.590109 17.5145 0.842996L16.4399 4.4538Z" fill="#006E53"/>
<path d="M14.942 11.3829C16.3462 11.3829 17.4845 10.2445 17.4845 8.84035C17.4845 7.43617 16.3462 6.29785 14.942 6.29785C13.5379 6.29785 12.3995 7.43617 12.3995 8.84035C12.3995 10.2445 13.5379 11.3829 14.942 11.3829Z" fill="#D6E806"/>
<path d="M19.3339 7.10595C18.8934 6.00333 18.0444 5.1132 16.9639 4.62105M20.9521 6.41235C20.33 4.8831 19.1537 3.64492 17.6584 2.94525M22.5124 5.89245C21.72 3.87639 20.1618 2.25595 18.1783 1.38525" stroke="#D6E806" stroke-width="0.577859" stroke-linecap="round"/>
</svg>
