<svg width="20" height="17" viewBox="0 0 20 17" fill="none" xmlns="http://www.w3.org/2000/svg">
<path d="M12.3246 13.7826C12.1503 13.8673 11.9593 13.9118 11.7656 13.9129H2.5361C2.36188 13.9129 2.18938 13.8784 2.02851 13.8116C1.86763 13.7447 1.72156 13.6467 1.59868 13.5232C1.4758 13.3997 1.37854 13.2531 1.31248 13.0919C1.24642 12.9307 1.21287 12.758 1.21376 12.5838C1.21376 11.1303 1.79114 9.73643 2.81888 8.7087C3.84661 7.68096 5.24052 7.10358 6.69396 7.10358H7.60995C8.14787 7.1009 8.68332 7.17653 9.19945 7.32809C9.1218 7.46202 9.07135 7.60997 9.051 7.76344C9.03064 7.9169 9.04078 8.07288 9.08082 8.22243C9.12087 8.37197 9.19003 8.51214 9.28436 8.6349C9.37869 8.75766 9.49631 8.86059 9.6305 8.9378L9.75623 9.01189C9.74276 9.15782 9.73377 9.30375 9.73377 9.4609C9.73377 9.61805 9.73378 9.755 9.75623 9.90991L9.6305 9.98175C9.49624 10.0592 9.37856 10.1623 9.28421 10.2853C9.18986 10.4082 9.12068 10.5486 9.08064 10.6983C9.0406 10.8481 9.03049 11.0042 9.05087 11.1579C9.07126 11.3115 9.12175 11.4596 9.19945 11.5937L9.8146 12.6601C9.8918 12.7946 9.99484 12.9125 10.1178 13.007C10.2407 13.1015 10.3811 13.1708 10.5309 13.2109C10.6807 13.2509 10.837 13.261 10.9907 13.2404C11.1444 13.2199 11.2925 13.1692 11.4266 13.0912L11.541 13.0148C11.7799 13.1896 12.0356 13.34 12.3044 13.4638V13.6098C12.3068 13.6678 12.3135 13.7256 12.3246 13.7826Z" fill="#5034C4"/>
<path d="M7.15047 5.93595C8.78963 5.93595 10.1184 4.60714 10.1184 2.96797C10.1184 1.32881 8.78963 0 7.15047 0C5.5113 0 4.1825 1.32881 4.1825 2.96797C4.1825 4.60714 5.5113 5.93595 7.15047 5.93595Z" fill="#5034C4"/>
<path d="M18.1357 10.7687L17.4622 10.3803C17.6192 9.79188 17.6192 9.1726 17.4622 8.58422L18.1357 8.19582C18.1677 8.17744 18.1958 8.15292 18.2183 8.12366C18.2409 8.0944 18.2574 8.06098 18.267 8.02531C18.2766 7.98964 18.2791 7.95243 18.2743 7.91581C18.2694 7.8792 18.2574 7.84389 18.239 7.81192L17.6238 6.72755C17.6054 6.69552 17.5809 6.66742 17.5516 6.64489C17.5224 6.62235 17.489 6.60581 17.4533 6.59621C17.4176 6.58662 17.3804 6.58416 17.3438 6.58897C17.3072 6.59379 17.2719 6.60579 17.2399 6.62428L16.5664 7.01267C16.1307 6.5802 15.5886 6.27042 14.9948 6.11465V5.33337C14.9948 5.25894 14.9653 5.18756 14.9126 5.13493C14.86 5.0823 14.7886 5.05273 14.7142 5.05273H13.4906C13.4162 5.05273 13.3448 5.0823 13.2922 5.13493C13.2396 5.18756 13.21 5.25894 13.21 5.33337V6.10791C12.6164 6.26408 12.0744 6.57381 11.6385 7.00594L10.965 6.61754C10.933 6.59905 10.8977 6.58706 10.8611 6.58224C10.8244 6.57742 10.7872 6.57988 10.7516 6.58948C10.7159 6.59907 10.6825 6.61561 10.6532 6.63815C10.6239 6.66069 10.5994 6.68878 10.581 6.72082L9.97039 7.79396C9.9518 7.82579 9.93968 7.86098 9.9347 7.89751C9.92972 7.93404 9.93198 7.97119 9.94136 8.00684C9.95075 8.04249 9.96706 8.07594 9.98938 8.10529C10.0117 8.13463 10.0396 8.15929 10.0714 8.17786L10.7449 8.56626C10.5879 9.15464 10.5879 9.77392 10.7449 10.3623L10.0714 10.7507C10.0384 10.7693 10.0094 10.7943 9.98628 10.8244C9.96317 10.8544 9.94638 10.8888 9.93694 10.9256C9.9275 10.9623 9.9256 11.0005 9.93135 11.038C9.93709 11.0755 9.95038 11.1114 9.97039 11.1436L10.5855 12.21C10.6231 12.2742 10.6844 12.3211 10.7563 12.3404C10.8281 12.3598 10.9047 12.35 10.9694 12.3133L11.643 11.9249C12.0782 12.3579 12.6204 12.6678 13.2145 12.8229V13.5997C13.2145 13.6741 13.2441 13.7455 13.2967 13.7981C13.3493 13.8508 13.4207 13.8803 13.4951 13.8803H14.7277C14.8021 13.8803 14.8735 13.8508 14.9261 13.7981C14.9787 13.7455 15.0083 13.6741 15.0083 13.5997V12.8229C15.6025 12.6682 16.1449 12.3583 16.5799 11.9249L17.2534 12.3133C17.3181 12.35 17.3947 12.3598 17.4665 12.3404C17.5384 12.3211 17.5997 12.2742 17.6373 12.21L18.2524 11.1436C18.2859 11.0782 18.2924 11.0024 18.2705 10.9323C18.2487 10.8622 18.2003 10.8035 18.1357 10.7687ZM14.0946 10.8966C13.8139 10.8966 13.5396 10.8134 13.3063 10.6575C13.0729 10.5016 12.8911 10.28 12.7837 10.0207C12.6763 9.76147 12.6482 9.47618 12.703 9.20094C12.7577 8.92571 12.8928 8.67289 13.0913 8.47445C13.2897 8.27602 13.5425 8.14088 13.8178 8.08614C14.093 8.03139 14.3783 8.05949 14.6375 8.16688C14.8968 8.27427 15.1184 8.45613 15.2743 8.68946C15.4302 8.9228 15.5134 9.19712 15.5134 9.47775C15.5111 9.85057 15.3621 10.2075 15.0987 10.4713C14.8353 10.7352 14.4786 10.8847 14.1058 10.8877L14.0946 10.8966Z" fill="#5034C4"/>
</svg>
