<svg width="32" height="32" viewBox="0 0 32 32" fill="none" xmlns="http://www.w3.org/2000/svg">
<path d="M19.7728 0.39209C20.832 0.40681 21.8425 0.60777 22.7862 1.08777C23.6182 1.51369 24.2966 2.10921 24.7596 2.93001C25.0606 3.47186 25.258 4.06501 25.3417 4.67913C25.5139 5.85801 25.3398 6.99849 24.951 8.11369C24.7225 8.76777 24.4064 9.38121 24.064 9.98377C23.3664 11.2103 22.47 12.2734 21.4275 13.2158C20.0899 14.426 18.6232 15.4853 17.0537 16.3745C16.4457 16.7178 15.8153 17.0062 15.1372 17.1825C14.7218 17.2947 14.2929 17.349 13.8627 17.3438C13.2963 17.3322 12.8531 17.0743 12.5084 16.6398C12.1902 16.2497 12.0262 15.7565 12.0476 15.2535C12.0514 15.1136 12.0716 14.9746 12.1078 14.8394C12.3129 14.1108 12.5916 13.4129 13.0083 12.7764C13.3267 12.2903 13.7062 11.8586 14.2025 11.5498C14.7545 11.2062 15.3545 11.0593 16.0035 11.201C16.2064 11.2486 16.3973 11.3374 16.5644 11.4618C16.9916 11.7671 16.9692 12.2462 16.7641 12.5521C16.5884 12.8179 16.3919 13.0695 16.1766 13.3044C15.8118 13.6974 15.4243 14.0689 15.046 14.449C14.7113 14.7854 14.3968 15.1383 14.1417 15.5406C14.0096 15.7492 13.8876 15.962 13.8512 16.2126C13.8051 16.5268 13.9683 16.7409 14.2854 16.7703C14.4495 16.7837 14.6146 16.7671 14.7728 16.7214C15.2601 16.5866 15.7126 16.3694 16.1571 16.1351C16.8425 15.7726 17.4752 15.3294 18.0918 14.8618C18.8393 14.2951 19.566 13.7041 20.2358 13.0468C20.9987 12.299 21.6787 11.4862 22.199 10.5482C22.5792 9.86345 22.8592 9.14025 22.9836 8.36457C23.0937 7.68137 23.0323 7.01577 22.7158 6.38857C22.5634 6.07856 22.325 5.81895 22.0291 5.64073C21.8924 5.55847 21.7417 5.50227 21.5846 5.47497C21.0128 5.37353 20.4595 5.45673 19.9158 5.63817C19.3491 5.82761 18.8233 6.10409 18.3123 6.40617C17.2032 7.06409 16.0928 7.72169 15.0358 8.46249C14.5059 8.83369 13.9923 9.22857 13.4729 9.61449C13.0038 9.96329 12.5379 10.3162 12.0252 10.6014C11.6092 10.8383 11.159 11.0091 10.6905 11.1079C10.11 11.2257 9.575 11.1162 9.08348 10.8007C8.5734 10.4734 8.21628 10.0241 8.05948 9.42953C7.95964 9.05417 7.999 8.68201 8.08508 8.31145C8.21084 7.76745 8.44956 7.27465 8.74716 6.80745C9.48316 5.65353 10.4086 4.67465 11.4848 3.83785C13.0796 2.59785 14.8345 1.64297 16.7328 0.95209C17.7073 0.595601 18.7351 0.406272 19.7728 0.39209Z" fill="#E20010"/>
<path d="M6.65151 26.7743C6.64607 26.4121 6.60479 26.0863 6.39551 25.8037C6.2936 25.6672 6.15251 25.565 5.99103 25.5106C5.57503 25.3615 5.15135 25.3791 4.73823 25.5068C4.40703 25.6092 4.08767 25.7487 3.76351 25.8732C3.69951 25.8969 3.64127 25.9273 3.56383 25.9618C3.41119 25.5833 3.26111 25.2159 3.10399 24.8319C3.33151 24.7241 3.54591 24.614 3.76703 24.5196C4.27647 24.3017 4.80479 24.1522 5.36031 24.1186C5.91583 24.085 6.46399 24.1145 6.96959 24.3839C7.54143 24.6866 7.95423 25.1237 8.12703 25.7599C8.15196 25.8432 8.16689 25.9291 8.17151 26.0159C8.19359 26.8418 8.22335 27.6677 8.22687 28.4937C8.22911 29.0581 8.19199 29.6229 8.17535 30.1877C8.17238 30.2652 8.14012 30.3386 8.08511 30.3932C7.68991 30.8284 7.20639 31.1292 6.65855 31.3311C6.07109 31.5455 5.44548 31.6354 4.82143 31.5951C4.24543 31.5631 3.74815 31.3273 3.32767 30.9359C2.90719 30.5445 2.61343 30.0719 2.53151 29.4927C2.41951 28.6994 2.64831 28.0111 3.21855 27.4447C3.58527 27.0805 4.03711 26.8924 4.54623 26.8258C5.10943 26.7525 5.67455 26.7721 6.23967 26.7737L6.65151 26.7743ZM6.57759 28.0639C6.54439 28.0573 6.51084 28.0527 6.47711 28.0501C6.28511 28.0463 6.09087 28.0396 5.89791 28.0425C5.66655 28.046 5.43423 28.0469 5.20415 28.0687C4.96639 28.0914 4.73567 28.1609 4.55135 28.3196C4.24543 28.5833 4.15455 28.9276 4.22911 29.3157C4.32191 29.7957 4.59007 30.1311 5.06815 30.2738C5.31466 30.3475 5.57567 30.3585 5.82751 30.3058C6.06159 30.263 6.27993 30.1582 6.45983 30.0025C6.49029 29.9788 6.51533 29.949 6.53327 29.9148C6.55121 29.8807 6.56163 29.8432 6.56383 29.8047C6.57119 29.6361 6.59295 29.4677 6.59423 29.2991C6.59679 28.9129 6.59103 28.5266 6.58783 28.1404C6.58591 28.1147 6.58249 28.0892 6.57759 28.0639Z" fill="#E20010"/>
<path d="M25.8986 28.0319C24.5258 28.0319 23.1786 28.0025 21.8125 28.0383C21.8195 28.1343 21.8237 28.2252 21.8323 28.3138C21.8675 28.6764 21.9456 29.0287 22.0989 29.3612C22.2181 29.6324 22.4031 29.8695 22.6371 30.0511C23.0083 30.333 23.432 30.3791 23.8765 30.3218C24.2438 30.2745 24.5859 30.1401 24.927 30.0047C25.0835 29.9429 25.2387 29.8767 25.407 29.8079C25.567 30.1426 25.7238 30.4716 25.887 30.8101C25.857 30.8319 25.8288 30.8562 25.7974 30.8741C25.1318 31.269 24.417 31.5234 23.6448 31.5906C22.9408 31.6517 22.2688 31.5362 21.6608 31.1468C21.2467 30.8815 20.9568 30.5068 20.7142 30.0876C20.4155 29.566 20.2346 28.9854 20.1843 28.3865C20.0828 27.2944 20.3147 26.2777 20.88 25.3362C21.2742 24.6818 21.8627 24.3263 22.5994 24.2037C23.2765 24.0847 23.974 24.2008 24.576 24.5327C24.9133 24.7154 25.1482 25.0031 25.3418 25.3257C25.5978 25.7509 25.7325 26.2197 25.7971 26.7055C25.8496 27.0972 25.8662 27.4937 25.8976 27.8895C25.9014 27.9301 25.8986 27.9724 25.8986 28.0319ZM24.2346 26.7887C24.1549 26.4236 24.1005 26.0505 23.8614 25.741C23.7416 25.5872 23.5732 25.4785 23.3837 25.4325C22.8797 25.2991 22.3731 25.5314 22.1565 26.0085C22.079 26.1785 22.0336 26.3631 21.9773 26.542C21.952 26.6229 21.9357 26.7071 21.9155 26.7887C22.0509 26.8245 24.096 26.8261 24.2352 26.7897L24.2346 26.7887Z" fill="#E20010"/>
<path d="M16.8927 22.4546L18.5308 22.2012V24.213C18.8943 24.2348 19.2406 24.2111 19.5887 24.2485V25.4879C19.2367 25.4937 18.8921 25.4831 18.5327 25.5049C18.5327 25.5746 18.5327 25.6268 18.5327 25.6789C18.5298 26.8719 18.5272 28.065 18.5251 29.2581C18.5251 29.446 18.5401 29.6341 18.5571 29.8213C18.5839 30.1093 18.7436 30.2921 19.0227 30.3621C19.1766 30.4012 19.3347 30.4233 19.4908 30.453L19.6476 30.485V31.5369C19.63 31.5456 19.6113 31.5518 19.5919 31.5554C19.127 31.5762 18.6639 31.5641 18.2143 31.4274C17.7753 31.2949 17.4092 31.0549 17.1609 30.6594C17.0198 30.4354 16.9481 30.1836 16.9171 29.9234C16.8983 29.7605 16.8891 29.5966 16.8895 29.4325C16.8895 27.1669 16.8908 24.9015 16.8934 22.6364L16.8927 22.4546Z" fill="#E20010"/>
<path d="M26.799 22.4562L28.383 22.1816V22.4002C28.383 24.4578 28.3838 26.5154 28.3855 28.573C28.3855 28.9496 28.3887 29.3263 28.3916 29.7032C28.3942 30.0751 28.5299 30.2645 28.8851 30.3752C29.0058 30.4086 29.1283 30.4349 29.2521 30.454C29.3276 30.468 29.4041 30.4748 29.496 30.486V31.5605C29.4874 31.5676 29.4773 31.5725 29.4665 31.5749C29.0166 31.5932 28.5686 31.5858 28.1311 31.4578C27.8661 31.3815 27.6193 31.2522 27.4057 31.0776C27.0079 30.7522 26.846 30.316 26.8044 29.8242C26.7923 29.6802 26.7939 29.5346 26.7942 29.39C26.7942 27.1391 26.7958 24.8884 26.799 22.638V22.4562Z" fill="#E20010"/>
<path d="M13.7082 31.4654H12.1082C12.1063 31.3985 12.1031 31.3374 12.1027 31.2769C12.101 30.3156 12.0996 29.3544 12.0986 28.3931C12.0967 27.6251 12.0919 26.8571 12.0922 26.0891C12.0927 25.9498 12.1034 25.8108 12.1242 25.6731C12.1479 25.516 12.2301 25.3851 12.3443 25.2747C12.9728 24.6628 13.7258 24.2961 14.5843 24.138C15.1224 24.0394 15.6738 24.0386 16.2122 24.1358C16.2407 24.1409 16.2691 24.1473 16.297 24.1544C16.3107 24.1579 16.3239 24.1646 16.3504 24.1748C16.1687 24.6369 15.9472 25.0785 15.7386 25.515C15.4893 25.515 15.2531 25.5076 15.0176 25.5166C14.6109 25.5301 14.2116 25.6296 13.8461 25.8084C13.7424 25.8593 13.7037 25.9227 13.704 26.042C13.7085 27.7914 13.7096 29.5407 13.7072 31.29L13.7082 31.4654Z" fill="#E20010"/>
<path d="M10.928 24.2808C10.945 26.6782 10.9264 29.0616 10.9418 31.4596H9.37602C9.37218 31.4017 9.3645 31.3412 9.3645 31.2808C9.3645 29.7736 9.3645 28.2661 9.3645 26.7585C9.3645 26.0676 9.37026 25.3768 9.37314 24.6859C9.37314 24.6334 9.37314 24.5809 9.37314 24.515L10.928 24.2808Z" fill="#E20010"/>
<path d="M10.08 23.5752C9.31554 23.5733 8.83682 22.8123 9.15394 22.0939C9.34882 21.6533 9.68354 21.4859 10.1664 21.4888C10.8135 21.4942 11.2931 22.1378 11.1389 22.7666C11.0157 23.269 10.6125 23.5765 10.08 23.5752Z" fill="#E20010"/>
</svg>
