<svg width="25" height="24" viewBox="0 0 25 24" fill="none" xmlns="http://www.w3.org/2000/svg">
<g clip-path="url(#clip0_692_11487)">
<path d="M5.78854 17.4546V20.8637C5.78854 21.4062 6.00405 21.9265 6.38764 22.31C6.77124 22.6936 7.29151 22.9091 7.834 22.9091H17.3795C17.9219 22.9091 18.4422 22.6936 18.8258 22.31C19.2094 21.9265 19.4249 21.4062 19.4249 20.8637V17.4546H5.78854ZM12.6067 21.5455C12.337 21.5455 12.0734 21.4655 11.8491 21.3157C11.6249 21.1658 11.4501 20.9529 11.3469 20.7037C11.2437 20.4545 11.2167 20.1803 11.2693 19.9158C11.3219 19.6513 11.4518 19.4083 11.6425 19.2176C11.8332 19.0269 12.0762 18.897 12.3407 18.8444C12.6052 18.7918 12.8794 18.8188 13.1286 18.922C13.3777 19.0252 13.5907 19.2 13.7405 19.4243C13.8904 19.6485 13.9704 19.9122 13.9704 20.1819C13.9704 20.5435 13.8267 20.8904 13.571 21.1461C13.3152 21.4018 12.9684 21.5455 12.6067 21.5455Z" fill="black"/>
<path d="M5.78854 17.4546V3.1364C5.78854 2.59391 6.00405 2.07364 6.38764 1.69004C6.77124 1.30645 7.29151 1.09094 7.834 1.09094H17.3795C17.9219 1.09094 18.4422 1.30645 18.8258 1.69004C19.2094 2.07364 19.4249 2.59391 19.4249 3.1364V17.4546H5.78854Z" fill="#5034C4"/>
</g>
<defs>
<clipPath id="clip0_692_11487">
<rect width="24" height="24" fill="white" transform="translate(0.333984)"/>
</clipPath>
</defs>
</svg>
