<svg width="159" height="194" viewBox="0 0 159 194" fill="none" xmlns="http://www.w3.org/2000/svg">
<rect x="36" width="87.2462" height="188.354" rx="14.6769" fill="#D3BCFF"/>
<rect x="40.0771" y="4.07617" width="79.0923" height="180.2" rx="12.2308" fill="white"/>
<rect x="67.7998" y="8.1543" width="22.8308" height="6.52308" rx="3.26154" fill="#D3BCFF"/>
<rect y="39.7383" width="159" height="63.6" rx="7.33846" fill="#E9E6FD"/>
<path d="M23.6516 60.4951C23.7644 59.5348 25.1584 59.5348 25.2712 60.4951L26.1719 68.1643C26.2274 68.6371 26.6746 68.962 27.1415 68.8687L34.7136 67.3554C35.6618 67.1659 36.0926 68.4918 35.2141 68.8958L28.1987 72.1223C27.7661 72.3212 27.5953 72.8469 27.8283 73.2621L31.6074 79.996C32.0807 80.8392 30.9529 81.6586 30.2971 80.948L25.0607 75.2729C24.7378 74.923 24.185 74.923 23.8622 75.2729L18.6257 80.948C17.97 81.6586 16.8421 80.8392 17.3154 79.996L21.0945 73.2621C21.3275 72.8469 21.1567 72.3212 20.7242 72.1223L13.7087 68.8958C12.8302 68.4918 13.261 67.1659 14.2092 67.3554L21.7813 68.8687C22.2482 68.962 22.6954 68.6371 22.7509 68.1643L23.6516 60.4951Z" fill="#6463FD"/>
<path d="M60.3426 61.5625C60.4421 60.5855 61.8655 60.5855 61.965 61.5625L62.6641 68.4254C62.7134 68.9091 63.1722 69.2424 63.6474 69.1398L70.3904 67.684C71.3504 67.4767 71.7902 68.8304 70.8918 69.2269L64.5808 72.0126C64.1361 72.2089 63.9608 72.7483 64.2052 73.1685L67.6735 79.1317C68.1673 79.9806 67.0158 80.8172 66.361 80.0853L61.7615 74.944C61.4374 74.5817 60.8702 74.5817 60.5461 74.944L55.9466 80.0853C55.2918 80.8172 54.1403 79.9806 54.6341 79.1316L58.1024 73.1685C58.3468 72.7483 58.1715 72.2089 57.7268 72.0126L51.4158 69.2269C50.5174 68.8304 50.9572 67.4767 51.9172 67.684L58.6602 69.1398C59.1354 69.2424 59.5942 68.9091 59.6435 68.4254L60.3426 61.5625Z" fill="#6463FD"/>
<path d="M97.035 61.5625C97.1345 60.5855 98.5578 60.5855 98.6574 61.5625L99.3565 68.4254C99.4058 68.9091 99.8646 69.2424 100.34 69.1398L107.083 67.684C108.043 67.4767 108.483 68.8304 107.584 69.2269L101.273 72.0126C100.828 72.2089 100.653 72.7483 100.898 73.1685L104.366 79.1317C104.86 79.9806 103.708 80.8172 103.053 80.0853L98.4539 74.944C98.1297 74.5817 97.5626 74.5817 97.2385 74.944L92.639 80.0853C91.9842 80.8172 90.8327 79.9806 91.3264 79.1316L94.7947 73.1685C95.0392 72.7483 94.8639 72.2089 94.4192 72.0126L88.1082 69.2269C87.2098 68.8304 87.6496 67.4767 88.6095 67.684L95.3526 69.1398C95.8278 69.2424 96.2866 68.9091 96.3359 68.4254L97.035 61.5625Z" fill="#6463FD"/>
<path d="M133.727 61.5625C133.827 60.5855 135.25 60.5855 135.35 61.5625L136.049 68.4254C136.098 68.9091 136.557 69.2424 137.032 69.1398L143.775 67.684C144.735 67.4767 145.175 68.8304 144.277 69.2269L137.966 72.0126C137.521 72.2089 137.346 72.7483 137.59 73.1685L141.058 79.1317C141.552 79.9806 140.401 80.8172 139.746 80.0853L135.146 74.944C134.822 74.5817 134.255 74.5817 133.931 74.944L129.331 80.0853C128.677 80.8172 127.525 79.9806 128.019 79.1316L131.487 73.1685C131.732 72.7483 131.556 72.2089 131.112 72.0126L124.801 69.2269C123.902 68.8304 124.342 67.4767 125.302 67.684L132.045 69.1398C132.52 69.2424 132.979 68.9091 133.028 68.4254L133.727 61.5625Z" fill="#6463FD"/>
<circle cx="117" cy="172" r="22" fill="#5034C4"/>
<path d="M125.948 167.173C125.948 167.769 125.722 168.344 125.313 168.754L115.798 178.321C115.368 178.732 114.795 178.978 114.202 178.978C113.608 178.978 113.036 178.732 112.626 178.321L107.858 173.538C107.449 173.127 107.224 172.552 107.224 171.957C107.224 171.361 107.47 170.807 107.879 170.376C108.309 169.965 108.861 169.74 109.455 169.719C110.048 169.719 110.6 169.945 111.03 170.355L114.202 173.538L122.141 165.572C122.571 165.161 123.124 164.936 123.717 164.936C124.311 164.956 124.863 165.182 125.293 165.613C125.702 166.024 125.948 166.578 125.948 167.173Z" fill="white"/>
</svg>
