<svg width="159" height="189" viewBox="0 0 159 189" fill="none" xmlns="http://www.w3.org/2000/svg">
<rect x="36" width="87.2462" height="188.354" rx="14.6769" fill="#D3BCFF"/>
<rect x="40.0771" y="4.07617" width="79.0923" height="180.2" rx="12.2308" fill="white"/>
<rect x="67.7998" y="8.1543" width="22.8308" height="6.52308" rx="3.26154" fill="#D3BCFF"/>
<rect y="39.7383" width="159" height="63.6" rx="7.33846" fill="#E9E6FD"/>
<path d="M23.6521 60.4951C23.7649 59.5348 25.1589 59.5348 25.2717 60.4951L26.1724 68.1643C26.2279 68.6371 26.6751 68.962 27.142 68.8687L34.7141 67.3554C35.6623 67.1659 36.0931 68.4918 35.2146 68.8958L28.1991 72.1223C27.7666 72.3212 27.5958 72.8469 27.8288 73.2621L31.6079 79.996C32.0812 80.8392 30.9534 81.6586 30.2976 80.948L25.0612 75.2729C24.7383 74.923 24.1855 74.923 23.8626 75.2729L18.6262 80.948C17.9704 81.6586 16.8426 80.8392 17.3159 79.996L21.095 73.2621C21.328 72.8469 21.1572 72.3212 20.7247 72.1223L13.7092 68.8958C12.8307 68.4918 13.2615 67.1659 14.2097 67.3554L21.7818 68.8687C22.2487 68.962 22.6959 68.6371 22.7514 68.1643L23.6521 60.4951Z" fill="#6463FD"/>
<path d="M60.3431 61.5625C60.4426 60.5855 61.8659 60.5855 61.9655 61.5625L62.6646 68.4254C62.7139 68.9091 63.1727 69.2424 63.6479 69.1398L70.3909 67.684C71.3508 67.4767 71.7907 68.8304 70.8923 69.2269L64.5813 72.0126C64.1366 72.2089 63.9613 72.7483 64.2057 73.1685L67.674 79.1317C68.1678 79.9806 67.0163 80.8172 66.3615 80.0853L61.762 74.944C61.4378 74.5817 60.8707 74.5817 60.5466 74.944L55.9471 80.0853C55.2923 80.8172 54.1408 79.9806 54.6345 79.1316L58.1029 73.1685C58.3473 72.7483 58.172 72.2089 57.7273 72.0126L51.4163 69.2269C50.5179 68.8304 50.9577 67.4767 51.9177 67.684L58.6607 69.1398C59.1359 69.2424 59.5947 68.9091 59.644 68.4254L60.3431 61.5625Z" fill="#6463FD"/>
<path d="M97.0355 61.5625C97.135 60.5855 98.5583 60.5855 98.6579 61.5625L99.357 68.4254C99.4062 68.9091 99.8651 69.2424 100.34 69.1398L107.083 67.684C108.043 67.4767 108.483 68.8304 107.585 69.2269L101.274 72.0126C100.829 72.2089 100.654 72.7483 100.898 73.1685L104.366 79.1317C104.86 79.9806 103.709 80.8172 103.054 80.0853L98.4544 74.944C98.1302 74.5817 97.5631 74.5817 97.239 74.944L92.6394 80.0853C91.9847 80.8172 90.8332 79.9806 91.3269 79.1316L94.7952 73.1685C95.0396 72.7483 94.8644 72.2089 94.4197 72.0126L88.1087 69.2269C87.2103 68.8304 87.6501 67.4767 88.61 67.684L95.3531 69.1398C95.8283 69.2424 96.2871 68.9091 96.3364 68.4254L97.0355 61.5625Z" fill="#6463FD"/>
<path d="M133.728 61.5625C133.827 60.5855 135.251 60.5855 135.35 61.5625L136.049 68.4254C136.099 68.9091 136.557 69.2424 137.033 69.1398L143.776 67.684C144.736 67.4767 145.175 68.8304 144.277 69.2269L137.966 72.0126C137.521 72.2089 137.346 72.7483 137.59 73.1685L141.059 79.1317C141.553 79.9806 140.401 80.8172 139.746 80.0853L135.147 74.944C134.823 74.5817 134.255 74.5817 133.931 74.944L129.332 80.0853C128.677 80.8172 127.526 79.9806 128.019 79.1316L131.488 73.1685C131.732 72.7483 131.557 72.2089 131.112 72.0126L124.801 69.2269C123.903 68.8304 124.342 67.4767 125.302 67.684L132.045 69.1398C132.521 69.2424 132.979 68.9091 133.029 68.4254L133.728 61.5625Z" fill="#6463FD"/>
</svg>
