<svg width="11" height="12" viewBox="0 0 11 12" fill="none" xmlns="http://www.w3.org/2000/svg">
<path d="M7.47438 3.07422H3.07783C3.07783 3.07422 0 5.71167 0 8.7895C0 10.5474 1.32354 11.4269 2.19828 11.4269H8.35393C9.23228 11.4269 10.5522 10.5474 10.5522 8.7895C10.5522 5.71167 7.47438 3.07422 7.47438 3.07422ZM5.71528 9.18415V9.88803L8.55727 9.80621V9.10474C7.90994 8.98442 7.50326 8.58495 7.47438 8.005L7.15914 7.81917C7.19644 8.12358 4.85979 8.58736 5.30378 8.58736C5.71287 8.58736 6.00285 8.38883 6.00285 8.10607C6.00285 7.86543 5.81514 7.72826 5.35311 7.62478L4.8634 7.5201C4.17757 7.37692 3.84067 7.01957 3.84067 6.44563C3.84067 5.8717 4.22329 5.45779 4.83212 5.32183V4.61313H5.71046L5.5348 3.90872C5.35431 3.60791 3.34975 4.32623 3.36901 4.87129L5.9848 6.40593C5.9475 6.10873 3.74922 4.45016 3.36901 4.45016C2.98879 4.45016 3.07783 5.8483 3.07783 6.13467C3.07783 6.36689 4.81527 6.74042 5.25685 6.83908L5.71046 6.93534C6.46729 7.09416 2.46659 5.18533 2.46659 5.7737C2.46659 6.40298 6.38908 9.05541 5.71528 9.18415Z" fill="#5034C4"/>
<path d="M7.47369 0.437305H6.25844C6.13434 0.299648 5.98271 0.18959 5.81337 0.114258C5.64403 0.0389262 5.46076 0 5.27542 0C5.09008 0 4.9068 0.0389262 4.73746 0.114258C4.56812 0.18959 4.41649 0.299648 4.29239 0.437305H3.07714C3.00555 0.437615 2.93511 0.455376 2.87193 0.489048C2.80875 0.522721 2.75473 0.57129 2.71455 0.630548C2.67437 0.689806 2.64925 0.757966 2.64136 0.829124C2.63346 0.900281 2.64304 0.97229 2.66925 1.03891L3.07714 2.1952H7.47369L7.88158 1.03891C7.9078 0.97229 7.91737 0.900281 7.90948 0.829124C7.90158 0.757966 7.87646 0.689806 7.83628 0.630548C7.79611 0.57129 7.74209 0.522721 7.67891 0.489048C7.61573 0.455376 7.54529 0.437615 7.47369 0.437305Z" fill="black"/>
<path d="M4.6613 5.71484L5.97498 7.82776V5.71484H6.51699V8.6959H5.9658L4.61077 6.50949V8.6959H4.06876V5.71484H4.6613Z" fill="white"/>
<path d="M3.56055 6.71093H6.98912V7.07184H3.56055V6.71093Z" fill="white"/>
<path d="M3.56055 7.34251H6.98912V7.70342H3.56055V7.34251Z" fill="white"/>
</svg>
