<svg width="19" height="19" viewBox="0 0 19 19" fill="none" xmlns="http://www.w3.org/2000/svg">
<path d="M15.1649 9.244C14.6323 8.62198 14.3902 8.08296 14.3902 7.1672V6.85583C14.3902 5.66247 14.1156 4.89359 13.5184 4.1247C12.5981 2.93062 11.0487 2.21094 9.53192 2.21094H9.46742C7.98253 2.21094 6.4817 2.89757 5.5454 4.04319C4.91564 4.8275 4.6091 5.62943 4.6091 6.85583V7.1672C4.6091 8.08296 4.383 8.62198 3.83441 9.244C3.43075 9.70224 3.30176 10.2912 3.30176 10.9286C3.30176 11.5668 3.51119 12.1712 3.93151 12.6625C4.4801 13.2515 5.2548 13.6274 6.04616 13.6928C7.1919 13.8235 8.33763 13.8727 9.50004 13.8727C10.6617 13.8727 11.8075 13.7905 12.9539 13.6928C13.7445 13.6274 14.5192 13.2515 15.0678 12.6625C15.4874 12.1712 15.6976 11.5668 15.6976 10.9286C15.6976 10.2912 15.5686 9.70224 15.1649 9.244Z" fill="#5034C4"/>
<path opacity="0.4" d="M10.965 14.7732C10.6005 14.6954 8.37933 14.6954 8.01481 14.7732C7.70319 14.8452 7.36621 15.0126 7.36621 15.3798C7.38433 15.7301 7.58942 16.0393 7.87349 16.2354L7.87277 16.2361C8.24019 16.5225 8.67138 16.7046 9.12286 16.77C9.36346 16.803 9.6084 16.8016 9.8577 16.77C10.3085 16.7046 10.7396 16.5225 11.1071 16.2361L11.1063 16.2354C11.3904 16.0393 11.5955 15.7301 11.6136 15.3798C11.6136 15.0126 11.2766 14.8452 10.965 14.7732Z" fill="#5034C4"/>
</svg>
