<svg width="22" height="22" viewBox="0 0 22 22" fill="none" xmlns="http://www.w3.org/2000/svg">
<path d="M19.8611 11C19.8611 11.492 19.8214 11.9748 19.7419 12.4453C19.525 13.7867 19.0025 15.0272 18.2478 16.0936V16.0967C16.9522 17.9392 14.9692 19.2653 12.6744 19.7023C11.973 19.8363 11.2579 19.8855 10.5447 19.8489H10.5233C10.3797 19.8398 10.2361 19.8306 10.0925 19.8153C10.0803 19.8153 10.0681 19.8123 10.0558 19.8123C9.93666 19.8 9.8175 19.7848 9.69833 19.7664C9.66472 19.7603 9.62805 19.7572 9.59444 19.7511C9.50277 19.7359 9.41416 19.7206 9.3225 19.7023C9.17889 19.6748 9.03527 19.6442 8.89166 19.6075C8.83361 19.5953 8.7725 19.58 8.71444 19.5648C8.635 19.5434 8.55555 19.5189 8.47611 19.4945C8.40583 19.4731 8.3325 19.4517 8.25916 19.4273C8.18681 19.406 8.11544 19.3816 8.04527 19.3539L7.87111 19.2898C7.8375 19.2806 7.80694 19.2684 7.77333 19.2531C7.49249 19.141 7.21718 19.0156 6.94833 18.8773C6.87805 18.8406 6.81083 18.8039 6.74055 18.7642C6.66111 18.7214 6.58472 18.6786 6.50833 18.6328C6.42277 18.5809 6.33722 18.532 6.25166 18.477C6.22722 18.4617 6.20277 18.4434 6.17833 18.4281C6.05916 18.3517 5.94 18.2692 5.82694 18.1867C5.72916 18.1195 5.63444 18.0461 5.54277 17.9759C5.53389 17.9696 5.5257 17.9625 5.51833 17.9545C5.43583 17.8903 5.35639 17.8261 5.28 17.7589C5.24027 17.7284 5.20055 17.6948 5.16389 17.6611L5.07527 17.5817C5.06916 17.5786 5.06611 17.5756 5.06305 17.5725C5.05389 17.5634 5.04472 17.5542 5.03555 17.5481C5.02944 17.545 5.02639 17.5389 5.02333 17.5359C5.01787 17.5335 5.01351 17.5291 5.01111 17.5236C4.97198 17.4906 4.93426 17.456 4.89805 17.4198C4.85833 17.3831 4.82166 17.3495 4.78805 17.3128C4.78194 17.3067 4.77583 17.3006 4.77277 17.2945C4.74222 17.2639 4.71166 17.2364 4.68111 17.2089C4.63466 17.1625 4.59189 17.1102 4.54666 17.0623L4.54055 17.0561C4.4385 16.948 4.33644 16.841 4.23805 16.7261C4.16472 16.6406 4.09139 16.552 4.02111 16.4603C3.09599 15.2821 2.48609 13.8877 2.24889 12.4086C2.17555 11.9503 2.13889 11.4797 2.13889 11C2.13889 9.11475 2.72555 7.36697 3.73389 5.93086C4.70861 4.53142 6.08055 3.42836 7.68472 2.78364C8.70833 2.36503 9.82666 2.13892 11 2.13892C12.1703 2.13892 13.2886 2.36503 14.3092 2.78058C15.0792 3.08614 15.7942 3.50169 16.4389 4.00892C16.61 4.14031 16.7781 4.28086 16.94 4.43058H16.9431C17.105 4.57725 17.2608 4.73003 17.4106 4.88892C17.6397 5.12419 17.8506 5.37169 18.0492 5.63447C18.1133 5.72003 18.1806 5.80864 18.2417 5.89725V5.90031C18.2417 5.90031 18.2417 5.89725 18.2447 5.90031C18.3975 6.11114 18.5411 6.33419 18.6694 6.56336C18.7153 6.63975 18.7581 6.71614 18.8008 6.79558C18.8528 6.89031 18.9017 6.98197 18.9444 7.07669C18.9781 7.14086 19.0086 7.20503 19.0392 7.27225C19.0881 7.37003 19.1308 7.46781 19.1706 7.56558C19.2194 7.67558 19.2622 7.78558 19.3019 7.89864C19.3356 7.98419 19.3661 8.06975 19.3936 8.15836C19.4181 8.22864 19.4425 8.30197 19.4669 8.37836C19.4975 8.47614 19.525 8.57392 19.5525 8.67169C19.5708 8.74197 19.5892 8.80919 19.6044 8.87947C19.6594 9.09642 19.7053 9.31336 19.7389 9.53642C19.7511 9.60058 19.7603 9.66475 19.7694 9.73197C19.7847 9.82975 19.7969 9.93058 19.8061 10.0284C19.8122 10.0711 19.8183 10.1139 19.8214 10.1536C19.8306 10.2606 19.8397 10.3675 19.8428 10.4775C19.8489 10.5234 19.8519 10.5661 19.8519 10.612C19.8581 10.7403 19.8611 10.8686 19.8611 11Z" fill="#E4EAFC"/>
<path d="M19.8611 11C19.8611 11.492 19.8214 11.9748 19.7419 12.4453C19.525 13.7867 19.0025 15.0272 18.2478 16.0936V16.0967C16.9522 17.9392 14.9692 19.2653 12.6744 19.7023C11.973 19.8363 11.2579 19.8855 10.5447 19.8489H10.5233C10.3797 19.8398 10.2361 19.8306 10.0925 19.8153C10.0803 19.8153 10.0681 19.8122 10.0558 19.8122C9.93666 19.8 9.8175 19.7848 9.69833 19.7664C9.66472 19.7603 9.62805 19.7573 9.59444 19.7511C9.50277 19.7359 9.41416 19.7206 9.3225 19.7023C9.17889 19.6748 9.03528 19.6442 8.89166 19.6075C8.83361 19.5953 8.7725 19.58 8.71444 19.5648C8.635 19.5434 8.55555 19.5189 8.47611 19.4945C8.40583 19.4731 8.3325 19.4517 8.25916 19.4273C8.18681 19.406 8.11544 19.3816 8.04527 19.3539L7.87111 19.2898C7.8375 19.2806 7.80694 19.2684 7.77333 19.2531C7.49249 19.141 7.21718 19.0156 6.94833 18.8773C6.87805 18.8406 6.81083 18.8039 6.74055 18.7642C6.66111 18.7214 6.58472 18.6786 6.50833 18.6328C6.42277 18.5809 6.33722 18.532 6.25166 18.477C6.22722 18.4617 6.20277 18.4434 6.17833 18.4281C6.05916 18.3517 5.94 18.2692 5.82694 18.1867C5.72916 18.1195 5.63444 18.0461 5.54277 17.9759C5.53389 17.9696 5.5257 17.9625 5.51833 17.9545C5.43583 17.8903 5.35639 17.8261 5.28 17.7589C5.24027 17.7284 5.20055 17.6948 5.16389 17.6611L5.07527 17.5817C5.06916 17.5786 5.06611 17.5756 5.06305 17.5725C5.05389 17.5634 5.04472 17.5542 5.03555 17.5481C5.02944 17.545 5.02639 17.5389 5.02333 17.5359C5.01787 17.5335 5.01351 17.5291 5.01111 17.5236C4.97198 17.4906 4.93426 17.456 4.89805 17.4198C4.85833 17.3831 4.82166 17.3495 4.78805 17.3128C4.78194 17.3067 4.77583 17.3006 4.77277 17.2945C4.74222 17.2639 4.71166 17.2364 4.68111 17.2089C4.63466 17.1625 4.59189 17.1102 4.54666 17.0623L4.54055 17.0561L4.54116 17.0564C4.43911 16.9483 4.33644 16.841 4.23805 16.7261C4.16472 16.6406 4.09139 16.552 4.02111 16.4603C3.09599 15.2821 2.48609 13.8877 2.24889 12.4086C2.17555 11.9503 2.13889 11.4798 2.13889 11C2.13889 9.11475 2.72555 7.36697 3.73389 5.93086C4.70861 4.53142 6.08055 3.42836 7.68472 2.78364C8.70833 2.36503 9.82666 2.13892 11 2.13892C12.1703 2.13892 13.2886 2.36503 14.3092 2.78058C15.0792 3.08614 15.7942 3.50169 16.4389 4.00892C16.61 4.14031 16.7781 4.28086 16.94 4.43058H16.9431C17.105 4.57725 17.2608 4.73003 17.4106 4.88892C17.6397 5.12419 17.8506 5.37169 18.0492 5.63447C18.1133 5.72003 18.1806 5.80864 18.2417 5.89725V5.90031C18.2417 5.90031 18.2417 5.89725 18.2447 5.90031C18.3975 6.11114 18.5411 6.33419 18.6694 6.56336C18.7153 6.63975 18.7581 6.71614 18.8008 6.79558C18.8528 6.89031 18.9017 6.98197 18.9444 7.07669C18.9781 7.14086 19.0086 7.20503 19.0392 7.27225C19.0881 7.37003 19.1308 7.46781 19.1706 7.56558C19.2194 7.67558 19.2622 7.78558 19.3019 7.89864C19.3356 7.98419 19.3661 8.06975 19.3936 8.15836C19.4181 8.22864 19.4425 8.30197 19.4669 8.37836C19.4975 8.47614 19.525 8.57392 19.5525 8.67169C19.5708 8.74197 19.5892 8.80919 19.6044 8.87947C19.6594 9.09642 19.7053 9.31336 19.7389 9.53642C19.7511 9.60058 19.7603 9.66475 19.7694 9.73197C19.7847 9.82975 19.7969 9.93058 19.8061 10.0284C19.8122 10.0711 19.8183 10.1139 19.8214 10.1536C19.8306 10.2606 19.8397 10.3675 19.8428 10.4775C19.8489 10.5234 19.8519 10.5661 19.8519 10.612C19.8581 10.7403 19.8611 10.8686 19.8611 11V11Z" stroke="#00BB64" stroke-width="0.666667" stroke-miterlimit="10" stroke-linecap="round" stroke-linejoin="round"/>
<path d="M19.8611 11C19.8611 11.492 19.8214 11.9748 19.7419 12.4453C19.525 13.7867 19.0025 15.0272 18.2478 16.0936V16.0967C16.9522 17.9392 14.9692 19.2653 12.6744 19.7023C11.973 19.8363 11.2579 19.8855 10.5447 19.8489H10.5233C10.3797 19.8398 10.2361 19.8306 10.0925 19.8153C10.0803 19.8153 10.0681 19.8122 10.0558 19.8122C9.93666 19.8 9.8175 19.7848 9.69833 19.7664C9.66472 19.7603 9.62805 19.7573 9.59444 19.7511C9.50277 19.7359 9.41416 19.7206 9.3225 19.7023C9.17889 19.6748 9.03528 19.6442 8.89166 19.6075C8.83361 19.5953 8.7725 19.58 8.71444 19.5648C8.635 19.5434 8.55555 19.5189 8.47611 19.4945C8.40583 19.4731 8.3325 19.4517 8.25916 19.4273C8.18681 19.406 8.11544 19.3816 8.04527 19.3539L7.87111 19.2898C7.8375 19.2806 7.80694 19.2684 7.77333 19.2531C7.49249 19.141 7.21718 19.0156 6.94833 18.8773C6.87805 18.8406 6.81083 18.8039 6.74055 18.7642C6.66111 18.7214 6.58472 18.6786 6.50833 18.6328C6.42277 18.5809 6.33722 18.532 6.25166 18.477C6.22722 18.4617 6.20277 18.4434 6.17833 18.4281C6.05916 18.3517 5.94 18.2692 5.82694 18.1867C5.72916 18.1195 5.63444 18.0461 5.54277 17.9759C5.53389 17.9696 5.5257 17.9625 5.51833 17.9545C5.43583 17.8903 5.35639 17.8261 5.28 17.7589C5.24027 17.7284 5.20055 17.6948 5.16389 17.6611L5.07527 17.5817C5.06916 17.5786 5.06611 17.5756 5.06305 17.5725C5.05389 17.5634 5.04472 17.5542 5.03555 17.5481C5.02944 17.545 5.02639 17.5389 5.02333 17.5359C5.01787 17.5335 5.01351 17.5291 5.01111 17.5236C4.97198 17.4906 4.93426 17.456 4.89805 17.4198C4.85833 17.3831 4.82166 17.3495 4.78805 17.3128C4.78194 17.3067 4.77583 17.3006 4.77277 17.2945C4.74222 17.2639 4.71166 17.2364 4.68111 17.2089C4.63466 17.1625 4.59189 17.1102 4.54666 17.0623L4.54055 17.0561L4.54116 17.0564C4.43911 16.9483 4.33644 16.841 4.23805 16.7261C4.16472 16.6406 4.09139 16.552 4.02111 16.4603C3.09599 15.2821 2.48609 13.8877 2.24889 12.4086C2.17555 11.9503 2.13889 11.4798 2.13889 11C2.13889 9.11475 2.72555 7.36697 3.73389 5.93086C4.70861 4.53142 6.08055 3.42836 7.68472 2.78364C8.70833 2.36503 9.82666 2.13892 11 2.13892C12.1703 2.13892 13.2886 2.36503 14.3092 2.78058C15.0792 3.08614 15.7942 3.50169 16.4389 4.00892C16.61 4.14031 16.7781 4.28086 16.94 4.43058H16.9431C17.105 4.57725 17.2608 4.73003 17.4106 4.88892C17.6397 5.12419 17.8506 5.37169 18.0492 5.63447C18.1133 5.72003 18.1806 5.80864 18.2417 5.89725V5.90031C18.2417 5.90031 18.2417 5.89725 18.2447 5.90031C18.3975 6.11114 18.5411 6.33419 18.6694 6.56336C18.7153 6.63975 18.7581 6.71614 18.8008 6.79558C18.8528 6.89031 18.9017 6.98197 18.9444 7.07669C18.9781 7.14086 19.0086 7.20503 19.0392 7.27225C19.0881 7.37003 19.1308 7.46781 19.1706 7.56558C19.2194 7.67558 19.2622 7.78558 19.3019 7.89864C19.3356 7.98419 19.3661 8.06975 19.3936 8.15836C19.4181 8.22864 19.4425 8.30197 19.4669 8.37836C19.4975 8.47614 19.525 8.57392 19.5525 8.67169C19.5708 8.74197 19.5892 8.80919 19.6044 8.87947C19.6594 9.09642 19.7053 9.31336 19.7389 9.53642C19.7511 9.60058 19.7603 9.66475 19.7694 9.73197C19.7847 9.82975 19.7969 9.93058 19.8061 10.0284C19.8122 10.0711 19.8183 10.1139 19.8214 10.1536C19.8306 10.2606 19.8397 10.3675 19.8428 10.4775C19.8489 10.5234 19.8519 10.5661 19.8519 10.612C19.8581 10.7403 19.8611 10.8686 19.8611 11V11Z" stroke="black" stroke-opacity="0.2" stroke-width="0.666667" stroke-miterlimit="10" stroke-linecap="round" stroke-linejoin="round"/>
<path d="M10.4613 8.57789L8.5803 9.94433C8.42369 10.0581 8.30711 10.2185 8.24728 10.4026C8.18745 10.5867 8.18744 10.7851 8.24725 10.9692L8.96591 13.1802C9.02573 13.3643 9.14229 13.5247 9.29889 13.6385C9.45549 13.7523 9.64409 13.8136 9.83766 13.8136H12.1623C12.356 13.8136 12.5446 13.7524 12.7013 13.6386C12.858 13.5248 12.9746 13.3643 13.0344 13.1802L13.7524 10.9692C13.8122 10.7851 13.8122 10.5867 13.7524 10.4026C13.6926 10.2185 13.576 10.0581 13.4194 9.94433L11.5387 8.57789C11.3821 8.46415 11.1935 8.4029 11 8.4029C10.8065 8.4029 10.6179 8.46415 10.4613 8.57789ZM14.1411 3.11058L11.5714 4.36947C11.3911 4.45503 11.1956 4.49781 11 4.49475C10.8258 4.49169 10.6517 4.45197 10.4867 4.37558L7.85583 3.12281C7.7275 3.06169 7.66027 2.91808 7.68472 2.78364C8.70833 2.36503 9.82666 2.13892 11 2.13892C12.1703 2.13892 13.2886 2.36503 14.3092 2.78058C14.3336 2.91197 14.2694 3.04947 14.1411 3.11058ZM9.3225 19.7023C9.17889 19.6748 9.03527 19.6442 8.89166 19.6075C8.83361 19.5953 8.7725 19.58 8.71444 19.5648C8.635 19.5434 8.55555 19.5189 8.47611 19.4945C8.40583 19.4731 8.3325 19.4517 8.25916 19.4273C8.18681 19.406 8.11544 19.3816 8.04527 19.3539L7.87111 19.2898C7.8375 19.2806 7.80694 19.2684 7.77333 19.2531C7.65416 19.2042 7.535 19.1553 7.41889 19.1034C7.25939 19.0331 7.10325 18.9567 6.94864 18.8769C6.87836 18.8409 6.80961 18.803 6.74055 18.7651C6.66233 18.7223 6.58472 18.678 6.50833 18.6328C6.42191 18.5825 6.33634 18.5308 6.25166 18.4776C6.22661 18.4617 6.20247 18.4446 6.17772 18.4284C5.2208 17.809 4.39211 17.0111 3.73694 16.0784C3.795 15.9745 3.91416 15.9103 4.04555 15.9256L6.89944 16.2739C7.095 16.2984 7.27833 16.3656 7.43722 16.4725C7.58694 16.5734 7.71527 16.7048 7.81 16.8606L8.67166 18.2631L9.34083 19.357C9.40805 19.467 9.39889 19.6045 9.3225 19.7023ZM4.63222 9.58531C4.58829 9.76482 4.50594 9.93266 4.39083 10.0773L2.58805 12.3078C2.5025 12.4117 2.365 12.4484 2.24889 12.4086C2.17555 11.9503 2.13889 11.4798 2.13889 11C2.13889 9.11475 2.72555 7.36697 3.73389 5.93086C3.86222 5.94614 3.97527 6.03781 4.00277 6.17225L4.63833 9.02308C4.68111 9.20947 4.67805 9.40197 4.63222 9.58531ZM18.2478 16.0936V16.0967C16.9522 17.9392 14.9692 19.2653 12.6744 19.7023C12.595 19.6045 12.5858 19.4639 12.6531 19.3509L14.1778 16.8636C14.2759 16.7039 14.4087 16.5683 14.5663 16.4667C14.7239 16.3652 14.9023 16.3003 15.0883 16.277L17.9331 15.9286C18.0675 15.9134 18.1897 15.9836 18.2478 16.0936ZM19.8611 11C19.8611 11.492 19.8214 11.9748 19.7419 12.4453C19.6861 12.4579 19.6279 12.4545 19.5738 12.4356C19.5198 12.4167 19.4722 12.383 19.4364 12.3384L17.8322 10.3523L17.6092 10.0773C17.491 9.93168 17.4075 9.76108 17.3651 9.57841C17.3228 9.39574 17.3226 9.20582 17.3647 9.02308L17.6886 7.57169V7.56864L18.0064 6.13558C18.0308 6.01642 18.1256 5.92475 18.2417 5.90031C18.2417 5.89725 18.2417 5.89725 18.2447 5.90031C18.3975 6.11114 18.5411 6.33419 18.6694 6.56336C18.7153 6.63975 18.7581 6.71614 18.8008 6.79558C18.8528 6.89031 18.9017 6.98197 18.9444 7.07669C18.9781 7.14086 19.0086 7.20503 19.0392 7.27225C19.0881 7.37003 19.1308 7.46781 19.1706 7.56558C19.2194 7.67558 19.2622 7.78558 19.3019 7.89864C19.3356 7.98419 19.3661 8.06975 19.3936 8.15836C19.4181 8.22864 19.4425 8.30197 19.4669 8.37836C19.4975 8.47614 19.525 8.57392 19.5525 8.67169C19.5708 8.74197 19.5892 8.80919 19.6044 8.87947C19.6594 9.09642 19.7053 9.31336 19.7389 9.53642C19.7511 9.60058 19.7603 9.66475 19.7694 9.73197C19.7847 9.82975 19.7969 9.93058 19.8061 10.0284C19.8122 10.0711 19.8183 10.1139 19.8214 10.1536C19.8306 10.2606 19.8397 10.3675 19.8428 10.4775C19.8489 10.5234 19.8519 10.5661 19.8519 10.612C19.8581 10.7403 19.8611 10.8686 19.8611 11Z" fill="#00BB64"/>
<path d="M10.4613 8.57789L8.5803 9.94433C8.42369 10.0581 8.30711 10.2185 8.24728 10.4026C8.18745 10.5867 8.18744 10.7851 8.24725 10.9692L8.96591 13.1802C9.02573 13.3643 9.14229 13.5247 9.29889 13.6385C9.45549 13.7523 9.64409 13.8136 9.83766 13.8136H12.1623C12.356 13.8136 12.5446 13.7524 12.7013 13.6386C12.858 13.5248 12.9746 13.3643 13.0344 13.1802L13.7524 10.9692C13.8122 10.7851 13.8122 10.5867 13.7524 10.4026C13.6926 10.2185 13.576 10.0581 13.4194 9.94433L11.5387 8.57789C11.3821 8.46415 11.1935 8.4029 11 8.4029C10.8065 8.4029 10.6179 8.46415 10.4613 8.57789ZM14.1411 3.11058L11.5714 4.36947C11.3911 4.45503 11.1956 4.49781 11 4.49475C10.8258 4.49169 10.6517 4.45197 10.4867 4.37558L7.85583 3.12281C7.7275 3.06169 7.66027 2.91808 7.68472 2.78364C8.70833 2.36503 9.82666 2.13892 11 2.13892C12.1703 2.13892 13.2886 2.36503 14.3092 2.78058C14.3336 2.91197 14.2694 3.04947 14.1411 3.11058ZM9.3225 19.7023C9.17889 19.6748 9.03527 19.6442 8.89166 19.6075C8.83361 19.5953 8.7725 19.58 8.71444 19.5648C8.635 19.5434 8.55555 19.5189 8.47611 19.4945C8.40583 19.4731 8.3325 19.4517 8.25916 19.4273C8.18681 19.406 8.11544 19.3816 8.04527 19.3539L7.87111 19.2898C7.8375 19.2806 7.80694 19.2684 7.77333 19.2531C7.65416 19.2042 7.535 19.1553 7.41889 19.1034C7.25939 19.0331 7.10325 18.9567 6.94864 18.8769C6.87836 18.8409 6.80961 18.803 6.74055 18.7651C6.66233 18.7223 6.58472 18.678 6.50833 18.6328C6.42191 18.5825 6.33634 18.5308 6.25166 18.4776C6.22661 18.4617 6.20247 18.4446 6.17772 18.4284C5.2208 17.809 4.39211 17.0111 3.73694 16.0784C3.795 15.9745 3.91416 15.9103 4.04555 15.9256L6.89944 16.2739C7.095 16.2984 7.27833 16.3656 7.43722 16.4725C7.58694 16.5734 7.71527 16.7048 7.81 16.8606L8.67166 18.2631L9.34083 19.357C9.40805 19.467 9.39889 19.6045 9.3225 19.7023ZM4.63222 9.58531C4.58829 9.76482 4.50594 9.93266 4.39083 10.0773L2.58805 12.3078C2.5025 12.4117 2.365 12.4484 2.24889 12.4086C2.17555 11.9503 2.13889 11.4798 2.13889 11C2.13889 9.11475 2.72555 7.36697 3.73389 5.93086C3.86222 5.94614 3.97527 6.03781 4.00277 6.17225L4.63833 9.02308C4.68111 9.20947 4.67805 9.40197 4.63222 9.58531ZM18.2478 16.0936V16.0967C16.9522 17.9392 14.9692 19.2653 12.6744 19.7023C12.595 19.6045 12.5858 19.4639 12.6531 19.3509L14.1778 16.8636C14.2759 16.7039 14.4087 16.5683 14.5663 16.4667C14.7239 16.3652 14.9023 16.3003 15.0883 16.277L17.9331 15.9286C18.0675 15.9134 18.1897 15.9836 18.2478 16.0936ZM19.8611 11C19.8611 11.492 19.8214 11.9748 19.7419 12.4453C19.6861 12.4579 19.6279 12.4545 19.5738 12.4356C19.5198 12.4167 19.4722 12.383 19.4364 12.3384L17.8322 10.3523L17.6092 10.0773C17.491 9.93168 17.4075 9.76108 17.3651 9.57841C17.3228 9.39574 17.3226 9.20582 17.3647 9.02308L17.6886 7.57169V7.56864L18.0064 6.13558C18.0308 6.01642 18.1256 5.92475 18.2417 5.90031C18.2417 5.89725 18.2417 5.89725 18.2447 5.90031C18.3975 6.11114 18.5411 6.33419 18.6694 6.56336C18.7153 6.63975 18.7581 6.71614 18.8008 6.79558C18.8528 6.89031 18.9017 6.98197 18.9444 7.07669C18.9781 7.14086 19.0086 7.20503 19.0392 7.27225C19.0881 7.37003 19.1308 7.46781 19.1706 7.56558C19.2194 7.67558 19.2622 7.78558 19.3019 7.89864C19.3356 7.98419 19.3661 8.06975 19.3936 8.15836C19.4181 8.22864 19.4425 8.30197 19.4669 8.37836C19.4975 8.47614 19.525 8.57392 19.5525 8.67169C19.5708 8.74197 19.5892 8.80919 19.6044 8.87947C19.6594 9.09642 19.7053 9.31336 19.7389 9.53642C19.7511 9.60058 19.7603 9.66475 19.7694 9.73197C19.7847 9.82975 19.7969 9.93058 19.8061 10.0284C19.8122 10.0711 19.8183 10.1139 19.8214 10.1536C19.8306 10.2606 19.8397 10.3675 19.8428 10.4775C19.8489 10.5234 19.8519 10.5661 19.8519 10.612C19.8581 10.7403 19.8611 10.8686 19.8611 11Z" fill="black" fill-opacity="0.2"/>
<path d="M11 4.49536V8.40281M13.7466 10.3859L17.3595 9.57217M12.7084 13.633L14.5561 16.4734M9.28706 13.6296L7.43815 16.4734M8.25031 10.3947L4.63345 9.58622" stroke="#00BB64" stroke-width="0.666667" stroke-miterlimit="10" stroke-linecap="round" stroke-linejoin="round"/>
<path d="M11 4.49536V8.40281M13.7466 10.3859L17.3595 9.57217M12.7084 13.633L14.5561 16.4734M9.28706 13.6296L7.43815 16.4734M8.25031 10.3947L4.63345 9.58622" stroke="black" stroke-opacity="0.2" stroke-width="0.666667" stroke-miterlimit="10" stroke-linecap="round" stroke-linejoin="round"/>
</svg>
