<svg width="38" height="40" viewBox="0 0 38 40" fill="none" xmlns="http://www.w3.org/2000/svg">
<path d="M1.23416 26.2082H14.7006C14.9611 26.2093 15.1997 26.0626 15.3164 25.8296C15.8591 24.7428 17.3852 21.692 17.3852 21.692C17.4932 21.4782 17.4826 21.2236 17.357 21.0196C17.2314 20.8155 17.0089 20.6913 16.7694 20.6914H3.30289C3.04174 20.6916 2.80309 20.8391 2.68638 21.0728L0.617656 25.2104C0.510868 25.4241 0.522273 25.6778 0.647887 25.8811C0.773423 26.0843 0.995201 26.2081 1.23416 26.2082Z" fill="#4680FB"/>
<path d="M3.83025 40.0009H18.3117V22.9238L16.3609 26.8297C16.1277 27.2968 15.6493 27.5909 15.1272 27.5882H3.14062V39.3113C3.14062 39.6922 3.44935 40.0009 3.83025 40.0009Z" fill="#4680FB"/>
<path d="M34.8625 39.3113V27.5882H22.876C22.3529 27.5903 21.8742 27.2944 21.6422 26.8255L19.6914 22.9238V40.0009H34.1729C34.5538 40.0008 34.8625 39.6921 34.8625 39.3113Z" fill="#4680FB"/>
<path d="M34.6986 20.6914H21.2322C20.9933 20.6916 20.7714 20.8153 20.6459 21.0186C20.5204 21.2218 20.5089 21.4756 20.6157 21.6893L22.6845 25.8269C22.8012 26.0605 23.0398 26.2081 23.301 26.2083H36.7674C37.0063 26.2081 37.2281 26.0844 37.3537 25.8811C37.4792 25.6778 37.4907 25.4241 37.3839 25.2104L35.3151 21.0728C35.1983 20.8391 34.9596 20.6916 34.6986 20.6914Z" fill="#4680FB"/>
<path d="M13.4294 15.7436C13.3301 16.2054 13.5048 16.6831 13.8784 16.972C14.2521 17.2609 14.7584 17.3096 15.1803 17.0973L18.4434 15.3126C18.7903 15.1216 19.2109 15.1216 19.5578 15.3126L22.8209 17.0959C23.2428 17.3082 23.7491 17.2595 24.1227 16.9706C24.4964 16.6817 24.6711 16.2039 24.5718 15.7422L23.9574 12.0184C23.887 11.6034 24.0187 11.1798 24.3118 10.8778L26.9019 8.25246C27.2385 7.91343 27.3614 7.41675 27.2218 6.95984C27.0823 6.50293 26.7029 6.15968 26.2344 6.06648L22.6237 5.52036C22.224 5.45638 21.8823 5.19789 21.712 4.83073L20.0839 1.39861C19.8941 0.969898 19.4694 0.693359 19.0005 0.693359C18.5317 0.693359 18.1069 0.969819 17.9172 1.39861L16.2891 4.83073C16.1188 5.19789 15.7771 5.4563 15.3774 5.52036L11.7667 6.06586C11.2982 6.15905 10.9188 6.5023 10.7792 6.95921C10.6397 7.41613 10.7627 7.9128 11.0992 8.25184L13.6907 10.8778C13.9839 11.1798 14.1155 11.6034 14.0451 12.0184L13.4294 15.7436Z" fill="#4680FB" fill-opacity="0.4"/>
<path d="M3.24337 14.0616C3.38992 14.2124 3.4557 14.4239 3.42062 14.6312L3.11307 16.4931C3.06378 16.7239 3.15127 16.9626 3.33813 17.1069C3.52491 17.2511 3.77794 17.2755 3.98885 17.1696L5.62316 16.2787C5.79666 16.1834 6.0068 16.1834 6.18038 16.2787L7.81196 17.1703C8.02288 17.2763 8.2759 17.2519 8.46268 17.1076C8.64946 16.9634 8.73695 16.7247 8.68774 16.4939L8.38019 14.632C8.34503 14.4248 8.41089 14.2131 8.55744 14.0624L9.85248 12.7522C10.021 12.5827 10.0826 12.3343 10.0129 12.1057C9.9431 11.8772 9.75319 11.7055 9.51876 11.6591L7.71337 11.3833C7.51355 11.3514 7.3427 11.2221 7.25755 11.0385L6.4438 9.32411C6.34912 9.10928 6.13648 8.9707 5.90181 8.9707C5.66707 8.9707 5.45451 9.10928 5.35983 9.32411L4.54334 11.0378C4.45819 11.2214 4.28734 11.3507 4.08752 11.3826L2.28213 11.6584C2.0477 11.7048 1.85779 11.8765 1.78803 12.105C1.71827 12.3336 1.77983 12.582 1.94841 12.7515L3.24337 14.0616Z" fill="#4680FB" fill-opacity="0.4"/>
<path d="M31.5602 9.32216L30.7465 11.0379C30.6613 11.2214 30.4905 11.3507 30.2906 11.3827L28.4853 11.6585C28.2508 11.7049 28.0609 11.8765 27.9912 12.1051C27.9214 12.3337 27.983 12.5821 28.1515 12.7515L29.4466 14.0617C29.5931 14.2125 29.6589 14.4241 29.6238 14.6314L29.3163 16.4932C29.267 16.7241 29.3545 16.9627 29.5413 17.107C29.7281 17.2513 29.9811 17.2757 30.1921 17.1697L31.8264 16.2788C31.9999 16.1836 32.21 16.1836 32.3836 16.2788L34.0152 17.1705C34.2261 17.2765 34.4791 17.2521 34.6659 17.1078C34.8527 16.9635 34.9402 16.7249 34.8909 16.494L34.5834 14.6322C34.5482 14.4249 34.6141 14.2133 34.7606 14.0625L36.0557 12.7523C36.2242 12.5829 36.2858 12.3345 36.2161 12.1059C36.1463 11.8773 35.9564 11.7057 35.722 11.6593L33.9166 11.3835C33.7167 11.3515 33.5459 11.2223 33.4608 11.0386L32.647 9.32434C32.5535 9.10772 32.3402 8.96719 32.1043 8.9668C31.8683 8.96625 31.6546 9.10593 31.5602 9.32216Z" fill="#4680FB" fill-opacity="0.4"/>
</svg>
