<svg width="40" height="40" viewBox="0 0 40 40" fill="none" xmlns="http://www.w3.org/2000/svg">
<g clip-path="url(#clip0_3343_45708)">
<path d="M18.0569 22.4187V23.8474C15.8524 23.8502 13.7324 22.9977 12.1436 21.4692V29.7301H35.7175C36.901 29.7301 37.8606 28.7705 37.8606 27.587V20.4434H13.1359C14.4593 21.7127 16.2229 22.4208 18.0569 22.4187ZM32.86 25.4439H34.2888V26.8726H32.86V25.4439ZM30.0026 25.4439H31.4313V26.8726H30.0026V25.4439ZM27.1452 25.4439H28.5739V26.8726H27.1452V25.4439ZM24.2877 25.4439H25.7164V26.8726H24.2877V25.4439Z" fill="#5034C4"/>
<path d="M7.33342 14.0137C6.55627 14.0217 5.89284 14.5763 5.74703 15.3395C5.60088 16.1027 6.01352 16.8628 6.73242 17.1568L10.246 18.5677L8.83853 15.035C8.59471 14.4176 7.99755 14.0123 7.33342 14.0137Z" fill="#5034C4"/>
<path d="M30.5333 35.9721C30.9878 36.1898 31.51 36.2173 31.9843 36.0485C32.4591 35.88 32.8466 35.5291 33.0615 35.0736L34.9262 31.1582H20.5029L30.5333 35.9721Z" fill="#5034C4" fill-opacity="0.4"/>
<path d="M2.14355 11.8716V19.0152H7.51976L6.20335 18.4864C4.90682 17.973 4.122 16.6472 4.29571 15.2634C4.46942 13.8797 5.557 12.789 6.94003 12.6114C8.32341 12.4339 9.65133 13.2149 10.1686 14.5096L10.7159 15.8833V9.72852H4.28664C3.10313 9.72852 2.14355 10.6881 2.14355 11.8716Z" fill="#5034C4"/>
<path d="M9.46876 4.19927C9.01461 3.98161 8.49245 3.95441 8.01806 4.12288C7.54333 4.2917 7.15581 4.64261 6.94059 5.09815L5.41699 8.29918H18.0118L9.46876 4.19927Z" fill="#5034C4" fill-opacity="0.4"/>
<path d="M5.001 22.4187C6.83504 22.4208 8.59862 21.7127 9.92236 20.4434H2.14355V27.587C2.14355 28.7705 3.10313 29.7301 4.28664 29.7301H10.7159V21.6506C9.14939 23.0664 7.11235 23.8495 5.001 23.8474V22.4187Z" fill="#5034C4"/>
<path d="M0.712455 21.6039V18.1855L0.185055 19.2944C-0.19445 20.0932 0.023556 21.0486 0.712455 21.6039Z" fill="#5034C4" fill-opacity="0.4"/>
<path d="M39.291 18.5703V21.9879L39.8181 20.8798C40.1979 20.0807 39.9799 19.1256 39.291 18.5703Z" fill="#5034C4" fill-opacity="0.4"/>
<path d="M35.7175 9.72852H12.1436V16.3821L12.8893 14.5096C13.4101 13.2225 14.7342 12.4492 16.1109 12.6275C17.488 12.8061 18.5711 13.8912 18.7469 15.2687C18.9223 16.6458 18.1466 17.9681 16.8584 18.4864L15.5382 19.0152H37.8606V11.8716C37.8606 10.6881 36.901 9.72852 35.7175 9.72852ZM25.7164 14.729H24.2877V11.8716H25.7164V14.729ZM28.5739 14.729H27.1452V11.8716H28.5739V14.729ZM31.4313 14.729H30.0026V11.8716H31.4313V14.729ZM34.2888 14.729H32.86V11.8716H34.2888V14.729Z" fill="#5034C4"/>
<path d="M17.3398 15.6445C17.345 14.8649 16.7939 14.1921 16.0282 14.0435C15.2626 13.8949 14.4998 14.3131 14.213 15.0383L12.8066 18.5707L16.3199 17.157C16.9379 16.91 17.3422 16.3104 17.3398 15.6445Z" fill="#5034C4"/>
</g>
<defs>
<clipPath id="clip0_3343_45708">
<rect width="40" height="40" fill="white"/>
</clipPath>
</defs>
</svg>
