<svg width="334" height="206" viewBox="0 0 334 206" fill="none" xmlns="http://www.w3.org/2000/svg">
<g filter="url(#filter0_d_1_3)">
<g clip-path="url(#clip0_1_3)">
<rect width="334" height="206" rx="16" fill="#8365DC"/>
<g opacity="0.2">
<path opacity="0.2" d="M351.711 104.129C352.499 -2.24093 270.308 -89.1989 168.131 -90.0967C65.9538 -90.9945 -17.516 -5.49222 -18.3044 100.878C-19.0928 207.248 63.0988 294.206 165.276 295.104C267.453 296.002 350.923 210.5 351.711 104.129Z" stroke="white" stroke-width="0.5"/>
</g>
<g opacity="0.2">
<path opacity="0.2" d="M346.477 104.083C347.243 0.722275 267.377 -83.7757 168.09 -84.6482C68.8039 -85.5206 -12.3048 -2.43704 -13.0708 100.924C-13.8369 204.285 66.0297 288.783 165.316 289.656C264.603 290.528 345.711 207.445 346.477 104.083Z" stroke="white" stroke-width="0.5"/>
</g>
<g opacity="0.2">
<path opacity="0.2" d="M341.244 104.037C341.988 3.68519 264.446 -78.3529 168.05 -79.1999C71.6539 -80.047 -7.09346 0.617849 -7.83724 100.97C-8.58101 201.322 68.9605 283.36 165.357 284.207C261.753 285.054 340.5 204.389 341.244 104.037Z" stroke="white" stroke-width="0.5"/>
</g>
<g opacity="0.2">
<path opacity="0.2" d="M336.01 103.991C336.732 6.64838 261.515 -72.9298 168.01 -73.7514C74.504 -74.573 -1.88216 3.67301 -2.60363 101.016C-3.3251 198.359 71.8913 277.937 165.397 278.759C258.903 279.581 335.289 201.334 336.01 103.991Z" stroke="white" stroke-width="0.5"/>
</g>
<g opacity="0.2">
<path opacity="0.2" d="M330.777 103.945C331.476 9.6114 258.584 -67.5069 167.969 -68.3031C77.354 -69.0993 3.32913 6.72801 2.62996 101.062C1.93079 195.396 74.8221 272.514 165.437 273.31C256.052 274.107 330.077 198.279 330.777 103.945Z" stroke="white" stroke-width="0.5"/>
</g>
<g opacity="0.2">
<path opacity="0.2" d="M325.543 103.899C326.22 12.5746 255.654 -62.0838 167.929 -62.8546C80.2041 -63.6255 8.54043 9.78315 7.86356 101.108C7.1867 192.433 77.7529 267.091 165.478 267.862C253.202 268.633 324.866 195.224 325.543 103.899Z" stroke="white" stroke-width="0.5"/>
</g>
<g opacity="0.2">
<path opacity="0.2" d="M320.309 103.853C320.964 15.5375 252.723 -56.661 167.888 -57.4064C83.0542 -58.1518 13.7517 12.838 13.0972 101.154C12.4426 189.47 80.6838 261.668 165.518 262.414C250.352 263.159 319.655 192.169 320.309 103.853Z" stroke="white" stroke-width="0.5"/>
</g>
<g opacity="0.2">
<path opacity="0.2" d="M315.076 103.807C315.708 18.5006 249.792 -51.2379 167.848 -51.9579C85.9042 -52.678 18.963 15.8932 18.3308 101.2C17.6985 186.507 83.6146 256.245 165.558 256.965C247.502 257.685 314.444 189.114 315.076 103.807Z" stroke="white" stroke-width="0.5"/>
</g>
<g opacity="0.2">
<path opacity="0.2" d="M309.842 103.761C310.452 21.4636 246.861 -45.815 167.808 -46.5096C88.7543 -47.2043 24.1743 18.9482 23.5643 101.246C22.9544 183.544 86.5454 250.822 165.599 251.517C244.652 252.212 309.232 186.059 309.842 103.761Z" stroke="white" stroke-width="0.5"/>
</g>
<g opacity="0.2">
<path opacity="0.2" d="M304.609 103.715C305.196 24.4268 243.93 -40.392 167.767 -41.0612C91.6043 -41.7304 29.3856 22.0033 28.798 101.292C28.2103 180.581 89.4762 245.399 165.639 246.069C241.802 246.738 304.021 183.004 304.609 103.715Z" stroke="white" stroke-width="0.5"/>
</g>
<g opacity="0.2">
<path opacity="0.2" d="M299.375 103.669C299.94 27.3898 240.999 -34.969 167.727 -35.6128C94.4544 -36.2567 34.5969 25.0582 34.0315 101.338C33.4662 177.617 92.407 239.976 165.68 240.62C238.952 241.264 298.81 179.949 299.375 103.669Z" stroke="white" stroke-width="0.5"/>
</g>
<g opacity="0.2">
<path opacity="0.2" d="M294.141 103.623C294.684 30.3527 238.069 -29.5462 167.687 -30.1646C97.3044 -30.783 39.8082 28.1132 39.2651 101.384C38.7221 174.654 95.3379 234.553 165.72 235.172C236.102 235.79 293.598 176.894 294.141 103.623Z" stroke="white" stroke-width="0.5"/>
</g>
<g opacity="0.2">
<path opacity="0.2" d="M288.908 103.577C289.429 33.3159 235.138 -24.1231 167.646 -24.7161C100.154 -25.3092 45.0195 31.1683 44.4987 101.43C43.978 171.691 98.2687 229.13 165.76 229.723C233.252 230.316 288.387 173.839 288.908 103.577Z" stroke="white" stroke-width="0.5"/>
</g>
<g opacity="0.2">
<path opacity="0.2" d="M283.674 103.532C284.173 36.2791 232.207 -18.6999 167.606 -19.2676C103.005 -19.8352 50.2308 34.2235 49.7324 101.476C49.2339 168.728 101.2 223.707 165.801 224.275C230.402 224.843 283.176 170.784 283.674 103.532Z" stroke="white" stroke-width="0.5"/>
</g>
<g opacity="0.2">
<path opacity="0.2" d="M278.441 103.485C278.917 39.242 229.276 -13.2771 167.565 -13.8194C105.855 -14.3616 55.4421 37.2784 54.966 101.522C54.4898 165.765 104.13 218.284 165.841 218.827C227.552 219.369 277.964 167.729 278.441 103.485Z" stroke="white" stroke-width="0.5"/>
</g>
<g opacity="0.2">
<path opacity="0.2" d="M273.207 103.44C273.661 42.2052 226.345 -7.85407 167.525 -8.37092C108.705 -8.88777 60.6534 40.3335 60.1995 101.568C59.7457 162.802 107.061 212.861 165.882 213.378C224.702 213.895 272.753 164.674 273.207 103.44Z" stroke="white" stroke-width="0.5"/>
</g>
<g opacity="0.2">
<path opacity="0.2" d="M266.927 103.384C267.354 45.7607 222.828 -1.34659 167.477 -1.83296C112.125 -2.31933 66.9069 43.9994 66.4799 101.623C66.0528 159.246 110.578 206.354 165.93 206.84C221.282 207.326 266.5 161.008 266.927 103.384Z" stroke="white" stroke-width="0.5"/>
</g>
<g opacity="0.2">
<path opacity="0.2" d="M261.693 103.338C262.098 48.7239 219.898 4.07644 167.436 3.61547C114.975 3.15449 72.1183 47.0545 71.7135 101.669C71.3087 156.283 113.509 200.931 165.97 201.392C218.432 201.853 261.288 157.953 261.693 103.338Z" stroke="white" stroke-width="0.5"/>
</g>
<g opacity="0.2">
<path opacity="0.2" d="M256.459 103.292C256.842 51.6871 216.967 9.49962 167.396 9.06404C117.825 8.62847 77.3295 50.1098 76.9471 101.715C76.5646 153.32 116.44 195.508 166.011 195.944C215.582 196.379 256.077 154.898 256.459 103.292Z" stroke="white" stroke-width="0.5"/>
</g>
<g opacity="0.2">
<path opacity="0.2" d="M251.226 103.246C251.586 54.6498 214.036 14.9222 167.355 14.512C120.675 14.1019 82.5409 53.1644 82.1807 101.761C81.8205 150.357 119.371 190.085 166.051 190.495C212.732 190.905 250.866 151.842 251.226 103.246Z" stroke="white" stroke-width="0.5"/>
</g>
<g opacity="0.2">
<path opacity="0.2" d="M245.992 103.2C246.33 57.6132 211.105 20.3456 167.315 19.9608C123.525 19.576 87.7521 56.2198 87.4143 101.807C87.0764 147.394 122.301 184.662 166.092 185.047C209.882 185.432 245.654 148.788 245.992 103.2Z" stroke="white" stroke-width="0.5"/>
</g>
<g opacity="0.2">
<path opacity="0.2" d="M240.759 103.154C241.074 60.5761 208.174 25.7683 167.275 25.409C126.375 25.0496 92.9634 59.2747 92.6479 101.853C92.3323 144.431 125.232 179.239 166.132 179.598C207.032 179.958 240.443 145.733 240.759 103.154Z" stroke="white" stroke-width="0.5"/>
</g>
<g opacity="0.2">
<path opacity="0.2" d="M235.525 103.108C235.818 63.5393 205.244 31.1915 167.234 30.8575C129.225 30.5235 98.1747 62.3299 97.8815 101.899C97.5882 141.468 128.163 173.816 166.172 174.15C204.182 174.484 235.232 142.678 235.525 103.108Z" stroke="white" stroke-width="0.5"/>
</g>
<g opacity="0.2">
<path opacity="0.2" d="M230.292 103.062C230.562 66.5023 202.313 36.6144 167.194 36.3058C132.075 35.9972 103.386 65.3848 103.115 101.945C102.844 138.505 131.094 168.393 166.213 168.701C201.331 169.01 230.021 139.622 230.292 103.062Z" stroke="white" stroke-width="0.5"/>
</g>
<g opacity="0.2">
<path opacity="0.2" d="M225.058 103.016C225.307 69.4653 199.382 42.0372 167.154 41.7541C134.925 41.4709 108.597 68.4398 108.349 101.991C108.1 135.542 134.025 162.97 166.253 163.253C198.481 163.536 224.809 136.567 225.058 103.016Z" stroke="white" stroke-width="0.5"/>
</g>
<g opacity="0.2">
<path opacity="0.2" d="M219.824 102.97C220.051 72.4285 196.451 47.4603 167.113 47.2025C137.775 46.9448 113.809 71.4949 113.582 102.037C113.356 132.579 136.955 157.547 166.293 157.805C195.631 158.063 219.598 133.512 219.824 102.97Z" stroke="white" stroke-width="0.5"/>
</g>
<g opacity="0.2">
<path opacity="0.2" d="M214.591 102.924C214.795 75.3916 193.52 52.8834 167.073 52.651C140.625 52.4186 119.02 74.55 118.816 102.083C118.612 129.616 139.886 152.124 166.334 152.356C192.781 152.589 214.387 130.457 214.591 102.924Z" stroke="white" stroke-width="0.5"/>
</g>
<g opacity="0.2">
<path d="M209.637 103.154C209.819 78.6301 190.869 58.5818 167.312 58.3748C143.755 58.1678 124.511 77.8805 124.329 102.404C124.147 126.928 143.097 146.976 166.654 147.183C190.211 147.39 209.455 127.678 209.637 103.154Z" stroke="url(#paint0_linear_1_3)" stroke-width="0.5"/>
</g>
<path opacity="0.5" d="M160.005 121.311L160.994 118.016C158.161 116.914 156.068 115.302 154.715 113.18C153.362 111.058 153.066 108.619 153.828 105.864L159.94 107.51C159.658 108.667 159.72 109.763 160.127 110.798C160.564 111.841 161.324 112.678 162.407 113.309L165.118 104.279C164.872 104.12 164.611 103.957 164.335 103.79C164.089 103.632 163.828 103.469 163.552 103.302C161.347 101.845 159.784 100.314 158.863 98.7089C157.972 97.1122 157.839 95.2725 158.464 93.1898C159.171 90.7281 160.607 88.9872 162.772 87.9669C164.946 86.9182 167.441 86.6495 170.256 87.161L171.297 83.6946L174.33 84.5115L173.276 88.0207C175.916 89.009 177.834 90.497 179.032 92.4847C180.268 94.452 180.572 96.6461 179.943 99.067L173.741 97.3966C173.959 96.5611 173.899 95.7278 173.561 94.8968C173.262 94.0454 172.688 93.351 171.838 92.8137L169.448 100.774C169.664 100.924 169.88 101.075 170.096 101.225C170.32 101.348 170.54 101.484 170.756 101.634C172.171 102.571 173.425 103.556 174.517 104.59C175.609 105.624 176.377 106.818 176.819 108.17C177.27 109.494 177.229 111.041 176.698 112.81C176.253 114.293 175.445 115.571 174.275 116.644C173.135 117.724 171.683 118.489 169.917 118.939C168.189 119.368 166.222 119.347 164.015 118.876L163.038 122.128L160.005 121.311ZM164.646 94.4385C164.372 95.3515 164.436 96.1705 164.839 96.8955C165.249 97.592 165.878 98.27 166.724 98.9296L168.856 91.8256C167.869 91.7448 166.984 91.9227 166.2 92.3593C165.447 92.8039 164.929 93.497 164.646 94.4385ZM170.426 111.537C170.768 110.395 170.676 109.399 170.149 108.548C169.621 107.697 168.853 106.888 167.843 106.123L165.402 114.254C166.661 114.408 167.736 114.25 168.627 113.781C169.518 113.312 170.118 112.564 170.426 111.537Z" fill="white"/>
</g>
</g>
<defs>
<filter id="filter0_d_1_3" x="-24" y="-14" width="382" height="254" filterUnits="userSpaceOnUse" color-interpolation-filters="sRGB">
<feFlood flood-opacity="0" result="BackgroundImageFix"/>
<feColorMatrix in="SourceAlpha" type="matrix" values="0 0 0 0 0 0 0 0 0 0 0 0 0 0 0 0 0 0 127 0" result="hardAlpha"/>
<feOffset dy="10"/>
<feGaussianBlur stdDeviation="12"/>
<feComposite in2="hardAlpha" operator="out"/>
<feColorMatrix type="matrix" values="0 0 0 0 0.0666667 0 0 0 0 0.054902 0 0 0 0 0.184314 0 0 0 0.14 0"/>
<feBlend mode="normal" in2="BackgroundImageFix" result="effect1_dropShadow_1_3"/>
<feBlend mode="normal" in="SourceGraphic" in2="effect1_dropShadow_1_3" result="shape"/>
</filter>
<linearGradient id="paint0_linear_1_3" x1="124.329" y1="102.404" x2="209.638" y2="103.037" gradientUnits="userSpaceOnUse">
<stop stop-color="#BEB9BF"/>
<stop offset="1" stop-color="#E0E9EC"/>
</linearGradient>
<clipPath id="clip0_1_3">
<rect width="334" height="206" rx="16" fill="white"/>
</clipPath>
</defs>
</svg>
