<svg width="334" height="206" viewBox="0 0 334 206" fill="none" xmlns="http://www.w3.org/2000/svg">
<g clip-path="url(#clip0_1_104)">
<rect width="334" height="206" rx="16" fill="#227B41"/>
<path d="M199.563 116.059C190.672 133.91 169.076 141.065 151.137 132.128C133.195 123.194 125.895 101.647 134.786 83.7967C143.614 66.0694 165.21 58.9125 183.152 67.8488C201.093 76.7852 208.392 98.3322 199.563 116.059V116.059Z" fill="#FFFFEE" fill-opacity="0.2"/>
<path d="M153.543 114.343L157.568 102.016L155.391 101.306L156.597 97.6127L158.774 98.3234L159.947 94.7303L157.77 94.0196L158.976 90.3267L161.152 91.0374L165.177 78.7109L171.069 80.6347L169.972 93.9169L173.387 95.032L177.412 82.7055L181.577 84.0656L177.553 96.3921L179.692 97.0905L178.486 100.783L176.347 100.085L175.174 103.678L177.313 104.377L176.107 108.07L173.968 107.371L169.943 119.698L164.014 117.762L165.036 104.455L161.734 103.377L157.709 115.703L153.543 114.343ZM162.939 99.6836L165.416 100.492L165.764 96.6296L164.037 96.0659L162.939 99.6836ZM168.432 110.589L168.62 110.65L169.952 106.06L168.939 105.729L168.432 110.589ZM165.168 92.3485L166.219 92.6916L166.695 87.5454L166.545 87.4964L165.168 92.3485ZM169.357 101.779L171.083 102.343L172.181 98.7249L169.667 97.9039L169.357 101.779Z" fill="white" fill-opacity="0.7"/>
<path d="M205.274 63.8166C206.82 60.7134 200.794 54.5718 191.815 50.099C182.836 45.6262 174.304 44.5159 172.758 47.6191C171.212 50.7223 177.238 56.8639 186.217 61.3367C195.196 65.8095 203.728 66.9198 205.274 63.8166Z" fill="white" fill-opacity="0.4"/>
<g opacity="0.2">
<path opacity="0.2" d="M351.708 100.88C352.496 -5.49021 270.305 -92.4482 168.128 -93.346C65.9509 -94.2438 -17.519 -8.7415 -18.3074 97.6287C-19.0958 203.999 63.0959 290.957 165.273 291.855C267.45 292.753 350.92 207.25 351.708 100.88Z" stroke="white" stroke-width="0.5"/>
</g>
<g opacity="0.2">
<path opacity="0.2" d="M346.474 100.834C347.241 -2.52701 267.374 -87.025 168.087 -87.8974C68.801 -88.7699 -12.3077 -5.68632 -13.0737 97.6748C-13.8398 201.036 66.0268 285.534 165.313 286.406C264.6 287.279 345.708 204.195 346.474 100.834Z" stroke="white" stroke-width="0.5"/>
</g>
<g opacity="0.2">
<path opacity="0.2" d="M341.241 100.788C341.985 0.435954 264.443 -81.6022 168.047 -82.4492C71.651 -83.2962 -7.09639 -2.63139 -7.84017 97.7207C-8.58394 198.073 68.9576 280.111 165.354 280.958C261.75 281.805 340.497 201.14 341.241 100.788Z" stroke="white" stroke-width="0.5"/>
</g>
<g opacity="0.2">
<path opacity="0.2" d="M336.007 100.742C336.729 3.3991 261.512 -76.1791 168.007 -77.0007C74.5011 -77.8223 -1.88509 0.423731 -2.60656 97.7668C-3.32803 195.11 71.8884 274.688 165.394 275.51C258.9 276.331 335.286 198.085 336.007 100.742Z" stroke="white" stroke-width="0.5"/>
</g>
<g opacity="0.2">
<path opacity="0.2" d="M330.774 100.696C331.473 6.36215 258.581 -70.7561 167.966 -71.5524C77.3511 -72.3486 3.3262 3.47876 2.62703 97.8127C1.92786 192.147 74.8192 269.265 165.434 270.061C256.05 270.857 330.074 195.03 330.774 100.696Z" stroke="white" stroke-width="0.5"/>
</g>
<g opacity="0.2">
<path opacity="0.2" d="M325.54 100.65C326.217 9.32533 255.651 -65.333 167.926 -66.1039C80.2012 -66.8747 8.5375 6.53391 7.86063 97.8588C7.18377 189.184 77.75 263.842 165.475 264.613C253.199 265.384 324.863 191.975 325.54 100.65Z" stroke="white" stroke-width="0.5"/>
</g>
<g opacity="0.2">
<path opacity="0.2" d="M320.306 100.604C320.961 12.2882 252.72 -59.9102 167.886 -60.6556C83.0512 -61.4011 13.7488 9.5888 13.0942 97.9047C12.4397 186.221 80.6808 258.419 165.515 259.164C250.349 259.91 319.652 188.92 320.306 100.604Z" stroke="white" stroke-width="0.5"/>
</g>
<g opacity="0.2">
<path opacity="0.2" d="M315.073 100.558C315.705 15.2514 249.789 -54.4871 167.845 -55.2072C85.9013 -55.9272 18.9601 12.6439 18.3278 97.9508C17.6956 183.258 83.6117 252.996 165.556 253.716C247.499 254.436 314.441 185.865 315.073 100.558Z" stroke="white" stroke-width="0.5"/>
</g>
<g opacity="0.2">
<path opacity="0.2" d="M309.839 100.512C310.449 18.2144 246.858 -49.0642 167.805 -49.7589C88.7513 -50.4535 24.1714 15.6989 23.5614 97.9966C22.9515 180.294 86.5425 247.573 165.596 248.268C244.649 248.962 309.229 182.81 309.839 100.512Z" stroke="white" stroke-width="0.5"/>
</g>
<g opacity="0.2">
<path opacity="0.2" d="M304.606 100.466C305.193 21.1775 243.927 -43.6412 167.764 -44.3105C91.6014 -44.9797 29.3827 18.754 28.795 98.0427C28.2074 177.331 89.4733 242.15 165.636 242.819C241.799 243.489 304.018 179.755 304.606 100.466Z" stroke="white" stroke-width="0.5"/>
</g>
<g opacity="0.2">
<path opacity="0.2" d="M299.372 100.42C299.937 24.1406 240.997 -38.2182 167.724 -38.8621C94.4514 -39.5059 34.594 21.809 34.0286 98.0886C33.4633 174.368 92.4041 236.727 165.677 237.371C238.949 238.015 298.807 176.7 299.372 100.42Z" stroke="white" stroke-width="0.5"/>
</g>
<g opacity="0.2">
<path opacity="0.2" d="M294.138 100.374C294.682 27.1035 238.066 -32.7954 167.684 -33.4139C97.3015 -34.0323 39.8053 24.8639 39.2622 98.1345C38.7192 171.405 95.3349 231.304 165.717 231.922C236.099 232.541 293.595 173.645 294.138 100.374Z" stroke="white" stroke-width="0.5"/>
</g>
<g opacity="0.2">
<path opacity="0.2" d="M288.905 100.328C289.426 30.0666 235.135 -27.3723 167.643 -27.9654C100.152 -28.5584 45.0166 27.919 44.4958 98.1806C43.9751 168.442 98.2657 225.881 165.757 226.474C233.249 227.067 288.384 170.59 288.905 100.328Z" stroke="white" stroke-width="0.5"/>
</g>
<g opacity="0.2">
<path opacity="0.2" d="M283.671 100.282C284.17 33.0298 232.204 -21.9492 167.603 -22.5169C103.002 -23.0845 50.2279 30.9742 49.7294 98.2267C49.231 165.479 101.197 220.458 165.798 221.026C230.399 221.593 283.173 167.535 283.671 100.282Z" stroke="white" stroke-width="0.5"/>
</g>
<g opacity="0.2">
<path opacity="0.2" d="M278.438 100.236C278.914 35.9928 229.273 -16.5264 167.562 -17.0686C105.852 -17.6109 55.4392 34.0291 54.963 98.2725C54.4869 162.516 104.127 215.035 165.838 215.577C227.549 216.12 277.961 164.48 278.438 100.236Z" stroke="white" stroke-width="0.5"/>
</g>
<g opacity="0.2">
<path opacity="0.2" d="M273.204 100.19C273.658 38.9559 226.343 -11.1033 167.522 -11.6202C108.702 -12.137 60.6505 37.0843 60.1966 98.3186C59.7428 159.553 107.058 209.612 165.879 210.129C224.699 210.646 272.75 161.425 273.204 100.19Z" stroke="white" stroke-width="0.5"/>
</g>
<g opacity="0.2">
<path opacity="0.2" d="M266.924 100.135C267.351 42.5115 222.825 -4.59582 167.474 -5.08219C112.122 -5.56856 66.904 40.7502 66.4769 98.3737C66.0498 155.997 110.575 203.104 165.927 203.591C221.279 204.077 266.497 157.758 266.924 100.135Z" stroke="white" stroke-width="0.5"/>
</g>
<g opacity="0.2">
<path opacity="0.2" d="M261.69 100.089C262.095 45.4746 219.895 0.827195 167.433 0.366221C114.972 -0.0947523 72.1153 43.8053 71.7105 98.4197C71.3058 153.034 113.506 197.682 165.967 198.143C218.429 198.604 261.285 154.703 261.69 100.089Z" stroke="white" stroke-width="0.5"/>
</g>
<g opacity="0.2">
<path opacity="0.2" d="M256.457 100.043C256.839 48.4379 216.964 6.25037 167.393 5.8148C117.822 5.37922 77.3266 46.8605 76.9441 98.4659C76.5616 150.071 116.437 192.259 166.008 192.694C215.579 193.13 256.074 151.649 256.457 100.043Z" stroke="white" stroke-width="0.5"/>
</g>
<g opacity="0.2">
<path opacity="0.2" d="M251.223 99.9969C251.583 51.4006 214.033 11.673 167.353 11.2628C120.672 10.8526 82.5379 49.9152 82.1778 98.5115C81.8176 147.108 119.368 186.835 166.048 187.246C212.729 187.656 250.863 148.593 251.223 99.9969Z" stroke="white" stroke-width="0.5"/>
</g>
<g opacity="0.2">
<path opacity="0.2" d="M245.989 99.9512C246.327 54.364 211.102 17.0963 167.312 16.7115C123.522 16.3267 87.7492 52.9705 87.4113 98.5578C87.0735 144.145 122.298 181.413 166.089 181.797C209.879 182.182 245.652 145.538 245.989 99.9512Z" stroke="white" stroke-width="0.5"/>
</g>
<g opacity="0.2">
<path opacity="0.2" d="M240.756 99.9051C241.071 57.3269 208.171 22.5191 167.272 22.1597C126.372 21.8003 92.9605 56.0255 92.6449 98.6036C92.3294 141.182 125.229 175.99 166.129 176.349C207.029 176.708 240.44 142.483 240.756 99.9051Z" stroke="white" stroke-width="0.5"/>
</g>
<g opacity="0.2">
<path opacity="0.2" d="M235.522 99.8592C235.815 60.2901 205.241 27.9422 167.231 27.6082C129.222 27.2743 98.1718 59.0806 97.8785 98.6497C97.5853 138.219 128.16 170.567 166.169 170.901C204.179 171.235 235.229 139.428 235.522 99.8592Z" stroke="white" stroke-width="0.5"/>
</g>
<g opacity="0.2">
<path opacity="0.2" d="M230.289 99.8131C230.56 63.2531 202.31 33.3651 167.191 33.0566C132.072 32.748 103.383 62.1356 103.112 98.6957C102.841 135.256 131.091 165.144 166.21 165.452C201.329 165.761 230.018 136.373 230.289 99.8131Z" stroke="white" stroke-width="0.5"/>
</g>
<g opacity="0.2">
<path opacity="0.2" d="M225.055 99.767C225.304 66.216 199.379 38.788 167.151 38.5048C134.922 38.2216 108.594 65.1905 108.346 98.7415C108.097 132.293 134.022 159.721 166.25 160.004C198.478 160.287 224.806 133.318 225.055 99.767Z" stroke="white" stroke-width="0.5"/>
</g>
<g opacity="0.2">
<path opacity="0.2" d="M219.821 99.7212C220.048 69.1792 196.448 44.2111 167.11 43.9533C137.772 43.6955 113.806 68.2457 113.579 98.7876C113.353 129.33 136.953 154.298 166.29 154.555C195.628 154.813 219.595 130.263 219.821 99.7212Z" stroke="white" stroke-width="0.5"/>
</g>
<g opacity="0.2">
<path opacity="0.2" d="M214.588 99.6753C214.792 72.1424 193.517 49.6342 167.07 49.4018C140.622 49.1694 119.017 71.3008 118.813 98.8337C118.609 126.367 139.883 148.875 166.331 149.107C192.778 149.34 214.384 127.208 214.588 99.6753Z" stroke="white" stroke-width="0.5"/>
</g>
</g>
<defs>
<clipPath id="clip0_1_104">
<rect width="334" height="206" rx="16" fill="white"/>
</clipPath>
</defs>
</svg>
