<svg width="18" height="18" viewBox="0 0 18 18" fill="none" xmlns="http://www.w3.org/2000/svg">
<path opacity="0.4" d="M1.79736 6.50794V12.4445C1.79736 14.5978 3.0582 15.8516 5.21861 15.8516H12.5357C14.7315 15.8516 15.964 14.5978 15.964 12.4445V6.50794C15.964 4.3199 14.7315 3.10156 12.5357 3.10156H5.21861C3.0582 3.10156 1.79736 4.3199 1.79736 6.50794Z" fill="white"/>
<path d="M3.05851 11.6091L3.05851 11.602L5.17572 11.602C5.48101 11.602 5.72893 11.8499 5.72893 12.1538C5.72893 12.4661 5.48101 12.7141 5.17572 12.7141L3.05851 12.7141C2.75322 12.7141 2.50601 12.4661 2.50601 12.1616C2.50601 11.857 2.75322 11.6091 3.05851 11.6091Z" fill="white" fill-opacity="0.4"/>
<rect x="1.82227" y="8" width="14.14" height="2" fill="white"/>
</svg>
