<svg width="334" height="205" viewBox="0 0 334 205" fill="none" xmlns="http://www.w3.org/2000/svg">
<g clip-path="url(#clip0_3569_46171)">
<g filter="url(#filter0_i_3569_46171)">
<path d="M318 0H16C7.16344 0 0 7.12867 0 15.9223V189.078C0 197.871 7.16344 205 16 205H318C326.837 205 334 197.871 334 189.078V15.9223C334 7.12867 326.837 0 318 0Z" fill="#8365DC"/>
<g opacity="0.2">
<path opacity="0.2" d="M352.021 103.365C352.809 -1.98204 270.618 -88.1039 168.441 -88.9931C66.2639 -89.8822 -17.206 -5.20207 -17.9944 100.145C-18.7828 205.492 63.4089 291.614 165.586 292.504C267.763 293.393 351.233 208.713 352.021 103.365Z" stroke="white" stroke-width="0.5"/>
</g>
<g opacity="0.2">
<path opacity="0.2" d="M346.787 103.322C347.554 0.954722 267.687 -82.7308 168.4 -83.5948C69.114 -84.4588 -11.9947 -2.17417 -12.7607 100.193C-13.5268 202.56 66.3398 286.246 165.626 287.11C264.913 287.974 346.021 205.69 346.787 103.322Z" stroke="white" stroke-width="0.5"/>
</g>
<g opacity="0.2">
<path opacity="0.2" d="M341.554 103.275C342.298 3.88764 264.756 -77.3616 168.36 -78.2005C71.964 -79.0393 -6.78343 0.84984 -7.52723 100.237C-8.27093 199.624 69.2706 280.873 165.667 281.712C262.063 282.551 340.81 202.662 341.554 103.275Z" stroke="white" stroke-width="0.5"/>
</g>
<g opacity="0.2">
<path opacity="0.2" d="M336.32 103.232C337.042 6.82449 261.825 -71.9885 168.32 -72.8022C74.8141 -73.6159 -1.57212 3.87769 -2.29362 100.284C-3.01502 196.691 72.2014 275.504 165.707 276.318C259.213 277.133 335.599 199.639 336.32 103.232Z" stroke="white" stroke-width="0.5"/>
</g>
<g opacity="0.2">
<path opacity="0.2" d="M331.087 103.177C331.786 9.7496 258.894 -66.6271 168.279 -67.4157C77.664 -68.2043 3.63918 6.89392 2.93998 100.32C2.24088 193.747 75.1322 270.125 165.747 270.913C256.363 271.702 330.387 196.604 331.087 103.177Z" stroke="white" stroke-width="0.5"/>
</g>
<g opacity="0.2">
<path opacity="0.2" d="M325.853 103.133C326.53 12.6863 255.964 -61.2541 168.239 -62.0175C80.514 -62.781 8.85049 9.92177 8.17359 100.368C7.49679 190.815 78.063 264.756 165.788 265.52C253.512 266.282 325.176 193.58 325.853 103.133Z" stroke="white" stroke-width="0.5"/>
</g>
<g opacity="0.2">
<path opacity="0.2" d="M320.619 103.09C321.274 15.6232 253.033 -55.881 168.199 -56.6192C83.364 -57.3576 14.0618 12.9497 13.4072 100.416C12.7527 187.883 80.994 259.387 165.828 260.125C250.662 260.864 319.965 190.557 320.619 103.09Z" stroke="white" stroke-width="0.5"/>
</g>
<g opacity="0.2">
<path opacity="0.2" d="M315.386 103.043C316.018 18.5561 250.102 -50.5118 168.158 -51.2249C86.214 -51.9381 19.2731 15.9738 18.6408 100.46C18.0086 184.947 83.925 254.015 165.869 254.728C247.812 255.441 314.754 187.53 315.386 103.043Z" stroke="white" stroke-width="0.5"/>
</g>
<g opacity="0.2">
<path opacity="0.2" d="M310.152 102.999C310.762 21.493 247.171 -45.1387 168.118 -45.8267C89.0639 -46.5147 24.4843 19.0016 23.8743 100.509C23.2644 182.014 86.8549 248.646 165.909 249.335C244.962 250.022 309.542 184.506 310.152 102.999Z" stroke="white" stroke-width="0.5"/>
</g>
<g opacity="0.2">
<path opacity="0.2" d="M304.919 102.952C305.506 24.426 244.24 -39.7695 168.077 -40.4323C91.914 -41.0951 29.6957 22.0258 29.108 100.552C28.5204 179.078 89.786 243.274 165.949 243.936C242.112 244.599 304.331 181.479 304.919 102.952Z" stroke="white" stroke-width="0.5"/>
</g>
<g opacity="0.2">
<path opacity="0.2" d="M299.685 102.909C300.25 27.3628 241.31 -34.3964 168.037 -35.0341C94.764 -35.6717 34.907 25.0536 34.3416 100.6C33.7763 176.146 92.717 237.905 165.99 238.543C239.262 239.181 299.12 178.455 299.685 102.909Z" stroke="white" stroke-width="0.5"/>
</g>
<g opacity="0.2">
<path opacity="0.2" d="M294.451 102.858C294.995 30.2918 238.379 -29.0311 167.997 -29.6437C97.615 -30.2561 40.1183 28.0738 39.5752 100.64C39.0322 173.206 95.648 232.529 166.03 233.142C236.412 233.754 293.908 175.424 294.451 102.858Z" stroke="white" stroke-width="0.5"/>
</g>
<g opacity="0.2">
<path opacity="0.2" d="M289.218 102.818C289.739 33.2325 235.448 -23.6542 167.956 -24.2415C100.465 -24.8289 45.3296 31.1055 44.8088 100.692C44.2881 170.277 98.579 227.164 166.07 227.751C233.562 228.339 288.697 172.405 289.218 102.818Z" stroke="white" stroke-width="0.5"/>
</g>
<g opacity="0.2">
<path opacity="0.2" d="M283.984 102.775C284.483 36.1694 232.517 -18.2811 167.916 -18.8433C103.315 -19.4055 50.5409 34.1334 50.0424 100.74C49.544 167.345 101.51 221.795 166.111 222.358C230.712 222.919 283.486 169.381 283.984 102.775Z" stroke="white" stroke-width="0.5"/>
</g>
<g opacity="0.2">
<path opacity="0.2" d="M278.751 102.728C279.227 39.1022 229.586 -12.9119 167.875 -13.4489C106.165 -13.986 55.7522 37.1575 55.276 100.783C54.7999 164.409 104.44 216.423 166.151 216.96C227.862 217.497 278.274 166.354 278.751 102.728Z" stroke="white" stroke-width="0.5"/>
</g>
<g opacity="0.2">
<path opacity="0.2" d="M273.517 102.684C273.971 42.039 226.656 -7.53881 167.835 -8.05069C109.015 -8.56257 60.9635 40.1854 60.5096 100.831C60.0558 161.476 107.371 211.054 166.192 211.566C225.012 212.078 273.063 163.33 273.517 102.684Z" stroke="white" stroke-width="0.5"/>
</g>
<g opacity="0.2">
<path opacity="0.2" d="M267.237 102.623C267.664 45.5539 223.138 -1.10049 167.787 -1.58218C112.435 -2.06387 67.217 43.8095 66.7899 100.879C66.3628 157.948 110.888 204.602 166.24 205.085C221.592 205.566 266.81 159.692 267.237 102.623Z" stroke="white" stroke-width="0.5"/>
</g>
<g opacity="0.2">
<path opacity="0.2" d="M262.003 102.576C262.408 48.4868 220.208 4.26872 167.746 3.81216C115.285 3.35559 72.4283 46.8336 72.0235 100.923C71.6188 155.012 113.819 199.23 166.28 199.686C218.742 200.143 261.598 156.665 262.003 102.576Z" stroke="white" stroke-width="0.5"/>
</g>
<g opacity="0.2">
<path opacity="0.2" d="M256.77 102.533C257.152 51.4237 217.277 9.64181 167.706 9.2104C118.135 8.77908 77.64 49.8615 77.257 100.971C76.875 152.08 116.75 193.861 166.321 194.293C215.892 194.725 256.387 153.642 256.77 102.533Z" stroke="white" stroke-width="0.5"/>
</g>
<g opacity="0.2">
<path opacity="0.2" d="M251.536 102.486C251.896 54.3566 214.346 15.011 167.666 14.6047C120.985 14.1985 82.851 52.8855 82.491 101.015C82.131 149.144 119.681 188.49 166.361 188.896C213.042 189.302 251.176 150.614 251.536 102.486Z" stroke="white" stroke-width="0.5"/>
</g>
<g opacity="0.2">
<path opacity="0.2" d="M246.302 102.446C246.64 57.2973 211.415 20.388 167.625 20.0069C123.835 19.6258 88.062 55.9172 87.724 101.067C87.386 146.215 122.611 183.124 166.402 183.505C210.192 183.887 245.965 147.595 246.302 102.446Z" stroke="white" stroke-width="0.5"/>
</g>
<g opacity="0.2">
<path opacity="0.2" d="M241.069 102.399C241.384 60.2302 208.484 25.7571 167.585 25.4012C126.685 25.0453 93.2739 58.9413 92.9579 101.11C92.6419 143.279 125.542 177.752 166.442 178.108C207.342 178.463 240.753 144.568 241.069 102.399Z" stroke="white" stroke-width="0.5"/>
</g>
<g opacity="0.2">
<path opacity="0.2" d="M235.835 102.352C236.128 63.1632 205.554 31.1263 167.544 30.7956C129.535 30.4648 98.485 61.9653 98.192 101.154C97.898 140.343 128.473 172.38 166.482 172.711C204.492 173.041 235.542 141.54 235.835 102.352Z" stroke="white" stroke-width="0.5"/>
</g>
<g opacity="0.2">
<path opacity="0.2" d="M230.602 102.308C230.873 66.0999 202.623 36.4994 167.504 36.1938C132.385 35.8882 103.696 64.9932 103.425 101.202C103.154 137.411 131.404 167.011 166.523 167.316C201.642 167.622 230.331 138.517 230.602 102.308Z" stroke="white" stroke-width="0.5"/>
</g>
<g opacity="0.2">
<path opacity="0.2" d="M225.368 102.261C225.617 69.0329 199.692 41.8686 167.464 41.5881C135.235 41.3076 108.907 68.0172 108.659 101.246C108.41 134.474 134.335 161.639 166.563 161.919C198.791 162.199 225.119 135.489 225.368 102.261Z" stroke="white" stroke-width="0.5"/>
</g>
<g opacity="0.2">
<path opacity="0.2" d="M220.134 102.218C220.361 71.9697 196.761 47.2417 167.423 46.9864C138.085 46.731 114.119 71.0452 113.892 101.294C113.666 131.542 137.266 156.27 166.603 156.525C195.941 156.78 219.908 132.466 220.134 102.218Z" stroke="white" stroke-width="0.5"/>
</g>
<g opacity="0.2">
<path opacity="0.2" d="M214.901 102.174C215.105 74.9065 193.83 52.6148 167.383 52.3846C140.935 52.1544 119.33 74.073 119.126 101.341C118.922 128.61 140.196 150.901 166.644 151.131C193.091 151.362 214.697 129.443 214.901 102.174Z" stroke="white" stroke-width="0.5"/>
</g>
<g opacity="0.2">
<path d="M209.618 102.354C209.8 78.066 190.85 58.2105 167.293 58.0055C143.736 57.8005 124.492 77.3237 124.31 101.611C124.129 125.899 143.078 145.756 166.635 145.961C190.192 146.166 209.436 126.642 209.618 102.354Z" stroke="url(#paint0_linear_3569_46171)" stroke-width="0.5"/>
</g>
<path opacity="0.5" d="M160.027 121.665L161.016 118.402C158.182 117.31 156.089 115.713 154.736 113.611C153.383 111.51 153.088 109.095 153.85 106.366L159.961 107.997C159.679 109.143 159.742 110.228 160.149 111.253C160.586 112.286 161.346 113.115 162.429 113.74L165.139 104.797C164.893 104.639 164.632 104.478 164.356 104.312C164.11 104.156 163.849 103.995 163.573 103.829C161.368 102.386 159.805 100.87 158.884 99.2803C157.993 97.6986 157.861 95.8763 158.486 93.8144C159.192 91.376 160.628 89.6518 162.794 88.6416C164.968 87.6028 167.463 87.3366 170.278 87.8432L171.318 84.4102L174.351 85.2192L173.298 88.6951C175.937 89.6736 177.856 91.1472 179.053 93.1161C180.289 95.0642 180.593 97.2371 179.964 99.6348L173.762 97.9799C173.98 97.1529 173.92 96.3279 173.583 95.5049C173.284 94.6611 172.709 93.9738 171.859 93.442L169.47 101.324C169.686 101.474 169.902 101.624 170.117 101.772C170.342 101.893 170.562 102.029 170.777 102.177C172.193 103.105 173.446 104.081 174.539 105.105C175.631 106.129 176.398 107.311 176.84 108.65C177.291 109.962 177.251 111.494 176.72 113.246C176.275 114.714 175.467 115.98 174.297 117.043C173.157 118.112 171.704 118.87 169.938 119.316C168.211 119.741 166.244 119.72 164.036 119.253L163.06 122.474L160.027 121.665ZM164.668 95.0504C164.394 95.9546 164.458 96.7657 164.86 97.4837C165.271 98.174 165.899 98.8455 166.745 99.4982L168.877 92.4625C167.89 92.3832 167.005 92.5595 166.222 92.9913C165.468 93.4321 164.95 94.1184 164.668 95.0504ZM170.447 111.984C170.79 110.854 170.698 109.867 170.17 109.025C169.643 108.181 168.874 107.381 167.864 106.623L165.424 114.676C166.682 114.828 167.757 114.672 168.648 114.207C169.539 113.743 170.139 113.002 170.447 111.984Z" fill="white"/>
<path d="M275.182 187.893H270.073L273.268 169.355H278.378L275.182 187.893Z" fill="white"/>
<path d="M293.704 169.809C292.696 169.434 291.098 169.02 289.121 169.02C284.076 169.02 280.522 171.543 280.501 175.152C280.459 177.814 283.045 179.294 284.979 180.181C286.955 181.088 287.627 181.681 287.627 182.489C287.607 183.731 286.03 184.303 284.559 184.303C282.519 184.303 281.426 184.008 279.765 183.318L279.092 183.021L278.377 187.182C279.576 187.694 281.783 188.149 284.076 188.169C289.437 188.169 292.927 185.684 292.968 181.838C292.989 179.728 291.623 178.111 288.679 176.79C286.892 175.941 285.798 175.37 285.798 174.502C285.819 173.713 286.724 172.905 288.741 172.905C290.402 172.865 291.622 173.24 292.547 173.615L293.009 173.811L293.704 169.809Z" fill="white"/>
<path d="M300.495 181.325C300.915 180.261 302.534 176.139 302.534 176.139C302.513 176.178 302.954 175.054 303.207 174.364L303.564 175.961C303.564 175.961 304.531 180.398 304.741 181.325C303.943 181.325 301.504 181.325 300.495 181.325ZM306.801 169.355H302.849C301.631 169.355 300.705 169.69 300.179 170.894L292.59 187.893H297.951C297.951 187.893 298.833 185.604 299.023 185.112C299.611 185.112 304.826 185.112 305.583 185.112C305.73 185.762 306.193 187.893 306.193 187.893H310.923L306.801 169.355Z" fill="white"/>
<path d="M265.805 169.355L260.802 181.996L260.255 179.432C259.33 176.474 256.428 173.26 253.191 171.662L257.774 187.873H263.177L271.208 169.355H265.805Z" fill="white"/>
<path d="M256.155 169.355H247.935L247.851 169.73C254.263 171.268 258.51 174.976 260.255 179.433L258.468 170.913C258.174 169.73 257.269 169.394 256.155 169.355Z" fill="white"/>
</g>
</g>
<defs>
<filter id="filter0_i_3569_46171" x="-18.25" y="-89.25" width="370.527" height="392.012" filterUnits="userSpaceOnUse" color-interpolation-filters="sRGB">
<feFlood flood-opacity="0" result="BackgroundImageFix"/>
<feBlend mode="normal" in="SourceGraphic" in2="BackgroundImageFix" result="shape"/>
<feColorMatrix in="SourceAlpha" type="matrix" values="0 0 0 0 0 0 0 0 0 0 0 0 0 0 0 0 0 0 127 0" result="hardAlpha"/>
<feOffset dy="10"/>
<feGaussianBlur stdDeviation="12"/>
<feComposite in2="hardAlpha" operator="arithmetic" k2="-1" k3="1"/>
<feColorMatrix type="matrix" values="0 0 0 0 0.0666667 0 0 0 0 0.054902 0 0 0 0 0.184314 0 0 0 0.14 0"/>
<feBlend mode="normal" in2="shape" result="effect1_innerShadow_3569_46171"/>
</filter>
<linearGradient id="paint0_linear_3569_46171" x1="124.31" y1="101.611" x2="209.619" y2="102.25" gradientUnits="userSpaceOnUse">
<stop stop-color="#BEB9BF"/>
<stop offset="1" stop-color="#E0E9EC"/>
</linearGradient>
<clipPath id="clip0_3569_46171">
<rect width="334" height="205" rx="16" fill="white"/>
</clipPath>
</defs>
</svg>
