<svg width="382" height="254" viewBox="0 0 382 254" fill="none" xmlns="http://www.w3.org/2000/svg">
<g filter="url(#filter0_d_3596_45558)">
<g clip-path="url(#clip0_3596_45558)">
<rect x="24" y="14" width="334" height="206" rx="16" fill="#8365DC"/>
<g opacity="0.2">
<path opacity="0.2" d="M375.708 114.881C376.496 8.51119 294.305 -78.4468 192.128 -79.3446C89.9509 -80.2424 6.481 5.2599 5.69262 111.63C4.90424 218 87.0959 304.958 189.273 305.856C291.45 306.754 374.92 221.252 375.708 114.881Z" stroke="white" stroke-width="0.5"/>
</g>
<g opacity="0.2">
<path opacity="0.2" d="M370.474 114.835C371.241 11.4743 291.374 -73.0237 192.087 -73.8961C92.801 -74.7685 11.6923 8.31502 10.9263 111.676C10.1602 215.037 90.0268 299.535 189.313 300.408C288.6 301.28 369.708 218.197 370.474 114.835Z" stroke="white" stroke-width="0.5"/>
</g>
<g opacity="0.2">
<path opacity="0.2" d="M365.241 114.79C365.985 14.4374 288.443 -67.6007 192.047 -68.4477C95.651 -69.2947 16.9036 11.3701 16.1599 111.722C15.4161 212.074 92.9576 294.112 189.354 294.959C285.75 295.806 364.497 215.142 365.241 114.79Z" stroke="white" stroke-width="0.5"/>
</g>
<g opacity="0.2">
<path opacity="0.2" d="M360.007 114.744C360.729 17.4006 285.512 -62.1776 192.007 -62.9992C98.5011 -63.8208 22.1149 14.4252 21.3934 111.768C20.672 209.111 95.8884 288.689 189.394 289.511C282.9 290.333 359.286 212.087 360.007 114.744Z" stroke="white" stroke-width="0.5"/>
</g>
<g opacity="0.2">
<path opacity="0.2" d="M354.774 114.694C355.473 20.3598 282.581 -56.7584 191.966 -57.5547C101.351 -58.3509 27.3262 17.4764 26.627 111.81C25.9279 206.144 98.8192 283.263 189.434 284.059C280.05 284.855 354.074 209.028 354.774 114.694Z" stroke="white" stroke-width="0.5"/>
</g>
<g opacity="0.2">
<path opacity="0.2" d="M349.54 114.648C350.217 23.3229 279.651 -51.3354 191.926 -52.1062C104.201 -52.8771 32.5375 20.5315 31.8606 111.856C31.1838 203.181 101.75 277.84 189.475 278.611C277.199 279.381 348.863 205.973 349.54 114.648Z" stroke="white" stroke-width="0.5"/>
</g>
<g opacity="0.2">
<path opacity="0.2" d="M344.306 114.602C344.961 26.286 276.72 -45.9124 191.886 -46.6578C107.051 -47.4033 37.7488 23.5866 37.0943 111.902C36.4397 200.218 104.681 272.417 189.515 273.162C274.349 273.908 343.652 202.918 344.306 114.602Z" stroke="white" stroke-width="0.5"/>
</g>
<g opacity="0.2">
<path opacity="0.2" d="M339.073 114.556C339.705 29.2491 273.789 -40.4894 191.845 -41.2094C109.901 -41.9295 42.9601 26.6417 42.3278 111.948C41.6956 197.255 107.612 266.994 189.556 267.714C271.499 268.434 338.441 199.863 339.073 114.556Z" stroke="white" stroke-width="0.5"/>
</g>
<g opacity="0.2">
<path opacity="0.2" d="M333.839 114.51C334.449 32.2123 270.858 -35.0663 191.805 -35.7609C112.751 -36.4556 48.1714 29.6968 47.5614 111.995C46.9515 194.292 110.542 261.571 189.596 262.266C268.649 262.96 333.229 196.808 333.839 114.51Z" stroke="white" stroke-width="0.5"/>
</g>
<g opacity="0.2">
<path opacity="0.2" d="M328.606 114.464C329.193 35.1754 267.927 -29.6433 191.764 -30.3126C115.601 -30.9818 53.3827 32.7519 52.795 112.041C52.2074 191.329 113.473 256.148 189.636 256.817C265.799 257.486 328.018 193.753 328.606 114.464Z" stroke="white" stroke-width="0.5"/>
</g>
<g opacity="0.2">
<path opacity="0.2" d="M323.372 114.418C323.937 38.1386 264.997 -24.2202 191.724 -24.8641C118.451 -25.5079 58.594 35.807 58.0286 112.087C57.4633 188.366 116.404 250.725 189.677 251.369C262.949 252.013 322.807 190.698 323.372 114.418Z" stroke="white" stroke-width="0.5"/>
</g>
<g opacity="0.2">
<path opacity="0.2" d="M318.138 114.372C318.682 41.1017 262.066 -18.7972 191.684 -19.4157C121.302 -20.0341 63.8053 38.8621 63.2622 112.133C62.7192 185.403 119.335 245.302 189.717 245.921C260.099 246.539 317.595 187.643 318.138 114.372Z" stroke="white" stroke-width="0.5"/>
</g>
<g opacity="0.2">
<path opacity="0.2" d="M312.905 114.33C313.426 44.0687 259.135 -13.3703 191.643 -13.9633C124.152 -14.5564 69.0166 41.9211 68.4958 112.183C67.9751 182.444 122.266 239.883 189.757 240.476C257.249 241.069 312.384 184.592 312.905 114.33Z" stroke="white" stroke-width="0.5"/>
</g>
<g opacity="0.2">
<path opacity="0.2" d="M307.671 114.284C308.17 47.0319 256.204 -7.94719 191.603 -8.51484C127.002 -9.08248 74.2279 44.9762 73.7295 112.229C73.231 179.481 125.197 234.46 189.798 235.028C254.399 235.595 307.173 181.537 307.671 114.284Z" stroke="white" stroke-width="0.5"/>
</g>
<g opacity="0.2">
<path opacity="0.2" d="M302.438 114.238C302.914 49.9949 253.273 -2.52421 191.562 -3.06646C129.852 -3.60871 79.4392 48.0313 78.963 112.275C78.4869 176.518 128.127 229.037 189.838 229.579C251.549 230.122 301.962 178.482 302.438 114.238Z" stroke="white" stroke-width="0.5"/>
</g>
<g opacity="0.2">
<path opacity="0.2" d="M297.204 114.192C297.658 52.958 250.342 2.8988 191.522 2.38195C132.702 1.8651 84.6505 51.0864 84.1966 112.321C83.7428 173.555 131.058 223.614 189.879 224.131C248.699 224.648 296.75 175.427 297.204 114.192Z" stroke="white" stroke-width="0.5"/>
</g>
<g opacity="0.2">
<path opacity="0.2" d="M290.924 114.132C291.351 56.5083 246.825 9.40101 191.474 8.91464C136.122 8.42827 90.904 54.747 90.4769 112.371C90.0498 169.994 134.575 217.101 189.927 217.588C245.279 218.074 290.497 171.755 290.924 114.132Z" stroke="white" stroke-width="0.5"/>
</g>
<g opacity="0.2">
<path opacity="0.2" d="M285.69 114.086C286.095 59.4714 243.895 14.824 191.433 14.363C138.972 13.902 96.1153 57.8021 95.7105 112.417C95.3057 167.031 137.506 211.678 189.967 212.139C242.429 212.6 285.285 168.7 285.69 114.086Z" stroke="white" stroke-width="0.5"/>
</g>
<g opacity="0.2">
<path opacity="0.2" d="M280.457 114.04C280.839 62.4346 240.964 20.2471 191.393 19.8115C141.822 19.376 101.327 60.8573 100.944 112.463C100.562 164.068 140.437 206.255 190.008 206.691C239.579 207.127 280.074 165.645 280.457 114.04Z" stroke="white" stroke-width="0.5"/>
</g>
<g opacity="0.2">
<path opacity="0.2" d="M275.223 113.994C275.583 65.3977 238.033 25.6701 191.353 25.2599C144.672 24.8497 106.538 63.9123 106.178 112.509C105.818 161.105 143.368 200.833 190.048 201.243C236.729 201.653 274.863 162.59 275.223 113.994Z" stroke="white" stroke-width="0.5"/>
</g>
<g opacity="0.2">
<path opacity="0.2" d="M269.989 113.952C270.327 68.3648 235.102 31.0971 191.312 30.7123C147.522 30.3275 111.749 66.9713 111.411 112.559C111.073 158.146 146.298 195.413 190.089 195.798C233.879 196.183 269.651 159.539 269.989 113.952Z" stroke="white" stroke-width="0.5"/>
</g>
<g opacity="0.2">
<path opacity="0.2" d="M264.756 113.906C265.071 71.3278 232.171 36.52 191.272 36.1607C150.372 35.8013 116.961 70.0264 116.645 112.605C116.329 155.183 149.229 189.991 190.129 190.35C231.029 190.709 264.44 156.484 264.756 113.906Z" stroke="white" stroke-width="0.5"/>
</g>
<g opacity="0.2">
<path opacity="0.2" d="M259.522 113.86C259.815 74.291 229.241 41.9431 191.231 41.6091C153.222 41.2751 122.172 73.0815 121.879 112.651C121.585 152.22 152.16 184.568 190.169 184.902C228.179 185.236 259.229 153.429 259.522 113.86Z" stroke="white" stroke-width="0.5"/>
</g>
<g opacity="0.2">
<path opacity="0.2" d="M254.289 113.814C254.56 77.2541 226.31 47.3662 191.191 47.0576C156.072 46.749 127.383 76.1366 127.112 112.697C126.841 149.257 155.091 179.145 190.21 179.453C225.329 179.762 254.018 150.374 254.289 113.814Z" stroke="white" stroke-width="0.5"/>
</g>
<g opacity="0.2">
<path opacity="0.2" d="M249.055 113.768C249.304 80.2172 223.379 52.7892 191.151 52.506C158.922 52.2228 132.594 79.1917 132.346 112.743C132.097 146.294 158.022 173.722 190.25 174.005C222.478 174.288 248.806 147.319 249.055 113.768Z" stroke="white" stroke-width="0.5"/>
</g>
<g opacity="0.2">
<path opacity="0.2" d="M243.821 113.722C244.048 83.1803 220.448 58.2122 191.11 57.9544C161.772 57.6966 137.806 82.2468 137.579 112.789C137.353 143.331 160.953 168.299 190.29 168.557C219.628 168.814 243.595 144.264 243.821 113.722Z" stroke="white" stroke-width="0.5"/>
</g>
<g opacity="0.2">
<path opacity="0.2" d="M238.588 113.676C238.792 86.1435 217.517 63.6353 191.07 63.4029C164.622 63.1705 143.017 85.3019 142.813 112.835C142.609 140.368 163.883 162.876 190.331 163.108C216.778 163.341 238.384 141.209 238.588 113.676Z" stroke="white" stroke-width="0.5"/>
</g>
<g opacity="0.2">
<path d="M233.305 113.857C233.487 89.3332 214.537 69.2849 190.98 69.0779C167.423 68.8709 148.179 88.5836 147.997 113.107C147.816 137.631 166.765 157.68 190.322 157.887C213.879 158.094 233.123 138.381 233.305 113.857Z" stroke="url(#paint0_linear_3596_45558)" stroke-width="0.5"/>
</g>
</g>
</g>
<defs>
<filter id="filter0_d_3596_45558" x="0" y="0" width="382" height="254" filterUnits="userSpaceOnUse" color-interpolation-filters="sRGB">
<feFlood flood-opacity="0" result="BackgroundImageFix"/>
<feColorMatrix in="SourceAlpha" type="matrix" values="0 0 0 0 0 0 0 0 0 0 0 0 0 0 0 0 0 0 127 0" result="hardAlpha"/>
<feOffset dy="10"/>
<feGaussianBlur stdDeviation="12"/>
<feComposite in2="hardAlpha" operator="out"/>
<feColorMatrix type="matrix" values="0 0 0 0 0.0666667 0 0 0 0 0.054902 0 0 0 0 0.184314 0 0 0 0.14 0"/>
<feBlend mode="normal" in2="BackgroundImageFix" result="effect1_dropShadow_3596_45558"/>
<feBlend mode="normal" in="SourceGraphic" in2="effect1_dropShadow_3596_45558" result="shape"/>
</filter>
<linearGradient id="paint0_linear_3596_45558" x1="147.997" y1="113.107" x2="233.306" y2="113.74" gradientUnits="userSpaceOnUse">
<stop stop-color="#BEB9BF"/>
<stop offset="1" stop-color="#E0E9EC"/>
</linearGradient>
<clipPath id="clip0_3596_45558">
<rect x="24" y="14" width="334" height="206" rx="16" fill="white"/>
</clipPath>
</defs>
</svg>
