<svg width="18" height="18" viewBox="0 0 18 18" fill="none" xmlns="http://www.w3.org/2000/svg">
<path d="M9 18C13.9623 18 18 13.9627 18 9C18 8.14343 17.8804 7.29932 17.6437 6.49091C17.527 6.09338 17.1119 5.86505 16.7133 5.98169C16.3154 6.09796 16.0878 6.51453 16.2041 6.91205C16.4002 7.58368 16.5 8.28644 16.5 9C16.5 13.1354 13.1354 16.5 9 16.5C4.86456 16.5 1.5 13.1354 1.5 9C1.5 4.86456 4.86456 1.5 9 1.5C10.5029 1.5 11.9489 1.93945 13.1816 2.77057C13.5247 3.0022 13.9913 2.91119 14.2225 2.56805C14.454 2.22455 14.3637 1.75836 14.0202 1.52692C12.5389 0.528076 10.803 0 9 0C4.03766 0 0 4.03729 0 9C0 13.9627 4.03766 18 9 18Z" fill="#D3BCFF"/>
<path d="M16.7196 1.71959L8.99986 9.43895L6.53014 6.96959C6.23717 6.6768 5.76256 6.6768 5.46959 6.96959C5.1768 7.26256 5.1768 7.73717 5.46959 8.03014L8.46959 11.0301C8.61626 11.1768 8.80779 11.2499 8.99986 11.2499C9.19194 11.2499 9.38347 11.1768 9.53014 11.0301L17.7801 2.78014C18.0729 2.48717 18.0729 2.01256 17.7801 1.71959C17.4872 1.4268 17.0126 1.4268 16.7196 1.71959Z" fill="#5034C4"/>
</svg>
