<svg width="25" height="25" viewBox="0 0 25 25" fill="none" xmlns="http://www.w3.org/2000/svg">
<path d="M5.05941 0.758789H18.2458C19.7865 0.759487 21.0355 2.00827 21.036 3.54897V4.75432H22.3474C22.6557 4.75432 22.9054 5.00422 22.9054 5.31236C22.9054 5.6205 22.6557 5.8704 22.3474 5.8704H21.0417V9.53111H22.3474C22.6557 9.53111 22.9054 9.78083 22.9054 10.0891C22.9054 10.3973 22.6557 10.6472 22.3474 10.6472H21.0417V14.3079H22.3474C22.6557 14.3079 22.9054 14.5578 22.9054 14.8659C22.9054 15.1742 22.6557 15.424 22.3474 15.424H21.0417V19.0847H22.3474C22.6557 19.0847 22.9054 19.3346 22.9054 19.6427C22.9054 19.9509 22.6557 20.2008 22.3474 20.2008H21.0417V21.4061C21.041 22.9468 19.7923 24.1956 18.2516 24.1963H5.06517C3.52447 24.1956 2.27534 22.9468 2.27499 21.4061V3.54897C2.27272 2.00931 3.51976 0.759835 5.05941 0.758789ZM3.38531 21.4061C3.3881 22.3295 4.13604 23.0776 5.05941 23.0802H18.2458C19.1692 23.0776 19.9173 22.3295 19.9199 21.4061V20.2008H18.6143C18.306 20.2008 18.0562 19.9509 18.0562 19.6427C18.0562 19.3346 18.306 19.0847 18.6143 19.0847H19.9199V15.424H18.6143C18.306 15.424 18.0562 15.1742 18.0562 14.8659C18.0562 14.5578 18.306 14.3079 18.6143 14.3079H19.9199V10.6472H18.6143C18.306 10.6472 18.0562 10.3973 18.0562 10.0891C18.0562 9.78083 18.306 9.53111 18.6143 9.53111H19.9199V5.8704H18.6143C18.306 5.8704 18.0562 5.6205 18.0562 5.31236C18.0562 5.00422 18.306 4.75432 18.6143 4.75432H19.9199V3.54897C19.9173 2.62559 19.1692 1.87748 18.2458 1.87486H5.05941C4.13604 1.87748 3.3881 2.62559 3.38531 3.54897V21.4061Z" fill="#5034C4"/>
<path d="M11.6555 12.3158C10.1608 12.3158 8.94899 11.1041 8.94899 9.60931C8.94899 8.11447 10.1608 6.90283 11.6555 6.90283C13.1503 6.90283 14.3619 8.11447 14.3619 9.60931C14.3605 11.1034 13.1498 12.3144 11.6555 12.3158ZM11.6555 8.01332C10.7773 8.01332 10.0651 8.72552 10.0651 9.60372C10.0651 10.4819 10.7773 11.1941 11.6555 11.1941C12.5338 11.1941 13.2459 10.4819 13.2459 9.60372C13.2443 8.72621 12.5333 8.01489 11.6555 8.01332Z" fill="#5034C4"/>
<path d="M11.6555 13.2144C13.9769 13.2144 15.7963 15.0949 15.7963 17.5001C15.7954 17.8079 15.546 18.0572 15.2382 18.0581H8.07288C7.76508 18.0572 7.51571 17.8079 7.51484 17.5001C7.51484 15.0949 9.33421 13.2144 11.6555 13.2144ZM14.6356 16.942C14.3954 15.4186 13.1956 14.3304 11.6555 14.3304C10.1155 14.3304 8.90993 15.4186 8.67555 16.942H14.6356Z" fill="#5034C4"/>
</svg>
