<svg width="25" height="25" viewBox="0 0 25 25" fill="none" xmlns="http://www.w3.org/2000/svg">
<path d="M5.05929 0.757812H18.2457C19.7864 0.75851 21.0353 2.00729 21.0359 3.54799V4.75335H22.3472C22.6556 4.75335 22.9053 5.00324 22.9053 5.31138C22.9053 5.61952 22.6556 5.86942 22.3472 5.86942H21.0416V9.53013H22.3472C22.6556 9.53013 22.9053 9.77985 22.9053 10.0882C22.9053 10.3963 22.6556 10.6462 22.3472 10.6462H21.0416V14.3069H22.3472C22.6556 14.3069 22.9053 14.5568 22.9053 14.865C22.9053 15.1733 22.6556 15.423 22.3472 15.423H21.0416V19.0837H22.3472C22.6556 19.0837 22.9053 19.3336 22.9053 19.6417C22.9053 19.9499 22.6556 20.1998 22.3472 20.1998H21.0416V21.4051C21.0409 22.9458 19.7921 24.1946 18.2514 24.1953H5.06505C3.52434 24.1946 2.27522 22.9458 2.27487 21.4051V3.54799C2.2726 2.00834 3.51964 0.758859 5.05929 0.757812ZM3.38518 21.4051C3.38797 22.3285 4.13592 23.0766 5.05929 23.0792H18.2457C19.169 23.0766 19.9172 22.3285 19.9198 21.4051V20.1998H18.6142C18.3058 20.1998 18.0561 19.9499 18.0561 19.6417C18.0561 19.3336 18.3058 19.0837 18.6142 19.0837H19.9198V15.423H18.6142C18.3058 15.423 18.0561 15.1733 18.0561 14.865C18.0561 14.5568 18.3058 14.3069 18.6142 14.3069H19.9198V10.6462H18.6142C18.3058 10.6462 18.0561 10.3963 18.0561 10.0882C18.0561 9.77985 18.3058 9.53013 18.6142 9.53013H19.9198V5.86942H18.6142C18.3058 5.86942 18.0561 5.61952 18.0561 5.31138C18.0561 5.00324 18.3058 4.75335 18.6142 4.75335H19.9198V3.54799C19.9172 2.62462 19.169 1.8765 18.2457 1.87388H5.05929C4.13592 1.8765 3.38797 2.62462 3.38518 3.54799V21.4051Z" fill="#5034C4"/>
<path d="M11.6558 12.3153C10.1612 12.3153 8.94936 11.1037 8.94936 9.60882C8.94936 8.11398 10.1612 6.90234 11.6558 6.90234C13.1507 6.90234 14.3623 8.11398 14.3623 9.60882C14.3609 11.103 13.1501 12.3139 11.6558 12.3153ZM11.6558 8.01283C10.7776 8.01283 10.0654 8.72503 10.0654 9.60324C10.0654 10.4814 10.7776 11.1936 11.6558 11.1936C12.5342 11.1936 13.2462 10.4814 13.2462 9.60324C13.2447 8.72573 12.5337 8.0144 11.6558 8.01283Z" fill="#5034C4"/>
<path d="M11.6551 13.2148C13.9765 13.2148 15.7959 15.0954 15.7959 17.5006C15.795 17.8083 15.5457 18.0577 15.2379 18.0586H8.07251C7.76472 18.0577 7.51535 17.8083 7.51447 17.5006C7.51447 15.0954 9.33384 13.2148 11.6551 13.2148ZM14.6352 16.9425C14.3951 15.4191 13.1953 14.3309 11.6551 14.3309C10.1151 14.3309 8.90956 15.4191 8.67519 16.9425H14.6352Z" fill="#5034C4"/>
</svg>
