<svg width="17" height="18" viewBox="0 0 17 18" fill="none" xmlns="http://www.w3.org/2000/svg">
<g clip-path="url(#clip0_2591_44380)">
<path d="M6.89523 14.3138C5.23559 14.3138 3.88477 12.9629 3.88477 11.3033V4.04297H2.64523C1.57066 4.04297 0.697266 4.91624 0.697266 5.9908V15.5533C0.697266 16.6279 1.57066 17.5013 2.64523 17.5013H11.4993C12.5739 17.5013 13.4473 16.6279 13.4473 15.5533V14.3138H6.89523Z" fill="#7862D5" fill-opacity="0.2"/>
<path d="M16.2806 2.44796C16.2806 1.37197 15.4086 0.5 14.3327 0.5H6.89523C5.81924 0.5 4.94727 1.37197 4.94727 2.44796V11.302C4.94727 12.378 5.81924 13.25 6.89523 13.25H14.3327C15.4086 13.25 16.2806 12.378 16.2806 11.302V2.44796Z" fill="#8A76DB"/>
</g>
<defs>
<clipPath id="clip0_2591_44380">
<rect width="17" height="17" fill="white" transform="translate(0 0.5)"/>
</clipPath>
</defs>
</svg>
