<svg width="18" height="18" viewBox="0 0 18 18" fill="none" xmlns="http://www.w3.org/2000/svg">
<path fill-rule="evenodd" clip-rule="evenodd" d="M9.20526 2.42535C7.92606 2.38275 6.63366 2.73175 5.51786 3.47655C4.26466 4.31395 3.38886 5.55055 2.98546 6.93295C2.87406 6.91935 2.74066 6.92535 2.58226 6.97015C1.99086 7.13795 1.54606 7.62255 1.34606 8.04935C1.08666 8.60555 0.977259 9.34115 1.09266 10.1006C1.20726 10.8576 1.52706 11.4816 1.92706 11.8689C2.32826 12.2565 2.78126 12.3826 3.23126 12.288C3.90126 12.1449 4.23346 12.038 4.13966 11.4138L3.68546 8.38795C3.77706 6.75035 4.62486 5.20875 6.04286 4.26075C7.94086 2.99295 10.4293 3.07415 12.2397 4.46395C13.4991 5.42955 14.2303 6.87635 14.3147 8.39515L13.9971 10.5118C13.2887 12.4503 11.5325 13.7931 9.50026 13.9838H8.14706C7.79786 13.9838 7.51666 14.265 7.51666 14.6138V14.9461C7.51666 15.2951 7.79786 15.5763 8.14706 15.5763H9.85326C10.2023 15.5763 10.4823 15.2951 10.4823 14.9461V14.7724C12.0147 14.3984 13.3523 13.4566 14.2233 12.1432L14.7699 12.2881C15.2147 12.4036 15.6731 12.2565 16.0741 11.8692C16.4741 11.4816 16.7937 10.8577 16.9085 10.1007C17.0243 9.34135 16.9117 8.60695 16.6553 8.04955C16.3979 7.49215 16.0145 7.13815 15.5719 7.01115C15.3865 6.95775 15.1853 6.93815 15.0127 6.93295C14.6479 5.68295 13.8969 4.54615 12.8145 3.71615C11.7503 2.89955 10.4845 2.46735 9.20526 2.42535Z" fill="#5034C4"/>
<path fill-rule="evenodd" clip-rule="evenodd" d="M11.2023 7.86787C11.6533 7.86787 12.0189 8.23347 12.0199 8.68567C12.0189 9.13667 11.6533 9.50327 11.2023 9.50327C10.7501 9.50327 10.3835 9.13667 10.3835 8.68567C10.3835 8.23367 10.7503 7.86787 11.2023 7.86787ZM9.00032 7.86787C9.45232 7.86787 9.81792 8.23347 9.81792 8.68567C9.81792 9.13667 9.45232 9.50327 9.00032 9.50327C8.54792 9.50327 8.18232 9.13667 8.18232 8.68567C8.18232 8.23367 8.54792 7.86787 9.00032 7.86787ZM6.79912 7.86787C7.25012 7.86787 7.61672 8.23347 7.61672 8.68567C7.61672 9.13667 7.25012 9.50327 6.79912 9.50327C6.34712 9.50327 5.98132 9.13667 5.98132 8.68567C5.98132 8.23367 6.34712 7.86787 6.79912 7.86787ZM9.00032 4.35547C6.60232 4.35547 4.66992 6.22427 4.66992 8.68567C4.66992 9.86787 5.11692 10.9127 5.84512 11.6793L5.58672 12.8377C5.50152 13.2189 5.76592 13.4753 6.10852 13.2845L7.23972 12.6535C7.77732 12.8869 8.37192 13.0159 9.00032 13.0159C11.3991 13.0159 13.3303 11.1483 13.3303 8.68567C13.3303 6.22427 11.3991 4.35547 9.00032 4.35547Z" fill="#5034C4"/>
</svg>
