<svg width="18" height="18" viewBox="0 0 18 18" fill="none" xmlns="http://www.w3.org/2000/svg">
<path opacity="0.4" d="M14.7322 7.11742C14.7322 7.16841 14.3325 12.224 14.1042 14.3517C13.9612 15.6574 13.1195 16.4493 11.8569 16.4718C10.8868 16.4936 9.93706 16.5011 9.00268 16.5011C8.01068 16.5011 7.04056 16.4936 6.09888 16.4718C4.87857 16.4426 4.0361 15.6349 3.90043 14.3517C3.66556 12.2165 3.27313 7.16841 3.26584 7.11742C3.25855 6.96367 3.30815 6.81743 3.4088 6.69893C3.50801 6.58944 3.65097 6.52344 3.80123 6.52344H14.2041C14.3537 6.52344 14.4893 6.58944 14.5966 6.69893C14.6965 6.81743 14.7468 6.96367 14.7322 7.11742Z" fill="#060628"/>
<path d="M15.75 4.48265C15.75 4.17441 15.5071 3.93291 15.2153 3.93291H13.0286C12.5836 3.93291 12.197 3.61643 12.0978 3.17019L11.9753 2.62346C11.8039 1.96273 11.2123 1.5 10.5485 1.5H7.45218C6.78112 1.5 6.1954 1.96273 6.01743 2.65946L5.90291 3.17094C5.80298 3.61643 5.41639 3.93291 4.97217 3.93291H2.78539C2.49289 3.93291 2.25 4.17441 2.25 4.48265V4.76764C2.25 5.06837 2.49289 5.31737 2.78539 5.31737H15.2153C15.5071 5.31737 15.75 5.06837 15.75 4.76764V4.48265Z" fill="#060628"/>
</svg>
