<svg width="223" height="281" viewBox="0 0 223 281" fill="none" xmlns="http://www.w3.org/2000/svg">
<g clip-path="url(#clip0_2591_43990)">
<rect x="222.408" y="45.2695" width="245.436" height="159.811" rx="16" transform="rotate(106.308 222.408 45.2695)" fill="#9177E0"/>
<path d="M126.309 171.192C112.915 182.242 93.203 180.286 82.0979 166.824C70.9906 153.363 72.8145 133.638 86.209 122.588C99.5095 111.614 119.222 113.569 130.329 127.031C141.435 140.494 139.61 160.218 126.309 171.192Z" fill="#FFFFEE" fill-opacity="0.2"/>
<path d="M149.354 131.66C151.683 129.739 149.065 122.72 143.507 115.982C137.949 109.244 131.555 105.339 129.227 107.26C126.898 109.181 129.516 116.2 135.074 122.938C140.632 129.676 147.026 133.581 149.354 131.66Z" fill="white" fill-opacity="0.4"/>
<g opacity="0.2">
<path opacity="0.2" d="M67.1386 278.172C146.256 301.757 228.034 262.485 249.795 190.456C271.556 118.426 225.059 40.9147 145.942 17.3296C66.8246 -6.2555 -14.9535 33.0166 -36.7144 105.046C-58.4753 177.076 -11.9788 254.587 67.1386 278.172Z" stroke="white" stroke-width="0.5"/>
</g>
<g opacity="0.2">
<path opacity="0.2" d="M68.2532 274.48C145.132 297.398 224.597 259.237 245.742 189.245C266.888 119.252 221.707 43.934 144.827 21.0161C67.9481 -1.90183 -11.5166 36.2594 -32.6619 106.251C-53.8073 176.244 -8.62601 251.562 68.2532 274.48Z" stroke="white" stroke-width="0.5"/>
</g>
<g opacity="0.2">
<path opacity="0.2" d="M69.368 270.791C144.009 293.042 221.16 255.992 241.69 188.037C262.22 120.083 218.354 46.9572 143.713 24.7065C69.0717 2.45574 -8.07955 39.506 -28.6093 107.46C-49.1391 175.415 -5.27313 248.541 69.368 270.791Z" stroke="white" stroke-width="0.5"/>
</g>
<g opacity="0.2">
<path opacity="0.2" d="M70.4824 267.099C142.885 288.683 217.723 252.743 237.637 186.826C257.552 120.91 215.001 49.9765 142.598 28.3929C70.195 6.80941 -4.6429 42.7487 -24.5571 108.666C-44.4713 174.583 -1.92066 245.516 70.4824 267.099Z" stroke="white" stroke-width="0.5"/>
</g>
<g opacity="0.2">
<path opacity="0.2" d="M71.5971 263.411C141.762 284.327 214.286 249.499 233.585 185.619C252.884 121.74 211.648 52.9997 141.484 32.0833C71.3186 11.167 -1.20588 45.9953 -20.5045 109.875C-39.8031 173.754 1.43222 242.494 71.5971 263.411Z" stroke="white" stroke-width="0.5"/>
</g>
<g opacity="0.2">
<path opacity="0.2" d="M72.7116 259.726C140.638 279.975 210.85 246.258 229.533 184.416C248.216 122.575 208.296 56.0268 140.369 35.7776C72.442 15.5285 2.2309 49.2458 -16.4521 111.088C-35.1351 172.929 4.78485 239.477 72.7116 259.726Z" stroke="white" stroke-width="0.5"/>
</g>
<g opacity="0.2">
<path opacity="0.2" d="M73.8264 256.034C139.515 275.616 207.413 243.009 225.48 183.205C243.548 123.401 204.943 59.0461 139.254 39.4641C73.5656 19.8821 5.66791 52.4886 -12.3995 112.293C-30.4669 172.097 8.13771 236.452 73.8264 256.034Z" stroke="white" stroke-width="0.5"/>
</g>
<g opacity="0.2">
<path opacity="0.2" d="M74.9409 252.345C138.391 271.26 203.976 239.765 221.428 181.998C238.879 124.232 201.59 62.0693 138.14 43.1545C74.689 24.2397 9.10469 55.7352 -8.34715 113.502C-25.799 171.268 11.4903 233.43 74.9409 252.345Z" stroke="white" stroke-width="0.5"/>
</g>
<g opacity="0.2">
<path opacity="0.2" d="M76.0555 248.653C137.268 266.9 200.539 236.516 217.375 180.787C234.211 125.058 198.237 65.0886 137.025 46.841C75.8126 28.5934 12.5416 58.9779 -4.29467 114.707C-21.1309 170.436 14.8431 230.405 76.0555 248.653Z" stroke="white" stroke-width="0.5"/>
</g>
<g opacity="0.2">
<path opacity="0.2" d="M77.1702 244.964C136.145 262.545 197.102 233.271 213.323 179.58C229.543 125.889 194.885 68.1118 135.91 50.5314C76.9361 32.951 15.9785 62.2245 -0.242184 115.916C-16.4628 169.607 18.1958 227.384 77.1702 244.964Z" stroke="white" stroke-width="0.5"/>
</g>
<g opacity="0.2">
<path opacity="0.2" d="M78.2848 241.272C135.021 258.185 193.665 230.023 209.27 178.369C224.875 126.715 191.532 71.1311 134.796 54.2178C78.0596 37.3046 19.4154 65.4673 3.81029 117.121C-11.7948 168.774 21.5486 224.359 78.2848 241.272Z" stroke="white" stroke-width="0.5"/>
</g>
<g opacity="0.2">
<path opacity="0.2" d="M79.3996 237.587C133.898 253.833 190.228 226.782 205.218 177.166C220.207 127.55 188.179 74.1582 133.681 57.9121C79.1832 41.6661 22.8524 68.7178 7.8629 118.334C-7.1266 167.95 24.9015 221.341 79.3996 237.587Z" stroke="white" stroke-width="0.5"/>
</g>
<g opacity="0.2">
<path opacity="0.2" d="M80.5142 233.899C132.774 249.478 186.792 223.537 201.166 175.959C215.539 128.38 184.827 77.1814 132.567 61.6025C80.3067 46.0237 26.2893 71.9644 11.9154 119.543C-2.45853 167.121 28.2542 218.32 80.5142 233.899Z" stroke="white" stroke-width="0.5"/>
</g>
<g opacity="0.2">
<path opacity="0.2" d="M81.6285 230.207C131.65 245.118 183.354 220.288 197.113 174.748C210.871 129.207 181.474 80.2006 131.452 65.289C81.43 50.3773 29.7259 75.2071 15.9676 120.748C2.20928 166.289 31.6067 215.295 81.6285 230.207Z" stroke="white" stroke-width="0.5"/>
</g>
<g opacity="0.2">
<path opacity="0.2" d="M82.7433 226.518C130.527 240.763 179.918 217.044 193.061 173.541C206.203 130.038 178.121 83.2239 130.337 68.9794C82.5536 54.7349 33.163 78.4537 20.0202 121.957C6.87748 165.46 34.9596 212.274 82.7433 226.518Z" stroke="white" stroke-width="0.5"/>
</g>
<g opacity="0.2">
<path opacity="0.2" d="M83.8578 222.826C129.403 236.403 176.481 213.795 189.008 172.33C201.535 130.864 174.768 86.2431 129.223 72.6659C83.677 59.0886 36.5997 81.6965 24.0726 123.162C11.5454 164.627 38.3122 209.248 83.8578 222.826Z" stroke="white" stroke-width="0.5"/>
</g>
<g opacity="0.2">
<path opacity="0.2" d="M85.1956 218.4C128.055 231.177 172.357 209.902 184.145 170.882C195.934 131.862 170.745 89.8718 127.885 77.0951C85.0255 64.3185 40.7242 85.5932 28.9358 124.614C17.1473 163.634 42.3357 205.624 85.1956 218.4Z" stroke="white" stroke-width="0.5"/>
</g>
<g opacity="0.2">
<path opacity="0.2" d="M86.31 214.712C126.932 226.821 168.92 206.658 180.093 169.675C191.265 132.692 167.392 92.895 126.771 80.7855C86.1487 68.676 44.1609 88.8398 32.988 125.823C21.8151 162.805 45.6882 202.602 86.31 214.712Z" stroke="white" stroke-width="0.5"/>
</g>
<g opacity="0.2">
<path opacity="0.2" d="M87.4246 211.023C125.808 222.466 165.483 203.413 176.04 168.468C186.597 133.523 164.04 95.9182 125.656 84.4759C87.2722 73.0336 47.5978 92.0864 37.0405 127.032C26.4832 161.977 49.0409 199.581 87.4246 211.023Z" stroke="white" stroke-width="0.5"/>
</g>
<g opacity="0.2">
<path opacity="0.2" d="M88.5395 207.335C124.685 218.11 162.046 200.168 171.988 167.261C181.93 134.353 160.687 98.9414 124.542 88.1663C88.396 77.3912 51.0349 95.3331 41.0932 128.241C31.1515 161.148 52.3939 196.56 88.5395 207.335Z" stroke="white" stroke-width="0.5"/>
</g>
<g opacity="0.2">
<path opacity="0.2" d="M89.6537 203.643C123.561 213.75 158.609 196.919 167.935 166.05C177.261 135.18 157.334 101.961 123.427 91.8528C89.5191 81.7449 54.4714 98.5758 45.1453 129.446C35.8192 160.316 55.7463 193.535 89.6537 203.643Z" stroke="white" stroke-width="0.5"/>
</g>
<g opacity="0.2">
<path opacity="0.2" d="M90.7685 199.954C122.438 209.395 155.172 193.675 163.883 164.843C172.593 136.01 153.981 104.984 122.312 95.5431C90.6428 86.1024 57.9084 101.822 49.1979 130.655C40.4874 159.487 59.0992 190.513 90.7685 199.954Z" stroke="white" stroke-width="0.5"/>
</g>
<g opacity="0.2">
<path opacity="0.2" d="M91.8831 196.262C121.314 205.035 151.735 190.426 159.83 163.632C167.925 136.837 150.629 108.003 121.198 99.2296C91.7663 90.4561 61.3453 105.065 53.2504 131.86C45.1555 158.654 62.4519 187.488 91.8831 196.262Z" stroke="white" stroke-width="0.5"/>
</g>
<g opacity="0.2">
<path opacity="0.2" d="M92.9978 192.577C120.191 200.683 148.298 187.185 155.778 162.428C163.257 137.671 147.276 111.03 120.083 102.924C92.8898 94.8176 64.7822 108.316 57.3029 133.073C49.8235 157.83 65.8047 184.471 92.9978 192.577Z" stroke="white" stroke-width="0.5"/>
</g>
<g opacity="0.2">
<path opacity="0.2" d="M94.1125 188.885C119.068 196.324 144.862 183.937 151.725 161.217C158.589 138.498 143.923 114.05 118.968 106.61C94.0135 99.1712 68.2193 111.558 61.3555 134.278C54.4917 156.997 69.1575 181.446 94.1125 188.885Z" stroke="white" stroke-width="0.5"/>
</g>
<g opacity="0.2">
<path opacity="0.2" d="M95.227 185.196C117.944 191.968 141.425 180.692 147.673 160.01C153.921 139.328 140.571 117.073 117.854 110.301C95.1369 103.529 71.656 114.805 65.4078 135.487C59.1597 156.169 72.5102 178.424 95.227 185.196Z" stroke="white" stroke-width="0.5"/>
</g>
<g opacity="0.2">
<path opacity="0.2" d="M96.3415 181.508C116.82 187.613 137.988 177.447 143.62 158.803C149.253 140.159 137.218 120.096 116.739 113.991C96.2602 107.886 75.0928 118.052 69.4602 136.696C63.8276 155.34 75.8628 175.403 96.3415 181.508Z" stroke="white" stroke-width="0.5"/>
</g>
<path d="M97.7323 159.038L99.0612 156.736C97.2508 155.398 96.0645 153.81 95.5022 151.971C94.9399 150.132 95.1911 148.244 96.2556 146.308L100.299 148.643C99.8789 149.463 99.7159 150.299 99.81 151.15C99.9241 152.013 100.307 152.779 100.96 153.448L104.601 147.141C104.456 146.977 104.301 146.808 104.135 146.633C103.99 146.469 103.835 146.3 103.67 146.125C102.375 144.633 101.551 143.201 101.198 141.829C100.866 140.468 101.12 139.06 101.959 137.605C102.929 135.88 104.282 134.827 106.018 134.448C107.766 134.049 109.595 134.295 111.504 135.184L112.902 132.763L114.909 133.922L113.494 136.373C115.187 137.59 116.272 139.053 116.749 140.764C117.258 142.465 117.059 144.17 116.152 145.879L112.049 143.51C112.363 142.92 112.478 142.283 112.394 141.597C112.343 140.903 112.065 140.277 111.561 139.721L108.351 145.281C108.476 145.433 108.601 145.585 108.726 145.737C108.863 145.869 108.994 146.011 109.119 146.163C109.951 147.121 110.658 148.087 111.24 149.061C111.823 150.035 112.143 151.07 112.202 152.167C112.273 153.244 111.951 154.4 111.238 155.636C110.64 156.672 109.822 157.489 108.785 158.086C107.768 158.694 106.588 159.009 105.245 159.031C103.932 159.044 102.534 158.675 101.051 157.925L99.7392 160.196L97.7323 159.038ZM106.128 139.653C105.76 140.291 105.651 140.919 105.8 141.536C105.961 142.134 106.28 142.757 106.758 143.404L109.623 138.443C108.935 138.205 108.27 138.18 107.629 138.368C107.008 138.567 106.508 138.996 106.128 139.653ZM107.009 153.553C107.469 152.756 107.592 151.99 107.378 151.255C107.163 150.52 106.768 149.774 106.194 149.017L102.915 154.696C103.782 155.038 104.578 155.112 105.302 154.919C106.026 154.726 106.595 154.27 107.009 153.553Z" fill="white"/>
<g clip-path="url(#clip1_2591_43990)">
<path d="M201.061 95.0572L199.03 94.4564C198.251 94.226 197.603 94.5498 197.363 95.3623C197.243 95.7685 197.248 96.2486 197.598 96.6835C197.156 96.8102 196.852 97.0886 196.702 97.5963C196.602 97.935 196.603 98.3033 196.896 98.6844L196.489 98.5642L196.279 99.2751L199.529 100.236L199.739 99.5255L197.945 98.9948C197.37 98.8246 197.189 98.4398 197.329 97.9657C197.469 97.4921 197.844 97.345 198.386 97.5052L200.18 98.036L200.39 97.3251L198.596 96.7944C198.021 96.6242 197.85 96.2057 197.98 95.7657C198.12 95.2916 198.495 95.1449 199.036 95.3051L200.831 95.8359L201.061 95.0572ZM200.926 83.5686L200.585 84.7194L199.604 84.429L199.393 85.1398L200.375 85.4302L200.185 86.0734L200.828 86.2636L201.018 85.6206L202.507 86.0613C203.252 86.2816 203.782 86.1071 204.023 85.2946C204.113 84.9899 204.111 84.6216 204.046 84.3444L203.377 84.3673C203.452 84.6105 203.416 84.8573 203.366 85.0266C203.266 85.3651 203.022 85.4404 202.684 85.3402L201.228 84.9096L201.569 83.7588L200.926 83.5686ZM202.64 77.5231C202.52 77.9293 202.643 78.2602 202.864 78.5096L202.458 78.3894L202.248 79.1003L205.497 80.0616L205.707 79.3507L203.88 78.81C203.338 78.6498 203.103 78.3228 203.234 77.8827C203.274 77.7473 203.358 77.5881 203.431 77.4627L202.815 77.0593C202.741 77.1847 202.681 77.3878 202.64 77.5231L202.64 77.5231ZM200.285 86.729C199.948 86.9975 199.706 87.4413 199.556 87.9491C199.316 88.7614 199.562 89.4231 200.205 89.6134C200.747 89.7736 201.171 89.4576 201.483 88.7768L201.617 88.4483C201.795 88.0959 201.957 87.9229 202.126 87.973C202.363 88.0431 202.452 88.3639 202.312 88.8379C202.172 89.3118 201.892 89.6341 201.653 89.821L202.094 90.3197C202.475 90.0274 202.761 89.5597 202.911 89.0521C203.191 88.1042 202.912 87.4324 202.302 87.2521C201.727 87.0819 201.292 87.4318 200.99 88.0789L200.856 88.4073C200.732 88.702 200.595 88.9188 200.391 88.8588C200.154 88.7886 200.089 88.5117 200.199 88.1394C200.319 87.733 200.609 87.3769 200.77 87.2039L200.285 86.729ZM205.535 67.7404C205.414 68.1467 205.537 68.4775 205.758 68.7269L205.352 68.6068L205.142 69.3176L208.391 70.279L208.601 69.5681L206.774 69.0274C206.232 68.8672 205.997 68.54 206.128 68.1001C206.168 67.9646 206.252 67.8053 206.325 67.6799L205.709 67.2765C205.635 67.4019 205.575 67.605 205.535 67.7404ZM204.543 77.313C205.525 77.6034 206.436 77.1368 206.746 76.0873C206.887 75.6134 206.885 75.2449 206.715 74.8264L206.039 74.9946C206.162 75.3254 206.183 75.6262 206.093 75.9309C205.923 76.5064 205.397 76.7924 204.754 76.6021C204.144 76.4219 203.858 75.8955 203.995 75.3101C204.085 75.0054 204.266 74.7646 204.55 74.554L204.074 74.0453C203.703 74.3036 203.502 74.612 203.361 75.0859C203.051 76.1354 203.562 77.0226 204.543 77.313ZM206.486 70.746L204.861 70.2653L204.651 70.9762L205.057 71.0963C204.682 71.2433 204.413 71.5316 204.283 71.9717C204.012 72.8856 204.513 73.8068 205.495 74.0972C206.476 74.3876 207.397 73.887 207.668 72.9731C207.808 72.4992 207.739 72.1106 207.494 71.8174L207.9 71.9375L208.111 71.2267L206.486 70.746ZM205.715 73.3526C205.139 73.1823 204.776 72.6698 204.956 72.0605C205.126 71.4851 205.686 71.2089 206.296 71.3892C206.871 71.5594 207.225 72.1059 207.055 72.6814C206.84 73.2806 206.29 73.5228 205.715 73.3526ZM201.509 81.3482C201.228 82.296 201.705 83.1734 202.721 83.4738C203.736 83.7742 204.613 83.2976 204.904 82.3158C205.044 81.8419 205.049 81.3279 204.854 80.8654L204.247 81.0538C204.369 81.3847 204.405 81.7632 204.305 82.1016C204.174 82.5417 203.841 82.9217 203.235 82.8531L203.947 80.4496L203.676 80.3695C202.636 80.0251 201.779 80.4341 201.509 81.3482ZM202.118 81.5284C202.248 81.0885 202.609 80.8638 203.137 80.9465L202.636 82.6389C202.216 82.4411 201.968 82.0362 202.118 81.5284ZM208.419 64.2129L205.508 63.3517L205.297 64.0626L206.99 64.5633C206.615 64.7102 206.346 64.9986 206.215 65.4387C205.945 66.3526 206.446 67.2737 207.427 67.5641C208.409 67.8545 209.33 67.354 209.6 66.44C209.741 65.966 209.672 65.5775 209.427 65.2843L209.833 65.4045L210.043 64.6936L208.419 64.2129ZM207.648 66.8193C207.072 66.6491 206.708 66.1367 206.889 65.5273C207.059 64.9518 207.619 64.6759 208.228 64.8561C208.804 65.0263 209.158 65.5727 208.987 66.1481C208.773 66.7475 208.223 66.9896 207.648 66.8193ZM200.618 90.5823L198.993 90.1017L198.783 90.8125L199.189 90.9327C198.814 91.0796 198.545 91.368 198.414 91.808C198.144 92.722 198.645 93.6431 199.626 93.9335C200.608 94.2239 201.529 93.7234 201.799 92.8094C201.94 92.3354 201.871 91.9469 201.626 91.6537L202.032 91.7739L202.242 91.063L200.618 90.5823ZM199.837 93.2227C199.261 93.0524 198.897 92.5399 199.078 91.9306C199.248 91.3552 199.808 91.079 200.417 91.2593C200.993 91.4295 201.347 91.976 201.176 92.5515C200.962 93.1507 200.412 93.3929 199.837 93.2227Z" fill="white"/>
<path d="M175.267 79.5859L178.422 68.9231L197.581 74.5911L194.427 85.2539L175.267 79.5859Z" fill="#FF5F00"/>
<path d="M185.047 81.7408C181.155 80.5892 178.243 77.7399 176.84 74.2695C174.604 75.8535 172.851 78.1695 172.01 81.013C170.017 87.7494 173.855 94.8115 180.591 96.8043C187.327 98.7971 194.389 94.9595 196.382 88.2232C197.224 85.3798 197.013 82.483 195.999 79.9374C192.967 82.096 188.94 82.8924 185.047 81.7408Z" fill="#EB001B"/>
<path d="M192.257 57.3691C198.994 59.3619 202.831 66.424 200.838 73.1603C199.997 76.0037 198.245 78.3197 196.009 79.9039C194.616 76.3996 191.694 73.584 187.801 72.4324C183.908 71.2808 179.915 72.0874 176.85 74.2359C175.836 71.6905 175.625 68.7936 176.466 65.9502C178.459 59.2139 185.555 55.3863 192.257 57.3691Z" fill="#F79E1B"/>
</g>
</g>
<defs>
<clipPath id="clip0_2591_43990">
<rect x="222.408" y="45.2695" width="245.436" height="159.811" rx="16" transform="rotate(106.308 222.408 45.2695)" fill="white"/>
</clipPath>
<clipPath id="clip1_2591_43990">
<rect width="41.1733" height="32" fill="white" transform="translate(168.404 93.2031) rotate(-73.52)"/>
</clipPath>
</defs>
</svg>
