<svg width="33" height="43" viewBox="0 0 33 43" fill="none" xmlns="http://www.w3.org/2000/svg">
<path d="M25.4131 42.1577L23.5344 38.6922C20.4391 39.9432 17.5108 40.2106 14.7497 39.4946C11.9885 38.7786 9.79709 36.9967 8.17546 34.1489L14.2638 30.8483C14.9746 32.0159 15.9047 32.8705 17.0541 33.412C18.2336 33.9373 19.4991 34.0471 20.8506 33.7415L15.7025 24.2451C15.3831 24.3018 15.0487 24.3666 14.6992 24.4396C14.3798 24.4962 14.0454 24.5611 13.696 24.6341C10.8052 25.1141 8.35553 25.0445 6.347 24.4252C4.36854 23.7895 2.78562 22.3766 1.59823 20.1862C0.169325 17.6222 -0.111153 15.0955 0.7568 12.6062C1.60849 10.0869 3.33727 7.96567 5.94315 6.24243L3.96688 2.59689L6.98852 0.958843L8.98919 4.64939C11.8415 3.45252 14.5337 3.21599 17.0656 3.93978C19.6114 4.61727 21.6126 6.19176 23.0691 8.66323L16.8905 12.0127C16.3887 11.1588 15.6721 10.5186 14.7405 10.0918C13.8227 9.61881 12.8165 9.48491 11.7218 9.69013L16.2599 18.0614C16.5492 18.021 16.8386 17.9806 17.1279 17.9402C17.4009 17.8699 17.6821 17.8145 17.9715 17.7741C19.8277 17.4666 21.5974 17.3225 23.2806 17.3418C24.9638 17.361 26.5216 17.7588 27.9539 18.5353C29.37 19.2816 30.5823 20.585 31.5907 22.4453C32.4365 24.0055 32.8346 25.6726 32.7848 27.4466C32.7651 29.2042 32.2476 30.9406 31.2323 32.6557C30.2307 34.3245 28.6801 35.8056 26.5804 37.0992L28.4347 40.5197L25.4131 42.1577ZM7.42191 16.5051C7.94241 17.4652 8.65095 18.0905 9.54751 18.3809C10.4278 18.6413 11.4629 18.7208 12.6527 18.6193L8.60257 11.1482C7.76812 11.8335 7.22103 12.6541 6.96128 13.6102C6.73161 14.55 6.88515 15.5149 7.42191 16.5051ZM25.6769 26.1753C25.0262 24.9751 24.1531 24.2256 23.0574 23.9267C21.9617 23.6277 20.7125 23.5479 19.3097 23.6872L23.9454 32.2385C25.0504 31.4065 25.7617 30.458 26.0791 29.393C26.3965 28.328 26.2624 27.2555 25.6769 26.1753Z" fill="white"/>
</svg>
