<svg width="23" height="29" viewBox="0 0 23 29" fill="none" xmlns="http://www.w3.org/2000/svg">
<path d="M2.73233 27.0376L4.06118 24.736C2.2508 23.3985 1.06447 21.8102 0.502191 19.9711C-0.0600866 18.1319 0.191053 16.2443 1.25561 14.3082L5.29921 16.6428C4.87894 17.463 4.71588 18.2988 4.81003 19.1502C4.92415 20.0132 5.30731 20.7791 5.95952 21.4479L9.6009 15.1409C9.45571 14.9773 9.30052 14.808 9.13535 14.633C8.99015 14.4694 8.83497 14.3001 8.6698 14.1251C7.3745 12.6333 6.55065 11.2011 6.19823 9.82853C5.86579 8.46751 6.1195 7.05965 6.95938 5.60494C7.92885 3.87965 9.28182 2.82745 11.0183 2.44836C12.7663 2.04935 14.5948 2.29468 16.504 3.18438L17.9019 0.763189L19.9087 1.92183L18.4936 4.37291C20.1872 5.58985 21.2725 7.0534 21.7495 8.76357C22.2579 10.4653 22.0589 12.1705 21.1523 13.879L17.0488 11.5098C17.3625 10.9204 17.4777 10.2828 17.3944 9.597C17.3426 8.90282 17.0647 8.2774 16.5607 7.72073L13.3508 13.2805C13.476 13.4325 13.6012 13.5845 13.7265 13.7365C13.8632 13.8686 13.9942 14.0107 14.1194 14.1627C14.9507 15.1209 15.6576 16.087 16.2401 17.061C16.8226 18.035 17.1433 19.0704 17.2023 20.1672C17.2728 21.2442 16.9514 22.4004 16.2381 23.6359C15.6398 24.6721 14.8222 25.4887 13.7853 26.0857C12.7683 26.6942 11.5881 27.0092 10.2445 27.0306C8.93241 27.0436 7.53449 26.6749 6.05074 25.9245L4.73915 28.1962L2.73233 27.0376ZM11.1283 7.6532C10.7602 8.29088 10.6507 8.91852 10.8 9.53612C10.9608 10.1338 11.2802 10.7566 11.7581 11.4045L14.6229 6.44253C13.9349 6.2047 13.2703 6.17974 12.6294 6.36764C12.0084 6.56707 11.508 6.99559 11.1283 7.6532ZM12.0092 21.553C12.4694 20.7559 12.5922 19.9899 12.3776 19.2548C12.1629 18.5198 11.7683 17.7738 11.1935 17.0169L7.91458 22.6963C8.78234 23.0378 9.57817 23.112 10.3021 22.9189C11.026 22.7257 11.595 22.2704 12.0092 21.553Z" fill="white"/>
</svg>
