<svg width="38" height="7" viewBox="0 0 38 7" fill="none" xmlns="http://www.w3.org/2000/svg">
<g clip-path="url(#clip0_1281_1186)">
<path d="M37.5923 1.882H36.7682C36.623 1.882 36.489 2.01867 36.4873 2.02157L33.3565 6.12079C33.2976 6.19712 33.2048 6.19535 33.1491 6.11705L30.2579 2.02213C30.2563 2.01867 30.1489 1.87845 29.9465 1.87845H24.3931C24.2961 1.87845 24.2178 1.80015 24.2185 1.70362L24.2222 0.350803C24.2222 0.156609 24.0649 -7.53403e-05 23.8721 -7.53403e-05H15.3662C14.0489 0.0444508 13.4854 0.176252 12.8827 0.528066C12.327 0.853781 12.0497 1.26696 12.0497 1.76367C12.0497 2.29032 12.4795 2.80957 13.3395 3.3219C13.5604 3.45483 14.3564 3.83826 15.7254 4.47089C16.5855 4.86826 17.0494 5.19519 17.0159 5.5181C16.9637 6.03754 16.4916 6.21583 15.3662 6.21583H10.2234C10.0989 6.21583 9.99727 6.19422 9.99727 6.09703C9.99727 6.04942 10.0257 6.00592 10.0794 5.97178L10.0785 5.97103C11.23 5.279 11.6099 4.34404 11.6099 3.49664C11.6099 1.911 10.2761 -7.53403e-05 4.96618 -7.53403e-05H0.349474C0.156403 -7.53403e-05 0 0.156609 0 0.350803V6.65071C0 6.84313 0.156404 7 0.350037 7H4.96618C5.14241 7 5.31341 6.99785 5.47926 6.99345H17.0259C18.0805 6.99345 18.9042 6.81909 19.4991 6.47186C20.0484 6.14867 20.323 5.73989 20.323 5.24018C20.323 4.71578 19.8932 4.19746 19.0334 3.6856C18.8133 3.55305 18.0178 3.167 16.6467 2.53147C15.7871 2.13438 15.3573 1.81325 15.3573 1.56789C15.3573 1.04162 15.914 0.786524 17.0259 0.786524H20.9292C21.0259 0.786524 21.1042 0.864352 21.1048 0.960607L21.1023 5.53175C21.1023 6.20189 21.5458 6.99345 22.89 6.99345H33.6187C33.873 6.99345 34.0014 6.82919 34.0014 6.82919L37.6776 1.99828C37.6776 1.99828 37.759 1.882 37.5923 1.882ZM4.27275 6.2423H3.1362C3.03939 6.2423 2.9609 6.16401 2.9609 6.06766V0.930206C2.9609 0.833857 3.03939 0.755374 3.13527 0.755374H4.27275C7.08454 0.755374 8.57599 1.911 8.57599 3.49664C8.57599 5.0892 7.07042 6.2423 4.27275 6.2423ZM30.0277 6.26111H25.0719C24.3822 6.26111 24.2178 6.06448 24.2178 5.53175V2.78329C24.2178 2.69096 24.2909 2.61678 24.3808 2.61042H27.2586C27.3493 2.61678 27.4589 2.67131 27.5162 2.74063L30.1003 6.12949C30.1512 6.20189 30.1205 6.26111 30.0277 6.26111Z" fill="white"/>
</g>
<defs>
<clipPath id="clip0_1281_1186">
<rect width="37.6975" height="7" fill="white"/>
</clipPath>
</defs>
</svg>
