<svg width="19" height="15" viewBox="0 0 19 15" fill="none" xmlns="http://www.w3.org/2000/svg">
<path d="M0.941406 2.375H13.0175V14.946H1.28701C1.19554 14.946 1.10783 14.9107 1.04315 14.848C0.978478 14.7852 0.942144 14.7002 0.942144 14.6114V2.375H0.941406Z" fill="#6463FD"/>
<path opacity="0.2" d="M13.0175 2.375H0.941406V3.26622H7.88959L8.11999 14.946L8.28098 3.26622H13.0175V2.375Z" fill="#060628"/>
<path d="M0.837224 0.460938H13.0174V3.00852H0.837224C0.791591 3.00852 0.747826 2.99093 0.715558 2.95963C0.683291 2.92832 0.665163 2.88587 0.665163 2.84159V0.628579C0.665065 0.606598 0.669444 0.584814 0.678048 0.564479C0.686651 0.544144 0.69931 0.525658 0.715297 0.510082C0.731284 0.494505 0.750285 0.482145 0.771208 0.473711C0.792132 0.465278 0.814567 0.460937 0.837224 0.460938Z" fill="#6463FD"/>
<path d="M5.59149 14.9426L5.46521 0.460938H8.09118L8.21672 14.9426H5.59149Z" fill="#060628"/>
<path d="M17.7767 14.9453H13.0203L13.0203 2.37433H18.1194L18.1194 14.6107C18.1194 14.6991 18.0834 14.7839 18.0192 14.8466C17.955 14.9092 17.8678 14.9447 17.7767 14.9453Z" fill="#6463FD"/>
<path opacity="0.2" d="M17.7767 14.9453H13.0203L13.0203 2.37433H18.1194L18.1194 14.6107C18.1194 14.6991 18.0834 14.7839 18.0192 14.8466C17.955 14.9092 17.8678 14.9447 17.7767 14.9453Z" fill="#060628"/>
<path opacity="0.2" d="M13.0175 2.375H18.1187V3.26622H15.272L14.885 14.946L14.9271 3.26622H13.0175V2.375Z" fill="#060628"/>
<path d="M18.2236 3.00781L13.0174 3.00781V0.460231L18.2236 0.460231C18.2462 0.460231 18.2685 0.464549 18.2894 0.472938C18.3103 0.481326 18.3293 0.493622 18.3452 0.509123C18.3612 0.524623 18.3739 0.543025 18.3825 0.563277C18.3912 0.583529 18.3956 0.605235 18.3956 0.627156V2.84017C18.3957 2.86215 18.3913 2.88394 18.3827 2.90427C18.3741 2.92461 18.3615 2.94309 18.3455 2.95867C18.3295 2.97424 18.3105 2.98661 18.2896 2.99504C18.2687 3.00347 18.2462 3.00781 18.2236 3.00781Z" fill="#6463FD"/>
<path opacity="0.2" d="M18.2236 3.00781L13.0174 3.00781V0.460231L18.2236 0.460231C18.2462 0.460231 18.2685 0.464549 18.2894 0.472938C18.3103 0.481326 18.3293 0.493622 18.3452 0.509123C18.3612 0.524623 18.3739 0.543025 18.3825 0.563277C18.3912 0.583529 18.3956 0.605235 18.3956 0.627156V2.84017C18.3957 2.86215 18.3913 2.88394 18.3827 2.90427C18.3741 2.92461 18.3615 2.94309 18.3455 2.95867C18.3295 2.97424 18.3105 2.98661 18.2896 2.99504C18.2687 3.00347 18.2462 3.00781 18.2236 3.00781Z" fill="#060628"/>
<path d="M14.885 14.9426L15.1051 0.460938H16.7437L16.5237 14.9426H14.885Z" fill="#060628"/>
<path opacity="0.2" d="M14.885 14.9426L15.1051 0.460938H16.7437L16.5237 14.9426H14.885Z" fill="#060628"/>
</svg>
