<svg width="18" height="18" viewBox="0 0 18 18" fill="none" xmlns="http://www.w3.org/2000/svg">
<path opacity="0.4" d="M14.9945 14.2148H10.7238C10.3072 14.2148 9.96826 14.5591 9.96826 14.9824C9.96826 15.4065 10.3072 15.7499 10.7238 15.7499H14.9945C15.4112 15.7499 15.7501 15.4065 15.7501 14.9824C15.7501 14.5591 15.4112 14.2148 14.9945 14.2148Z" fill="#060628"/>
<path d="M7.73177 5.17893L11.7787 8.44899C11.8763 8.5272 11.893 8.67071 11.8168 8.77068L7.01906 15.0222C6.71746 15.4084 6.27301 15.6269 5.79681 15.6349L3.17772 15.6672C3.03804 15.6688 2.91581 15.572 2.88406 15.4334L2.28882 12.8454C2.18564 12.3697 2.28882 11.8779 2.59041 11.499L7.41192 5.21763C7.4897 5.11685 7.63335 5.09911 7.73177 5.17893Z" fill="#060628"/>
<path opacity="0.4" d="M13.5905 6.49908L12.8103 7.473C12.7317 7.57217 12.5904 7.5883 12.4928 7.50928C11.5444 6.74175 9.11578 4.77214 8.44196 4.22632C8.34355 4.14569 8.33006 4.00219 8.40942 3.90221L9.16182 2.96779C9.84437 2.089 11.0349 2.00838 11.9952 2.7743L13.0984 3.65309C13.5508 4.00783 13.8524 4.47544 13.9555 4.96724C14.0746 5.50822 13.9476 6.03953 13.5905 6.49908Z" fill="#060628"/>
</svg>
