<svg width="22" height="22" viewBox="0 0 22 22" fill="none" xmlns="http://www.w3.org/2000/svg">
<path d="M17.3085 10.1753H4.69106C4.49733 10.1753 4.34058 10.3322 4.34058 10.5257V13.0344C4.34058 15.1652 7.26562 16.8344 10.9998 16.8344C14.7339 16.8344 17.6589 15.1652 17.6589 13.0344V10.5257C17.6589 10.3322 17.5022 10.1753 17.3085 10.1753Z" fill="black"/>
<path d="M11.0107 10.1753H4.69106C4.49733 10.1753 4.34058 10.3322 4.34058 10.5257V13.0344C4.34058 15.1652 7.26562 16.8344 10.9998 16.8344C11.0034 16.8344 11.007 16.8341 11.0107 16.8341V10.1753Z" fill="black"/>
<path d="M21.1505 6.43359L12.2409 2.61486C11.4523 2.27703 10.5466 2.27721 9.75741 2.61573L0.849878 6.43324C0.325511 6.65794 0 7.15181 0 7.72205C0 8.29211 0.325511 8.78546 0.849527 9.00999L9.75876 12.8287C10.1527 12.9974 10.5757 13.0818 10.9991 13.0818C11.4232 13.0818 11.8472 12.9972 12.2422 12.8278L21.1498 9.01029C21.6741 8.78577 22 8.29189 22 7.72166C22 7.15164 21.6745 6.65812 21.1505 6.43359Z" fill="#5034C4"/>
<path d="M2.23769 15.082C2.04396 15.082 1.88721 14.9251 1.88721 14.7315V9.41865C1.88721 9.07671 2.13158 8.78629 2.4684 8.72794L9.53795 7.49835C9.72861 7.4655 9.90998 7.59298 9.94319 7.78365C9.9764 7.97431 9.84874 8.15586 9.65772 8.18907L2.58817 9.41865V14.7315C2.58817 14.9251 2.43142 15.082 2.23769 15.082Z" fill="white"/>
<path d="M2.23783 15.783C2.62496 15.783 2.9388 15.4691 2.9388 15.082C2.9388 14.6949 2.62496 14.381 2.23783 14.381C1.8507 14.381 1.53687 14.6949 1.53687 15.082C1.53687 15.4691 1.8507 15.783 2.23783 15.783Z" fill="#817ED2"/>
<path d="M9.5979 7.3714V8.07237C9.5979 8.45947 10.2256 8.77333 10.9998 8.77333C11.7741 8.77333 12.4018 8.45947 12.4018 8.07237V7.3714H9.5979Z" fill="#817ED2"/>
<path d="M10.9998 8.07237C11.7741 8.07237 12.4018 7.75854 12.4018 7.37141C12.4018 6.98427 11.7741 6.67044 10.9998 6.67044C10.2256 6.67044 9.5979 6.98427 9.5979 7.37141C9.5979 7.75854 10.2256 8.07237 10.9998 8.07237Z" fill="#A6AAE0"/>
<path d="M1.51764 16.481L1.26538 19.2561C1.24672 19.4613 1.40834 19.6383 1.61442 19.6383H2.94972C3.1558 19.6383 3.31742 19.4613 3.29876 19.2561L3.0465 16.481C3.01057 16.0857 2.67906 15.783 2.28209 15.783H2.28205C1.88508 15.783 1.55361 16.0857 1.51764 16.481Z" fill="#A6AAE0"/>
</svg>
