<svg width="24" height="24" viewBox="0 0 24 24" fill="none" xmlns="http://www.w3.org/2000/svg">
<g clip-path="url(#clip0_10911_9815)">
<path d="M5.625 21.3809C5.625 21.6202 5.35856 21.7658 5.15892 21.6338C5.15737 21.6327 5.15583 21.6317 5.15428 21.6307C2.04839 19.5752 0 16.0502 0 12.0469C0 5.71652 5.17355 0.551969 11.5039 0.562516C17.8376 0.57311 22.9688 5.7108 22.9688 12.0469C22.9688 14.3845 22.2704 16.5589 21.0708 18.373C21.0427 18.4155 20.2094 18.4578 20.1808 18.4999C20.1235 18.5841 20.0651 18.6674 20.0057 18.75H5.625V21.3809Z" fill="#65BEFC"/>
<path d="M21.2264 6.14062L21.0708 18.373C19.0157 21.4811 15.4894 23.5312 11.4844 23.5312C9.14509 23.5312 6.96916 22.8318 5.1543 21.6307V6.14062H21.2264Z" fill="#0055CA"/>
<path d="M17.2151 2.10938V19.9219C17.2151 20.0513 17.1102 20.1562 16.9808 20.1562H2.46143C2.332 20.1562 2.22705 20.0513 2.22705 19.9219V2.10938C2.22705 1.97995 2.332 1.875 2.46143 1.875H16.9808C17.1102 1.875 17.2151 1.97995 17.2151 2.10938Z" fill="#BDE2FD"/>
<path d="M18.7501 0.703125V18.5156C18.7501 18.645 18.6451 18.75 18.5157 18.75H3.99634C3.86692 18.75 3.76196 18.645 3.76196 18.5156V0.703125C3.76196 0.573703 3.86692 0.46875 3.99634 0.46875H18.5157C18.6451 0.46875 18.7501 0.573703 18.7501 0.703125Z" fill="#E5F2FD"/>
<path d="M11.9897 3.21094C11.9897 3.40509 11.8323 3.5625 11.6382 3.5625H5.31006C5.1159 3.5625 4.9585 3.40509 4.9585 3.21094C4.9585 3.01678 5.1159 2.85938 5.31006 2.85938H11.6382C11.8323 2.85938 11.9897 3.01678 11.9897 3.21094ZM9.88037 4.26562H5.31006C5.1159 4.26562 4.9585 4.42303 4.9585 4.61719C4.9585 4.81134 5.1159 4.96875 5.31006 4.96875H9.88037C10.0745 4.96875 10.2319 4.81134 10.2319 4.61719C10.2319 4.42303 10.0745 4.26562 9.88037 4.26562Z" fill="#65BEFC"/>
<path d="M10.2319 7.07812H5.31006C5.1159 7.07812 4.9585 6.92072 4.9585 6.72656C4.9585 6.53241 5.1159 6.375 5.31006 6.375H10.2319C10.4261 6.375 10.5835 6.53241 10.5835 6.72656C10.5835 6.92072 10.4261 7.07812 10.2319 7.07812ZM9.17725 8.13281C9.17725 7.93866 9.01984 7.78125 8.82568 7.78125H5.31006C5.1159 7.78125 4.9585 7.93866 4.9585 8.13281C4.9585 8.32697 5.1159 8.48438 5.31006 8.48438H8.82568C9.01984 8.48438 9.17725 8.32697 9.17725 8.13281ZM10.5835 10.0078C10.5835 9.81366 10.4261 9.65625 10.2319 9.65625H5.31006C5.1159 9.65625 4.9585 9.81366 4.9585 10.0078C4.9585 10.202 5.1159 10.3594 5.31006 10.3594H10.2319C10.4261 10.3594 10.5835 10.202 10.5835 10.0078ZM9.17725 11.4141C9.17725 11.2199 9.01984 11.0625 8.82568 11.0625H5.31006C5.1159 11.0625 4.9585 11.2199 4.9585 11.4141C4.9585 11.6082 5.1159 11.7656 5.31006 11.7656H8.82568C9.01984 11.7656 9.17725 11.6082 9.17725 11.4141ZM10.5835 13.2891C10.5835 13.0949 10.4261 12.9375 10.2319 12.9375H5.31006C5.1159 12.9375 4.9585 13.0949 4.9585 13.2891C4.9585 13.4832 5.1159 13.6406 5.31006 13.6406H10.2319C10.4261 13.6406 10.5835 13.4832 10.5835 13.2891ZM9.17725 14.6953C9.17725 14.5012 9.01984 14.3438 8.82568 14.3438H5.31006C5.1159 14.3438 4.9585 14.5012 4.9585 14.6953C4.9585 14.8895 5.1159 15.0469 5.31006 15.0469H8.82568C9.01984 15.0469 9.17725 14.8895 9.17725 14.6953Z" fill="#93D0FD"/>
<path d="M16.8022 6.39062C17.2509 6.39062 17.6147 6.75438 17.6147 7.20311C17.6147 7.65184 17.2509 8.01564 16.8022 8.01564C16.3535 8.01564 15.9897 7.65189 15.9897 7.20316C15.9897 6.75442 16.3535 6.39062 16.8022 6.39062ZM13.146 7.20316C13.146 6.75442 12.7822 6.39067 12.3335 6.39067C11.8847 6.39067 11.521 6.75442 11.521 7.20316C11.521 7.65189 11.8847 8.01564 12.3334 8.01564C12.7822 8.01564 13.146 7.65189 13.146 7.20316ZM16.8022 9.67188C17.2509 9.67188 17.6147 10.0356 17.6147 10.4844C17.6147 10.9331 17.2509 11.2969 16.8022 11.2969C16.3535 11.2969 15.9897 10.9331 15.9897 10.4844C15.9897 10.0357 16.3535 9.67188 16.8022 9.67188Z" fill="#BDE2FD"/>
<path d="M15.3803 10.4844C15.3803 10.9331 15.0166 11.2968 14.5679 11.2968C14.1191 11.2968 13.7554 10.9331 13.7554 10.4844C13.7554 10.0356 14.1191 9.67188 14.5679 9.67188C15.0166 9.67188 15.3803 10.0356 15.3803 10.4844Z" fill="#93D0FD"/>
<path d="M15.3804 7.20311C15.3804 6.75438 15.0166 6.39062 14.5679 6.39062C14.1191 6.39062 13.7554 6.75438 13.7554 7.20311C13.7554 7.65184 14.1191 8.01559 14.5679 8.01559C15.0166 8.01559 15.3804 7.65184 15.3804 7.20311ZM11.521 10.4844C11.521 10.9331 11.8847 11.2968 12.3335 11.2968C12.7822 11.2968 13.146 10.9331 13.146 10.4844C13.146 10.0356 12.7822 9.67188 12.3335 9.67188C11.8847 9.67188 11.521 10.0356 11.521 10.4844ZM11.521 13.7656C11.521 14.2143 11.8847 14.5781 12.3335 14.5781C12.7822 14.5781 13.146 14.2143 13.146 13.7656C13.146 13.3169 12.7822 12.9531 12.3335 12.9531C11.8847 12.9531 11.521 13.3169 11.521 13.7656Z" fill="#00A4FB"/>
<path d="M12.3561 17.4603L10.3571 19.4594C10.174 19.6424 9.87722 19.6424 9.69417 19.4594C9.51112 19.2763 9.51112 18.9795 9.69417 18.7965L11.6932 16.7974C11.8762 16.6144 12.1731 16.6144 12.3561 16.7974C12.5392 16.9805 12.5392 17.2773 12.3561 17.4603Z" fill="#00429C"/>
<path d="M14.4058 16.3441L12.4068 18.3431C12.2237 18.5261 11.9269 18.5261 11.7439 18.3431L10.8101 17.4093C10.6271 17.2263 10.6271 16.9295 10.8101 16.7464L12.8092 14.7474C12.9922 14.5644 13.289 14.5644 13.4721 14.7474L14.4058 15.6812C14.5889 15.8642 14.5889 16.161 14.4058 16.3441ZM23.8626 5.8929L23.2603 5.29061C23.0773 5.10756 22.7805 5.10756 22.5974 5.29061L20.5984 7.28964C20.4153 7.47268 20.4153 7.7695 20.5984 7.95254L21.2007 8.55484C21.3837 8.73789 21.6805 8.73789 21.8636 8.55484L23.8626 6.55581C24.0457 6.37276 24.0457 6.076 23.8626 5.8929Z" fill="#0055CA"/>
<path d="M12.4686 17.2207L11.5377 16.2898C11.3546 16.1068 11.3546 15.8099 11.5377 15.6269L20.8996 6.26497C21.0826 6.08192 21.3795 6.08192 21.5625 6.26497L22.4934 7.19586C22.3103 7.01281 22.0135 7.01281 21.8305 7.19586L12.4686 16.5577C12.2855 16.7408 12.2855 17.0376 12.4686 17.2207Z" fill="#FF4343"/>
<path d="M22.8883 8.25388L13.5263 17.6158C13.3433 17.7989 13.0465 17.7989 12.8634 17.6158L12.3966 17.1489C12.2135 16.9659 12.2135 16.6691 12.3966 16.486L21.7585 7.1241C21.9415 6.94105 22.2383 6.94105 22.4214 7.1241L22.8883 7.59098C23.0713 7.77402 23.0713 8.07079 22.8883 8.25388Z" fill="#FF5757"/>
<path d="M22.5224 9.28285L18.0841 13.7211C17.9011 13.9042 17.6043 13.9042 17.4212 13.7211L16.6229 12.9228C16.4398 12.7397 16.4398 12.4429 16.6229 12.2599L21.0611 7.82161C21.2442 7.63856 21.541 7.63856 21.7241 7.82161L22.5224 8.61994C22.7054 8.80299 22.7054 9.0998 22.5224 9.28285Z" fill="#FF7A7A"/>
</g>
<defs>
<clipPath id="clip0_10911_9815">
<rect width="24" height="24" fill="white"/>
</clipPath>
</defs>
</svg>
