<svg width="24" height="24" viewBox="0 0 24 24" fill="none" xmlns="http://www.w3.org/2000/svg">
<path d="M13.1943 10.3317C13.0222 10.2113 12.7851 10.1073 12.5 10.0492V11.4507C12.7851 11.3926 13.0222 11.2886 13.1943 11.1681C13.4623 10.9805 13.5 10.8173 13.5 10.7499C13.5 10.6826 13.4623 10.5193 13.1943 10.3317Z" fill="#FF6414"/>
<path d="M11.5 7.54919C11.215 7.60729 10.9778 7.71129 10.8057 7.83174C10.5377 8.01934 10.5 8.18259 10.5 8.24994C10.5 8.31729 10.5377 8.48054 10.8057 8.66814C10.9778 8.78859 11.215 8.89259 11.5 8.95069V7.54919Z" fill="#FF6414"/>
<path fill-rule="evenodd" clip-rule="evenodd" d="M16.8847 12.8415C17.8899 11.7187 18.4993 10.238 18.4993 8.59495C18.4993 5.0051 15.5891 2.09497 11.9993 2.09497C8.40945 2.09497 5.4993 5.0051 5.4993 8.59495C5.4993 10.2395 6.11015 11.7214 7.1173 12.8447C7.39905 13.2753 7.72935 13.8464 8 14.5C8.3058 15.2386 8.5839 16.2533 8.76875 17H15.2312C15.4161 16.2533 15.6942 15.2386 16 14.5C16.2713 13.8448 16.6025 13.2725 16.8847 12.8415Z" fill="#FF6414"/>
<path d="M15 18H9V18.9982L14.9585 18.5018C14.9724 18.5006 14.9862 18.5 15 18.5V18Z" fill="#FF6414"/>
<path d="M15 19.5017L9.0415 19.9982C9.0276 19.9994 9.01375 20 9 20C9 20.8284 9.6716 21.5 10.5 21.5H11C11 21.7761 11.2239 22 11.5 22H12.5C12.7761 22 13 21.7761 13 21.5H13.5C14.3285 21.5 15 20.8284 15 20V19.5017Z" fill="black"/>
<path d="M10.8287 7.09094L13.3367 11.1247V7.09094H14.3714V12.782H13.3191L10.7322 8.60798V12.782H9.6975V7.09094H10.8287Z" fill="#E4EAFC"/>
<path d="M8.72727 8.99257H15.2727V9.68156H8.72727V8.99257Z" fill="#E4EAFC"/>
<path d="M8.72727 10.1983H15.2727V10.8873H8.72727V10.1983Z" fill="#E4EAFC"/>
</svg>
