<svg width="121" height="120" viewBox="0 0 121 120" fill="none" xmlns="http://www.w3.org/2000/svg">
<circle opacity="0.1" cx="60.5" cy="60" r="60" fill="#5034C4"/>
<mask id="mask0_1_54071" style="mask-type:alpha" maskUnits="userSpaceOnUse" x="0" y="0" width="121" height="120">
<circle cx="60.5" cy="60" r="60" fill="#D9D9D9"/>
</mask>
<g mask="url(#mask0_1_54071)">
<g clip-path="url(#clip0_1_54071)">
<path d="M42.1431 102.584L34.7002 101.058L30.3935 105.519L15.7129 93.9319L25.5039 87.25L35.9145 75.8572C37.6592 73.9478 40.7434 74.2231 42.1218 76.4124L54.4558 90.5576C56.3198 92.6955 55.7925 96.0002 53.355 97.4519L46.0886 101.779C44.8201 102.546 43.6123 102.611 42.1431 102.584Z" fill="#FFE7CF"/>
<path d="M54.4568 90.5574L51.4473 87.1055L38.8965 94.585C37.6279 95.3518 36.4202 95.417 34.9502 95.3899L28.4316 94.6882L22.8008 99.5244L30.3953 105.519L34.7012 101.057L42.144 102.584C43.6133 102.61 44.8218 102.546 46.0896 101.779L53.3559 97.4517C55.7934 96 56.3208 92.6953 54.4568 90.5574Z" fill="#EFD5BD"/>
<path d="M54.094 90.8589C52.6409 88.6052 50.8706 89.7456 49.4175 87.4912C47.9644 85.2375 49.7346 84.0964 48.2815 81.8428C46.8276 79.5884 45.0581 80.7295 43.605 78.4751C42.1511 76.22 43.9214 75.0789 42.4675 72.8245C41.5791 71.4468 39.97 68.6021 38.99 68.2109L31.1465 72.0862L44.7959 93.6135C46.1274 95.6797 48.8821 96.2751 50.9482 94.9429L53.5601 93.2598C54.3577 92.7449 54.6169 91.6785 54.1057 90.8779C54.102 90.8713 54.0984 90.8655 54.094 90.8589Z" fill="#344A5D"/>
<path d="M31.5312 75.4176L25.3694 79.2196C24.2004 79.941 22.6675 79.5778 21.946 78.4088L18.4626 72.7633C17.7412 71.5944 18.1045 70.0614 19.2734 69.34L25.4353 65.538C26.1589 65.0919 27.1074 65.3161 27.5542 66.0397L32.033 73.2987C32.4797 74.0224 32.2549 74.9708 31.5312 75.4176Z" fill="#344A5D"/>
<path d="M35.3112 55.2473L22.8044 62.9648C21.1579 63.98 20.6474 66.1377 21.6626 67.7834L27.8303 77.7795C28.8462 79.4253 31.0031 79.9365 32.6496 78.9206L45.1565 71.2038L84.7153 62.5928L60.7512 23.7539L35.3112 55.2473Z" fill="#FED066"/>
<path d="M79.0688 53.4453L39.7136 62.3874C39.7136 62.3874 26.1638 70.7473 24.2266 71.9434L27.8301 77.783C28.8452 79.4287 31.0029 79.9399 32.6487 78.9241L45.1562 71.2073L84.7151 62.5962L79.0688 53.4453Z" fill="#F5B556"/>
<path d="M45.1568 71.2065L32.6492 78.9233C31.0035 79.9392 28.8458 79.428 27.8306 77.7822L21.6629 67.7861C20.6471 66.1404 21.1583 63.9827 22.804 62.9675L35.3116 55.25L45.1568 71.2065Z" fill="#6463FD"/>
<path d="M39.7136 62.3867C39.7136 62.3867 26.1638 70.7466 24.2266 71.9426L27.8301 77.7822C28.8452 79.428 31.0029 79.9392 32.6487 78.9233L38.9021 75.0649L45.1562 71.2065L39.7136 62.3867Z" fill="#5034C4"/>
<path d="M87.0891 65.3557L85.3818 66.4089C84.4971 66.9546 83.3369 66.6799 82.7912 65.7951L57.029 24.0427C56.4827 23.1572 56.7573 21.9978 57.6428 21.4514L59.3501 20.3982C60.2348 19.8518 61.395 20.1265 61.9407 21.0119L87.7029 62.7644C88.2492 63.6491 87.9739 64.8093 87.0891 65.3557Z" fill="#6463FD"/>
<path d="M87.7029 62.7639L83.4651 55.8945L78.5527 58.926L82.7913 65.7947C83.3369 66.6794 84.4971 66.9541 85.3818 66.4084L87.0891 65.3552C87.9739 64.8088 88.2493 63.6487 87.7029 62.7639Z" fill="#5034C4"/>
<path d="M50.2124 96.5418C51.1433 98.0659 53.1341 98.5471 54.6582 97.6155L59.3714 94.7341C60.8948 93.8032 61.3753 91.814 60.4444 90.2905C59.5135 88.7664 57.5227 88.2859 55.9993 89.2168L51.2854 92.0982C49.7627 93.0291 49.2823 95.0183 50.2124 96.5418Z" fill="#FFE7CF"/>
<path d="M60.4426 90.2917C60.061 89.667 59.5 89.2209 58.8679 88.9727C59.0334 90.2039 58.4797 91.4746 57.3511 92.1645L52.6372 95.0459C51.7378 95.5952 50.678 95.6494 49.7676 95.292C49.8254 95.7227 49.9697 96.1489 50.2107 96.5437C51.1416 98.0679 53.1323 98.5483 54.6565 97.6167L59.3696 94.7353C60.8931 93.8044 61.3728 91.8152 60.4426 90.2917Z" fill="#EFD5BD"/>
<path d="M48.1926 90.178C49.1375 91.7256 51.1582 92.2134 52.7051 91.2678L57.3347 88.4378C58.8809 87.4929 59.3687 85.4737 58.4246 83.9268C57.4798 82.3799 55.459 81.8921 53.9121 82.8377L49.2818 85.6678C47.7356 86.6126 47.2478 88.6319 48.1926 90.178Z" fill="#FFE7CF"/>
<path d="M58.4255 83.927C58.0491 83.311 57.5012 82.8665 56.8809 82.6094C57.0383 83.8516 56.4766 85.1282 55.3391 85.8232L50.7087 88.6533C49.7778 89.2224 48.677 89.2693 47.7402 88.8818C47.7966 89.3279 47.9438 89.7695 48.1936 90.1782C49.1384 91.7258 51.1592 92.2136 52.7061 91.2681L57.3357 88.438C58.8818 87.4932 59.3696 85.4739 58.4255 83.927Z" fill="#EFD5BD"/>
<path d="M44.7415 84.6162C45.6863 86.1631 47.7071 86.6516 49.2539 85.7061L53.8843 82.8752C55.4304 81.9304 55.9175 79.9111 54.9734 78.365C54.0286 76.8174 52.0078 76.3296 50.461 77.2751L45.8306 80.1052C44.2844 81.05 43.7967 83.0693 44.7415 84.6162Z" fill="#FFE7CF"/>
<path d="M54.9729 78.3655C54.6045 77.762 54.0713 77.3218 53.467 77.0625C53.6033 78.2893 53.0422 79.5417 51.9194 80.228L47.2898 83.0581C46.3457 83.6353 45.2273 83.6755 44.2832 83.2712C44.3345 83.7334 44.4817 84.1926 44.7402 84.616C45.6858 86.1636 47.7058 86.6514 49.2534 85.7058L53.8838 82.8757C55.4299 81.9309 55.917 79.9116 54.9729 78.3655Z" fill="#EFD5BD"/>
<path d="M41.4892 78.9092C42.434 80.4561 44.4548 80.9439 46.0016 79.9983L50.632 77.1682C52.1782 76.2234 52.666 74.2041 51.7211 72.6573C50.7763 71.1104 48.7556 70.6226 47.2087 71.5681L42.5783 74.3982C41.0322 75.343 40.5451 77.3623 41.4892 78.9092Z" fill="#FFE7CF"/>
<path d="M51.7197 72.6575C51.2854 71.9456 50.6218 71.4614 49.8821 71.2344C50.1648 72.5586 49.6074 73.9729 48.3872 74.7192L43.7568 77.5493C42.9219 78.0598 41.9492 78.1492 41.082 77.8826C41.1575 78.2363 41.2893 78.5835 41.4878 78.9094C42.4326 80.4563 44.4534 80.9441 46.0002 79.9985L50.6306 77.1685C52.1768 76.2236 52.6645 74.2043 51.7197 72.6575Z" fill="#EFD5BD"/>
<path d="M48.4346 82.8804L47.5762 83.4048C46.2248 84.231 44.4788 83.8348 43.6746 82.5208L42.2522 80.1946C41.5557 79.0565 40.0403 78.7181 38.875 79.441C37.7053 88.0264 25.5039 87.2501 25.5039 87.2501L33.0647 75.8624C33.5635 74.9996 34.2717 74.2701 35.1243 73.7413L39.3914 71.095C41.4656 69.8089 44.1623 70.4095 45.4038 72.4354L49.4255 78.9986C50.2312 80.3148 49.7873 82.0535 48.4346 82.8804Z" fill="#FFE7CF"/>
<path d="M49.4241 78.9979L49.3911 78.9437C49.1582 79.318 48.8374 79.6468 48.4338 79.8937L47.5747 80.4188C46.2241 81.2442 44.478 80.8487 43.6738 79.534L42.2515 77.2086C41.5549 76.0697 40.0395 75.732 38.8743 76.4542C38.3835 80.0548 36.1819 83.5052 33.7246 85.8688C36.2104 84.7767 38.4099 82.8446 38.8743 79.4396C40.0395 78.7167 41.5549 79.055 42.2515 80.1932L43.6738 82.5194C44.478 83.8334 46.2241 84.2296 47.5747 83.4042L48.4338 82.879C49.7866 82.0521 50.2305 80.3133 49.4241 78.9979Z" fill="#EFD5BD"/>
<path d="M30.6299 105.798L18.6035 91.5071L22.5637 88.1746C22.6882 88.0699 22.875 88.086 22.9805 88.2105L34.626 102.05C34.7307 102.174 34.7146 102.361 34.5901 102.466L30.6299 105.798Z" fill="#CDD6DF"/>
<path d="M34.6255 102.05L28.4307 94.6875L24.2441 98.2104L30.6301 105.799L34.5896 102.467C34.7148 102.361 34.731 102.174 34.6255 102.05Z" fill="#96A4AA"/>
<path d="M80.2436 38.7738C79.7638 38.7738 79.2958 38.5322 79.0263 38.0942C78.6132 37.4225 78.8227 36.5436 79.4943 36.1305L87.2301 31.372C87.9018 30.9589 88.7807 31.1684 89.193 31.84C89.6061 32.5109 89.3967 33.3898 88.7258 33.8029L80.9899 38.5614C80.7563 38.7057 80.4985 38.7738 80.2436 38.7738Z" fill="#5034C4"/>
<path d="M98.0754 50.425C98.0292 50.425 97.9824 50.4228 97.9355 50.4184L86.5939 49.3161C85.8095 49.2399 85.2353 48.5427 85.3115 47.7575C85.3876 46.9738 86.0856 46.3981 86.8701 46.4758L98.2116 47.5773C98.996 47.6535 99.5703 48.3515 99.4941 49.1359C99.4223 49.8735 98.8012 50.425 98.0754 50.425Z" fill="#5034C4"/>
<path d="M73.753 28.2241C73.5809 28.2241 73.4058 28.1926 73.2359 28.1267C72.5013 27.8411 72.138 27.0134 72.4237 26.2796L76.5545 15.6594C76.8402 14.9248 77.6678 14.5623 78.4017 14.8472C79.1363 15.1328 79.5003 15.9597 79.2147 16.6944L75.0838 27.3137C74.8641 27.8784 74.3243 28.2241 73.753 28.2241Z" fill="#5034C4"/>
<path d="M31.4888 105.666L18.4905 90.4186C18.3872 90.297 18.2085 90.2729 18.0759 90.3629L4.23242 101.291C3.77026 101.655 3.5 102.213 3.5 102.802V107.248C3.5 108.312 4.36206 109.174 5.42627 109.174H28.072C28.655 109.174 29.2073 108.909 29.5735 108.454L31.4756 106.087C31.5876 105.971 31.5928 105.788 31.4888 105.666Z" fill="#3C5666"/>
<path d="M31.4893 105.664L25.3259 98.4336L16.252 109.172H28.0725C28.6555 109.172 29.2078 108.907 29.574 108.452L31.4761 106.084C31.5881 105.969 31.5933 105.786 31.4893 105.664Z" fill="#194451"/>
</g>
<g clip-path="url(#clip1_1_54071)">
<path d="M93.2027 104.27C92.3035 104.27 91.4342 104.212 90.6117 104.104V95.088C91.4341 94.98 92.3035 94.9219 93.2027 94.9219C98.3375 94.9219 102.5 96.8098 102.5 99.1387V100.053C102.5 102.382 98.3375 104.27 93.2027 104.27Z" fill="#5034C4"/>
<path d="M93.2027 108.979C92.3035 108.979 91.4342 108.921 90.6117 108.813V106.171C91.4344 106.279 92.3032 106.338 93.2027 106.338C97.6848 106.338 101.426 104.899 102.304 102.984C102.432 103.263 102.5 103.552 102.5 103.848V104.763C102.5 107.091 98.3375 108.979 93.2027 108.979Z" fill="#5034C4"/>
<path d="M90.6117 111.083V110.878C91.4344 110.986 92.3032 111.045 93.2027 111.045C97.6848 111.045 101.426 109.606 102.304 107.691C102.432 107.97 102.5 108.259 102.5 108.555V109.469C102.5 111.798 98.3375 113.686 93.2027 113.686C92.1759 113.686 91.1882 113.611 90.2647 113.471C90.4936 113.003 90.6117 112.509 90.6117 111.997V111.083Z" fill="#5034C4"/>
<path d="M79.7965 87.7812C84.9312 87.7812 89.0938 89.6691 89.0938 91.9981V92.9126C89.0938 95.2415 84.9312 97.1294 79.7965 97.1294C74.6618 97.1294 70.4992 95.2415 70.4992 92.9126V91.9981C70.4992 89.6691 74.6618 87.7812 79.7965 87.7812Z" fill="#5034C4"/>
<path d="M79.7965 99.1969C84.2785 99.1969 88.0195 97.7584 88.8982 95.8438C89.0262 96.1226 89.0938 96.4113 89.0938 96.7074V97.6219C89.0938 99.9508 84.9312 101.839 79.7965 101.839C74.6618 101.839 70.4992 99.9508 70.4992 97.6219V96.7074C70.4992 96.4113 70.5668 96.1226 70.6948 95.8438C71.5735 97.7584 75.3144 99.1969 79.7965 99.1969Z" fill="#5034C4"/>
<path d="M79.7965 103.904C84.2785 103.904 88.0195 102.465 88.8982 100.551C89.0262 100.83 89.0938 101.118 89.0938 101.414V102.329C89.0938 104.658 84.9312 106.546 79.7965 106.546C74.6618 106.546 70.4992 104.658 70.4992 102.329V101.414C70.4992 101.118 70.5668 100.83 70.6948 100.551C71.5735 102.465 75.3144 103.904 79.7965 103.904Z" fill="#5034C4"/>
<path d="M79.7965 108.865C84.2785 108.865 88.0195 107.426 88.8982 105.512C89.0262 105.791 89.0938 106.079 89.0938 106.375V107.29C89.0938 109.619 84.9312 111.507 79.7965 111.507C74.6618 111.507 70.4992 109.619 70.4992 107.29V106.375C70.4992 106.079 70.5668 105.79 70.6948 105.512C71.5735 107.426 75.3144 108.865 79.7965 108.865Z" fill="#5034C4"/>
<path d="M79.7965 113.572C84.2785 113.572 88.0195 112.133 88.8982 110.219C89.0262 110.498 89.0938 110.787 89.0938 111.082V111.997C89.0938 114.326 84.9312 116.214 79.7965 116.214C74.6618 116.214 70.4992 114.326 70.4992 111.997V111.082C70.4992 110.786 70.5668 110.497 70.6948 110.219C71.5735 112.133 75.3144 113.572 79.7965 113.572Z" fill="#5034C4"/>
</g>
</g>
<defs>
<clipPath id="clip0_1_54071">
<rect width="96" height="96" fill="white" transform="translate(3.5 14)"/>
</clipPath>
<clipPath id="clip1_1_54071">
<rect width="32" height="32" fill="white" transform="matrix(-1 0 0 1 102.5 86)"/>
</clipPath>
</defs>
</svg>
