<svg xmlns="http://www.w3.org/2000/svg" xmlns:xlink="http://www.w3.org/1999/xlink" width="81" height="81" fill="none" xmlns:v="https://vecta.io/nano"><rect width="81" height="81" rx="40.5" fill="#f4f4fb"/><g clip-path="url(#A)"><g fill="#6d6d6f"><path d="M39.545 59.637c10.042 0 18.182-8.14 18.182-18.182s-8.14-18.182-18.182-18.182-18.182 8.14-18.182 18.182 8.14 18.182 18.182 18.182z"/><use xlink:href="#B"/><path d="M57.728 22.545a1.091 1.091 0 1 0 0-2.182 1.091 1.091 0 1 0 0 2.182zm1.817 31.629a1.091 1.091 0 1 0 0-2.182 1.091 1.091 0 1 0 0 2.182zm-36 5.461a1.091 1.091 0 1 0 0-2.182 1.091 1.091 0 1 0 0 2.182z"/></g><path d="M53 27.275v26.407a18.21 18.21 0 0 1-5.524 4.138H31.615a18.21 18.21 0 0 1-5.524-4.138V23.638c0-.386.153-.756.426-1.029s.643-.426 1.029-.426h20.364L53 27.275z" fill="#c8c8c8"/><g fill="#6d6d6f"><path d="M53 27.275h-4.364c-.193 0-.378-.077-.514-.213s-.213-.321-.213-.514v-4.364L53 27.275zm-13.454 11.27a6.91 6.91 0 0 0 6.909-6.909 6.91 6.91 0 0 0-6.909-6.909 6.91 6.91 0 0 0-6.909 6.909 6.91 6.91 0 0 0 6.909 6.909z"/></g><path d="M39.546 36.365c-.144 0-.284-.043-.404-.123a.73.73 0 0 1-.309-.747.73.73 0 0 1 .571-.571.73.73 0 0 1 .747.309c.08.12.123.26.123.404 0 .193-.077.378-.213.514s-.321.213-.514.213z" fill="#fff"/><path d="M30.091 43.272a1.09 1.09 0 1 0 0-2.182 1.09 1.09 0 1 0 0 2.182z" fill="#6d6d6f"/><path d="M49 42.544H33c-.096 0-.189-.038-.257-.107s-.107-.161-.107-.257.038-.189.107-.257.161-.106.257-.106h16c.096 0 .189.038.257.106s.106.161.106.257-.038.189-.106.257-.161.107-.257.107z" fill="#fff"/><path d="M30.091 46.908a1.09 1.09 0 1 0 0-2.182 1.09 1.09 0 1 0 0 2.182z" fill="#6d6d6f"/><path d="M49 46.18H33c-.096 0-.189-.038-.257-.106s-.107-.161-.107-.257.038-.189.107-.257.161-.107.257-.107h16c.096 0 .189.038.257.107s.106.161.106.257-.038.189-.106.257-.161.106-.257.106z" fill="#fff"/><path d="M30.091 50.545a1.09 1.09 0 1 0 0-2.182 1.09 1.09 0 1 0 0 2.182z" fill="#6d6d6f"/><use xlink:href="#C" fill="#fff"/><path d="M30.091 54.182a1.09 1.09 0 1 0 0-2.182 1.09 1.09 0 1 0 0 2.182z" fill="#6d6d6f"/><path d="M49 53.454H33c-.096 0-.189-.038-.257-.107s-.107-.161-.107-.257.038-.189.107-.257.161-.107.257-.107h16c.096 0 .189.038.257.107s.106.161.106.257-.038.189-.106.257-.161.107-.257.107z" fill="#fff"/><g fill="#6d6d6f"><path d="M56.626 34.145l2.595 1.315-4.931 9.731-2.595-1.315 4.931-9.731zm-7.899 18.819c-.086-.043-.151-.119-.18-.211a.37.37 0 0 1 .02-.277l.164-.324a.37.37 0 0 1 .084-.123c.036-.035.079-.061.126-.079a.35.35 0 0 1 .147-.022.37.37 0 0 1 .143.038.36.36 0 0 1 .116.093c.032.039.055.083.069.131s.018.098.011.148-.023.097-.049.14l-.164.324c-.044.086-.119.151-.211.181a.36.36 0 0 1-.277-.021z"/><path d="M58.747 32.368l.649.329a.73.73 0 0 1 .362.422c.06.183.045.383-.042.555l-.822 1.622-1.946-.986.822-1.622c.087-.172.239-.302.422-.362s.383-.045.555.042z"/></g><g fill="#000"><path d="M51.338 51.027l-1.96 1.451-.647-.327.011-2.44 2.596 1.316zm4.258-5.994c-.056-.028-.103-.07-.138-.121s-.056-.111-.061-.173.006-.124.032-.181.066-.106.116-.142c.549-.407.571-.407.622-.509l3.702-7.305c.022-.043.035-.089.039-.137a.36.36 0 0 0-.087-.266.37.37 0 0 0-.112-.088l-3.244-1.644c-.044-.021-.083-.05-.116-.087s-.057-.079-.073-.125a.35.35 0 0 1-.018-.143c.004-.048.017-.096.039-.139s.053-.082.09-.113.08-.055.127-.069a.37.37 0 0 1 .282.029l3.244 1.644a1.09 1.09 0 0 1 .48 1.454l-3.702 7.32c-.156.302-.364.411-.84.764a.37.37 0 0 1-.186.071c-.067.006-.135-.007-.195-.038z"/></g><g fill="#6d6d6f"><path d="M55.629 39.34c-.043-.021-.082-.051-.113-.087s-.056-.078-.071-.124a.38.38 0 0 1-.018-.142.37.37 0 0 1 .038-.138l.658-1.298a.37.37 0 0 1 .212-.182c.045-.015.094-.021.141-.017a.39.39 0 0 1 .137.038c.043.021.081.052.112.088a.37.37 0 0 1 .07.124c.015.045.02.094.017.142s-.017.094-.039.137l-.658 1.298c-.044.086-.119.151-.211.18a.37.37 0 0 1-.277-.02zm-3.933 4.535l2.595 1.315-2.959 5.839-2.595-1.315 2.959-5.839z"/></g><path d="M39.546 34.18c-.193 0-.378-.077-.514-.213a.73.73 0 0 1-.213-.514V33.3c.008-.456.142-.902.387-1.287s.592-.695 1.002-.895c.23-.117.425-.294.564-.512s.218-.468.228-.726-.048-.514-.17-.742-.302-.419-.521-.555-.472-.21-.73-.215-.513.058-.739.183-.414.309-.545.531-.201.475-.202.734c0 .193-.077.378-.213.514s-.321.213-.514.213-.378-.077-.514-.213-.213-.321-.213-.514a2.91 2.91 0 0 1 1.486-2.539 2.91 2.91 0 0 1 2.941.056 2.91 2.91 0 0 1 1.389 2.593 2.91 2.91 0 0 1-1.583 2.479 1.03 1.03 0 0 0-.424.363c-.105.158-.165.342-.173.531v.153c0 .193-.077.378-.213.514s-.321.213-.514.213z" fill="#fff"/></g><defs><clipPath id="A"><path fill="#fff" transform="translate(21 20)" d="M0 0h40v40H0z"/></clipPath><path id="B" d="M22.454 24.365a1.09 1.09 0 1 0 0-2.182 1.09 1.09 0 1 0 0 2.182z"/><path id="C" d="M49 49.817H33c-.096 0-.189-.038-.257-.107s-.107-.161-.107-.257.038-.189.107-.257.161-.107.257-.107h16c.096 0 .189.038.257.107s.106.161.106.257-.038.189-.106.257-.161.107-.257.107z"/></defs></svg>