<svg width="16" height="16" viewBox="0 0 16 16" fill="none" xmlns="http://www.w3.org/2000/svg">
<circle cx="8" cy="8" r="8" fill="#E8A706"/>
<path d="M7.33 9.33472L7.1375 3H9.02125L8.815 9.33472H7.33ZM8.11375 12.35C7.78375 12.35 7.51333 12.253 7.3025 12.0591C7.10083 11.8651 7 11.6314 7 11.3581C7 11.076 7.10083 10.838 7.3025 10.644C7.51333 10.45 7.78375 10.353 8.11375 10.353C8.42542 10.353 8.68208 10.45 8.88375 10.644C9.09458 10.838 9.2 11.076 9.2 11.3581C9.2 11.6314 9.09458 11.8651 8.88375 12.0591C8.68208 12.253 8.42542 12.35 8.11375 12.35Z" fill="white"/>
</svg>
