<svg width="24" height="24" viewBox="0 0 24 24" fill="none" xmlns="http://www.w3.org/2000/svg">
<path fill-rule="evenodd" clip-rule="evenodd" d="M3.5 9.00391C3.224 9.00391 3 8.77991 3 8.50391V6.50391C3 4.57391 4.57 3.00391 6.5 3.00391H8.5C8.776 3.00391 9 3.22791 9 3.50391C9 3.77991 8.776 4.00391 8.5 4.00391H6.5C5.122 4.00391 4 5.12491 4 6.50391V8.50391C4 8.77991 3.776 9.00391 3.5 9.00391ZM19.5 9.00391C19.224 9.00391 19 8.77991 19 8.50391V6.50391C19 5.12491 17.878 4.00391 16.5 4.00391H14.5C14.224 4.00391 14 3.77991 14 3.50391C14 3.22791 14.224 3.00391 14.5 3.00391H16.5C18.43 3.00391 20 4.57391 20 6.50391V8.50391C20 8.77991 19.776 9.00391 19.5 9.00391ZM8.5 11.0039C8.224 11.0039 8 10.7799 8 10.5039V8.50391C8 8.22791 8.224 8.00391 8.5 8.00391C8.776 8.00391 9 8.22791 9 8.50391V10.5039C9 10.7799 8.776 11.0039 8.5 11.0039ZM14.5 11.0039C14.224 11.0039 14 10.7799 14 10.5039V8.50391C14 8.22791 14.224 8.00391 14.5 8.00391C14.776 8.00391 15 8.22791 15 8.50391V10.5039C15 10.7799 14.776 11.0039 14.5 11.0039ZM10.5 13.0039C10.224 13.0039 10 12.7799 10 12.5039C10 12.2279 10.224 12.0039 10.5 12.0039C10.776 12.0039 11 11.7789 11 11.5039V8.50391C11 8.22791 11.224 8.00391 11.5 8.00391C11.776 8.00391 12 8.22791 12 8.50391V11.5039C12 12.3309 11.327 13.0039 10.5 13.0039ZM11.5 16.0039C10.368 16.0039 9.408 15.6179 8.646 14.8579C8.451 14.6619 8.451 14.3459 8.646 14.1499C8.842 13.9549 9.158 13.9549 9.354 14.1499C9.928 14.7249 10.63 15.0039 11.5 15.0039C12.37 15.0039 13.072 14.7249 13.646 14.1499C13.842 13.9549 14.158 13.9549 14.354 14.1499C14.549 14.3459 14.549 14.6619 14.354 14.8579C13.592 15.6179 12.632 16.0039 11.5 16.0039ZM8.5 20.0039H6.5C4.57 20.0039 3 18.4339 3 16.5039V14.5039C3 14.2279 3.224 14.0039 3.5 14.0039C3.776 14.0039 4 14.2279 4 14.5039V16.5039C4 17.8829 5.122 19.0039 6.5 19.0039H8.5C8.776 19.0039 9 19.2279 9 19.5039C9 19.7799 8.776 20.0039 8.5 20.0039ZM16.5 20.0039H14.5C14.224 20.0039 14 19.7799 14 19.5039C14 19.2279 14.224 19.0039 14.5 19.0039H16.5C17.878 19.0039 19 17.8829 19 16.5039V14.5039C19 14.2279 19.224 14.0039 19.5 14.0039C19.776 14.0039 20 14.2279 20 14.5039V16.5039C20 18.4339 18.43 20.0039 16.5 20.0039Z" fill="#6463FD"/>
</svg>
