<svg width="35" height="34" viewBox="0 0 35 34" fill="none" xmlns="http://www.w3.org/2000/svg">
<path fill-rule="evenodd" clip-rule="evenodd" d="M5.59941 12.8062C5.21301 12.8062 4.89941 12.4926 4.89941 12.1062V9.30625C4.89941 6.60425 7.09741 4.40625 9.79941 4.40625H12.5994C12.9858 4.40625 13.2994 4.71985 13.2994 5.10625C13.2994 5.49265 12.9858 5.80625 12.5994 5.80625H9.79941C7.87021 5.80625 6.29941 7.37565 6.29941 9.30625V12.1062C6.29941 12.4926 5.98581 12.8062 5.59941 12.8062ZM27.9994 12.8062C27.613 12.8062 27.2994 12.4926 27.2994 12.1062V9.30625C27.2994 7.37565 25.7286 5.80625 23.7994 5.80625H20.9994C20.613 5.80625 20.2994 5.49265 20.2994 5.10625C20.2994 4.71985 20.613 4.40625 20.9994 4.40625H23.7994C26.5014 4.40625 28.6994 6.60425 28.6994 9.30625V12.1062C28.6994 12.4926 28.3858 12.8062 27.9994 12.8062ZM12.5994 15.6062C12.213 15.6062 11.8994 15.2926 11.8994 14.9062V12.1062C11.8994 11.7198 12.213 11.4062 12.5994 11.4062C12.9858 11.4062 13.2994 11.7198 13.2994 12.1062V14.9062C13.2994 15.2926 12.9858 15.6062 12.5994 15.6062ZM20.9994 15.6062C20.613 15.6062 20.2994 15.2926 20.2994 14.9062V12.1062C20.2994 11.7198 20.613 11.4062 20.9994 11.4062C21.3858 11.4062 21.6994 11.7198 21.6994 12.1062V14.9062C21.6994 15.2926 21.3858 15.6062 20.9994 15.6062ZM15.3994 18.4062C15.013 18.4062 14.6994 18.0926 14.6994 17.7063C14.6994 17.3198 15.013 17.0062 15.3994 17.0062C15.7858 17.0062 16.0994 16.6912 16.0994 16.3062V12.1062C16.0994 11.7198 16.413 11.4062 16.7994 11.4062C17.1858 11.4062 17.4994 11.7198 17.4994 12.1062V16.3062C17.4994 17.464 16.5572 18.4062 15.3994 18.4062ZM16.7994 22.6062C15.2146 22.6062 13.8706 22.0658 12.8038 21.0019C12.5308 20.7274 12.5308 20.285 12.8038 20.0106C13.0782 19.7376 13.5206 19.7376 13.795 20.0106C14.5986 20.8156 15.5814 21.2062 16.7994 21.2062C18.0174 21.2062 19.0002 20.8156 19.8038 20.0106C20.0782 19.7376 20.5206 19.7376 20.795 20.0106C21.068 20.285 21.068 20.7274 20.795 21.0019C19.7282 22.0658 18.3842 22.6062 16.7994 22.6062ZM12.5994 28.2062H9.79941C7.09741 28.2062 4.89941 26.0082 4.89941 23.3062V20.5063C4.89941 20.1199 5.21301 19.8062 5.59941 19.8062C5.98581 19.8062 6.29941 20.1199 6.29941 20.5063V23.3062C6.29941 25.2368 7.87021 26.8062 9.79941 26.8062H12.5994C12.9858 26.8062 13.2994 27.1199 13.2994 27.5063C13.2994 27.8926 12.9858 28.2062 12.5994 28.2062ZM23.7994 28.2062H20.9994C20.613 28.2062 20.2994 27.8926 20.2994 27.5063C20.2994 27.1199 20.613 26.8062 20.9994 26.8062H23.7994C25.7286 26.8062 27.2994 25.2368 27.2994 23.3062V20.5063C27.2994 20.1199 27.613 19.8062 27.9994 19.8062C28.3858 19.8062 28.6994 20.1199 28.6994 20.5063V23.3062C28.6994 26.0082 26.5014 28.2062 23.7994 28.2062Z" fill="#5034C4"/>
</svg>
