<svg width="25" height="24" viewBox="0 0 25 24" fill="none" xmlns="http://www.w3.org/2000/svg">
<path d="M2.50195 12.0023C2.50252 14.3836 3.35242 16.6867 4.89892 18.4975C6.44541 20.3083 8.58707 21.5081 10.939 21.8813V14.8923H8.40195V12.0023H10.942V9.80232C10.8859 9.28741 10.9438 8.76647 11.1118 8.27649C11.2797 7.78651 11.5535 7.33952 11.9136 6.96726C12.2737 6.59499 12.7114 6.3066 13.1956 6.12255C13.6797 5.9385 14.1985 5.86331 14.715 5.90232C15.465 5.91432 16.215 5.98132 16.955 6.10232V8.56132H15.691C15.4761 8.53319 15.2577 8.55369 15.0519 8.62131C14.846 8.68893 14.658 8.80194 14.5017 8.95199C14.3454 9.10204 14.2249 9.2853 14.1489 9.48822C14.073 9.69114 14.0436 9.90853 14.063 10.1243V12.0023H16.834L16.391 14.8933H14.063V21.8813C15.9506 21.583 17.7132 20.7501 19.1421 19.4811C20.571 18.2121 21.6064 16.5603 22.1257 14.7211C22.645 12.882 22.6264 10.9326 22.0721 9.10366C21.5179 7.27475 20.4512 5.64296 18.9983 4.40147C17.5455 3.15998 15.7673 2.36079 13.8743 2.09853C11.9814 1.83626 10.0529 2.1219 8.31721 2.92163C6.58154 3.72135 5.11137 5.00167 4.08076 6.611C3.05015 8.22033 2.50226 10.0913 2.50195 12.0023Z" fill="#8F8E9B"/>
</svg>
