<svg width="100" height="100" viewBox="0 0 100 100" fill="none" xmlns="http://www.w3.org/2000/svg">
<g clip-path="url(#clip0_1_54997)">
<path d="M40.2784 54.9006C40.1567 53.9872 39.31 53.3438 38.4032 53.4737C37.4914 53.5954 36.8531 54.4355 36.9763 55.3489C38.7382 68.3469 34.0477 81.4783 24.4317 90.4741C23.76 91.1025 23.725 92.1576 24.3549 92.831C24.6817 93.181 25.1249 93.3576 25.5717 93.3576C25.9801 93.3576 26.3884 93.2093 26.7101 92.9075C37.1131 83.1751 42.1852 68.967 40.2784 54.9006Z" fill="#6463FD"/>
<path d="M16.1251 56.8474C16.1085 56.7691 16.0868 56.6941 16.06 56.6191C15.7233 54.8888 15.5184 53.1305 15.4449 51.3869C15.4082 50.4669 14.6216 49.7584 13.7114 49.7901C12.7913 49.8268 12.0762 50.6034 12.1145 51.5237C12.1979 53.5205 12.4413 55.534 12.8378 57.511C12.8529 57.5877 12.8746 57.6627 12.9011 57.736C13.988 63.5516 11.8709 69.5188 7.34061 73.3559C6.63878 73.9526 6.55049 75.0043 7.14567 75.7061C7.47734 76.0962 7.94575 76.2962 8.41904 76.2962C8.80072 76.2962 9.1824 76.1661 9.4959 75.8995C15.0115 71.2272 17.5518 63.9265 16.1251 56.8474Z" fill="#6463FD"/>
<path d="M25.4939 70.1254C24.6354 69.7919 23.6687 70.217 23.3353 71.0755C21.5484 75.6777 18.5866 79.7613 14.7727 82.885C14.0609 83.4667 13.956 84.5186 14.5393 85.2302C14.8694 85.632 15.3478 85.8402 15.8295 85.8402C16.2012 85.8402 16.5762 85.717 16.8862 85.4634C21.1417 81.9764 24.4469 77.4193 26.4438 72.282C26.7772 71.4255 26.3506 70.4586 25.4939 70.1254Z" fill="#6463FD"/>
<path d="M10.0007 22.8807C10.2974 23.0973 10.6408 23.2024 10.9824 23.2024C11.4958 23.2024 12.0025 22.9657 12.3293 22.5174C19.2167 13.0815 29.3192 6.61402 40.777 4.30383C50.9431 2.25187 61.2273 3.57876 70.5134 8.13761C71.3418 8.54605 72.3403 8.2009 72.7437 7.37581C73.1504 6.54917 72.8087 5.55063 71.9819 5.14551C62.0326 0.260067 51.0132 -1.16 40.1187 1.03514C27.8408 3.51039 17.0164 10.4412 9.63739 20.5521C9.09397 21.2956 9.25727 22.339 10.0007 22.8807Z" fill="#6463FD"/>
<path d="M4.30513 59.2392C4.29673 59.1991 4.27016 59.1693 4.25844 59.1292C2.18324 48.7149 3.63514 38.2271 8.4655 28.7912C8.88547 27.9728 8.56219 26.9678 7.74219 26.5476C6.92218 26.1259 5.91876 26.4527 5.4986 27.2727C0.30297 37.4186 -1.2505 48.7016 1.00812 59.8994C1.0214 59.9611 1.05637 60.0111 1.07473 60.0693C1.2097 60.7278 1.35307 61.3794 1.51149 62.0262C1.69979 62.7862 2.37993 63.2929 3.13001 63.2929C3.26166 63.2929 3.39507 63.2779 3.53005 63.2462C4.4235 63.0245 4.97023 62.1211 4.75009 61.2277C4.58836 60.5727 4.43834 59.9094 4.30513 59.2392Z" fill="#6463FD"/>
<path d="M42.5026 12.8647C27.0595 15.9783 15.3366 28.018 12.6379 43.5361C12.4813 44.4429 13.088 45.3062 13.9947 45.4647C14.9131 45.6213 15.7648 45.0129 15.9232 44.1079C18.3834 29.9532 29.0763 18.9737 43.1626 16.1317C61.8512 12.3696 80.1163 24.5024 83.8817 43.1877C83.8917 43.241 83.905 43.291 83.92 43.341C84.2218 44.8529 84.4818 46.3497 84.6933 47.7932C84.815 48.6216 85.5268 49.2166 86.3402 49.2166C86.4218 49.2166 86.5035 49.2115 86.5851 49.1982C87.4952 49.0648 88.1253 48.2181 87.9919 47.308C87.7651 45.7596 87.4835 44.1526 87.1584 42.5308C87.1467 42.4774 87.1334 42.4224 87.1168 42.3708C82.9166 21.9725 62.9363 8.74616 42.5026 12.8647Z" fill="#6463FD"/>
<path d="M63.4923 47.2983C62.7655 43.6929 60.6788 40.586 57.615 38.5508C54.5514 36.5139 50.8776 35.7972 47.2739 36.5205C41.8617 37.6122 37.638 41.8078 36.5111 47.2099C36.3228 48.1117 36.9012 48.995 37.8013 49.1833C38.7065 49.37 39.5865 48.7932 39.7748 47.8916C40.6282 43.7962 43.8302 40.6158 47.9322 39.789C50.6659 39.2407 53.4478 39.7839 55.7697 41.3259C58.0365 42.8327 59.5968 45.113 60.1819 47.7632C60.1885 47.8298 60.1969 47.8966 60.2102 47.9633C61.0552 52.1453 61.4886 56.4141 61.5004 60.6495C61.5037 61.5695 62.2487 62.3129 63.1671 62.3129H63.1704C64.0922 62.3112 64.8372 61.5629 64.8339 60.6428C64.8222 56.259 64.3805 51.842 63.5205 47.5132C63.5156 47.4417 63.5056 47.37 63.4923 47.2983Z" fill="#6463FD"/>
<path d="M51.6395 49.6884C51.4578 48.7866 50.5794 48.2066 49.676 48.3832C48.7742 48.5649 48.1891 49.445 48.3708 50.3467C51.6512 66.6167 47.2406 83.1066 36.2714 95.5912C35.6647 96.2829 35.733 97.3363 36.4229 97.9448C36.7396 98.2216 37.133 98.3581 37.523 98.3581C37.9864 98.3581 38.4464 98.168 38.7765 97.793C50.4378 84.5186 55.1266 66.9868 51.6395 49.6884Z" fill="#6463FD"/>
<path d="M99.0051 40.1384C98.9951 40.0884 98.9617 40.0501 98.9467 40.0001C96.3798 27.4471 89.1975 16.4827 78.7064 9.12029C77.953 8.5886 76.9113 8.77358 76.3845 9.52697C75.8561 10.2804 76.0378 11.3205 76.7911 11.8489C86.6189 18.7462 93.3377 29.0289 95.7114 40.8018C95.7198 40.8467 95.7464 40.8819 95.7581 40.925C96.4181 44.242 96.7215 47.6173 96.6582 50.961C96.6416 51.881 97.3733 52.6412 98.2933 52.6594H98.3267C99.2319 52.6594 99.9751 51.9326 99.9919 51.0243C100.06 47.3942 99.7284 43.7339 99.0051 40.1384Z" fill="#6463FD"/>
<path d="M75.3222 44.9148C73.9588 38.1475 70.0416 32.3186 64.2927 28.4998C58.5439 24.6795 51.6532 23.331 44.8875 24.6928C30.9228 27.5081 21.8502 41.1628 24.6671 55.1275C24.687 55.2258 24.7154 55.3191 24.7505 55.4092C25.2855 58.1944 25.4039 61.0181 25.1023 63.8083C25.0041 64.7234 25.6657 65.5451 26.5825 65.6451C27.4776 65.7352 28.3194 65.0818 28.4177 64.1649C28.7644 60.9378 28.6111 57.6742 27.9626 54.4622C27.9426 54.3655 27.9143 54.2721 27.8792 54.1839C25.6055 42.1194 33.478 30.3948 45.546 27.9613C51.4381 26.7729 57.4421 27.9496 62.4476 31.2767C67.4249 34.5837 70.8252 39.6209 72.0336 45.4697C72.0386 45.5047 72.0435 45.5414 72.0502 45.5764C73.9037 54.7589 74.0771 64.0665 72.5668 73.2357C72.4184 74.1458 73.0335 75.0025 73.942 75.1525C74.0336 75.1658 74.1236 75.1742 74.2137 75.1742C75.0153 75.1742 75.7222 74.5941 75.8572 73.7774C77.4257 64.2431 77.2522 54.5704 75.3405 45.0245C75.3354 44.9882 75.3306 44.9515 75.3222 44.9148Z" fill="#6463FD"/>
<path d="M87.0415 53.4956C86.1231 53.554 85.4248 54.3457 85.483 55.2641C86.0848 64.8201 85.1396 74.3609 82.6727 83.6203C82.436 84.5086 82.9644 85.4222 83.8545 85.6587C83.9979 85.697 84.1428 85.7171 84.2846 85.7171C85.0214 85.7171 85.6947 85.2237 85.8947 84.477C88.455 74.8694 89.4351 64.97 88.8101 55.0541C88.7534 54.1357 87.9817 53.4374 87.0415 53.4956Z" fill="#6463FD"/>
<path d="M73.0184 79.4178C72.1234 79.1762 71.2149 79.7061 70.9782 80.5963C69.7081 85.335 67.9761 89.9737 65.8259 94.3843C65.4226 95.2127 65.7675 96.2095 66.5944 96.6129C66.8311 96.7279 67.0778 96.7813 67.3245 96.7813C67.9412 96.7813 68.5346 96.4379 68.8229 95.8445C71.0665 91.2422 72.8733 86.4019 74.1967 81.4581C74.4369 80.5695 73.9086 79.6546 73.0184 79.4178Z" fill="#6463FD"/>
<path d="M62.9341 66.6513C62.0256 66.548 61.1923 67.2032 61.089 68.1181C59.8988 78.5408 56.1219 88.6551 50.1629 97.3644C49.6429 98.1228 49.8363 99.1595 50.5963 99.6796C50.8846 99.8779 51.2114 99.9713 51.5365 99.9713C52.0682 99.9713 52.5917 99.7179 52.9134 99.2462C59.179 90.0902 63.1511 79.4575 64.4012 68.4965C64.5044 67.5815 63.8475 66.7547 62.9341 66.6513Z" fill="#6463FD"/>
</g>
<defs>
<clipPath id="clip0_1_54997">
<rect width="100" height="100" fill="white"/>
</clipPath>
</defs>
</svg>
