<svg width="125" height="30" viewBox="0 0 125 30" fill="none" xmlns="http://www.w3.org/2000/svg">
<path d="M36.2974 19.058C34.0833 23.5037 28.7038 25.2863 24.235 23.0605C19.7663 20.8348 17.9476 15.4683 20.1632 11.0227C22.363 6.60735 27.741 4.82477 32.2098 7.05047C36.6785 9.27618 38.4972 14.6427 36.2974 19.058Z" fill="#5034C4"/>
<path d="M37.7198 6.13871C38.1048 5.36595 36.604 3.83647 34.3678 2.72251C32.1316 1.60855 30.0068 1.33196 29.6218 2.10471C29.2369 2.87746 30.7376 4.40695 32.9738 5.5209C35.21 6.63486 37.3349 6.91146 37.7198 6.13871Z" fill="#4431B5"/>
<path d="M52.8622 23.5661H50.6523V20.5249C48.9015 22.8517 46.7783 24.015 44.2798 24.015C42.9995 24.015 41.8462 23.6686 40.8214 22.9743C39.7966 22.2815 39.0706 21.3736 38.6448 20.2521C38.2175 19.132 38.0039 17.4822 38.0039 15.3056V6.56445H40.1805V14.6648C40.1805 16.6494 40.2715 17.9947 40.4533 18.699C40.6338 19.4034 40.9123 20.001 41.2862 20.4917C41.66 20.9825 42.1349 21.3563 42.7108 21.6118C43.2867 21.8673 43.9853 21.9957 44.808 21.9957C45.6308 21.9957 46.4362 21.7937 47.2257 21.3881C48.0153 20.9825 48.6879 20.4167 49.2436 19.6906C49.7978 18.9646 50.1717 18.2184 50.3636 17.4491C50.5556 16.6797 50.6523 15.1339 50.6523 12.8057V6.56445H52.8622V23.5661Z" fill="#5034C4"/>
<path d="M71.9456 10.0865L70.2164 11.1748C68.7225 9.19016 66.6729 8.19711 64.0691 8.19711C62.0194 8.19711 60.3018 8.85385 58.9133 10.1659C57.5247 11.4779 56.8319 13.1061 56.8319 15.0489C56.8319 16.9917 57.5146 18.6559 58.8815 20.0444C60.247 21.433 61.9761 22.1258 64.0691 22.1258C66.5661 22.1258 68.6157 21.1328 70.2164 19.1481L71.9456 20.3014C71.0911 21.5398 69.9436 22.4895 68.5031 23.1506C67.0626 23.8131 65.5096 24.1437 63.8439 24.1437C61.2184 24.1437 59.0244 23.2791 57.2635 21.5499C55.5025 19.8207 54.6221 17.7076 54.6221 15.2105C54.6221 12.7135 55.5126 10.5729 57.2952 8.79034C59.0778 7.00776 61.367 6.11719 64.1629 6.11719C65.8069 6.11719 67.3268 6.46937 68.7254 7.17375C70.1226 7.87812 71.1965 8.84952 71.9427 10.088L71.9456 10.0865Z" fill="#5034C4"/>
<path d="M73.6416 0H75.8514V9.60575C77.6008 7.27901 79.7255 6.11564 82.224 6.11564C83.5043 6.11564 84.6575 6.4635 85.6824 7.15632C86.7072 7.85059 87.4317 8.75704 87.859 9.87856C88.2862 10.9986 88.4999 12.6484 88.4999 14.825V23.5662H86.29V15.4659C86.29 13.7165 86.2366 12.5099 86.1298 11.8473C86.023 11.1863 85.7877 10.5555 85.4254 9.95794C85.0617 9.36038 84.5767 8.90715 83.9691 8.59683C83.3599 8.28794 82.6238 8.13205 81.7592 8.13205C80.8946 8.13205 80.0676 8.33557 79.278 8.73972C78.4885 9.14531 77.8159 9.71112 77.2602 10.4371C76.7045 11.1632 76.3321 11.9094 76.1401 12.6787C75.9481 13.4481 75.8514 14.9954 75.8514 17.3221V23.5662H73.6416V0Z" fill="#5034C4"/>
<path d="M105.084 18.0593L106.942 19.0206C105.106 22.4356 102.395 24.1432 98.8081 24.1432C96.2461 24.1432 94.133 23.2627 92.4687 21.5018C90.8031 19.7408 89.9717 17.6219 89.9717 15.1451C89.9717 12.6682 90.8089 10.545 92.4846 8.77251C94.1604 7.00148 96.2317 6.11523 98.697 6.11523C101.162 6.11523 103.232 6.93652 104.909 8.58054C106.585 10.2246 107.455 12.4661 107.519 15.3053H92.2133C92.2768 17.3549 92.9234 19.0033 94.1503 20.2518C95.3772 21.5003 96.8668 22.1253 98.6176 22.1253C101.499 22.1253 103.655 20.77 105.085 18.0593H105.084ZM105.084 13.4159C104.785 11.7935 104.038 10.5233 102.842 9.60535C101.647 8.68735 100.27 8.22836 98.7114 8.22836C95.51 8.22836 93.4171 9.95754 92.4355 13.4159H105.083H105.084Z" fill="#5034C4"/>
<path d="M108.351 6.56413H110.592V9.02944C111.19 8.02628 111.771 7.29015 112.337 6.81961C112.903 6.35051 113.532 6.11523 114.227 6.11523C114.921 6.11523 115.619 6.30721 116.324 6.69115L115.171 8.54879C114.85 8.35682 114.52 8.26011 114.178 8.26011C113.515 8.26011 112.891 8.60219 112.304 9.28492C111.717 9.96764 111.285 10.8481 111.008 11.9263C110.731 13.0045 110.592 14.9632 110.592 17.8024V23.5658H108.351V6.56413Z" fill="#5034C4"/>
<path d="M124.968 8.42126L123.56 9.86176C122.386 8.73015 121.243 8.16434 120.133 8.16434C119.407 8.16434 118.799 8.39384 118.308 8.85283C117.818 9.31183 117.572 9.87764 117.572 10.5503C117.572 11.2229 117.834 11.7988 118.356 12.2794C118.879 12.7601 119.781 13.336 121.062 14.0086C122.343 14.6812 123.32 15.4073 123.993 16.1853C124.665 16.9647 125.001 17.9202 125.001 19.0504C125.001 20.4808 124.505 21.6874 123.512 22.669C122.519 23.6505 121.298 24.1412 119.846 24.1412C118.886 24.1412 117.962 23.9276 117.076 23.5003C116.19 23.0731 115.438 22.4755 114.818 21.7077L116.195 20.1704C117.327 21.4305 118.511 22.0598 119.749 22.0598C120.624 22.0598 121.371 21.7712 121.991 21.1953C122.61 20.6193 122.919 19.9409 122.919 19.1615C122.919 18.3821 122.646 17.7427 122.102 17.2404C121.558 16.7395 120.65 16.1679 119.379 15.5271C118.109 14.8862 117.16 14.1876 116.53 13.4298C115.901 12.672 115.586 11.6905 115.586 10.4839C115.586 9.27719 116.029 8.24805 116.916 7.39357C117.802 6.54052 118.975 6.11328 120.437 6.11328C121.9 6.11328 123.409 6.88116 124.968 8.41837V8.42126Z" fill="#5034C4"/>
<path d="M0.828125 6.57831H3.00331V9.6816C4.73105 7.31444 6.98129 6.13086 9.75404 6.13086C12.1429 6.13086 14.2011 7.01133 15.9289 8.77082C17.6566 10.5303 18.5212 12.6478 18.5212 15.1217C18.5212 17.5957 17.6681 19.7189 15.9621 21.4885C14.256 23.2596 12.2078 24.1444 9.81899 24.1444C7.21656 24.1444 4.94467 22.9824 3.00476 20.6571V29.775H0.828125V6.57831ZM16.346 15.1535C16.346 13.2554 15.6907 11.6287 14.3787 10.2748C13.0666 8.92093 11.4616 8.24254 9.56351 8.24254C7.66546 8.24254 6.07051 8.90938 4.78012 10.2416C3.48973 11.5753 2.84454 13.2222 2.84454 15.1852C2.84454 17.1482 3.50561 18.7952 4.82776 20.1288C6.1499 21.4625 7.7333 22.1279 9.57939 22.1279C11.4255 22.1279 13.0132 21.451 14.3469 20.0956C15.6792 18.7417 16.346 17.0934 16.346 15.152V15.1535Z" fill="#5034C4"/>
</svg>
