<svg width="19" height="18" viewBox="0 0 19 18" fill="none" xmlns="http://www.w3.org/2000/svg">
<path opacity="0.4" d="M2.39307 6.50794V12.4445C2.39307 14.5978 3.6539 15.8516 5.81432 15.8516H13.1314C15.3272 15.8516 16.5597 14.5978 16.5597 12.4445V6.50794C16.5597 4.3199 15.3272 3.10156 13.1314 3.10156H5.81432C3.6539 3.10156 2.39307 4.3199 2.39307 6.50794Z" fill="white"/>
<path fill-rule="evenodd" clip-rule="evenodd" d="M4.16294 10.8688L14.797 10.8688C15.3802 10.8688 15.855 10.5511 15.855 10.1609C15.855 9.77067 15.3802 9.45212 14.797 9.45212L4.16294 9.45212C3.57834 9.45212 3.10496 9.77067 3.10496 10.1609C3.10496 10.5511 3.57834 10.8688 4.16294 10.8688ZM3.65788 12.2862L3.65789 12.2933C3.35259 12.2933 3.10538 12.5412 3.10538 12.8458C3.10539 13.1504 3.35259 13.3983 3.65788 13.3983L5.77509 13.3983C6.08038 13.3983 6.3283 13.1504 6.3283 12.838C6.3283 12.5341 6.08038 12.2862 5.77509 12.2862L3.65788 12.2862Z" fill="white" fill-opacity="0.4"/>
<path fill-rule="evenodd" clip-rule="evenodd" d="M12.7202 3.5758C12.2927 3.5758 11.9461 3.92236 11.9461 4.34986C11.9461 4.77737 12.2927 5.12393 12.7202 5.12393L14.2027 5.12393L14.2027 6.60236C14.2027 7.02986 14.5492 7.37643 14.9767 7.37643C15.4042 7.37643 15.7508 7.02986 15.7508 6.60236L15.7508 5.12393L17.2331 5.12393C17.6606 5.12393 18.0072 4.77737 18.0072 4.34986C18.0072 3.92236 17.6606 3.5758 17.2331 3.5758L15.7508 3.5758L15.7508 2.0937C15.7508 1.6662 15.4042 1.31963 14.9767 1.31963C14.5492 1.31963 14.2027 1.6662 14.2027 2.0937L14.2027 3.5758L12.7202 3.5758Z" fill="white"/>
</svg>
