<svg width="40" height="40" viewBox="0 0 40 40" fill="none" xmlns="http://www.w3.org/2000/svg">
<g clip-path="url(#clip0_1_32950)">
<path d="M18.0579 22.4187V23.8474C15.8534 23.8502 13.7334 22.9977 12.1445 21.4692V29.7301H35.7185C36.902 29.7301 37.8616 28.7705 37.8616 27.587V20.4434H13.1369C14.4603 21.7127 16.2239 22.4208 18.0579 22.4187ZM32.861 25.4439H34.2897V26.8726H32.861V25.4439ZM30.0036 25.4439H31.4323V26.8726H30.0036V25.4439ZM27.1461 25.4439H28.5749V26.8726H27.1461V25.4439ZM24.2887 25.4439H25.7174V26.8726H24.2887V25.4439Z" fill="#5034C4"/>
<path d="M7.33244 14.0137C6.5553 14.0217 5.89186 14.5763 5.74606 15.3395C5.59991 16.1027 6.01255 16.8628 6.73144 17.1568L10.245 18.5677L8.83756 15.035C8.59374 14.4176 7.99658 14.0123 7.33244 14.0137Z" fill="#5034C4"/>
<path d="M30.5343 35.9721C30.9888 36.1898 31.5109 36.2173 31.9853 36.0485C32.46 35.88 32.8476 35.5291 33.0624 35.0736L34.9272 31.1582H20.5039L30.5343 35.9721Z" fill="#5034C4" fill-opacity="0.4"/>
<path d="M2.14453 11.8716V19.0152H7.52073L6.20433 18.4864C4.9078 17.973 4.12298 16.6472 4.29669 15.2634C4.47039 13.8797 5.55798 12.789 6.94101 12.6114C8.32439 12.4339 9.65231 13.2149 10.1696 14.5096L10.7169 15.8833V9.72852H4.28762C3.10411 9.72852 2.14453 10.6881 2.14453 11.8716Z" fill="#5034C4"/>
<path d="M9.46779 4.19927C9.01364 3.98161 8.49147 3.95441 8.01709 4.12288C7.54236 4.2917 7.15483 4.64261 6.93962 5.09815L5.41602 8.29918H18.0108L9.46779 4.19927Z" fill="#5034C4" fill-opacity="0.4"/>
<path d="M5.00198 22.4187C6.83602 22.4208 8.5996 21.7127 9.92333 20.4434H2.14453V27.587C2.14453 28.7705 3.10411 29.7301 4.28762 29.7301H10.7169V21.6506C9.15037 23.0664 7.11332 23.8495 5.00198 23.8474V22.4187Z" fill="#5034C4"/>
<path d="M0.712455 21.6039V18.1855L0.185055 19.2944C-0.19445 20.0932 0.023556 21.0486 0.712455 21.6039Z" fill="#5034C4" fill-opacity="0.4"/>
<path d="M39.291 18.5703V21.9879L39.8181 20.8798C40.1979 20.0807 39.9799 19.1256 39.291 18.5703Z" fill="#5034C4" fill-opacity="0.4"/>
<path d="M35.7185 9.72852H12.1445V16.3821L12.8903 14.5096C13.4111 13.2225 14.7351 12.4492 16.1119 12.6275C17.489 12.8061 18.572 13.8912 18.7478 15.2687C18.9233 16.6458 18.1475 17.9681 16.8594 18.4864L15.5391 19.0152H37.8616V11.8716C37.8616 10.6881 36.902 9.72852 35.7185 9.72852ZM25.7174 14.729H24.2887V11.8716H25.7174V14.729ZM28.5749 14.729H27.1461V11.8716H28.5749V14.729ZM31.4323 14.729H30.0036V11.8716H31.4323V14.729ZM34.2897 14.729H32.861V11.8716H34.2897V14.729Z" fill="#5034C4"/>
<path d="M17.3398 15.6445C17.345 14.8649 16.7939 14.1921 16.0282 14.0435C15.2626 13.8949 14.4998 14.3131 14.213 15.0383L12.8066 18.5707L16.3199 17.157C16.9379 16.91 17.3422 16.3104 17.3398 15.6445Z" fill="#5034C4"/>
</g>
<defs>
<clipPath id="clip0_1_32950">
<rect width="40" height="40" fill="white"/>
</clipPath>
</defs>
</svg>
