<svg width="40" height="40" viewBox="0 0 40 40" fill="none" xmlns="http://www.w3.org/2000/svg">
<path d="M2.5 21.2266V36.2266C2.5 37.6066 3.6225 38.7266 5 38.7266H17.5V21.2266H2.5Z" fill="#FF8264"/>
<path d="M37.5 11.2253H29.59C30.1575 10.8378 30.645 10.4528 30.985 10.1078C33.0025 8.08031 33.0025 4.78031 30.985 2.75281C29.025 0.777813 25.61 0.782813 23.6525 2.75281C22.5675 3.84031 19.6925 8.26781 20.09 11.2253H19.91C20.305 8.26781 17.43 3.84031 16.3475 2.75281C14.3875 0.782813 10.9725 0.782813 9.015 2.75281C7 4.78031 7 8.08031 9.0125 10.1078C9.355 10.4528 9.8425 10.8378 10.41 11.2253H2.5C1.1225 11.2253 0 12.3478 0 13.7253V17.4753C0 18.1653 0.56 18.7253 1.25 18.7253H17.5V13.7253H22.5V18.7253H38.75C39.44 18.7253 40 18.1653 40 17.4753V13.7253C40 12.3478 38.88 11.2253 37.5 11.2253ZM17.3525 11.1428C17.3525 11.1428 17.2475 11.2253 16.89 11.2253C15.1625 11.2253 11.865 9.43031 10.7875 8.34531C9.74 7.29031 9.74 5.57031 10.7875 4.51531C11.295 4.00531 11.9675 3.72531 12.6825 3.72531C13.395 3.72531 14.0675 4.00531 14.575 4.51531C16.26 6.21031 17.935 10.5403 17.3525 11.1428ZM23.1075 11.2253C22.7525 11.2253 22.6475 11.1453 22.6475 11.1428C22.065 10.5403 23.74 6.21031 25.425 4.51531C26.4325 3.49781 28.195 3.49281 29.2125 4.51531C30.2625 5.57031 30.2625 7.29031 29.2125 8.34531C28.135 9.43031 24.8375 11.2253 23.1075 11.2253Z" fill="#FF8264" fill-opacity="0.4"/>
<path d="M22.5 21.2266V38.7266H35C36.38 38.7266 37.5 37.6066 37.5 36.2266V21.2266H22.5Z" fill="#FF8264"/>
</svg>
