<svg width="41" height="40" viewBox="0 0 41 40" fill="none" xmlns="http://www.w3.org/2000/svg">
<g clip-path="url(#clip0_3343_45822)">
<path d="M3 21.2256V36.2256C3 37.6056 4.1225 38.7256 5.5 38.7256H18V21.2256H3Z" fill="#5034C4"/>
<path d="M38 11.2263H30.09C30.6575 10.8388 31.145 10.4538 31.485 10.1088C33.5025 8.08129 33.5025 4.78129 31.485 2.75379C29.525 0.77879 26.11 0.78379 24.1525 2.75379C23.0675 3.84129 20.1925 8.26879 20.59 11.2263H20.41C20.805 8.26879 17.93 3.84129 16.8475 2.75379C14.8875 0.78379 11.4725 0.78379 9.515 2.75379C7.5 4.78129 7.5 8.08129 9.5125 10.1088C9.855 10.4538 10.3425 10.8388 10.91 11.2263H3C1.6225 11.2263 0.5 12.3488 0.5 13.7263V17.4763C0.5 18.1663 1.06 18.7263 1.75 18.7263H18V13.7263H23V18.7263H39.25C39.94 18.7263 40.5 18.1663 40.5 17.4763V13.7263C40.5 12.3488 39.38 11.2263 38 11.2263ZM17.8525 11.1438C17.8525 11.1438 17.7475 11.2263 17.39 11.2263C15.6625 11.2263 12.365 9.43129 11.2875 8.34629C10.24 7.29129 10.24 5.57129 11.2875 4.51629C11.795 4.00629 12.4675 3.72629 13.1825 3.72629C13.895 3.72629 14.5675 4.00629 15.075 4.51629C16.76 6.21129 18.435 10.5413 17.8525 11.1438ZM23.6075 11.2263C23.2525 11.2263 23.1475 11.1463 23.1475 11.1438C22.565 10.5413 24.24 6.21129 25.925 4.51629C26.9325 3.49879 28.695 3.49379 29.7125 4.51629C30.7625 5.57129 30.7625 7.29129 29.7125 8.34629C28.635 9.43129 25.3375 11.2263 23.6075 11.2263Z" fill="#5034C4" fill-opacity="0.4"/>
<path d="M23 21.2256V38.7256H35.5C36.88 38.7256 38 37.6056 38 36.2256V21.2256H23Z" fill="#5034C4"/>
</g>
<defs>
<clipPath id="clip0_3343_45822">
<rect width="40" height="40" fill="white" transform="translate(0.5)"/>
</clipPath>
</defs>
</svg>
