<svg width="35" height="34" viewBox="0 0 35 34" fill="none" xmlns="http://www.w3.org/2000/svg">
<path d="M17.4179 30.353C24.9626 30.353 31.0788 24.2368 31.0788 16.6921C31.0788 9.14743 24.9626 3.03125 17.4179 3.03125C9.87325 3.03125 3.75708 9.14743 3.75708 16.6921C3.75708 24.2368 9.87325 30.353 17.4179 30.353Z" fill="#50B651"/>
<path opacity="0.663" fill-rule="evenodd" clip-rule="evenodd" d="M31.0369 16.6537C31.0369 24.2221 24.9016 30.3574 17.3349 30.3574C9.76823 30.3574 3.63123 24.2221 3.63123 16.6537C3.63123 13.3057 3.72507 12.8079 5.04291 10.9019C5.04291 10.9019 4.97491 13.0548 6.55353 14.3359C7.53511 15.1318 8.55953 14.5572 10.4346 13.6936C12.4631 12.7586 14.1121 12.1555 15.3986 12.3146C17.3366 12.5546 23.3101 16.142 26.4275 15.4276C28.918 14.8581 28.6552 8.98633 28.6552 8.98633C31.3752 11.6424 31.0369 13.4376 31.0369 16.6537Z" fill="url(#paint0_linear_546_7629)"/>
<path opacity="0.586" fill-rule="evenodd" clip-rule="evenodd" d="M23.2152 26.7192C28.1713 22.0573 28.9951 16.7166 25.6867 10.697C25.7034 10.7092 25.9081 10.003 26.3007 8.57812C28.0615 10.7104 28.9977 13.3422 29.1094 16.4736C29.1085 20.5296 27.1438 23.9448 23.2152 26.7192Z" fill="url(#paint1_linear_546_7629)"/>
<path opacity="0.744" fill-rule="evenodd" clip-rule="evenodd" d="M20.8644 8.60642C18.4722 7.28246 15.7277 4.61924 16.0925 4.05994C16.4574 3.50064 21.1925 3.59686 23.5851 4.92082C25.9777 6.24478 28.0139 10.2163 27.6495 10.7756C27.285 11.3349 23.2567 9.93038 20.8644 8.60642Z" fill="url(#paint2_radial_546_7629)"/>
<path fill-rule="evenodd" clip-rule="evenodd" d="M22.9483 20.0563C20.9637 20.0563 19.3549 18.4015 19.3549 16.3605C19.3549 14.3195 20.9637 12.665 22.9483 12.665C24.9329 12.665 26.5421 14.3195 26.5421 16.3605C26.5421 18.4015 24.9332 20.0563 22.9483 20.0563ZM22.9738 18.884C24.2124 18.884 25.2178 17.7542 25.2178 16.3605C25.2178 14.9668 24.2124 13.838 22.9738 13.838C21.7352 13.838 20.7298 14.9679 20.7298 16.3612C20.7298 17.7545 21.7352 18.884 22.9738 18.884Z" fill="white"/>
<path fill-rule="evenodd" clip-rule="evenodd" d="M15.5339 9.68945H18.1234V20.0153H16.7018V10.822H15.5339V9.68945Z" fill="white"/>
<path fill-rule="evenodd" clip-rule="evenodd" d="M13.6041 12.77H14.9481V21.393C14.9481 22.1788 14.1216 22.9972 13.3161 23.3494C12.9353 23.5158 12.2327 23.6146 11.2081 23.6459V22.7881C12.2102 22.6763 12.8866 22.4534 13.2372 22.1193C13.4396 21.8381 13.566 21.5095 13.6044 21.1652V18.6319C13.2452 19.3942 12.7927 19.8995 12.2472 20.148C11.68 20.454 10.5257 20.4036 10.0545 20.148C9.58326 19.8923 8.89204 19.2191 8.57516 18.2164C8.48744 17.9397 8.26916 17.1866 8.29194 16.3886C8.31234 15.6287 8.56394 14.8246 8.77304 14.4941C9.13208 13.9297 9.69818 13.2228 10.5557 12.9274C10.9745 12.783 11.7509 12.7311 12.8847 12.7717V13.6247C12.0421 13.5678 11.5165 13.5963 11.3077 13.7101C10.9946 13.8801 10.2877 14.0898 10.0545 15.6304C9.82126 17.1709 10.0613 18.4316 10.8008 18.8264C11.0541 18.9624 11.5022 19.1232 11.9163 18.9814C12.7119 18.7094 13.4606 17.7394 13.5177 17.0822C13.5753 16.4153 13.6041 14.9779 13.6041 12.77Z" fill="white"/>
<path fill-rule="evenodd" clip-rule="evenodd" d="M30.6075 19.3963C29.3383 25.5078 23.9228 30.0998 17.4353 30.0998C10.0053 30.0998 3.98181 24.0764 3.98181 16.6464C3.98181 12.0305 6.30639 7.95766 9.84851 5.53516C6.97041 7.92196 5.13781 11.5277 5.13781 15.5597C5.13781 22.7517 10.9681 28.5817 18.1598 28.5817C24.0167 28.5817 28.9698 24.7156 30.6075 19.3963Z" fill="url(#paint3_radial_546_7629)"/>
<path fill-rule="evenodd" clip-rule="evenodd" d="M17.4353 0.713867C8.6361 0.713867 1.50256 7.84707 1.50256 16.6463C1.50256 25.4455 8.6361 32.579 17.4353 32.579C26.2345 32.579 33.368 25.4455 33.368 16.6463C33.368 7.84707 26.2345 0.713867 17.4353 0.713867ZM17.4353 30.1001C10.0053 30.1001 3.98184 24.0766 3.98184 16.6466C3.98184 12.0308 6.30642 7.95791 9.84854 5.53541C12.0824 4.00543 14.7277 3.18864 17.4353 3.19281C24.8653 3.19281 30.8888 9.21591 30.8888 16.6463C30.8892 17.5701 30.795 18.4916 30.6076 19.3962C29.3384 25.5077 23.9228 30.0997 17.4353 30.0997V30.1001Z" fill="white"/>
<defs>
<linearGradient id="paint0_linear_546_7629" x1="16.8055" y1="10.8577" x2="18.562" y2="26.7197" gradientUnits="userSpaceOnUse">
<stop stop-color="#123214"/>
<stop offset="0.46" stop-color="#3E7C37"/>
<stop offset="0.91" stop-color="#5FBB46"/>
</linearGradient>
<linearGradient id="paint1_linear_546_7629" x1="26.9527" y1="9.82637" x2="26.9527" y2="22.653" gradientUnits="userSpaceOnUse">
<stop stop-color="white" stop-opacity="0"/>
<stop offset="0.64" stop-color="white" stop-opacity="0.43"/>
<stop offset="1" stop-color="white" stop-opacity="0.42"/>
</linearGradient>
<radialGradient id="paint2_radial_546_7629" cx="0" cy="0" r="1" gradientUnits="userSpaceOnUse" gradientTransform="translate(22.1621 7.50764) rotate(26.7606) scale(6.75047 2.81145)">
<stop offset="0.13" stop-color="white"/>
<stop offset="0.29" stop-color="white" stop-opacity="0.69"/>
<stop offset="0.45" stop-color="white" stop-opacity="0.4"/>
<stop offset="0.59" stop-color="white" stop-opacity="0.18"/>
<stop offset="0.69" stop-color="white" stop-opacity="0.05"/>
<stop offset="0.74" stop-color="white" stop-opacity="0"/>
</radialGradient>
<radialGradient id="paint3_radial_546_7629" cx="0" cy="0" r="1" gradientUnits="userSpaceOnUse" gradientTransform="translate(19.7422 13.5466) rotate(39.84) scale(15.1276 16.4891)">
<stop offset="0.86" stop-opacity="0"/>
<stop offset="0.98" stop-opacity="0.47"/>
<stop offset="1"/>
</radialGradient>
</defs>
</svg>
