<svg width="134" height="134" viewBox="0 0 134 134" fill="none" xmlns="http://www.w3.org/2000/svg">
<path d="M59.8118 6.01002C69.4522 4.88201 79.3635 6.03881 88.4608 9.44377C96.6723 12.515 104.241 17.349 110.409 23.5884C105.134 28.8188 99.9071 34.0977 94.6387 39.3347C91.2429 36.0043 87.2857 33.2301 82.9307 31.3038C77.1441 28.7102 70.7098 27.5691 64.3853 28.0062C57.2404 28.4668 50.2381 30.9492 44.4123 35.1118C37.1836 40.2088 31.7699 47.834 29.3896 56.3569C27.6047 62.6093 27.4568 69.308 28.8976 75.6455C30.0557 80.8289 32.3117 85.7597 35.4471 90.044C38.3574 94.0287 42.0293 97.4559 46.2064 100.082C51.0207 103.123 56.5128 105.084 62.166 105.772C67.0104 106.38 71.9673 106.064 76.6979 104.856C77.2174 104.606 77.5145 105.198 77.8403 105.492C83.1715 110.851 88.5289 116.183 93.8614 121.539C84.2681 126.198 73.4487 128.326 62.8085 127.574C53.9035 126.984 45.1333 124.423 37.3288 120.092C34.0744 118.312 31.0175 116.19 28.1255 113.871C25.8407 111.933 23.5834 109.944 21.6192 107.675C18.294 104.09 15.4413 100.07 13.0911 95.7835C12.5676 94.7732 11.9605 93.8049 11.5338 92.7475C10.9489 91.5633 10.4386 90.345 9.93082 89.1267C9.28176 87.3902 8.5882 85.6667 8.11449 83.8727C8.05822 83.6358 7.91428 83.4369 7.78473 83.238C6.69859 79.4876 6.0901 75.605 5.76426 71.7171C5.42141 66.8282 5.59022 61.8961 6.38977 57.057C7.98363 47.1797 12.0704 37.7238 18.1488 29.7806C22.0903 24.6117 26.8549 20.0696 32.2109 16.3872C40.3818 10.7458 49.9463 7.13672 59.8118 6.01002ZM66.2475 12.6158C65.5016 12.7454 64.8132 13.1078 64.2348 13.5881C62.8739 14.7567 62.3845 16.8347 63.1657 18.4665C63.9941 20.432 66.4581 21.4894 68.4472 20.6911C70.4664 20.0054 71.6899 17.6146 71.0304 15.5798C70.4939 13.5606 68.2928 12.2049 66.2475 12.6158ZM31.1824 27.2707C30.4849 27.3074 29.7966 27.522 29.1986 27.8832C27.6976 28.8031 26.8588 30.7281 27.3194 32.4449C27.7238 34.2874 29.5152 35.7243 31.4101 35.6654C33.3769 35.719 35.2155 34.1749 35.5374 32.2408C35.8305 30.889 35.3267 29.4208 34.3413 28.4655C33.5248 27.6372 32.3392 27.2066 31.1824 27.2707ZM16.0079 62.8645C15.1416 63.0255 14.3277 63.4638 13.7127 64.0946C12.476 65.3665 12.179 67.4407 13.0557 68.9913C13.9927 70.8181 16.39 71.7211 18.2875 70.9045C20.253 70.1835 21.4268 67.8398 20.7817 65.8389C20.253 63.8224 18.052 62.4418 16.0079 62.8645ZM30.6616 98.4648C29.158 98.72 27.8507 99.8676 27.411 101.328C26.9046 102.85 27.394 104.62 28.5757 105.693C29.3804 106.411 30.46 106.832 31.5422 106.782C33.0026 106.749 34.4185 105.883 35.0912 104.584C35.7363 103.428 35.7651 101.964 35.1841 100.776C34.4225 99.1034 32.4609 98.1154 30.6616 98.4648ZM66.2632 113.125C64.7243 113.389 63.3947 114.574 62.9799 116.082C62.4735 117.727 63.1278 119.648 64.5384 120.635C65.567 121.393 66.9489 121.639 68.1724 121.271C69.43 120.908 70.4886 119.931 70.9296 118.696C71.58 117.028 70.9767 114.99 69.5451 113.925C68.6265 113.211 67.4056 112.921 66.2632 113.125Z" fill="#A0A0A0"/>
<path d="M66.2475 12.6145C68.2928 12.2036 70.4939 13.5593 71.0304 15.5785C71.6899 17.6134 70.4664 20.0042 68.4472 20.6899C66.4582 21.4881 63.9941 20.4308 63.1657 18.4653C62.3845 16.8334 62.8739 14.7554 64.2349 13.5868C64.8133 13.1066 65.5016 12.7441 66.2475 12.6145Z" fill="#C1C1C1"/>
<path d="M16.008 62.8634C18.0521 62.4407 20.2531 63.8213 20.7818 65.8378C21.4269 67.8387 20.2531 70.1824 18.2876 70.9034C16.3902 71.72 13.9928 70.817 13.0559 68.9902C12.1791 67.4396 12.4762 65.3654 13.7128 64.0935C14.3278 63.4627 15.1418 63.0244 16.008 62.8634Z" fill="#C1C1C1"/>
<path d="M110.409 23.5867L110.423 23.5723C113.647 26.8595 116.568 30.4555 119.009 34.3642C123.721 41.8442 126.779 50.3579 127.89 59.1294C128.632 65.0023 128.58 70.9852 127.622 76.8307C125.96 87.3008 121.479 97.2984 114.811 105.536C109.275 112.404 102.265 118.104 94.343 121.993L94.2606 121.959C94.1284 121.815 93.9949 121.676 93.8615 121.538C88.5289 116.181 83.1716 110.849 77.8404 105.49C77.5145 105.196 77.2175 104.604 76.6979 104.854C71.9674 106.062 67.0104 106.379 62.166 105.77C56.5129 105.082 51.0207 103.122 46.2064 100.081C42.0294 97.4542 38.3575 94.027 35.4472 90.0423C32.3118 85.7579 30.0557 80.8272 28.8976 75.6438C27.4569 69.3063 27.6048 62.6076 29.3897 56.3552C31.77 47.8323 37.1837 40.2071 44.4123 35.1101C50.2382 30.9475 57.2405 28.4651 64.3854 28.0045C70.7098 27.5674 77.1442 28.7085 82.9308 31.3021C87.2858 33.2284 91.243 36.0026 94.6388 39.333C99.9072 34.096 105.134 28.8171 110.409 23.5867ZM64.3788 47.6609C61.6007 48.0338 58.8972 49.0061 56.543 50.5319C53.5228 52.4228 51.0783 55.1879 49.4897 58.3717C47.5817 62.1928 47.0505 66.6433 47.8539 70.8256C48.3682 73.4231 49.4282 75.9134 50.937 78.0896C51.9747 79.5971 53.2466 80.924 54.5552 82.196C62.0574 89.7086 69.553 97.2265 77.0617 104.731C83.4856 103.021 89.4502 99.6356 94.2109 94.9953C100.114 89.3239 104.112 81.7209 105.505 73.6574C105.537 73.5213 105.534 73.2766 105.747 73.3172C109.625 73.3224 113.502 73.3158 117.381 73.3237C119.872 73.2844 122.206 71.3909 122.715 68.9451C122.743 68.7868 122.715 68.6415 122.627 68.5068C122.787 67.7596 122.899 66.9914 122.808 66.2259L122.776 66.2782C122.508 63.6165 120.049 61.4207 117.378 61.4142C106.826 61.405 96.2732 61.4129 85.7194 61.405C84.8767 58.5156 83.2985 55.8657 81.2663 53.6542C77.8901 50.0556 73.1189 47.7642 68.1777 47.5274C66.911 47.53 65.6338 47.4567 64.3788 47.6609ZM101.853 98.4749C100.199 98.7444 98.7949 100.122 98.49 101.77C98.2963 102.835 98.4716 103.997 99.1089 104.891C99.8627 106.095 101.307 106.822 102.722 106.756C103.811 106.76 104.852 106.239 105.622 105.492C106.259 104.759 106.728 103.834 106.756 102.848C106.869 101.36 106.094 99.8253 104.81 99.0585C103.957 98.4749 102.862 98.3061 101.853 98.4749Z" fill="#686868"/>
<path d="M31.1826 27.2699C32.3394 27.2058 33.525 27.6363 34.3415 28.4647C35.3269 29.42 35.8307 30.8882 35.5376 32.24C35.2157 34.1741 33.3771 35.7182 31.4103 35.6646C29.5154 35.7234 27.724 34.2866 27.3196 32.4441C26.859 30.7272 27.6978 28.8023 29.1988 27.8824C29.7968 27.5212 30.4851 27.3066 31.1826 27.2699Z" fill="#C3C3C3"/>
<path d="M64.379 47.6618C65.6339 47.4576 66.9111 47.5309 68.1778 47.5283C73.1191 47.7651 77.8902 50.0565 81.2664 53.6551C83.2986 55.8666 84.8768 58.5165 85.7195 61.4059C79.4814 61.4046 73.2421 61.4046 67.0027 61.4046C65.4075 61.3902 63.832 62.1139 62.7877 63.3165C62.0013 64.2129 61.5131 65.3644 61.4215 66.5539C61.2658 68.4082 62.1229 70.3096 63.6056 71.4324C64.6027 72.2057 65.8668 72.6101 67.1283 72.5839C83.7069 72.5787 100.287 72.5761 116.865 72.5879C117.488 72.5931 118.12 72.5682 118.724 72.3942C120.583 71.8943 122.129 70.3698 122.627 68.5077C122.715 68.6424 122.744 68.7877 122.715 68.946C122.206 71.3918 119.872 73.2853 117.381 73.3246C113.502 73.3167 109.625 73.3233 105.748 73.3181C105.534 73.2775 105.537 73.5222 105.505 73.6583C104.112 81.7218 100.114 89.3248 94.211 94.9962C89.4503 99.6365 83.4857 103.022 77.0619 104.732C69.5531 97.2274 62.0575 89.7095 54.5554 82.1969C53.2468 80.9249 51.9748 79.598 50.9371 78.0905C49.4283 75.9143 48.3683 73.424 47.854 70.8265C47.0506 66.6442 47.5819 62.1937 49.4898 58.3726C51.0784 55.1888 53.5229 52.4237 56.5431 50.5328C58.8973 49.007 61.6008 48.0347 64.379 47.6618Z" fill="#474747"/>
<path d="M62.7876 63.3164C63.8318 62.1138 65.4074 61.3901 67.0025 61.4045C73.2419 61.4045 79.4813 61.4045 85.7194 61.4058C96.2732 61.4137 106.826 61.4058 117.378 61.415C120.049 61.4215 122.508 63.6173 122.776 66.279C122.751 66.3222 122.7 66.406 122.674 66.4478C122.192 64.0256 119.851 62.1085 117.378 62.1229C101.025 62.136 84.6712 62.1386 68.3177 62.1452C67.3061 62.1622 66.258 62.0405 65.2883 62.4017C64.1027 62.7733 63.099 63.5925 62.374 64.587C61.937 65.1824 61.7996 65.927 61.4214 66.5538C61.513 65.3643 62.0011 64.2128 62.7876 63.3164Z" fill="#BFBFBF"/>
<path d="M30.6617 98.4645C32.461 98.1151 34.4226 99.1031 35.1842 100.775C35.7652 101.964 35.7364 103.428 35.0912 104.584C34.4186 105.883 33.0027 106.749 31.5423 106.782C30.4601 106.832 29.3805 106.41 28.5758 105.693C27.3941 104.62 26.9047 102.85 27.4111 101.328C27.8508 99.8673 29.1581 98.7197 30.6617 98.4645Z" fill="#BFBFBF"/>
<path d="M65.2884 62.4019C66.258 62.0407 67.3062 62.1624 68.3177 62.1454C84.6712 62.1388 101.025 62.1362 117.378 62.1231C119.851 62.1087 122.193 64.0258 122.674 66.448C122.7 66.4062 122.751 66.3224 122.776 66.2792L122.808 66.2269C122.899 66.9924 122.787 67.7606 122.627 68.5078C122.128 70.3699 120.583 71.8944 118.723 72.3943C118.12 72.5683 117.488 72.5932 116.865 72.588C100.287 72.5762 83.7068 72.5788 67.1282 72.584C65.8667 72.6102 64.6026 72.2058 63.6055 71.4325C62.1229 70.3097 61.2657 68.4083 61.4215 66.554C61.7996 65.9272 61.937 65.1826 62.3741 64.5872C63.0991 63.5927 64.1028 62.7735 65.2884 62.4019Z" fill="#B0B0B0"/>
<path d="M7.78491 83.2363C7.91446 83.4352 8.05841 83.6341 8.11468 83.871C8.58839 85.6651 9.28194 87.3885 9.93101 89.125C10.4387 90.3433 10.9491 91.5616 11.534 92.7459C11.9606 93.8032 12.5678 94.7716 13.0913 95.7818C15.4415 100.069 18.2942 104.089 21.6194 107.673C23.5836 109.942 25.8409 111.931 28.1257 113.869C31.0177 116.188 34.0746 118.311 37.329 120.09C45.1335 124.422 53.9037 126.983 62.8087 127.573C73.4488 128.324 84.2683 126.196 93.8616 121.538C93.9951 121.676 94.1285 121.815 94.2607 121.959L94.2646 122.039C88.7267 124.791 82.7647 126.688 76.6562 127.654C69.209 128.819 61.5472 128.634 54.1719 127.065C45.2879 125.187 36.8435 121.28 29.6463 115.744C21.3341 109.381 14.6864 100.862 10.5591 91.2384C9.4573 88.6382 8.47454 85.9752 7.78491 83.2363Z" fill="#939393"/>
<path d="M101.853 98.4762C102.862 98.3074 103.957 98.4762 104.81 99.0598C106.094 99.8267 106.869 101.362 106.756 102.85C106.728 103.835 106.259 104.76 105.622 105.493C104.852 106.24 103.811 106.761 102.722 106.757C101.307 106.824 99.8626 106.096 99.1089 104.892C98.4716 103.998 98.2962 102.836 98.4899 101.771C98.7948 100.124 100.199 98.7458 101.853 98.4762Z" fill="#767676"/>
<path d="M66.2632 113.124C67.4057 112.92 68.6266 113.211 69.5452 113.924C70.9768 114.989 71.5801 117.028 70.9297 118.695C70.4887 119.93 69.43 120.908 68.1725 121.27C66.949 121.638 65.5671 121.392 64.5385 120.634C63.1279 119.648 62.4736 117.727 62.98 116.082C63.3948 114.573 64.7243 113.389 66.2632 113.124Z" fill="#BEBEBE"/>
</svg>
