<svg width="81" height="80" viewBox="0 0 81 80" fill="none" xmlns="http://www.w3.org/2000/svg">
<path d="M40.5 80C62.5914 80 80.5 62.0914 80.5 40C80.5 17.9086 62.5914 0 40.5 0C18.4086 0 0.5 17.9086 0.5 40C0.5 62.0914 18.4086 80 40.5 80Z" fill="#FFC100" fill-opacity="0.1"/>
<g clip-path="url(#clip0_8832_11250)">
<path d="M58.1778 22.3227C51.0278 15.1727 40.2749 13.0337 30.933 16.9032C21.5911 20.7727 15.5 29.8887 15.5 40.0003C15.5 50.1118 21.5911 59.2278 30.933 63.0973C40.2749 66.9668 51.0278 64.8278 58.1778 57.6778C67.9408 47.9148 67.9408 32.0858 58.1778 22.3227ZM24.2252 52.7589C24.5206 53.1329 24.4569 53.6755 24.0829 53.9709C23.7089 54.2664 23.1663 54.2027 22.8709 53.8287C15.8679 44.9109 16.6316 32.1671 24.6493 24.1494C32.667 16.1317 45.4108 15.368 54.3286 22.3709C54.5705 22.562 54.6921 22.8677 54.6476 23.1728C54.6031 23.4778 54.3991 23.736 54.1127 23.8499C53.8262 23.9639 53.5007 23.9164 53.2588 23.7252C45.027 17.2735 33.2742 17.9833 25.8787 25.3788C18.4832 32.7743 17.7734 44.5271 24.2252 52.7589ZM44.1519 41.8011C43.9971 43.7031 42.4084 45.1678 40.5002 45.1678C38.5919 45.1678 37.0032 43.7031 36.8484 41.8011L35.6726 27.1235C35.5355 25.3117 36.4245 23.5756 37.9747 22.6278C39.525 21.68 41.4754 21.68 43.0256 22.6278C44.5758 23.5756 45.4648 25.3117 45.3278 27.1235L44.1519 41.8011ZM44.8105 52.0692C44.8105 54.4498 42.8807 56.3796 40.5002 56.3796C38.1196 56.3796 36.1898 54.4498 36.1898 52.0692C36.1898 49.6887 38.1196 47.7589 40.5002 47.7589C42.8795 47.7617 44.8077 49.6899 44.8105 52.0692ZM56.3493 55.8494C48.3347 63.8719 35.5879 64.6365 26.6717 57.6296C26.4298 57.4385 26.3082 57.1328 26.3527 56.8277C26.3973 56.5227 26.6012 56.2645 26.8877 56.1506C27.1741 56.0366 27.4996 56.0842 27.7415 56.2753C35.9733 62.727 47.7261 62.0172 55.1216 54.6217C62.5171 47.2262 63.2269 35.4734 56.7752 27.2416C56.5845 26.9997 56.5374 26.6744 56.6516 26.3884C56.7658 26.1023 57.0239 25.8989 57.3288 25.8548C57.6336 25.8106 57.9388 25.9325 58.1295 26.1744C65.1345 35.0902 64.3699 47.8349 56.3493 55.8494Z" fill="#F8AB08"/>
<path d="M40.4999 23.6208C39.6312 23.6218 38.8024 23.9852 38.2132 24.6234C37.624 25.2617 37.3279 26.117 37.3964 26.9829L38.5663 41.664C38.646 42.6728 39.4879 43.4507 40.4999 43.4507C41.5118 43.4507 42.3537 42.6728 42.4335 41.664L43.6033 26.9829C43.6718 26.117 43.3758 25.2617 42.7866 24.6234C42.1974 23.9852 41.3685 23.6218 40.4999 23.6208Z" fill="#F8AB08"/>
<path d="M40.5003 54.6553C41.9286 54.6553 43.0865 53.4974 43.0865 52.0691C43.0865 50.6408 41.9286 49.4829 40.5003 49.4829C39.0719 49.4829 37.9141 50.6408 37.9141 52.0691C37.9141 53.4974 39.0719 54.6553 40.5003 54.6553Z" fill="#F8AB08"/>
</g>
<defs>
<clipPath id="clip0_8832_11250">
<rect width="50" height="50" fill="white" transform="translate(15.5 15)"/>
</clipPath>
</defs>
</svg>
