<svg width="18" height="18" viewBox="0 0 18 18" fill="none" xmlns="http://www.w3.org/2000/svg">
<path fill-rule="evenodd" clip-rule="evenodd" d="M9.20489 2.42535C7.92569 2.38275 6.63329 2.73175 5.51749 3.47655C4.26429 4.31395 3.38849 5.55055 2.98509 6.93295C2.87369 6.91935 2.74029 6.92535 2.58189 6.97015C1.99049 7.13795 1.54569 7.62255 1.34569 8.04935C1.08629 8.60555 0.976892 9.34115 1.09229 10.1006C1.20689 10.8576 1.52669 11.4816 1.92669 11.8689C2.32789 12.2565 2.78089 12.3826 3.23089 12.288C3.90089 12.1449 4.23309 12.038 4.13929 11.4138L3.68509 8.38795C3.77669 6.75035 4.62449 5.20875 6.04249 4.26075C7.94049 2.99295 10.4289 3.07415 12.2393 4.46395C13.4987 5.42955 14.2299 6.87635 14.3143 8.39515L13.9967 10.5118C13.2883 12.4503 11.5321 13.7931 9.49989 13.9838H8.14669C7.79749 13.9838 7.51629 14.265 7.51629 14.6138V14.9461C7.51629 15.2951 7.79749 15.5763 8.14669 15.5763H9.85289C10.2019 15.5763 10.4819 15.2951 10.4819 14.9461V14.7724C12.0143 14.3984 13.3519 13.4566 14.2229 12.1432L14.7695 12.2881C15.2143 12.4036 15.6727 12.2565 16.0737 11.8692C16.4737 11.4816 16.7933 10.8577 16.9081 10.1007C17.0239 9.34135 16.9113 8.60695 16.6549 8.04955C16.3975 7.49215 16.0141 7.13815 15.5715 7.01115C15.3861 6.95775 15.1849 6.93815 15.0123 6.93295C14.6475 5.68295 13.8965 4.54615 12.8141 3.71615C11.7499 2.89955 10.4841 2.46735 9.20489 2.42535Z" fill="#5034C4"/>
<path fill-rule="evenodd" clip-rule="evenodd" d="M11.2018 7.86982C11.6528 7.86982 12.0184 8.23542 12.0194 8.68762C12.0184 9.13862 11.6528 9.50522 11.2018 9.50522C10.7496 9.50522 10.383 9.13862 10.383 8.68762C10.383 8.23562 10.7498 7.86982 11.2018 7.86982ZM8.99983 7.86982C9.45183 7.86982 9.81743 8.23542 9.81743 8.68762C9.81743 9.13862 9.45183 9.50522 8.99983 9.50522C8.54743 9.50522 8.18183 9.13862 8.18183 8.68762C8.18183 8.23562 8.54743 7.86982 8.99983 7.86982ZM6.79863 7.86982C7.24963 7.86982 7.61623 8.23542 7.61623 8.68762C7.61623 9.13862 7.24963 9.50522 6.79863 9.50522C6.34663 9.50522 5.98083 9.13862 5.98083 8.68762C5.98083 8.23562 6.34663 7.86982 6.79863 7.86982ZM8.99983 4.35742C6.60183 4.35742 4.66943 6.22622 4.66943 8.68762C4.66943 9.86982 5.11643 10.9146 5.84463 11.6812L5.58623 12.8396C5.50103 13.2208 5.76543 13.4772 6.10803 13.2864L7.23923 12.6554C7.77683 12.8888 8.37143 13.0178 8.99983 13.0178C11.3986 13.0178 13.3298 11.1502 13.3298 8.68762C13.3298 6.22622 11.3986 4.35742 8.99983 4.35742Z" fill="#5034C4"/>
</svg>
