<svg width="18" height="18" viewBox="0 0 18 18" fill="none" xmlns="http://www.w3.org/2000/svg">
<path d="M7.3207 10.7767C6.88945 10.3462 6.62695 9.76122 6.62695 9.10497C6.62695 7.79022 7.68595 6.73047 8.99995 6.73047C9.6502 6.73047 10.2487 6.99372 10.6725 7.42422" stroke="#8F8E9B" stroke-width="1.5" stroke-linecap="round" stroke-linejoin="round"/>
<path d="M11.3285 9.52344C11.1545 10.4909 10.3925 11.2544 9.42578 11.4299" stroke="#8F8E9B" stroke-width="1.5" stroke-linecap="round" stroke-linejoin="round"/>
<path d="M4.99125 13.1035C3.801 12.169 2.793 10.804 2.0625 9.10225C2.8005 7.393 3.81525 6.0205 5.013 5.0785C6.20325 4.1365 7.5765 3.625 9 3.625C10.4318 3.625 11.8043 4.144 13.002 5.09275" stroke="#8F8E9B" stroke-width="1.5" stroke-linecap="round" stroke-linejoin="round"/>
<path d="M14.5856 6.74219C15.1016 7.42769 15.5553 8.21894 15.9371 9.10169C14.4618 12.5194 11.8548 14.5782 8.99959 14.5782C8.35234 14.5782 7.71409 14.4732 7.10059 14.2684" stroke="#8F8E9B" stroke-width="1.5" stroke-linecap="round" stroke-linejoin="round"/>
<path d="M14.9155 3.1875L3.08496 15.018" stroke="#8F8E9B" stroke-width="1.5" stroke-linecap="round" stroke-linejoin="round"/>
</svg>
