<svg width="20" height="20" viewBox="0 0 20 20" fill="none" xmlns="http://www.w3.org/2000/svg">
<path d="M7.61945 17.3184V14.7627C7.61944 14.1151 8.14607 13.5889 8.79837 13.5849H11.1935C11.8487 13.5849 12.3799 14.1122 12.3799 14.7627V17.311C12.3799 17.8728 12.8364 18.3293 13.4021 18.3333H15.0362C15.7994 18.3353 16.532 18.0357 17.0723 17.5006C17.6127 16.9655 17.9163 16.239 17.9163 15.4813V8.22156C17.9163 7.60951 17.6431 7.02895 17.1702 6.63627L11.6188 2.22858C10.6484 1.45762 9.26249 1.48253 8.32083 2.28784L2.88885 6.63627C2.39362 7.01737 2.09763 7.59966 2.08301 8.22156V15.4739C2.08301 17.0531 3.37249 18.3333 4.96315 18.3333H6.55992C6.83232 18.3353 7.09425 18.2292 7.28757 18.0387C7.48089 17.8482 7.58961 17.5889 7.5896 17.3184H7.61945Z" fill="#8F8E9B"/>
</svg>
