<svg width="21" height="20" viewBox="0 0 21 20" fill="none" xmlns="http://www.w3.org/2000/svg">
<path d="M5.02058 17.4225C4.56697 17.4225 4.17879 17.2611 3.85604 16.9384C3.53329 16.6156 3.37164 16.2272 3.37109 15.773V4.22663C3.37109 3.77302 3.53274 3.38485 3.85604 3.0621C4.17934 2.73935 4.56752 2.5777 5.02058 2.57715H16.567C17.0206 2.57715 17.409 2.7388 17.7323 3.0621C18.0556 3.3854 18.217 3.77357 18.2165 4.22663V15.773C18.2165 16.2266 18.0551 16.6151 17.7323 16.9384C17.4096 17.2617 17.0211 17.4231 16.567 17.4225H5.02058ZM5.02058 15.773H16.567V4.22663H5.02058V15.773ZM5.84532 14.1235H15.7422L12.6494 9.99983L10.1752 13.2988L8.31955 10.8246L5.84532 14.1235Z" fill="#326CF6"/>
</svg>
