<svg width="13" height="8" viewBox="0 0 13 8" fill="none" xmlns="http://www.w3.org/2000/svg">
<path d="M4.38323 3.43421L4.68318 3.03418L4.34682 2.78196L4.04061 3.07004L4.38323 3.43421ZM6.91335 5.33136L6.6134 5.7314L6.95001 5.9838L7.25623 5.69528L6.91335 5.33136ZM12.3219 0.721344C12.3301 0.445323 12.113 0.214903 11.837 0.206685L7.33899 0.0727596C7.06297 0.0645411 6.83255 0.281637 6.82433 0.557657C6.81611 0.833677 7.03321 1.0641 7.30923 1.07232L11.3075 1.19136L11.1884 5.18959C11.1802 5.46561 11.3973 5.69603 11.6733 5.70425C11.9493 5.71247 12.1797 5.49537 12.188 5.21935L12.3219 0.721344ZM0.79927 7.49253L4.72584 3.79837L4.04061 3.07004L0.114046 6.7642L0.79927 7.49253ZM4.08327 3.83424L6.6134 5.7314L7.21331 4.93133L4.68318 3.03418L4.08327 3.83424ZM7.25623 5.69528L12.165 1.07038L11.4792 0.342544L6.57048 4.96745L7.25623 5.69528Z" fill="#00BB64"/>
</svg>
