<svg width="25" height="24" viewBox="0 0 25 24" fill="none" xmlns="http://www.w3.org/2000/svg">
<path d="M15.5 12C15.5 12.5933 15.3241 13.1734 14.9944 13.6667C14.6648 14.1601 14.1962 14.5446 13.6481 14.7716C13.0999 14.9987 12.4967 15.0581 11.9147 14.9424C11.3328 14.8266 10.7982 14.5409 10.3787 14.1213C9.95912 13.7018 9.6734 13.1672 9.55764 12.5853C9.44189 12.0033 9.5013 11.4001 9.72836 10.8519C9.95542 10.3038 10.3399 9.83524 10.8333 9.50559C11.3266 9.17595 11.9067 9 12.5 9C13.2949 9.00247 14.0565 9.31934 14.6186 9.88141C15.1807 10.4435 15.4975 11.2051 15.5 12ZM21.875 7.875V16.125C21.875 17.5174 21.3219 18.8527 20.3373 19.8373C19.3527 20.8219 18.0174 21.375 16.625 21.375H8.375C6.98261 21.375 5.64726 20.8219 4.66269 19.8373C3.67812 18.8527 3.125 17.5174 3.125 16.125V7.875C3.125 6.48261 3.67812 5.14726 4.66269 4.16269C5.64726 3.17812 6.98261 2.625 8.375 2.625H16.625C18.0174 2.625 19.3527 3.17812 20.3373 4.16269C21.3219 5.14726 21.875 6.48261 21.875 7.875ZM17 12C17 11.11 16.7361 10.24 16.2416 9.49993C15.7471 8.75991 15.0443 8.18314 14.2221 7.84254C13.3998 7.50195 12.495 7.41283 11.6221 7.58647C10.7492 7.7601 9.94736 8.18868 9.31802 8.81802C8.68868 9.44736 8.2601 10.2492 8.08647 11.1221C7.91283 11.995 8.00195 12.8998 8.34254 13.7221C8.68314 14.5443 9.25991 15.2471 9.99993 15.7416C10.74 16.2361 11.61 16.5 12.5 16.5C13.6935 16.5 14.8381 16.0259 15.682 15.182C16.5259 14.3381 17 13.1935 17 12ZM18.5 7.125C18.5 6.9025 18.434 6.68499 18.3104 6.49998C18.1868 6.31498 18.0111 6.17078 17.8055 6.08564C17.6 6.00049 17.3738 5.97821 17.1555 6.02162C16.9373 6.06502 16.7368 6.17217 16.5795 6.3295C16.4222 6.48684 16.315 6.68729 16.2716 6.90552C16.2282 7.12375 16.2505 7.34995 16.3356 7.55552C16.4208 7.76109 16.565 7.93679 16.75 8.0604C16.935 8.18402 17.1525 8.25 17.375 8.25C17.6734 8.25 17.9595 8.13147 18.1705 7.9205C18.3815 7.70952 18.5 7.42337 18.5 7.125Z" fill="#8F8E9B"/>
</svg>
