<svg width="14" height="14" viewBox="0 0 14 14" fill="none" xmlns="http://www.w3.org/2000/svg">
<g clip-path="url(#clip0_3155_43795)">
<path d="M7.66062 11.2131C7.66062 10.2643 8.03004 9.37207 8.70105 8.70105C9.37207 8.03004 10.264 7.66062 11.2131 7.66062C11.9921 7.66062 12.7329 7.91 13.3446 8.37047C13.3785 7.875 13.3995 7.32074 13.4004 6.70031C13.3987 5.1398 13.2677 3.99711 13.128 3.15738C12.8836 1.77379 11.6268 0.51707 10.2432 0.272617C9.40351 0.132617 8.26082 0.00164062 6.70004 0C5.13953 0.00164062 3.99656 0.132617 3.15684 0.272344C1.77352 0.516797 0.516797 1.77352 0.272344 3.15711C0.132617 3.99684 0.00191406 5.13953 0 6.70004C0.00191406 8.26055 0.132617 9.40351 0.272344 10.2432C0.516797 11.6268 1.77352 12.8836 3.15711 13.128C3.99684 13.2677 5.13953 13.3984 6.70031 13.4004C7.32074 13.3995 7.875 13.3785 8.37047 13.3446C7.91 12.7329 7.66062 11.9924 7.66062 11.2131ZM3.38953 3.23805H10.0108C10.439 3.23805 10.7863 3.58531 10.7863 4.01352C10.7863 4.44172 10.439 4.78898 10.0108 4.78898H3.38953C2.96133 4.78898 2.61406 4.44172 2.61406 4.01352C2.61406 3.58531 2.96133 3.23805 3.38953 3.23805ZM3.38953 8.0273C2.96133 8.0273 2.61406 7.68004 2.61406 7.25184C2.61406 6.82363 2.96133 6.47637 3.38953 6.47637H7.27644C7.70465 6.47637 8.05191 6.82363 8.05191 7.25184C8.05191 7.68004 7.70465 8.0273 7.27644 8.0273H3.38953Z" fill="#5034C4"/>
<path d="M11.2131 8.42578C9.67396 8.42578 8.42627 9.67348 8.42627 11.2127C8.42627 12.7518 9.67396 13.9995 11.2131 13.9995C12.7523 13.9995 14 12.7518 14 11.2127C14 9.67348 12.7523 8.42578 11.2131 8.42578ZM11.7327 12.5954C11.7327 12.8823 11.5 13.115 11.2131 13.115C10.9263 13.115 10.6936 12.8823 10.6936 12.5954V11.2247C10.6936 10.9379 10.9263 10.7052 11.2131 10.7052C11.5 10.7052 11.7327 10.9379 11.7327 11.2247V12.5954ZM11.7113 10.1126C11.6922 10.2209 11.5938 10.3193 11.4855 10.3385C11.4199 10.3494 11.3302 10.3595 11.2079 10.3598C11.0857 10.3598 10.9963 10.3494 10.9304 10.3385C10.8221 10.3193 10.7237 10.2209 10.7046 10.1126C10.6936 10.047 10.6835 9.9573 10.6832 9.83508C10.6832 9.71285 10.6936 9.62344 10.7046 9.55754C10.7237 9.44926 10.8221 9.35082 10.9304 9.33168C10.996 9.32074 11.0857 9.31063 11.2079 9.31035C11.3302 9.31035 11.4196 9.32074 11.4855 9.33168C11.5938 9.35082 11.6922 9.44926 11.7113 9.55754C11.7223 9.62316 11.7324 9.71285 11.7327 9.83508C11.7327 9.9573 11.7223 10.0467 11.7113 10.1126Z" fill="#5034C4"/>
</g>
<defs>
<clipPath id="clip0_3155_43795">
<rect width="14" height="14" fill="white"/>
</clipPath>
</defs>
</svg>
