<svg width="18" height="18" viewBox="0 0 18 18" fill="none" xmlns="http://www.w3.org/2000/svg">
<path opacity="0.4" d="M1.5 4.83525C1.5 2.997 3.02268 1.5 4.8934 1.5H8.61423C10.4811 1.5 12 2.9925 12 4.82775V13.1648C12 15.0037 10.4773 16.5 8.60584 16.5H4.88653C3.01886 16.5 1.5 15.0075 1.5 13.1722V12.4672V4.83525Z" fill="#FF6414"/>
<path d="M16.3339 8.5925L14.1996 6.41075C13.979 6.18575 13.624 6.18575 13.4041 6.41225C13.185 6.63875 13.1857 7.004 13.4056 7.229L14.575 8.42375H13.4538H7.16107C6.85063 8.42375 6.59863 8.6825 6.59863 9.00125C6.59863 9.32075 6.85063 9.57875 7.16107 9.57875H14.575L13.4056 10.7735C13.1857 10.9985 13.185 11.3638 13.4041 11.5903C13.5144 11.7035 13.6583 11.7605 13.803 11.7605C13.9461 11.7605 14.09 11.7035 14.1996 11.5918L16.3339 9.41075C16.4398 9.302 16.4997 9.155 16.4997 9.00125C16.4997 8.84825 16.4398 8.70125 16.3339 8.5925Z" fill="#FF6414"/>
</svg>
