<svg width="201" height="48" viewBox="0 0 201 48" fill="none" xmlns="http://www.w3.org/2000/svg">
<g clip-path="url(#clip0_1_32705)">
<path d="M57.1786 30.7226C53.6093 37.8892 44.9372 40.7628 37.7334 37.1749C30.5295 33.5869 27.5977 24.9358 31.1694 17.7692C34.7155 10.6514 43.3852 7.77779 50.5891 11.3658C57.7929 14.9537 60.7247 23.6048 57.1786 30.7226Z" fill="#5034C4"/>
<path d="M59.471 9.89588C60.0916 8.65016 57.6723 6.18455 54.0674 4.38879C50.4625 2.59303 47.0371 2.14713 46.4166 3.39286C45.796 4.63858 48.2153 7.10419 51.8202 8.89995C55.4251 10.6957 58.8505 11.1416 59.471 9.89588Z" fill="#4431B5"/>
<path d="M83.882 37.9897H80.3196V33.087C77.4972 36.8379 74.0744 38.7133 70.0467 38.7133C67.9828 38.7133 66.1237 38.1549 64.4716 37.0357C62.8196 35.9188 61.6492 34.4552 60.9628 32.6473C60.2741 30.8417 59.9297 28.1821 59.9297 24.6733V10.582H63.4385V23.6402C63.4385 26.8395 63.5851 29.0081 63.8783 30.1436C64.1692 31.2791 64.6182 32.2424 65.2209 33.0335C65.8235 33.8247 66.5891 34.4273 67.5175 34.8391C68.4459 35.251 69.572 35.4581 70.8983 35.4581C72.2246 35.4581 73.523 35.1323 74.7958 34.4785C76.0685 33.8247 77.1528 32.9125 78.0486 31.7421C78.9421 30.5718 79.5448 29.3688 79.8543 28.1286C80.1637 26.8884 80.3196 24.3964 80.3196 20.6432V10.582H83.882V37.9897Z" fill="#5034C4"/>
<path d="M114.645 16.2601L111.858 18.0145C109.449 14.8151 106.145 13.2143 101.948 13.2143C98.6437 13.2143 95.8748 14.273 93.6364 16.3881C91.398 18.5031 90.2811 21.1278 90.2811 24.2597C90.2811 27.3916 91.3817 30.0744 93.5852 32.3128C95.7864 34.5512 98.5739 35.6681 101.948 35.6681C105.973 35.6681 109.277 34.0673 111.858 30.8679L114.645 32.727C113.268 34.7234 111.418 36.2545 109.096 37.3202C106.774 38.3882 104.27 38.921 101.585 38.921C97.3523 38.921 93.8156 37.5272 90.9768 34.7397C88.1381 31.9522 86.7188 28.5457 86.7188 24.5203C86.7188 20.4949 88.1544 17.0442 91.028 14.1706C93.9016 11.297 97.592 9.86133 102.099 9.86133C104.749 9.86133 107.199 10.4291 109.454 11.5646C111.706 12.7001 113.438 14.266 114.641 16.2624L114.645 16.2601Z" fill="#5034C4"/>
<path d="M117.379 0H120.941V15.485C123.761 11.7342 127.186 9.85874 131.214 9.85874C133.278 9.85874 135.137 10.4195 136.789 11.5364C138.441 12.6556 139.609 14.1168 140.298 15.9248C140.987 17.7304 141.331 20.3899 141.331 23.8988V37.99H137.769V24.9319C137.769 22.1118 137.683 20.1666 137.511 19.0986C137.338 18.0329 136.959 17.016 136.375 16.0527C135.789 15.0894 135.007 14.3588 134.027 13.8585C133.045 13.3606 131.859 13.1093 130.465 13.1093C129.071 13.1093 127.738 13.4374 126.465 14.0889C125.192 14.7427 124.108 15.6549 123.212 16.8252C122.316 17.9956 121.716 19.1986 121.407 20.4388C121.097 21.679 120.941 24.1733 120.941 27.9242V37.99H117.379V0Z" fill="#5034C4"/>
<path d="M168.067 29.1138L171.062 30.6635C168.102 36.1687 163.732 38.9214 157.95 38.9214C153.82 38.9214 150.413 37.502 147.73 34.6633C145.045 31.8246 143.705 28.4088 143.705 24.416C143.705 20.4231 145.055 17.0004 147.756 14.1431C150.458 11.288 153.797 9.85938 157.771 9.85938C161.745 9.85938 165.082 11.1833 167.785 13.8336C170.487 16.4838 171.89 20.0974 171.992 24.6742H147.319C147.421 27.9783 148.463 30.6356 150.441 32.6483C152.419 34.661 154.82 35.6685 157.643 35.6685C162.287 35.6685 165.763 33.4836 168.069 29.1138H168.067ZM168.067 21.6284C167.585 19.0131 166.38 16.9655 164.453 15.4856C162.527 14.0058 160.307 13.2658 157.794 13.2658C152.633 13.2658 149.259 16.0534 147.677 21.6284H168.065H168.067Z" fill="#5034C4"/>
<path d="M173.332 10.583H176.946V14.5572C177.909 12.9401 178.847 11.7534 179.759 10.9949C180.671 10.2386 181.685 9.85938 182.805 9.85938C183.924 9.85938 185.05 10.1688 186.185 10.7878L184.326 13.7824C183.81 13.4729 183.277 13.317 182.725 13.317C181.657 13.317 180.652 13.8685 179.705 14.9691C178.758 16.0697 178.062 17.489 177.616 19.2272C177.169 20.9653 176.946 24.1228 176.946 28.6996V37.9907H173.332V10.583Z" fill="#5034C4"/>
<path d="M200.12 13.5741L197.849 15.8963C195.957 14.072 194.114 13.1599 192.325 13.1599C191.155 13.1599 190.175 13.5299 189.384 14.2698C188.593 15.0098 188.197 15.9219 188.197 17.0062C188.197 18.0905 188.619 19.0189 189.461 19.7937C190.303 20.5685 191.757 21.4969 193.824 22.5812C195.888 23.6655 197.463 24.8359 198.547 26.0901C199.631 27.3466 200.174 28.8869 200.174 30.7088C200.174 33.0147 199.373 34.9599 197.772 36.5422C196.171 38.1244 194.203 38.9155 191.862 38.9155C190.315 38.9155 188.826 38.5711 187.397 37.8824C185.968 37.1937 184.756 36.2304 183.758 34.9925L185.978 32.5144C187.802 34.5457 189.71 35.5602 191.706 35.5602C193.116 35.5602 194.322 35.0949 195.32 34.1665C196.318 33.2381 196.816 32.1445 196.816 30.888C196.816 29.6315 196.376 28.6007 195.499 27.791C194.622 26.9836 193.158 26.0622 191.111 25.029C189.063 23.9959 187.532 22.8698 186.517 21.6482C185.503 20.4266 184.996 18.8444 184.996 16.8991C184.996 14.9539 185.71 13.2949 187.139 11.9174C188.567 10.5423 190.459 9.85352 192.816 9.85352C195.173 9.85352 197.607 11.0914 200.12 13.5694V13.5741Z" fill="#5034C4"/>
<path d="M0 10.6061H3.50652V15.6087C6.29173 11.7928 9.91924 9.88477 14.3891 9.88477C18.24 9.88477 21.558 11.3041 24.3432 14.1405C27.1284 16.9769 28.5222 20.3904 28.5222 24.3785C28.5222 28.3667 27.147 31.7895 24.3967 34.6421C21.6464 37.4972 18.3447 38.9235 14.4938 38.9235C10.2985 38.9235 6.6361 37.0504 3.50885 33.3019V48.0004H0V10.6061ZM25.0157 24.4297C25.0157 21.37 23.9593 18.7476 21.8442 16.5651C19.7291 14.3825 17.1417 13.2889 14.0819 13.2889C11.0222 13.2889 8.45102 14.3639 6.37084 16.5116C4.29066 18.6615 3.25057 21.3164 3.25057 24.4809C3.25057 27.6454 4.31625 30.3003 6.44762 32.4503C8.57899 34.6003 11.1315 35.6729 14.1075 35.6729C17.0835 35.6729 19.643 34.5816 21.793 32.3968C23.9407 30.2142 25.0157 27.557 25.0157 24.4274V24.4297Z" fill="#5034C4"/>
</g>
<defs>
<clipPath id="clip0_1_32705">
<rect width="200.172" height="48" fill="white"/>
</clipPath>
</defs>
</svg>
