<svg width="42" height="32" viewBox="0 0 42 32" fill="none" xmlns="http://www.w3.org/2000/svg">
<g clip-path="url(#clip0_1_64778)">
<path d="M7.488 31.8409V29.723C7.488 28.9109 6.99369 28.3816 6.14641 28.3816C5.72285 28.3816 5.26392 28.5227 4.94617 28.9817C4.69918 28.5933 4.34621 28.3816 3.81668 28.3816C3.46356 28.3816 3.11075 28.4874 2.82822 28.8757V28.4521H2.08691V31.8409H2.82822V29.97C2.82822 29.37 3.14597 29.0875 3.64028 29.0875C4.13427 29.0875 4.38159 29.4052 4.38159 29.97V31.8409H5.12289V29.97C5.12289 29.37 5.4757 29.0875 5.93463 29.0875C6.42894 29.0875 6.67594 29.4052 6.67594 29.97V31.8409H7.488ZM18.4662 28.4521H17.2662V27.4285H16.5249V28.4521H15.8542V29.1227H16.5247V30.6761C16.5247 31.4527 16.8425 31.9115 17.6897 31.9115C18.0075 31.9115 18.3603 31.8057 18.6076 31.6645L18.3957 31.029C18.1839 31.1702 17.9369 31.2056 17.7603 31.2056C17.4074 31.2056 17.2662 30.9938 17.2662 30.6407V29.1227H18.4662V28.4521ZM24.7498 28.3814C24.3263 28.3814 24.0439 28.5933 23.8673 28.8757V28.4521H23.126V31.8409H23.8673V29.9348C23.8673 29.37 24.1143 29.0523 24.5733 29.0523C24.7145 29.0523 24.891 29.0876 25.0322 29.1229L25.244 28.4169C25.1028 28.3816 24.891 28.3816 24.7498 28.3816V28.3814ZM15.254 28.7345C14.9009 28.4874 14.4068 28.3816 13.8772 28.3816C13.0301 28.3816 12.4654 28.8051 12.4654 29.4758C12.4654 30.0407 12.8889 30.3583 13.6302 30.4643L13.9832 30.4997C14.3715 30.5701 14.5833 30.6761 14.5833 30.8526C14.5833 31.0996 14.3009 31.2762 13.8066 31.2762C13.3125 31.2762 12.9241 31.0996 12.677 30.9232L12.324 31.488C12.7124 31.7703 13.2419 31.9115 13.7713 31.9115C14.7597 31.9115 15.3246 31.4527 15.3246 30.8173C15.3246 30.2171 14.8657 29.8994 14.1596 29.7936L13.8066 29.7582C13.4889 29.7228 13.2419 29.6524 13.2419 29.4406C13.2419 29.1935 13.4889 29.0523 13.8772 29.0523C14.3009 29.0523 14.7245 29.2287 14.9363 29.3346L15.254 28.7345ZM34.9517 28.3816C34.528 28.3816 34.2456 28.5933 34.0691 28.8757V28.4521H33.3278V31.8409H34.0691V29.9348C34.0691 29.37 34.3162 29.0523 34.775 29.0523C34.9163 29.0523 35.0929 29.0876 35.2341 29.1229L35.4459 28.4169C35.3047 28.3816 35.0929 28.3816 34.9517 28.3816ZM25.4911 30.1465C25.4911 31.1702 26.1971 31.9115 27.2915 31.9115C27.7856 31.9115 28.1386 31.8057 28.4916 31.5233L28.1386 30.9232C27.8562 31.135 27.5739 31.2408 27.2561 31.2408C26.656 31.2408 26.2324 30.8173 26.2324 30.1465C26.2324 29.5112 26.656 29.0875 27.2561 29.0523C27.5739 29.0523 27.8562 29.1581 28.1386 29.37L28.4916 28.7699C28.1386 28.4874 27.7856 28.3816 27.2915 28.3816C26.1971 28.3816 25.4911 29.1229 25.4911 30.1465ZM32.3395 30.1465V28.4521H31.5982V28.8757C31.351 28.5581 30.998 28.3816 30.5391 28.3816C29.586 28.3816 28.8447 29.1229 28.8447 30.1465C28.8447 31.1702 29.586 31.9115 30.5391 31.9115C31.0332 31.9115 31.3864 31.7351 31.5982 31.4174V31.8409H32.3395V30.1465ZM29.6212 30.1465C29.6212 29.5464 30.0096 29.0523 30.6449 29.0523C31.245 29.0523 31.6687 29.5112 31.6687 30.1465C31.6687 30.7467 31.245 31.2408 30.6449 31.2408C30.0096 31.2054 29.6212 30.7467 29.6212 30.1465ZM20.7609 28.3816C19.7725 28.3816 19.0664 29.0875 19.0664 30.1465C19.0664 31.2056 19.7723 31.9115 20.7961 31.9115C21.2903 31.9115 21.7846 31.7703 22.1729 31.4527L21.8198 30.9232C21.5374 31.135 21.1845 31.2762 20.8315 31.2762C20.3726 31.2762 19.9136 31.0644 19.8077 30.4641H22.3141V30.1819C22.3495 29.0875 21.7142 28.3816 20.7609 28.3816ZM20.7609 29.0169C21.2197 29.0169 21.5376 29.2994 21.608 29.8289H19.8431C19.9136 29.37 20.2314 29.0169 20.7609 29.0169ZM39.1524 30.1465V27.1107H38.4111V28.8757C38.1639 28.5581 37.811 28.3816 37.352 28.3816C36.399 28.3816 35.6576 29.1229 35.6576 30.1465C35.6576 31.1702 36.399 31.9115 37.352 31.9115C37.8464 31.9115 38.1993 31.7351 38.4111 31.4174V31.8409H39.1524V30.1465ZM36.4343 30.1465C36.4343 29.5464 36.8225 29.0523 37.458 29.0523C38.0581 29.0523 38.4817 29.5112 38.4817 30.1465C38.4817 30.7467 38.0581 31.2408 37.458 31.2408C36.8225 31.2054 36.4343 30.7467 36.4343 30.1465ZM11.6533 30.1465V28.4521H10.912V28.8757C10.6648 28.5581 10.3119 28.3816 9.85294 28.3816C8.89986 28.3816 8.15855 29.1229 8.15855 30.1465C8.15855 31.1702 8.89986 31.9115 9.85294 31.9115C10.3473 31.9115 10.7002 31.7351 10.912 31.4174V31.8409H11.6533V30.1465ZM8.89986 30.1465C8.89986 29.5464 9.2882 29.0523 9.92354 29.0523C10.5237 29.0523 10.9474 29.5112 10.9474 30.1465C10.9474 30.7467 10.5237 31.2408 9.92354 31.2408C9.2882 31.2054 8.89986 30.7467 8.89986 30.1465Z" fill="white"/>
<path d="M15.0068 2.71802H26.1264V22.6981H15.0068V2.71802Z" fill="#FF5F00"/>
<path d="M15.7127 12.7082C15.7127 8.64868 17.6189 5.04796 20.5487 2.71807C18.3955 1.02368 15.6775 0 12.7122 0C5.6872 0 0.00390625 5.6833 0.00390625 12.7082C0.00390625 19.7329 5.6872 25.4164 12.7121 25.4164C15.6773 25.4164 18.3954 24.3927 20.5487 22.6981C17.6189 20.4036 15.7127 16.7677 15.7127 12.7082Z" fill="#EB001B"/>
<path d="M41.1288 12.7082C41.1288 19.7329 35.4455 25.4164 28.4206 25.4164C25.4554 25.4164 22.7373 24.3927 20.584 22.6981C23.5492 20.3684 25.4202 16.7677 25.4202 12.7082C25.4202 8.64868 23.5138 5.04796 20.584 2.71807C22.7372 1.02368 25.4554 0 28.4206 0C35.4455 0 41.1288 5.71867 41.1288 12.7082Z" fill="#F79E1B"/>
</g>
<defs>
<clipPath id="clip0_1_64778">
<rect width="41.1733" height="32" fill="white"/>
</clipPath>
</defs>
</svg>
