<svg width="18" height="18" viewBox="0 0 18 18" fill="none" xmlns="http://www.w3.org/2000/svg">
<path opacity="0.4" d="M1.5 4.83525C1.5 2.997 3.02268 1.5 4.8934 1.5H8.61423C10.4811 1.5 12 2.9925 12 4.82775V13.1648C12 15.0037 10.4773 16.5 8.60584 16.5H4.88653C3.01886 16.5 1.5 15.0075 1.5 13.1722V12.4672V4.83525Z" fill="#FF6414"/>
<path d="M16.3342 8.5925L14.1998 6.41075C13.9792 6.18575 13.6242 6.18575 13.4044 6.41225C13.1852 6.63875 13.186 7.004 13.4058 7.229L14.5753 8.42375H13.454H7.16131C6.85088 8.42375 6.59888 8.6825 6.59888 9.00125C6.59888 9.32075 6.85088 9.57875 7.16131 9.57875H14.5753L13.4058 10.7735C13.186 10.9985 13.1852 11.3638 13.4044 11.5903C13.5147 11.7035 13.6586 11.7605 13.8032 11.7605C13.9464 11.7605 14.0903 11.7035 14.1998 11.5918L16.3342 9.41075C16.4401 9.302 16.5 9.155 16.5 9.00125C16.5 8.84825 16.4401 8.70125 16.3342 8.5925Z" fill="#FF6414"/>
</svg>
