<svg width="89" height="80" viewBox="0 0 89 80" fill="none" xmlns="http://www.w3.org/2000/svg">
<path opacity="0.4" d="M88.6663 57.4043C88.6663 69.7268 78.773 79.7084 66.4505 79.7526H66.4063H22.6372C10.3588 79.7526 0.333008 69.8151 0.333008 57.4926V57.4484C0.333008 57.4484 0.359508 37.9003 0.394841 28.0688C0.399258 26.2226 2.51926 25.1891 3.96351 26.3374C14.4575 34.6629 33.2239 49.8429 33.458 50.0417C36.5938 52.5548 40.5688 53.9725 44.6322 53.9725C48.6955 53.9725 52.6705 52.5548 55.8063 49.9931C56.0404 49.8385 74.3873 35.1134 85.0403 26.651C86.4889 25.4983 88.6178 26.5318 88.6222 28.3735C88.6663 38.1299 88.6663 57.4043 88.6663 57.4043Z" fill="#5034C4"/>
<path d="M86.3529 12.0602C82.528 4.85217 75.002 0.25 66.7164 0.25H22.638C14.3524 0.25 6.82638 4.85217 3.00154 12.0602C2.14471 13.6722 2.55104 15.6818 3.97763 16.8213L36.7714 43.0519C39.068 44.9069 41.8505 45.83 44.633 45.83C44.6507 45.83 44.664 45.83 44.6772 45.83C44.6905 45.83 44.7081 45.83 44.7214 45.83C47.5039 45.83 50.2864 44.9069 52.583 43.0519L85.3768 16.8213C86.8034 15.6818 87.2097 13.6722 86.3529 12.0602Z" fill="#5034C4"/>
</svg>
