<svg width="17" height="17" viewBox="0 0 17 17" fill="none" xmlns="http://www.w3.org/2000/svg">
<path opacity="0.4" d="M7.14217 11.3027H2.48451C1.89502 11.3027 1.4165 11.7729 1.4165 12.352C1.4165 12.9304 1.89502 13.4013 2.48451 13.4013H7.14217C7.73165 13.4013 8.21017 12.9304 8.21017 12.352C8.21017 11.7729 7.73165 11.3027 7.14217 11.3027Z" fill="white"/>
<path opacity="0.4" d="M15.5834 4.51725C15.5834 3.93887 15.1049 3.46875 14.5162 3.46875H9.85853C9.26904 3.46875 8.79053 3.93887 8.79053 4.51725C8.79053 5.0964 9.26904 5.56652 9.85853 5.56652H14.5162C15.1049 5.56652 15.5834 5.0964 15.5834 4.51725Z" fill="white"/>
<path d="M6.28824 4.51815C6.28824 5.84037 5.1982 6.91207 3.85237 6.91207C2.50733 6.91207 1.4165 5.84037 1.4165 4.51815C1.4165 3.1967 2.50733 2.125 3.85237 2.125C5.1982 2.125 6.28824 3.1967 6.28824 4.51815Z" fill="white"/>
<path d="M15.5832 12.3236C15.5832 13.6451 14.4931 14.7168 13.1473 14.7168C11.8023 14.7168 10.7114 13.6451 10.7114 12.3236C10.7114 11.0014 11.8023 9.92969 13.1473 9.92969C14.4931 9.92969 15.5832 11.0014 15.5832 12.3236Z" fill="white"/>
</svg>
