<svg width="42" height="32" viewBox="0 0 42 32" fill="none" xmlns="http://www.w3.org/2000/svg">
<g clip-path="url(#clip0_8381_70962)">
<path d="M7.48751 31.8396V29.7216C7.48751 28.9096 6.9932 28.3802 6.14592 28.3802C5.72237 28.3802 5.26343 28.5214 4.94568 28.9803C4.69869 28.592 4.34572 28.3802 3.81619 28.3802C3.46307 28.3802 3.11027 28.486 2.82773 28.8744V28.4508H2.08643V31.8396H2.82773V29.9686C2.82773 29.3687 3.14548 29.0861 3.63979 29.0861C4.13378 29.0861 4.3811 29.4039 4.3811 29.9686V31.8396H5.12241V29.9686C5.12241 29.3687 5.47521 29.0861 5.93414 29.0861C6.42846 29.0861 6.67545 29.4039 6.67545 29.9686V31.8396H7.48751ZM18.4658 28.4508H17.2657V27.4271H16.5244V28.4508H15.8537V29.1214H16.5242V30.6747C16.5242 31.4514 16.842 31.9102 17.6892 31.9102C18.007 31.9102 18.3598 31.8044 18.6071 31.6632L18.3952 31.0277C18.1834 31.1689 17.9364 31.2042 17.7598 31.2042C17.4069 31.2042 17.2657 30.9925 17.2657 30.6393V29.1214H18.4658V28.4508ZM24.7493 28.38C24.3258 28.38 24.0434 28.592 23.8668 28.8744V28.4508H23.1255V31.8396H23.8668V29.9334C23.8668 29.3687 24.1138 29.0509 24.5728 29.0509C24.714 29.0509 24.8905 29.0863 25.0317 29.1215L25.2435 28.4156C25.1023 28.3802 24.8905 28.3802 24.7493 28.3802V28.38ZM15.2535 28.7332C14.9004 28.486 14.4063 28.3802 13.8767 28.3802C13.0296 28.3802 12.4649 28.8038 12.4649 29.4745C12.4649 30.0394 12.8884 30.357 13.6297 30.4629L13.9827 30.4983C14.371 30.5688 14.5828 30.6747 14.5828 30.8513C14.5828 31.0983 14.3005 31.2748 13.8061 31.2748C13.312 31.2748 12.9237 31.0983 12.6765 30.9219L12.3235 31.4866C12.7119 31.769 13.2414 31.9102 13.7708 31.9102C14.7592 31.9102 15.3241 31.4514 15.3241 30.8159C15.3241 30.2158 14.8652 29.898 14.1591 29.7922L13.8061 29.7569C13.4884 29.7215 13.2414 29.651 13.2414 29.4393C13.2414 29.1921 13.4884 29.0509 13.8767 29.0509C14.3005 29.0509 14.724 29.2273 14.9358 29.3333L15.2535 28.7332ZM34.9512 28.3802C34.5275 28.3802 34.2451 28.592 34.0686 28.8744V28.4508H33.3273V31.8396H34.0686V29.9334C34.0686 29.3687 34.3157 29.0509 34.7745 29.0509C34.9159 29.0509 35.0924 29.0863 35.2336 29.1215L35.4454 28.4156C35.3042 28.3802 35.0924 28.3802 34.9512 28.3802ZM25.4906 30.1452C25.4906 31.1689 26.1966 31.9102 27.291 31.9102C27.7852 31.9102 28.1381 31.8044 28.4911 31.522L28.1381 30.9219C27.8558 31.1337 27.5734 31.2395 27.2556 31.2395C26.6555 31.2395 26.232 30.8159 26.232 30.1452C26.232 29.5099 26.6555 29.0861 27.2556 29.0509C27.5734 29.0509 27.8558 29.1567 28.1381 29.3687L28.4911 28.7685C28.1381 28.486 27.7852 28.3802 27.291 28.3802C26.1966 28.3802 25.4906 29.1215 25.4906 30.1452ZM32.339 30.1452V28.4508H31.5977V28.8744C31.3505 28.5568 30.9975 28.3802 30.5386 28.3802C29.5855 28.3802 28.8442 29.1215 28.8442 30.1452C28.8442 31.1689 29.5855 31.9102 30.5386 31.9102C31.0328 31.9102 31.3859 31.7338 31.5977 31.416V31.8396H32.339V30.1452ZM29.6207 30.1452C29.6207 29.5451 30.0091 29.0509 30.6444 29.0509C31.2445 29.0509 31.6683 29.5099 31.6683 30.1452C31.6683 30.7453 31.2445 31.2395 30.6444 31.2395C30.0091 31.2041 29.6207 30.7453 29.6207 30.1452ZM20.7604 28.3802C19.772 28.3802 19.0659 29.0861 19.0659 30.1452C19.0659 31.2042 19.7718 31.9102 20.7957 31.9102C21.2898 31.9102 21.7841 31.769 22.1725 31.4514L21.8193 30.9219C21.537 31.1337 21.184 31.2748 20.831 31.2748C20.3721 31.2748 19.9132 31.0631 19.8072 30.4628H22.3136V30.1806C22.349 29.0861 21.7137 28.3802 20.7604 28.3802ZM20.7604 29.0155C21.2192 29.0155 21.5371 29.2981 21.6076 29.8276H19.8426C19.9132 29.3687 20.2309 29.0155 20.7604 29.0155ZM39.1519 30.1452V27.1094H38.4106V28.8744C38.1635 28.5568 37.8105 28.3802 37.3516 28.3802C36.3985 28.3802 35.6572 29.1215 35.6572 30.1452C35.6572 31.1689 36.3985 31.9102 37.3516 31.9102C37.8459 31.9102 38.1988 31.7338 38.4106 31.416V31.8396H39.1519V30.1452ZM36.4338 30.1452C36.4338 29.5451 36.822 29.0509 37.4575 29.0509C38.0576 29.0509 38.4812 29.5099 38.4812 30.1452C38.4812 30.7453 38.0576 31.2395 37.4575 31.2395C36.822 31.2041 36.4338 30.7453 36.4338 30.1452ZM11.6528 30.1452V28.4508H10.9115V28.8744C10.6644 28.5568 10.3114 28.3802 9.85246 28.3802C8.89937 28.3802 8.15806 29.1215 8.15806 30.1452C8.15806 31.1689 8.89937 31.9102 9.85246 31.9102C10.3468 31.9102 10.6997 31.7338 10.9115 31.416V31.8396H11.6528V30.1452ZM8.89937 30.1452C8.89937 29.5451 9.28771 29.0509 9.92305 29.0509C10.5232 29.0509 10.9469 29.5099 10.9469 30.1452C10.9469 30.7453 10.5232 31.2395 9.92305 31.2395C9.28771 31.2041 8.89937 30.7453 8.89937 30.1452Z" fill="white"/>
<path d="M15.0063 2.71875H26.1259V22.6988H15.0063V2.71875Z" fill="#FF5F00"/>
<path d="M15.7124 12.7082C15.7124 8.64868 17.6186 5.04796 20.5485 2.71807C18.3953 1.02368 15.6772 0 12.712 0C5.68696 0 0.00366211 5.6833 0.00366211 12.7082C0.00366211 19.7329 5.68696 25.4164 12.7118 25.4164C15.6771 25.4164 18.3951 24.3927 20.5485 22.6981C17.6186 20.4036 15.7124 16.7677 15.7124 12.7082Z" fill="#EB001B"/>
<path d="M41.1288 12.7082C41.1288 19.7329 35.4455 25.4164 28.4206 25.4164C25.4554 25.4164 22.7373 24.3927 20.584 22.6981C23.5492 20.3684 25.4202 16.7677 25.4202 12.7082C25.4202 8.64868 23.5138 5.04796 20.584 2.71807C22.7372 1.02368 25.4554 0 28.4206 0C35.4455 0 41.1288 5.71867 41.1288 12.7082Z" fill="#F79E1B"/>
</g>
<defs>
<clipPath id="clip0_8381_70962">
<rect width="41.1733" height="32" fill="white"/>
</clipPath>
</defs>
</svg>
