<svg width="51" height="50" viewBox="0 0 51 50" fill="none" xmlns="http://www.w3.org/2000/svg">
<g clip-path="url(#clip0_1681_14417)">
<path d="M8.83333 33.3333C9.34361 33.3334 9.83612 33.5207 10.2174 33.8598C10.5988 34.1989 10.8424 34.6661 10.9021 35.1729L10.9167 35.4167V39.5833H15.0833C15.6143 39.5839 16.1251 39.7872 16.5112 40.1518C16.8973 40.5163 17.1297 41.0145 17.1608 41.5446C17.1919 42.0747 17.0194 42.5966 16.6786 43.0038C16.3378 43.411 15.8544 43.6727 15.3271 43.7354L15.0833 43.75H10.9167C9.86547 43.7503 8.85299 43.3533 8.08219 42.6385C7.3114 41.9238 6.83926 40.9441 6.76042 39.8958L6.75 39.5833V35.4167C6.75 34.8641 6.96949 34.3342 7.36019 33.9435C7.75089 33.5528 8.2808 33.3333 8.83333 33.3333ZM42.1667 33.3333C42.7192 33.3333 43.2491 33.5528 43.6398 33.9435C44.0305 34.3342 44.25 34.8641 44.25 35.4167V39.5833C44.25 40.6884 43.811 41.7482 43.0296 42.5296C42.2482 43.311 41.1884 43.75 40.0833 43.75H35.9167C35.3641 43.75 34.8342 43.5305 34.4435 43.1398C34.0528 42.7491 33.8333 42.2192 33.8333 41.6667C33.8333 41.1141 34.0528 40.5842 34.4435 40.1935C34.8342 39.8028 35.3641 39.5833 35.9167 39.5833H40.0833V35.4167C40.0833 34.8641 40.3028 34.3342 40.6935 33.9435C41.0842 33.5528 41.6141 33.3333 42.1667 33.3333ZM31.3333 28.8687C31.5277 28.6727 31.7591 28.5172 32.0141 28.4113C32.2691 28.3055 32.5426 28.2513 32.8187 28.2521C33.0948 28.2529 33.3679 28.3085 33.6223 28.4158C33.8767 28.523 34.1073 28.6798 34.3006 28.8769C34.4938 29.0741 34.646 29.3077 34.7482 29.5642C34.8504 29.8206 34.9006 30.0949 34.8959 30.3709C34.8912 30.647 34.8317 30.9193 34.7208 31.1722C34.6099 31.425 34.4499 31.6533 34.25 31.8437C31.9153 34.137 28.7726 35.4203 25.5 35.4167C22.2274 35.4203 19.0847 34.137 16.75 31.8437C16.5501 31.6533 16.3901 31.425 16.2792 31.1722C16.1683 30.9193 16.1088 30.647 16.1041 30.3709C16.0993 30.0949 16.1496 29.8206 16.2518 29.5642C16.354 29.3077 16.5062 29.0741 16.6994 28.8769C16.8927 28.6798 17.1233 28.523 17.3777 28.4158C17.6321 28.3085 17.9052 28.2529 18.1813 28.2521C18.4574 28.2513 18.7309 28.3055 18.9859 28.4113C19.2409 28.5172 19.4723 28.6727 19.6667 28.8687C21.2225 30.3984 23.3182 31.2538 25.5 31.25C27.7708 31.25 29.8271 30.3438 31.3333 28.8687ZM18.2083 16.6667C19.0371 16.6667 19.832 16.9959 20.418 17.582C21.0041 18.168 21.3333 18.9629 21.3333 19.7917C21.3333 20.6205 21.0041 21.4153 20.418 22.0014C19.832 22.5874 19.0371 22.9167 18.2083 22.9167C17.3795 22.9167 16.5847 22.5874 15.9986 22.0014C15.4126 21.4153 15.0833 20.6205 15.0833 19.7917C15.0833 18.9629 15.4126 18.168 15.9986 17.582C16.5847 16.9959 17.3795 16.6667 18.2083 16.6667ZM32.7917 16.6667C33.6205 16.6667 34.4153 16.9959 35.0014 17.582C35.5874 18.168 35.9167 18.9629 35.9167 19.7917C35.9167 20.6205 35.5874 21.4153 35.0014 22.0014C34.4153 22.5874 33.6205 22.9167 32.7917 22.9167C31.9629 22.9167 31.168 22.5874 30.582 22.0014C29.9959 21.4153 29.6667 20.6205 29.6667 19.7917C29.6667 18.9629 29.9959 18.168 30.582 17.582C31.168 16.9959 31.9629 16.6667 32.7917 16.6667ZM15.0833 6.25C15.6359 6.25 16.1658 6.46949 16.5565 6.86019C16.9472 7.25089 17.1667 7.7808 17.1667 8.33333C17.1667 8.88587 16.9472 9.41577 16.5565 9.80647C16.1658 10.1972 15.6359 10.4167 15.0833 10.4167H10.9167V14.5833C10.9167 15.1359 10.6972 15.6658 10.3065 16.0565C9.91577 16.4472 9.38587 16.6667 8.83333 16.6667C8.2808 16.6667 7.75089 16.4472 7.36019 16.0565C6.96949 15.6658 6.75 15.1359 6.75 14.5833V10.4167C6.75 9.3116 7.18899 8.25179 7.97039 7.47039C8.75179 6.68899 9.8116 6.25 10.9167 6.25H15.0833ZM40.0833 6.25C41.1884 6.25 42.2482 6.68899 43.0296 7.47039C43.811 8.25179 44.25 9.3116 44.25 10.4167V14.5833C44.25 15.1359 44.0305 15.6658 43.6398 16.0565C43.2491 16.4472 42.7192 16.6667 42.1667 16.6667C41.6141 16.6667 41.0842 16.4472 40.6935 16.0565C40.3028 15.6658 40.0833 15.1359 40.0833 14.5833V10.4167H35.9167C35.3641 10.4167 34.8342 10.1972 34.4435 9.80647C34.0528 9.41577 33.8333 8.88587 33.8333 8.33333C33.8333 7.7808 34.0528 7.25089 34.4435 6.86019C34.8342 6.46949 35.3641 6.25 35.9167 6.25H40.0833Z" fill="#5034C4"/>
</g>
<defs>
<clipPath id="clip0_1681_14417">
<rect width="50" height="50" fill="white" transform="translate(0.5)"/>
</clipPath>
</defs>
</svg>
