<svg width="43" height="10" viewBox="0 0 43 10" fill="none" xmlns="http://www.w3.org/2000/svg">
<g clip-path="url(#clip0_1_47518)">
<path d="M12.7758 6.42682C12.0399 7.90443 10.2518 8.49691 8.76656 7.75715C7.28127 7.01738 6.6768 5.23369 7.4132 3.75608C8.14433 2.28855 9.93186 1.69606 11.4171 2.43583C12.9024 3.17559 13.5069 4.95928 12.7758 6.42682Z" fill="white"/>
<path d="M13.2475 2.1316C13.3754 1.87475 12.8766 1.36639 12.1333 0.996145C11.3901 0.625895 10.6838 0.533961 10.5559 0.790804C10.4279 1.04765 10.9267 1.55601 11.67 1.92626C12.4133 2.29651 13.1195 2.38844 13.2475 2.1316Z" fill="white"/>
<path d="M18.2803 7.92434H17.5458V6.91352C16.9639 7.68687 16.2582 8.07354 15.4277 8.07354C15.0022 8.07354 14.6189 7.9584 14.2783 7.72765C13.9376 7.49737 13.6963 7.19561 13.5548 6.82285C13.4128 6.45057 13.3418 5.90222 13.3418 5.17877V2.27344H14.0653V4.96576C14.0653 5.62541 14.0955 6.07253 14.1559 6.30665C14.2159 6.54076 14.3085 6.73937 14.4327 6.90249C14.557 7.0656 14.7148 7.18985 14.9062 7.27477C15.0977 7.35968 15.3299 7.40238 15.6033 7.40238C15.8768 7.40238 16.1445 7.33522 16.4069 7.20041C16.6693 7.0656 16.8929 6.87754 17.0776 6.63623C17.2618 6.39492 17.386 6.14689 17.4498 5.89119C17.5136 5.63548 17.5458 5.12168 17.5458 4.34785V2.27344H18.2803V7.92434Z" fill="white"/>
<path d="M24.6231 3.4443L24.0484 3.80602C23.5519 3.14637 22.8706 2.81631 22.0052 2.81631C21.3239 2.81631 20.753 3.03459 20.2915 3.47068C19.83 3.90677 19.5997 4.44792 19.5997 5.09366C19.5997 5.73939 19.8266 6.29254 20.281 6.75405C20.7348 7.21556 21.3095 7.44584 22.0052 7.44584C22.8351 7.44584 23.5164 7.11578 24.0484 6.45613L24.6231 6.83944C24.3391 7.25106 23.9577 7.56674 23.4789 7.78646C23.0001 8.00666 22.4839 8.11652 21.9303 8.11652C21.0577 8.11652 20.3285 7.82916 19.7432 7.25442C19.1579 6.67969 18.8652 5.97734 18.8652 5.14739C18.8652 4.31743 19.1612 3.60597 19.7537 3.01349C20.3462 2.421 21.1071 2.125 22.0363 2.125C22.5828 2.125 23.0879 2.24206 23.5528 2.47617C24.0172 2.71029 24.3741 3.03316 24.6222 3.44478L24.6231 3.4443Z" fill="white"/>
<path d="M25.1875 0.0917969H25.922V3.28449C26.5034 2.51115 27.2096 2.12447 28.0401 2.12447C28.4656 2.12447 28.8489 2.24009 29.1895 2.47037C29.5301 2.70112 29.771 3.0024 29.913 3.37516C30.055 3.74745 30.126 4.29579 30.126 5.01925V7.92458H29.3915V5.23225C29.3915 4.6508 29.3737 4.24974 29.3382 4.02954C29.3027 3.80981 29.2245 3.60016 29.1041 3.40155C28.9832 3.20294 28.822 3.0523 28.6201 2.94915C28.4176 2.84649 28.1729 2.79467 27.8856 2.79467C27.5982 2.79467 27.3233 2.86232 27.0609 2.99665C26.7985 3.13145 26.5749 3.31951 26.3902 3.56083C26.2055 3.80214 26.0817 4.05016 26.0179 4.30587C25.9541 4.56157 25.922 5.07586 25.922 5.8492V7.92458H25.1875V0.0917969Z" fill="white"/>
<path d="M35.6382 6.09488L36.2556 6.41439C35.6454 7.54947 34.7444 8.117 33.5522 8.117C32.7007 8.117 31.9983 7.82436 31.4452 7.23907C30.8916 6.65378 30.6152 5.94952 30.6152 5.12628C30.6152 4.30304 30.8935 3.59733 31.4505 3.00821C32.0075 2.41956 32.6959 2.125 33.5153 2.125C34.3347 2.125 35.0226 2.39797 35.5801 2.9444C36.1371 3.49083 36.4264 4.23587 36.4475 5.17953H31.3603C31.3814 5.86077 31.5963 6.40863 32.0041 6.82361C32.4119 7.23859 32.907 7.44632 33.4889 7.44632C34.4465 7.44632 35.1632 6.99584 35.6386 6.09488H35.6382ZM35.6382 4.55155C35.5388 4.01231 35.2903 3.59014 34.8931 3.28502C34.4959 2.9799 34.0382 2.82735 33.5201 2.82735C32.456 2.82735 31.7604 3.40208 31.4342 4.55155H35.6377H35.6382Z" fill="white"/>
<path d="M36.7227 2.2742H37.4677V3.0936C37.6663 2.76018 37.8596 2.51551 38.0477 2.35912C38.2358 2.2032 38.4449 2.125 38.6757 2.125C38.9065 2.125 39.1386 2.18881 39.3728 2.31642L38.9894 2.93385C38.8829 2.87004 38.7731 2.8379 38.6594 2.8379C38.4392 2.8379 38.2319 2.9516 38.0367 3.17852C37.8414 3.40544 37.698 3.69808 37.6059 4.05645C37.5138 4.41482 37.4677 5.06583 37.4677 6.00949V7.9251H36.7227V2.2742Z" fill="white"/>
<path d="M42.2466 2.89016L41.7784 3.36894C41.3883 2.99282 41.0084 2.80476 40.6395 2.80476C40.3982 2.80476 40.1962 2.88104 40.0331 3.0336C39.87 3.18616 39.7884 3.37422 39.7884 3.59778C39.7884 3.82134 39.8752 4.01276 40.0489 4.17251C40.2226 4.33227 40.5224 4.52369 40.9484 4.74725C41.374 4.97081 41.6987 5.21212 41.9223 5.4707C42.1459 5.72976 42.2576 6.04735 42.2576 6.42299C42.2576 6.89842 42.0926 7.29948 41.7625 7.62571C41.4325 7.95194 41.0266 8.11505 40.544 8.11505C40.225 8.11505 39.9179 8.04405 39.6234 7.90204C39.3288 7.76004 39.0789 7.56142 38.873 7.3062L39.3307 6.79527C39.7068 7.21409 40.1002 7.42326 40.5119 7.42326C40.8026 7.42326 41.0511 7.32731 41.2569 7.13589C41.4627 6.94447 41.5654 6.71899 41.5654 6.45993C41.5654 6.20087 41.4747 5.98834 41.2938 5.82139C41.113 5.65492 40.8112 5.46494 40.389 5.25194C39.9669 5.03893 39.6512 4.80674 39.442 4.55487C39.2329 4.303 39.1283 3.97678 39.1283 3.57571C39.1283 3.17465 39.2756 2.83259 39.5701 2.54858C39.8647 2.26505 40.2547 2.12305 40.7407 2.12305C41.2267 2.12305 41.7285 2.37827 42.2466 2.8892V2.89016Z" fill="white"/>
<path d="M0.986328 2.27763H1.7093V3.30908C2.28356 2.5223 3.03148 2.12891 3.95306 2.12891C4.74704 2.12891 5.43116 2.42155 6.00541 3.00636C6.57966 3.59117 6.86703 4.29495 6.86703 5.11723C6.86703 5.93951 6.5835 6.64522 6.01644 7.23338C5.44939 7.82203 4.76863 8.11611 3.97465 8.11611C3.10967 8.11611 2.35456 7.72992 1.70978 6.95705V9.98759H0.986328V2.27763ZM6.14406 5.12779C6.14406 4.49692 5.92625 3.95625 5.49016 3.50625C5.05408 3.05625 4.5206 2.83077 3.88974 2.83077C3.25888 2.83077 2.72876 3.05241 2.29987 3.49522C1.87098 3.9385 1.65653 4.48589 1.65653 5.13834C1.65653 5.79079 1.87625 6.33818 2.3157 6.78146C2.75514 7.22475 3.28142 7.44591 3.89502 7.44591C4.50861 7.44591 5.03633 7.22091 5.47961 6.77043C5.92241 6.32043 6.14406 5.77256 6.14406 5.12731V5.12779Z" fill="white"/>
</g>
<defs>
<clipPath id="clip0_1_47518">
<rect width="41.2714" height="9.89664" fill="white" transform="translate(0.986328 0.0917969)"/>
</clipPath>
</defs>
</svg>
