<svg width="11" height="12" viewBox="0 0 11 12" fill="none" xmlns="http://www.w3.org/2000/svg">
<path d="M7.47441 3.07605H3.07786C3.07786 3.07605 3.05176e-05 5.7135 3.05176e-05 8.79133C3.05176e-05 10.5492 1.32357 11.4288 2.19831 11.4288H8.35396C9.23231 11.4288 10.5522 10.5492 10.5522 8.79133C10.5522 5.7135 7.47441 3.07605 7.47441 3.07605ZM5.71531 9.18598V9.88986L8.55731 9.80805V9.10657C7.90997 8.98625 7.50329 8.58678 7.47441 8.00683L7.15917 7.821C7.19647 8.12541 4.85982 8.58919 5.30381 8.58919C5.7129 8.58919 6.00288 8.39066 6.00288 8.1079C6.00288 7.86726 5.81518 7.73009 5.35314 7.62661L4.86343 7.52193C4.1776 7.37875 3.8407 7.0214 3.8407 6.44746C3.8407 5.87353 4.22332 5.45962 4.83215 5.32366V4.61496H5.71049L5.53483 3.91055C5.35434 3.60974 3.34979 4.32806 3.36904 4.87312L5.98483 6.40776C5.94753 6.11056 3.74925 4.45199 3.36904 4.45199C2.98882 4.45199 3.07786 5.85013 3.07786 6.1365C3.07786 6.36872 4.8153 6.74225 5.25688 6.84091L5.71049 6.93717C6.46732 7.096 2.46662 5.18716 2.46662 5.77553C2.46662 6.40481 6.38911 9.05724 5.71531 9.18598Z" fill="#5034C4"/>
<path d="M7.47404 0.437549H6.2588C6.13469 0.299892 5.98306 0.189834 5.81372 0.114502C5.64438 0.0391704 5.46111 0.000244141 5.27577 0.000244141C5.09043 0.000244141 4.90715 0.0391704 4.73781 0.114502C4.56847 0.189834 4.41684 0.299892 4.29274 0.437549H3.07749C3.0059 0.437859 2.93546 0.45562 2.87228 0.489293C2.8091 0.522965 2.75508 0.571534 2.7149 0.630792C2.67472 0.69005 2.6496 0.75821 2.64171 0.829368C2.63381 0.900525 2.64339 0.972534 2.6696 1.03916L3.07749 2.19545H7.47404L7.88194 1.03916C7.90815 0.972534 7.91772 0.900525 7.90983 0.829368C7.90194 0.75821 7.87681 0.69005 7.83663 0.630792C7.79646 0.571534 7.74244 0.522965 7.67926 0.489293C7.61608 0.45562 7.54564 0.437859 7.47404 0.437549Z" fill="black"/>
<path d="M4.66105 5.71448L5.97474 7.8274V5.71448H6.51675V8.69553H5.96555L4.61053 6.50912V8.69553H4.06852V5.71448H4.66105Z" fill="white"/>
<path d="M3.5603 6.71057H6.98887V7.07147H3.5603V6.71057Z" fill="white"/>
<path d="M3.5603 7.34215H6.98887V7.70305H3.5603V7.34215Z" fill="white"/>
</svg>
