<svg width="47" height="23" viewBox="0 0 47 23" fill="none" xmlns="http://www.w3.org/2000/svg">
<g clip-path="url(#clip0_546_7625)">
<path d="M23.6669 0C10.9644 0 0.66687 5.14882 0.66687 11.5C0.66687 17.8512 10.9644 22.9999 23.6669 22.9999C36.3693 22.9999 46.6669 17.8511 46.6669 11.5C46.6669 5.14872 36.3693 0 23.6669 0ZM23.6669 21.1844C11.967 21.1844 2.48248 16.8486 2.48248 11.5C2.48248 6.15135 11.9671 1.81551 23.6669 1.81551C35.3667 1.81551 44.8513 6.15135 44.8513 11.5C44.8513 16.8486 35.3666 21.1844 23.6669 21.1844ZM20.7663 9.48243V7.66654H27.2549V9.48243H24.9189V15.3334H23.1026V9.48243H20.7663ZM35.087 7.66654V15.3335H33.2715L29.9785 10.7694V15.3335H28.1629V7.66654H29.9784L33.2714 12.2306V7.66654H35.087ZM12.1927 15.3335V7.66654H14.0083L16.0254 10.7694L18.0426 7.66654H19.8574V15.3335H18.0426V10.9969L16.6655 13.1136H15.3854L14.0083 10.9969V15.3335H12.1927Z" fill="black"/>
</g>
<defs>
<clipPath id="clip0_546_7625">
<rect width="46" height="23" fill="white" transform="translate(0.666748)"/>
</clipPath>
</defs>
</svg>
