<svg width="192" height="234" viewBox="0 0 192 234" fill="none" xmlns="http://www.w3.org/2000/svg">
<g clip-path="url(#clip0_2591_43896)">
<rect x="123.91" y="0.078125" width="201.409" height="131.144" rx="16" transform="rotate(70.2919 123.91 0.078125)" fill="#227B41"/>
<path d="M120.6 129.391C117.139 142.236 103.96 149.762 91.0507 146.283C78.1402 142.806 70.5254 129.679 73.9864 116.833C77.4222 104.077 90.6005 96.5497 103.511 100.028C116.422 103.506 124.036 116.634 120.6 129.391Z" fill="#FFFFEE" fill-opacity="0.2"/>
<path d="M117.446 94.4726C118.048 92.2395 113.298 89.0178 106.836 87.2767C100.375 85.5356 94.6493 85.9345 94.0475 88.1676C93.4458 90.4007 98.1959 93.6224 104.657 95.3634C111.119 97.1045 116.844 96.7057 117.446 94.4726Z" fill="white" fill-opacity="0.4"/>
<g opacity="0.2">
<path opacity="0.2" d="M134.972 228.274C198.868 205.753 234.199 140.225 213.887 81.9139C193.574 23.603 125.31 -5.41 61.4144 17.1116C-2.48128 39.6332 -37.8124 105.161 -17.5 163.472C2.81243 221.783 71.0766 250.796 134.972 228.274Z" stroke="white" stroke-width="0.5"/>
</g>
<g opacity="0.2">
<path opacity="0.2" d="M133.932 225.29C196.02 203.406 230.352 139.732 210.614 83.0702C190.876 26.4089 124.543 -1.78338 62.4547 20.1011C0.366553 41.9857 -33.9651 105.66 -14.2273 162.321C5.51051 218.982 71.8436 247.175 133.932 225.29Z" stroke="white" stroke-width="0.5"/>
</g>
<g opacity="0.2">
<path opacity="0.2" d="M132.891 222.306C193.172 201.059 226.504 139.238 207.341 84.2266C188.178 29.2147 123.776 1.84323 63.4951 23.0907C3.21451 44.3381 -30.1177 106.158 -10.9545 161.17C8.2087 216.182 72.6107 243.554 132.891 222.306Z" stroke="white" stroke-width="0.5"/>
</g>
<g opacity="0.2">
<path opacity="0.2" d="M131.851 219.315C190.324 198.704 222.657 138.738 204.068 85.3752C185.479 32.0128 123.009 5.46205 64.5354 26.0724C6.06233 46.6827 -26.2704 106.649 -7.68182 160.012C10.9068 213.374 73.3777 239.925 131.851 219.315Z" stroke="white" stroke-width="0.5"/>
</g>
<g opacity="0.2">
<path opacity="0.2" d="M130.81 216.331C187.476 196.357 218.809 138.244 200.795 86.5315C182.781 34.8187 122.242 9.08868 65.576 29.0619C8.9104 49.0351 -22.4229 107.148 -4.40889 158.861C13.6051 210.574 74.1449 236.304 130.81 216.331Z" stroke="white" stroke-width="0.5"/>
</g>
<g opacity="0.2">
<path opacity="0.2" d="M129.77 213.343C184.628 194.007 214.962 137.747 197.522 87.684C180.083 37.6207 121.474 12.7114 66.6163 32.0475C11.7582 51.3836 -18.5756 107.643 -1.1362 157.706C16.3032 207.769 74.9119 232.679 129.77 213.343Z" stroke="white" stroke-width="0.5"/>
</g>
<g opacity="0.2">
<path opacity="0.2" d="M128.73 210.355C181.78 191.656 211.115 137.25 194.25 88.8364C177.385 40.4227 120.707 16.3341 67.6569 35.0331C14.6063 53.7321 -14.7281 108.138 2.13673 156.551C19.0015 204.965 75.6791 229.054 128.73 210.355Z" stroke="white" stroke-width="0.5"/>
</g>
<g opacity="0.2">
<path opacity="0.2" d="M127.689 207.371C178.932 189.309 207.267 136.757 190.977 89.9928C174.687 43.2285 119.94 19.9607 68.6972 38.0226C17.4541 56.0845 -10.8808 108.636 5.40942 155.401C21.6996 202.165 76.4461 225.433 127.689 207.371Z" stroke="white" stroke-width="0.5"/>
</g>
<g opacity="0.2">
<path opacity="0.2" d="M126.649 204.383C176.084 186.958 203.42 136.26 187.704 91.1452C171.989 46.0305 119.173 23.5834 69.7377 41.0082C20.3022 58.433 -7.03321 109.131 8.68235 154.246C24.3979 199.361 77.2133 221.808 126.649 204.383Z" stroke="white" stroke-width="0.5"/>
</g>
<g opacity="0.2">
<path opacity="0.2" d="M125.608 201.395C173.236 184.607 199.572 135.763 184.431 92.2976C169.29 48.8325 118.406 27.2061 70.7781 43.9938C23.15 60.7815 -3.18591 109.626 11.955 153.091C27.096 196.556 77.9803 218.183 125.608 201.395Z" stroke="white" stroke-width="0.5"/>
</g>
<g opacity="0.2">
<path opacity="0.2" d="M124.568 198.411C170.389 182.261 195.725 135.27 181.159 93.454C166.592 51.6384 117.639 30.8328 71.8186 46.9833C25.9981 63.1339 0.661628 110.125 15.228 151.94C29.7943 193.756 78.7475 214.562 124.568 198.411Z" stroke="white" stroke-width="0.5"/>
</g>
<g opacity="0.2">
<path opacity="0.2" d="M123.527 195.423C167.54 179.91 191.878 134.773 177.886 94.6065C163.894 54.4404 116.872 34.4555 72.8589 49.969C28.846 65.4824 4.50892 110.62 18.5007 150.786C32.4924 190.952 79.5145 210.937 123.527 195.423Z" stroke="white" stroke-width="0.5"/>
</g>
<g opacity="0.2">
<path opacity="0.2" d="M122.487 192.435C164.693 177.559 188.03 134.275 174.613 95.7589C161.196 57.2423 116.105 38.0782 73.8994 52.9546C31.6939 67.8309 8.35634 111.114 21.7735 149.631C35.1906 188.148 80.2816 207.312 122.487 192.435Z" stroke="white" stroke-width="0.5"/>
</g>
<g opacity="0.2">
<path opacity="0.2" d="M121.447 189.448C161.844 175.208 184.183 133.778 171.34 96.9114C158.498 60.0443 115.338 41.7009 74.9397 55.9402C34.5417 70.1794 12.2036 111.609 25.0462 148.476C37.8887 185.343 81.0486 203.687 121.447 189.448Z" stroke="white" stroke-width="0.5"/>
</g>
<g opacity="0.2">
<path opacity="0.2" d="M120.406 186.464C158.997 172.861 180.335 133.285 168.067 98.0677C155.8 62.8502 114.571 45.3275 75.9803 58.9297C37.3898 72.5319 16.0512 112.108 28.3191 147.326C40.587 182.543 81.8158 200.066 120.406 186.464Z" stroke="white" stroke-width="0.5"/>
</g>
<g opacity="0.2">
<path opacity="0.2" d="M119.366 183.476C156.149 170.511 176.488 132.788 164.795 99.2201C153.101 65.6522 113.803 48.9502 77.0206 61.9153C40.2376 74.8804 19.8985 112.603 31.5918 146.171C43.2851 179.739 82.5828 196.441 119.366 183.476Z" stroke="white" stroke-width="0.5"/>
</g>
<g opacity="0.2">
<path opacity="0.2" d="M118.117 179.891C152.731 167.69 171.871 132.192 160.867 100.604C149.864 69.0153 112.883 53.2983 78.2692 65.4988C43.6553 77.6994 24.5155 113.197 35.5193 144.786C46.5231 176.374 83.5035 192.092 118.117 179.891Z" stroke="white" stroke-width="0.5"/>
</g>
<g opacity="0.2">
<path opacity="0.2" d="M117.077 176.907C149.883 165.344 168.024 131.699 157.594 101.76C147.165 71.8212 112.116 56.9249 79.3096 68.4883C46.5032 80.0518 28.3628 113.696 38.792 143.635C49.2211 173.574 84.2705 188.47 117.077 176.907Z" stroke="#9177E0" stroke-width="0.5"/>
</g>
<g opacity="0.2">
<path opacity="0.2" d="M116.036 173.915C147.035 162.989 164.176 131.198 154.322 102.909C144.467 74.6193 111.349 60.5437 80.3499 71.47C49.351 82.3964 32.2101 114.187 42.0647 142.477C51.9192 170.766 85.0375 184.842 116.036 173.915Z" stroke="white" stroke-width="0.5"/>
</g>
<g opacity="0.2">
<path opacity="0.2" d="M114.996 170.931C144.188 160.642 160.329 130.705 151.049 104.065C141.769 77.4252 110.582 64.1703 81.3906 74.4595C52.1992 84.7488 36.0578 114.686 45.3377 141.326C54.6177 167.966 85.8048 181.22 114.996 170.931Z" stroke="white" stroke-width="0.5"/>
</g>
<g opacity="0.2">
<path opacity="0.2" d="M113.956 167.943C141.339 158.291 156.481 130.208 147.776 105.218C139.071 80.2272 109.815 67.793 82.4307 77.4452C55.0469 87.0973 39.905 115.181 48.6103 140.171C57.3156 165.161 86.5717 177.596 113.956 167.943Z" stroke="white" stroke-width="0.5"/>
</g>
<g opacity="0.2">
<path opacity="0.2" d="M112.915 164.956C138.492 155.94 152.634 129.711 144.503 106.37C136.373 83.0291 109.048 71.4157 83.4713 80.4308C57.895 89.4458 43.7525 115.675 51.8832 139.016C60.0139 162.357 87.3389 173.971 112.915 164.956Z" stroke="white" stroke-width="0.5"/>
</g>
<g opacity="0.2">
<path opacity="0.2" d="M111.875 161.972C135.644 153.594 148.787 129.218 141.23 107.526C133.674 85.835 108.28 75.0424 84.5116 83.4203C60.7428 91.7982 47.5998 116.174 55.1559 137.865C62.712 159.557 88.1059 170.349 111.875 161.972Z" stroke="white" stroke-width="0.5"/>
</g>
<g opacity="0.2">
<path opacity="0.2" d="M110.834 158.984C132.796 151.243 144.939 128.721 137.958 108.679C130.976 88.637 107.513 78.6651 85.552 86.4059C63.5907 94.1467 51.4472 116.669 58.4287 136.711C65.4102 156.753 88.873 166.725 110.834 158.984Z" stroke="white" stroke-width="0.5"/>
</g>
<g opacity="0.2">
<path opacity="0.2" d="M109.794 156C129.948 148.896 141.092 128.227 134.685 109.835C128.278 91.4429 106.746 82.2917 86.5926 89.3954C66.4388 96.4991 55.2948 117.168 61.7017 135.56C68.1086 153.952 89.6402 163.103 109.794 156Z" stroke="white" stroke-width="0.5"/>
</g>
<g opacity="0.2">
<path opacity="0.2" d="M108.754 153.008C127.1 146.541 137.244 127.726 131.412 110.984C125.58 94.241 105.979 85.9105 87.6331 92.3771C69.2868 98.8437 59.1422 117.659 64.9745 134.401C70.8068 151.144 90.4073 159.475 108.754 153.008Z" stroke="white" stroke-width="0.5"/>
</g>
<g opacity="0.2">
<path opacity="0.2" d="M107.713 150.024C124.252 144.194 133.397 127.233 128.139 112.14C122.882 97.0468 105.212 89.5371 88.6734 95.3666C72.1346 101.196 62.9895 118.157 68.2472 133.251C73.5048 148.344 91.1743 155.853 107.713 150.024Z" stroke="white" stroke-width="0.5"/>
</g>
<path d="M96.2026 136.11L93.6106 127.992L92.1771 128.45L91.4006 126.018L92.8341 125.56L92.0785 123.194L90.645 123.651L89.8685 121.219L91.302 120.762L88.71 112.644L92.5903 111.405L97.1101 118.907L99.3593 118.189L96.7673 110.071L99.5107 109.195L102.103 117.313L103.511 116.863L104.288 119.295L102.879 119.745L103.635 122.111L105.044 121.662L105.82 124.094L104.411 124.543L107.003 132.661L103.098 133.908L98.529 126.422L96.3541 127.116L98.946 135.234L96.2026 136.11ZM95.5775 124.684L97.2087 124.163L95.9094 121.97L94.7725 122.333L95.5775 124.684ZM102.697 128.386L102.821 128.347L101.767 125.388L101.099 125.601L102.697 128.386ZM93.9465 119.917L94.6386 119.696L92.9144 116.77L92.8156 116.802L93.9465 119.917ZM99.8039 123.335L100.941 122.972L100.136 120.621L98.4799 121.15L99.8039 123.335Z" fill="white"/>
<g clip-path="url(#clip1_2591_43896)">
<path fill-rule="evenodd" clip-rule="evenodd" d="M119.465 48.9086C122.83 47.7839 126.47 49.6002 127.594 52.9653C128.719 56.3306 126.903 59.9703 123.538 61.0949C120.173 62.2196 116.533 60.4033 115.408 57.038C114.284 53.6729 116.1 50.0332 119.465 48.9086Z" fill="#ED342B"/>
<path fill-rule="evenodd" clip-rule="evenodd" d="M124.111 54.1306C121.477 56.5259 118.925 58.4898 118.925 58.4898L119.624 60.5791C119.624 60.5791 122.903 58.0695 126.746 54.1592L126.199 52.5237C120.777 51.7097 116.648 51.6761 116.648 51.6761L117.346 53.7654C117.346 53.7654 120.566 53.8001 124.111 54.1306Z" fill="#FEFEFE"/>
<path fill-rule="evenodd" clip-rule="evenodd" d="M112.414 28.8688C112.808 30.05 114.111 29.7156 114.111 29.7156L113.261 27.1722C113.261 27.1722 112.019 27.688 112.414 28.8688ZM114.016 25.2027L115.382 29.2906C115.382 29.2906 116.715 28.7444 116.107 26.9274C115.804 26.0191 115.227 25.2018 115.227 25.2018L116.62 24.5342C116.62 24.5342 117.287 25.3212 117.712 26.5931C118.32 28.4099 117.958 30.3487 115.414 31.1988C113.416 31.8667 111.719 31.0199 111.111 29.203C110.201 26.4778 112.865 25.3855 114.016 25.2027ZM116.515 39.8204L114.921 40.0403C114.921 40.0403 114.988 42.4326 116.799 43.7898L122.799 41.7847L122.172 39.9098L117.298 41.539C116.485 40.977 116.515 39.8204 116.515 39.8204ZM118.73 47.768C119.124 48.9488 120.427 48.6146 120.427 48.6146L119.577 46.0711C119.577 46.0711 118.335 46.5869 118.73 47.768ZM120.332 44.1018L121.698 48.1896C121.698 48.1896 123.031 47.6433 122.424 45.8265C122.12 44.9183 121.544 44.1009 121.544 44.1009L122.936 43.4334C122.936 43.4334 123.604 44.2204 124.029 45.4922C124.636 47.309 124.274 49.2479 121.73 50.098C119.732 50.7659 118.035 49.9191 117.428 48.1022C116.517 45.377 119.181 44.2846 120.332 44.1018ZM117.755 34.3195C115.788 36.0352 113.795 37.2302 113.795 37.2302L114.432 39.1337C114.432 39.1337 117.789 36.9536 120.293 34.3176L119.784 32.7952C116.198 32.1945 112.206 32.4706 112.206 32.4706L112.842 34.3743C112.842 34.3743 115.152 34.1312 117.755 34.3195Z" fill="white"/>
</g>
</g>
<defs>
<clipPath id="clip0_2591_43896">
<rect x="123.91" y="0.078125" width="201.409" height="131.144" rx="16" transform="rotate(70.2919 123.91 0.078125)" fill="white"/>
</clipPath>
<clipPath id="clip1_2591_43896">
<rect width="37.3043" height="13" fill="white" transform="translate(117.4 63.25) rotate(-108.48)"/>
</clipPath>
</defs>
</svg>
