<svg width="40" height="51" viewBox="0 0 40 51" fill="none" xmlns="http://www.w3.org/2000/svg">
<path d="M21.5534 50.4421L14.2451 36.697L11.8178 37.9876L9.6283 33.8696L12.0555 32.5791L9.92514 28.5724L7.49792 29.863L5.30837 25.745L7.73558 24.4545L0.427213 10.7094L6.99743 7.21598L17.57 19.2254L21.3782 17.2006L14.0698 3.45552L18.715 0.985633L26.0234 14.7307L28.4087 13.4624L30.5983 17.5803L28.2129 18.8486L30.3433 22.8553L32.7287 21.587L34.9182 25.7049L32.5329 26.9732L39.8412 40.7183L33.2292 44.234L22.5729 32.269L18.8902 34.2271L26.1986 47.9722L21.5534 50.4421ZM16.7007 30.1092L19.4627 28.6406L16.4117 25.1235L14.4866 26.147L16.7007 30.1092ZM30.7058 34.4403L30.915 34.3291L28.0551 29.3541L26.9252 29.9549L30.7058 34.4403ZM12.2134 22.0736L13.3851 21.4506L9.33103 16.7536L9.16363 16.8426L12.2134 22.0736ZM23.8568 26.3042L25.7818 25.2807L23.5678 21.3185L20.7639 22.8094L23.8568 26.3042Z" fill="white"/>
</svg>
