<svg width="40" height="49" viewBox="0 0 40 49" fill="none" xmlns="http://www.w3.org/2000/svg">
<path d="M21.5534 48.7243L14.2451 34.9792L11.8178 36.2698L9.6283 32.1519L12.0555 30.8613L9.92514 26.8546L7.49792 28.1452L5.30837 24.0273L7.73558 22.7367L0.427213 8.99165L6.99743 5.49821L17.57 17.5077L21.3782 15.4828L14.0698 1.73775L18.715 -0.73214L26.0234 13.0129L28.4087 11.7446L30.5983 15.8625L28.2129 17.1309L30.3433 21.1375L32.7287 19.8692L34.9182 23.9871L32.5329 25.2555L39.8412 39.0005L33.2292 42.5162L22.5729 30.5512L18.8902 32.5094L26.1986 46.2544L21.5534 48.7243ZM16.7007 28.3914L19.4627 26.9228L16.4117 23.4057L14.4866 24.4293L16.7007 28.3914ZM30.7058 32.7226L30.915 32.6113L28.0551 27.6363L26.9252 28.2371L30.7058 32.7226ZM12.2134 20.3558L13.3851 19.7328L9.33103 15.0359L9.16363 15.1249L12.2134 20.3558ZM23.8568 24.5865L25.7818 23.5629L23.5677 19.6007L20.7639 21.0916L23.8568 24.5865Z" fill="white"/>
</svg>
