<svg width="20" height="28" viewBox="0 0 20 28" fill="none" xmlns="http://www.w3.org/2000/svg">
<path d="M8.20261 27.1118L5.61063 18.994L4.17712 19.4517L3.40058 17.0197L4.83408 16.5619L4.07852 14.1956L2.64502 14.6533L1.86847 12.2213L3.30198 11.7636L0.709993 3.6458L4.59034 2.40682L9.11014 9.90905L11.3593 9.19091L8.76727 1.07313L11.5107 0.197163L14.1027 8.31494L15.5115 7.86512L16.288 10.2972L14.8792 10.747L15.6348 13.1133L17.0436 12.6635L17.8201 15.0955L16.4113 15.5453L19.0033 23.6631L15.0983 24.91L10.529 17.4236L8.35406 18.118L10.946 26.2358L8.20261 27.1118ZM7.57751 15.686L9.20874 15.1651L7.90944 12.9724L6.77252 13.3354L7.57751 15.686ZM14.697 19.3884L14.8206 19.3489L13.7668 16.3897L13.0994 16.6028L14.697 19.3884ZM5.94654 10.9192L6.63858 10.6982L4.91442 7.77198L4.81555 7.80355L5.94654 10.9192ZM11.8039 14.3365L12.9408 13.9735L12.1358 11.623L10.4799 12.1517L11.8039 14.3365Z" fill="white"/>
</svg>
