<svg width="20" height="20" viewBox="0 0 20 20" fill="none" xmlns="http://www.w3.org/2000/svg">
<path d="M7.61982 17.3183V14.7625C7.6198 14.1149 8.14643 13.5888 8.79874 13.5847H11.1939C11.8491 13.5847 12.3803 14.112 12.3803 14.7625V17.3109C12.3802 17.8726 12.8367 18.3291 13.4025 18.3331H15.0366C15.7997 18.3351 16.5323 18.0355 17.0727 17.5004C17.613 16.9654 17.9167 16.2388 17.9167 15.4811V8.22138C17.9167 7.60933 17.6434 7.02876 17.1706 6.63609L11.6192 2.22839C10.6488 1.45744 9.26285 1.48234 8.3212 2.28766L2.88922 6.63609C2.39399 7.01719 2.098 7.59947 2.08337 8.22138V15.4737C2.08337 17.0529 3.37286 18.3331 4.96352 18.3331H6.56028C6.83268 18.3351 7.09461 18.2291 7.28793 18.0385C7.48126 17.848 7.58998 17.5887 7.58997 17.3183H7.61982Z" fill="#5034C4"/>
</svg>
