<svg width="23" height="22" viewBox="0 0 23 22" fill="none" xmlns="http://www.w3.org/2000/svg">
<path opacity="0.4" d="M6.48115 11.8164C6.00804 11.8164 5.62505 12.2051 5.62505 12.6852L5.38904 16.8824C5.38904 17.4943 5.87823 17.9897 6.48115 17.9897C7.08406 17.9897 7.57218 17.4943 7.57218 16.8824L7.33724 12.6852C7.33724 12.2051 6.95425 11.8164 6.48115 11.8164Z" fill="#05051F"/>
<path d="M7.64973 3.36733C7.64973 3.36733 7.40406 3.11473 7.25172 3.00477C7.03072 2.83492 6.75823 2.75 6.48681 2.75C6.18214 2.75 5.89892 2.84581 5.66827 3.02654C5.62643 3.06901 5.44834 3.22905 5.30137 3.37821C4.37876 4.25031 2.86934 6.52691 2.40803 7.7191C2.33508 7.89983 2.17738 8.35711 2.16772 8.60208C2.16772 8.83508 2.21922 9.05936 2.32435 9.27167C2.47133 9.53733 2.70198 9.75072 2.97447 9.86722C3.16328 9.94235 3.72865 10.0588 3.73938 10.0588C4.35838 10.1764 5.36467 10.2396 6.47609 10.2396C7.53494 10.2396 8.49939 10.1764 9.12805 10.0806C9.13877 10.0697 9.84038 9.95323 10.0818 9.82476C10.5216 9.59068 10.7952 9.1334 10.7952 8.64454V8.60208C10.7844 8.28308 10.5109 7.6124 10.5012 7.6124C10.0399 6.48445 8.60345 4.2612 7.64973 3.36733Z" fill="#05051F"/>
<path opacity="0.4" d="M16.1878 10.1837C16.6609 10.1837 17.0439 9.79496 17.0439 9.3148L17.2789 5.11755C17.2789 4.50565 16.7907 4.01025 16.1878 4.01025C15.5849 4.01025 15.0957 4.50565 15.0957 5.11755L15.3317 9.3148C15.3317 9.79496 15.7147 10.1837 16.1878 10.1837Z" fill="#05051F"/>
<path d="M20.3445 12.7282C20.1975 12.4625 19.9669 12.2502 19.6944 12.1326C19.5055 12.0575 18.9391 11.941 18.9295 11.941C18.3105 11.8234 17.3042 11.7603 16.1927 11.7603C15.1339 11.7603 14.1694 11.8234 13.5408 11.9192C13.5301 11.9301 12.8284 12.0477 12.5871 12.1751C12.1461 12.4092 11.8737 12.8665 11.8737 13.3564V13.3989C11.8844 13.7179 12.1569 14.3875 12.1676 14.3875C12.6289 15.5155 14.0643 17.7398 15.0191 18.6327C15.0191 18.6327 15.2648 18.8852 15.4171 18.9941C15.637 19.1651 15.9095 19.25 16.1831 19.25C16.4867 19.25 16.7688 19.1542 17.0006 18.9734C17.0424 18.931 17.2205 18.7709 17.3675 18.6229C18.289 17.7496 19.7995 15.473 20.2597 14.2819C20.3338 14.1011 20.4915 13.6428 20.5011 13.3989C20.5011 13.1648 20.4496 12.9405 20.3445 12.7282Z" fill="#05051F"/>
</svg>
