<svg width="20" height="20" viewBox="0 0 20 20" fill="none" xmlns="http://www.w3.org/2000/svg">
<path d="M16.4746 9.7044C15.8659 8.99354 15.5892 8.3775 15.5892 7.33092V6.97507C15.5892 5.61124 15.2753 4.73251 14.5929 3.85379C13.5411 2.48912 11.7703 1.66663 10.0369 1.66663H9.96315C8.26613 1.66663 6.55089 2.45135 5.48083 3.76063C4.76111 4.65698 4.41078 5.57347 4.41078 6.97507V7.33092C4.41078 8.3775 4.15237 8.99354 3.52541 9.7044C3.06409 10.2281 2.91667 10.9012 2.91667 11.6297C2.91667 12.359 3.15603 13.0498 3.63639 13.6113C4.26335 14.2844 5.14872 14.7141 6.05313 14.7888C7.36255 14.9382 8.67196 14.9944 10.0004 14.9944C11.3281 14.9944 12.6375 14.9004 13.9477 14.7888C14.8513 14.7141 15.7367 14.2844 16.3636 13.6113C16.8432 13.0498 17.0833 12.359 17.0833 11.6297C17.0833 10.9012 16.9359 10.2281 16.4746 9.7044Z" fill="#5034C4"/>
<path opacity="0.4" d="M11.6739 16.0236C11.2573 15.9347 8.71884 15.9347 8.30224 16.0236C7.94611 16.1059 7.56099 16.2972 7.56099 16.7169C7.58169 17.1172 7.81608 17.4706 8.14074 17.6946L8.13991 17.6955C8.55982 18.0228 9.05261 18.2309 9.56859 18.3056C9.84356 18.3434 10.1235 18.3417 10.4084 18.3056C10.9236 18.2309 11.4163 18.0228 11.8362 17.6955L11.8354 17.6946C12.1601 17.4706 12.3945 17.1172 12.4152 16.7169C12.4152 16.2972 12.0301 16.1059 11.6739 16.0236Z" fill="#5034C4"/>
</svg>
