<svg width="177" height="80" viewBox="0 0 177 80" fill="none" xmlns="http://www.w3.org/2000/svg">
<path d="M166.388 4.56614e-07H74.7171C74.1393 -0.000330504 73.5758 0.17926 73.1048 0.51383C72.6338 0.8484 72.2787 1.32134 72.0888 1.86697C71.7018 2.98395 70.9764 3.95258 70.0134 4.63813C69.0503 5.32368 67.8976 5.69207 66.7155 5.69207C65.5334 5.69207 64.3807 5.32368 63.4177 4.63813C62.4547 3.95258 61.7292 2.98395 61.3423 1.86697C61.1525 1.32339 60.7989 0.851998 60.3302 0.517657C59.8615 0.183316 59.3006 0.00246722 58.7249 4.56614e-07H9.81936C9.81936 1.28941 9.56536 2.56619 9.07187 3.75743C8.57837 4.94866 7.85506 6.03102 6.94322 6.94269C6.03139 7.85436 4.9489 8.57747 3.75757 9.07074C2.56624 9.56401 1.28941 9.81777 0 9.81753V70.0524C1.28941 70.0521 2.56624 70.3059 3.75757 70.7992C4.9489 71.2924 6.03139 72.0156 6.94322 72.9272C7.85506 73.8389 8.57837 74.9213 9.07187 76.1125C9.56536 77.3037 9.81936 78.5805 9.81936 79.8699H58.7249C59.3027 79.8705 59.8663 79.691 60.3374 79.3564C60.8084 79.0218 61.1635 78.5487 61.3532 78.0029C61.7402 76.886 62.4656 75.9173 63.4286 75.2318C64.3916 74.5462 65.5443 74.1778 66.7264 74.1778C67.9086 74.1778 69.0613 74.5462 70.0243 75.2318C70.9873 75.9173 71.7127 76.886 72.0997 78.0029C72.2892 78.5467 72.6428 79.0182 73.1115 79.3526C73.5803 79.687 74.1413 79.8677 74.7171 79.8699H166.383C166.383 78.5807 166.637 77.304 167.13 76.1129C167.623 74.9218 168.346 73.8395 169.258 72.9279C170.17 72.0162 171.252 71.2931 172.443 70.7997C173.634 70.3063 174.911 70.0524 176.2 70.0524V9.81753C173.597 9.81608 171.102 8.7811 169.262 6.94011C167.422 5.09913 166.388 2.60283 166.388 4.56614e-07V4.56614e-07ZM66.2492 8.53889C66.2452 8.4741 66.2545 8.40918 66.2765 8.34813C66.2986 8.28707 66.3329 8.23118 66.3773 8.18388C66.4218 8.13659 66.4754 8.0989 66.535 8.07313C66.5946 8.04737 66.6588 8.03408 66.7237 8.03408C66.7886 8.03408 66.8528 8.04737 66.9124 8.07313C66.972 8.0989 67.0257 8.13659 67.0701 8.18388C67.1146 8.23118 67.1489 8.28707 67.1709 8.34813C67.1929 8.40918 67.2022 8.4741 67.1982 8.53889V14.0414C67.2022 14.1062 67.1929 14.1711 67.1709 14.2322C67.1489 14.2933 67.1146 14.3491 67.0701 14.3964C67.0257 14.4437 66.972 14.4814 66.9124 14.5072C66.8528 14.533 66.7886 14.5462 66.7237 14.5462C66.6588 14.5462 66.5946 14.533 66.535 14.5072C66.4754 14.4814 66.4218 14.4437 66.3773 14.3964C66.3329 14.3491 66.2986 14.2933 66.2765 14.2322C66.2545 14.1711 66.2452 14.1062 66.2492 14.0414V8.53889ZM66.2492 17.963C66.2452 17.8982 66.2545 17.8333 66.2765 17.7722C66.2986 17.7112 66.3329 17.6553 66.3773 17.608C66.4218 17.5607 66.4754 17.523 66.535 17.4972C66.5946 17.4715 66.6588 17.4582 66.7237 17.4582C66.7886 17.4582 66.8528 17.4715 66.9124 17.4972C66.972 17.523 67.0257 17.5607 67.0701 17.608C67.1146 17.6553 67.1489 17.7112 67.1709 17.7722C67.1929 17.8333 67.2022 17.8982 67.1982 17.963V23.4655C67.1983 23.5593 67.1706 23.651 67.1186 23.7289C67.0665 23.8069 66.9925 23.8677 66.9059 23.9036C66.8193 23.9395 66.724 23.9489 66.6321 23.9305C66.5401 23.9122 66.4557 23.867 66.3895 23.8007C66.3449 23.7571 66.3095 23.7049 66.2854 23.6473C66.2613 23.5898 66.249 23.5279 66.2492 23.4655V17.963ZM66.2492 27.3871C66.2452 27.3223 66.2545 27.2574 66.2765 27.1963C66.2986 27.1353 66.3329 27.0794 66.3773 27.0321C66.4218 26.9848 66.4754 26.9471 66.535 26.9213C66.5946 26.8956 66.6588 26.8823 66.7237 26.8823C66.7886 26.8823 66.8528 26.8956 66.9124 26.9213C66.972 26.9471 67.0257 26.9848 67.0701 27.0321C67.1146 27.0794 67.1489 27.1353 67.1709 27.1963C67.1929 27.2574 67.2022 27.3223 67.1982 27.3871V32.8896C67.1983 32.9834 67.1706 33.0751 67.1186 33.153C67.0665 33.231 66.9925 33.2918 66.9059 33.3277C66.8193 33.3636 66.724 33.373 66.6321 33.3546C66.5401 33.3363 66.4557 33.2911 66.3895 33.2248C66.3449 33.1812 66.3095 33.129 66.2854 33.0714C66.2613 33.0139 66.249 32.9521 66.2492 32.8896V27.3871ZM66.2492 36.8112C66.2492 36.6851 66.2993 36.5642 66.3885 36.475C66.4776 36.3859 66.5985 36.3358 66.7246 36.3358C66.787 36.3356 66.8488 36.3479 66.9064 36.3719C66.964 36.396 67.0161 36.4314 67.0598 36.476C67.1038 36.52 67.1387 36.5723 67.1625 36.6298C67.1862 36.6873 67.1984 36.749 67.1982 36.8112V42.3138C67.1977 42.4392 67.1477 42.5594 67.059 42.6481C66.9703 42.7368 66.8501 42.7868 66.7246 42.7873C66.5991 42.7864 66.4791 42.7362 66.3902 42.6477C66.3013 42.5591 66.2507 42.4392 66.2492 42.3138V36.8112ZM66.2492 46.2353C66.2452 46.1705 66.2545 46.1056 66.2765 46.0445C66.2986 45.9835 66.3329 45.9276 66.3773 45.8803C66.4218 45.833 66.4754 45.7953 66.535 45.7695C66.5946 45.7438 66.6588 45.7305 66.7237 45.7305C66.7886 45.7305 66.8528 45.7438 66.9124 45.7695C66.972 45.7953 67.0257 45.833 67.0701 45.8803C67.1146 45.9276 67.1489 45.9835 67.1709 46.0445C67.1929 46.1056 67.2022 46.1705 67.1982 46.2353V51.7379C67.1983 51.8316 67.1706 51.9233 67.1186 52.0012C67.0665 52.0792 66.9925 52.14 66.9059 52.1759C66.8193 52.2118 66.724 52.2212 66.6321 52.2029C66.5401 52.1845 66.4557 52.1393 66.3895 52.073C66.3449 52.0294 66.3095 51.9772 66.2854 51.9196C66.2613 51.8621 66.249 51.8003 66.2492 51.7379V46.2353ZM67.1982 70.5842C67.1982 70.71 67.1484 70.8307 67.0596 70.9198C66.9708 71.0089 66.8504 71.0591 66.7246 71.0596C66.5988 71.0587 66.4785 71.0083 66.3895 70.9193C66.3006 70.8304 66.2502 70.71 66.2492 70.5842V65.0817C66.2452 65.0169 66.2545 64.952 66.2765 64.8909C66.2986 64.8299 66.3329 64.774 66.3773 64.7267C66.4218 64.6794 66.4754 64.6417 66.535 64.6159C66.5946 64.5902 66.6588 64.5769 66.7237 64.5769C66.7886 64.5769 66.8528 64.5902 66.9124 64.6159C66.972 64.6417 67.0257 64.6794 67.0701 64.7267C67.1146 64.774 67.1489 64.8299 67.1709 64.8909C67.1929 64.952 67.2022 65.0169 67.1982 65.0817V70.5842ZM67.1982 61.162C67.1983 61.2557 67.1706 61.3474 67.1186 61.4254C67.0665 61.5033 66.9925 61.5641 66.9059 61.6C66.8193 61.6359 66.724 61.6453 66.6321 61.627C66.5401 61.6086 66.4557 61.5634 66.3895 61.4971L66.3749 61.4825C66.2944 61.3951 66.2496 61.2808 66.2492 61.162V55.6594C66.2493 55.5655 66.2771 55.4737 66.3292 55.3957C66.3814 55.3176 66.4554 55.2567 66.5421 55.2206C66.6288 55.1846 66.7242 55.175 66.8164 55.1931C66.9085 55.2113 66.9932 55.2562 67.0598 55.3224C67.1423 55.405 67.1911 55.5154 67.1964 55.6321C67.1973 55.6412 67.1973 55.6503 67.1964 55.6594L67.1982 61.162Z" fill="#5034C4"/>
<path d="M159.913 51V48.2H161.645V48.476H160.249V49.452H161.525V49.724H160.249V50.724H161.645V51H159.913ZM161.951 51L162.639 50.008L161.951 49.016H162.315L162.871 49.836L163.431 49.016H163.791L163.103 50.008L163.791 51H163.431L162.871 50.18L162.315 51H161.951ZM164.143 51.88V49.016H164.447L164.479 49.344C164.543 49.248 164.634 49.1613 164.751 49.084C164.871 49.0067 165.023 48.968 165.207 48.968C165.405 48.968 165.577 49.0133 165.723 49.104C165.87 49.1947 165.983 49.3187 166.063 49.476C166.146 49.6333 166.187 49.812 166.187 50.012C166.187 50.212 166.146 50.3907 166.063 50.548C165.983 50.7027 165.869 50.8253 165.719 50.916C165.573 51.004 165.401 51.048 165.203 51.048C165.041 51.048 164.895 51.0147 164.767 50.948C164.642 50.8813 164.546 50.788 164.479 50.668V51.88H164.143ZM165.167 50.756C165.301 50.756 165.418 50.7253 165.519 50.664C165.621 50.6 165.701 50.512 165.759 50.4C165.818 50.288 165.847 50.1573 165.847 50.008C165.847 49.8587 165.818 49.728 165.759 49.616C165.701 49.504 165.621 49.4173 165.519 49.356C165.418 49.292 165.301 49.26 165.167 49.26C165.034 49.26 164.917 49.292 164.815 49.356C164.714 49.4173 164.634 49.504 164.575 49.616C164.517 49.728 164.487 49.8587 164.487 50.008C164.487 50.1573 164.517 50.288 164.575 50.4C164.634 50.512 164.714 50.6 164.815 50.664C164.917 50.7253 165.034 50.756 165.167 50.756ZM166.859 48.576C166.792 48.576 166.736 48.5547 166.691 48.512C166.648 48.4667 166.627 48.4107 166.627 48.344C166.627 48.28 166.648 48.2267 166.691 48.184C166.736 48.1413 166.792 48.12 166.859 48.12C166.923 48.12 166.978 48.1413 167.023 48.184C167.068 48.2267 167.091 48.28 167.091 48.344C167.091 48.4107 167.068 48.4667 167.023 48.512C166.978 48.5547 166.923 48.576 166.859 48.576ZM166.691 51V49.016H167.027V51H166.691ZM167.612 51V49.016H167.916L167.944 49.396C168.005 49.2653 168.099 49.1613 168.224 49.084C168.349 49.0067 168.504 48.968 168.688 48.968V49.32H168.596C168.479 49.32 168.371 49.3413 168.272 49.384C168.173 49.424 168.095 49.4933 168.036 49.592C167.977 49.6907 167.948 49.8267 167.948 50V51H167.612ZM169.281 51.88L169.773 50.808H169.657L168.869 49.016H169.233L169.889 50.56L170.585 49.016H170.933L169.633 51.88H169.281Z" fill="#E9E6FD"/>
<path d="M139.919 61V57.364L139.241 57.514V57.166L140.087 56.8H140.429V61H139.919ZM141.249 61V60.646C141.533 60.422 141.801 60.196 142.053 59.968C142.309 59.736 142.535 59.508 142.731 59.284C142.931 59.06 143.087 58.84 143.199 58.624C143.315 58.408 143.373 58.2 143.373 58C143.373 57.852 143.347 57.714 143.295 57.586C143.247 57.458 143.167 57.356 143.055 57.28C142.943 57.2 142.791 57.16 142.599 57.16C142.415 57.16 142.261 57.202 142.137 57.286C142.013 57.366 141.919 57.474 141.855 57.61C141.795 57.746 141.765 57.892 141.765 58.048H141.279C141.279 57.772 141.337 57.536 141.453 57.34C141.569 57.14 141.727 56.988 141.927 56.884C142.127 56.78 142.353 56.728 142.605 56.728C142.977 56.728 143.281 56.834 143.517 57.046C143.757 57.254 143.877 57.566 143.877 57.982C143.877 58.23 143.815 58.476 143.691 58.72C143.567 58.96 143.409 59.194 143.217 59.422C143.025 59.646 142.819 59.856 142.599 60.052C142.383 60.248 142.181 60.424 141.993 60.58H144.021V61H141.249ZM144.473 61.57L145.979 56.416H146.477L144.971 61.57H144.473ZM148.613 61.072C148.241 61.072 147.919 60.982 147.647 60.802C147.379 60.618 147.173 60.364 147.029 60.04C146.885 59.712 146.813 59.332 146.813 58.9C146.813 58.468 146.885 58.09 147.029 57.766C147.173 57.438 147.379 57.184 147.647 57.004C147.919 56.82 148.241 56.728 148.613 56.728C148.985 56.728 149.305 56.82 149.573 57.004C149.841 57.184 150.047 57.438 150.191 57.766C150.335 58.09 150.407 58.468 150.407 58.9C150.407 59.332 150.335 59.712 150.191 60.04C150.047 60.364 149.841 60.618 149.573 60.802C149.305 60.982 148.985 61.072 148.613 61.072ZM148.613 60.628C148.857 60.628 149.075 60.56 149.267 60.424C149.463 60.284 149.615 60.086 149.723 59.83C149.835 59.57 149.891 59.26 149.891 58.9C149.891 58.54 149.835 58.232 149.723 57.976C149.615 57.72 149.463 57.524 149.267 57.388C149.075 57.248 148.857 57.178 148.613 57.178C148.365 57.178 148.145 57.248 147.953 57.388C147.761 57.524 147.609 57.72 147.497 57.976C147.385 58.232 147.329 58.54 147.329 58.9C147.329 59.26 147.385 59.57 147.497 59.83C147.609 60.086 147.761 60.284 147.953 60.424C148.145 60.56 148.365 60.628 148.613 60.628ZM153.037 61V60.1H150.907V59.71L152.947 56.8H153.535V59.656H154.159V60.1H153.535V61H153.037ZM151.465 59.656H153.061V57.358L151.465 59.656ZM154.492 61.57L155.998 56.416H156.496L154.99 61.57H154.492ZM157.046 61V60.646C157.33 60.422 157.598 60.196 157.85 59.968C158.106 59.736 158.332 59.508 158.528 59.284C158.728 59.06 158.884 58.84 158.996 58.624C159.112 58.408 159.17 58.2 159.17 58C159.17 57.852 159.144 57.714 159.092 57.586C159.044 57.458 158.964 57.356 158.852 57.28C158.74 57.2 158.588 57.16 158.396 57.16C158.212 57.16 158.058 57.202 157.934 57.286C157.81 57.366 157.716 57.474 157.652 57.61C157.592 57.746 157.562 57.892 157.562 58.048H157.076C157.076 57.772 157.134 57.536 157.25 57.34C157.366 57.14 157.524 56.988 157.724 56.884C157.924 56.78 158.15 56.728 158.402 56.728C158.774 56.728 159.078 56.834 159.314 57.046C159.554 57.254 159.674 57.566 159.674 57.982C159.674 58.23 159.612 58.476 159.488 58.72C159.364 58.96 159.206 59.194 159.014 59.422C158.822 59.646 158.616 59.856 158.396 60.052C158.18 60.248 157.978 60.424 157.79 60.58H159.818V61H157.046ZM162.125 61.072C161.753 61.072 161.431 60.982 161.159 60.802C160.891 60.618 160.685 60.364 160.541 60.04C160.397 59.712 160.325 59.332 160.325 58.9C160.325 58.468 160.397 58.09 160.541 57.766C160.685 57.438 160.891 57.184 161.159 57.004C161.431 56.82 161.753 56.728 162.125 56.728C162.497 56.728 162.817 56.82 163.085 57.004C163.353 57.184 163.559 57.438 163.703 57.766C163.847 58.09 163.919 58.468 163.919 58.9C163.919 59.332 163.847 59.712 163.703 60.04C163.559 60.364 163.353 60.618 163.085 60.802C162.817 60.982 162.497 61.072 162.125 61.072ZM162.125 60.628C162.369 60.628 162.587 60.56 162.779 60.424C162.975 60.284 163.127 60.086 163.235 59.83C163.347 59.57 163.403 59.26 163.403 58.9C163.403 58.54 163.347 58.232 163.235 57.976C163.127 57.72 162.975 57.524 162.779 57.388C162.587 57.248 162.369 57.178 162.125 57.178C161.877 57.178 161.657 57.248 161.465 57.388C161.273 57.524 161.121 57.72 161.009 57.976C160.897 58.232 160.841 58.54 160.841 58.9C160.841 59.26 160.897 59.57 161.009 59.83C161.121 60.086 161.273 60.284 161.465 60.424C161.657 60.56 161.877 60.628 162.125 60.628ZM164.523 61V60.646C164.807 60.422 165.075 60.196 165.327 59.968C165.583 59.736 165.809 59.508 166.005 59.284C166.205 59.06 166.361 58.84 166.473 58.624C166.589 58.408 166.647 58.2 166.647 58C166.647 57.852 166.621 57.714 166.569 57.586C166.521 57.458 166.441 57.356 166.329 57.28C166.217 57.2 166.065 57.16 165.873 57.16C165.689 57.16 165.535 57.202 165.411 57.286C165.287 57.366 165.193 57.474 165.129 57.61C165.069 57.746 165.039 57.892 165.039 58.048H164.553C164.553 57.772 164.611 57.536 164.727 57.34C164.843 57.14 165.001 56.988 165.201 56.884C165.401 56.78 165.627 56.728 165.879 56.728C166.251 56.728 166.555 56.834 166.791 57.046C167.031 57.254 167.151 57.566 167.151 57.982C167.151 58.23 167.089 58.476 166.965 58.72C166.841 58.96 166.683 59.194 166.491 59.422C166.299 59.646 166.093 59.856 165.873 60.052C165.657 60.248 165.455 60.424 165.267 60.58H167.295V61H164.523ZM167.956 61V60.646C168.24 60.422 168.508 60.196 168.76 59.968C169.016 59.736 169.242 59.508 169.438 59.284C169.638 59.06 169.794 58.84 169.906 58.624C170.022 58.408 170.08 58.2 170.08 58C170.08 57.852 170.054 57.714 170.002 57.586C169.954 57.458 169.874 57.356 169.762 57.28C169.65 57.2 169.498 57.16 169.306 57.16C169.122 57.16 168.968 57.202 168.844 57.286C168.72 57.366 168.626 57.474 168.562 57.61C168.502 57.746 168.472 57.892 168.472 58.048H167.986C167.986 57.772 168.044 57.536 168.16 57.34C168.276 57.14 168.434 56.988 168.634 56.884C168.834 56.78 169.06 56.728 169.312 56.728C169.684 56.728 169.988 56.834 170.224 57.046C170.464 57.254 170.584 57.566 170.584 57.982C170.584 58.23 170.522 58.476 170.398 58.72C170.274 58.96 170.116 59.194 169.924 59.422C169.732 59.646 169.526 59.856 169.306 60.052C169.09 60.248 168.888 60.424 168.7 60.58H170.728V61H167.956Z" fill="white"/>
<path d="M160.329 15.2725L159.277 12.4725H159.641L160.525 14.9165L161.417 12.4725H161.773L160.721 15.2725H160.329ZM162.575 15.3205C162.409 15.3205 162.272 15.2925 162.163 15.2365C162.053 15.1805 161.972 15.1058 161.919 15.0125C161.865 14.9191 161.839 14.8178 161.839 14.7085C161.839 14.5058 161.916 14.3498 162.071 14.2405C162.225 14.1311 162.436 14.0765 162.703 14.0765H163.239V14.0525C163.239 13.8791 163.193 13.7485 163.103 13.6605C163.012 13.5698 162.891 13.5245 162.739 13.5245C162.608 13.5245 162.495 13.5578 162.399 13.6245C162.305 13.6885 162.247 13.7831 162.223 13.9085H161.879C161.892 13.7645 161.94 13.6431 162.023 13.5445C162.108 13.4458 162.213 13.3711 162.339 13.3205C162.464 13.2671 162.597 13.2405 162.739 13.2405C163.016 13.2405 163.224 13.3151 163.363 13.4645C163.504 13.6111 163.575 13.8071 163.575 14.0525V15.2725H163.275L163.255 14.9165C163.199 15.0285 163.116 15.1245 163.007 15.2045C162.9 15.2818 162.756 15.3205 162.575 15.3205ZM162.627 15.0365C162.755 15.0365 162.864 15.0031 162.955 14.9365C163.048 14.8698 163.119 14.7831 163.167 14.6765C163.215 14.5698 163.239 14.4578 163.239 14.3405V14.3365H162.731C162.533 14.3365 162.393 14.3711 162.311 14.4405C162.231 14.5071 162.191 14.5911 162.191 14.6925C162.191 14.7965 162.228 14.8805 162.303 14.9445C162.38 15.0058 162.488 15.0365 162.627 15.0365ZM164.079 15.2725V12.3925H164.415V15.2725H164.079ZM165.689 15.3205C165.455 15.3205 165.268 15.2498 165.129 15.1085C164.991 14.9645 164.921 14.7445 164.921 14.4485V13.2885H165.257V14.4125C165.257 14.8258 165.427 15.0325 165.765 15.0325C165.939 15.0325 166.081 14.9711 166.193 14.8485C166.308 14.7231 166.365 14.5458 166.365 14.3165V13.2885H166.701V15.2725H166.397L166.373 14.9165C166.312 15.0418 166.22 15.1405 166.097 15.2125C165.977 15.2845 165.841 15.3205 165.689 15.3205ZM168.147 15.3205C167.957 15.3205 167.789 15.2778 167.643 15.1925C167.496 15.1045 167.38 14.9831 167.295 14.8285C167.212 14.6738 167.171 14.4911 167.171 14.2805C167.171 14.0725 167.212 13.8911 167.295 13.7365C167.377 13.5791 167.492 13.4578 167.639 13.3725C167.788 13.2845 167.96 13.2405 168.155 13.2405C168.347 13.2405 168.512 13.2845 168.651 13.3725C168.792 13.4578 168.9 13.5711 168.975 13.7125C169.049 13.8538 169.087 14.0058 169.087 14.1685C169.087 14.1978 169.085 14.2271 169.083 14.2565C169.083 14.2858 169.083 14.3191 169.083 14.3565H167.503C167.511 14.5085 167.545 14.6351 167.607 14.7365C167.671 14.8351 167.749 14.9098 167.843 14.9605C167.939 15.0111 168.04 15.0365 168.147 15.0365C168.285 15.0365 168.401 15.0045 168.495 14.9405C168.588 14.8765 168.656 14.7898 168.699 14.6805H169.031C168.977 14.8645 168.875 15.0178 168.723 15.1405C168.573 15.2605 168.381 15.3205 168.147 15.3205ZM168.147 13.5245C167.987 13.5245 167.844 13.5738 167.719 13.6725C167.596 13.7685 167.525 13.9098 167.507 14.0965H168.755C168.747 13.9178 168.685 13.7778 168.571 13.6765C168.456 13.5751 168.315 13.5245 168.147 13.5245Z" fill="#E9E6FD"/>
<path d="M141.37 26.2725V24.2965H140.906V23.7045H141.37V23.1285H140.906V22.5365H141.37V20.5605H142.626L143.25 22.5365H143.978V20.5605H144.866V22.5365H145.322V23.1285H144.866V23.7045H145.322V24.2965H144.866V26.2725H143.602L142.962 24.2965H142.258V26.2725H141.37ZM142.258 23.7045H142.786L142.61 23.1285H142.242L142.258 23.7045ZM144.002 25.0245H144.042L144.01 24.2965H143.794L144.002 25.0245ZM142.226 22.5365H142.45L142.218 21.7685H142.186L142.226 22.5365ZM143.626 23.7045H143.994L143.978 23.1285H143.442L143.626 23.7045ZM147.956 26.3685C147.546 26.3685 147.191 26.2965 146.892 26.1525C146.599 26.0085 146.367 25.8111 146.196 25.5605C146.031 25.3045 145.935 25.0165 145.908 24.6965H146.908C146.956 24.9258 147.074 25.1178 147.26 25.2725C147.447 25.4218 147.679 25.4965 147.956 25.4965C148.255 25.4965 148.498 25.3871 148.684 25.1685C148.876 24.9498 148.972 24.6778 148.972 24.3525C148.972 24.0165 148.876 23.7498 148.684 23.5525C148.498 23.3551 148.26 23.2565 147.972 23.2565C147.732 23.2565 147.524 23.3151 147.348 23.4325C147.172 23.5498 147.047 23.6965 146.972 23.8725H145.988L146.468 20.6725H149.572V21.5685H147.236L146.98 22.8645C147.098 22.7365 147.258 22.6325 147.46 22.5525C147.663 22.4671 147.89 22.4245 148.14 22.4245C148.54 22.4245 148.874 22.5151 149.14 22.6965C149.407 22.8725 149.61 23.1071 149.748 23.4005C149.887 23.6885 149.956 24.0031 149.956 24.3445C149.956 24.7338 149.871 25.0805 149.7 25.3845C149.535 25.6885 149.3 25.9285 148.996 26.1045C148.698 26.2805 148.351 26.3685 147.956 26.3685ZM150.477 27.2005L150.933 25.2085H151.925L151.149 27.2005H150.477ZM155.057 26.3685C154.539 26.3685 154.097 26.2485 153.729 26.0085C153.361 25.7631 153.075 25.4245 152.873 24.9925C152.675 24.5551 152.577 24.0485 152.577 23.4725C152.577 22.9018 152.675 22.3978 152.873 21.9605C153.075 21.5231 153.361 21.1845 153.729 20.9445C154.097 20.6991 154.539 20.5765 155.057 20.5765C155.574 20.5765 156.017 20.6991 156.385 20.9445C156.753 21.1845 157.035 21.5231 157.233 21.9605C157.435 22.3978 157.537 22.9018 157.537 23.4725C157.537 24.0485 157.435 24.5551 157.233 24.9925C157.035 25.4245 156.753 25.7631 156.385 26.0085C156.017 26.2485 155.574 26.3685 155.057 26.3685ZM155.057 25.4485C155.478 25.4485 155.822 25.2725 156.089 24.9205C156.355 24.5685 156.489 24.0858 156.489 23.4725C156.489 22.8591 156.355 22.3765 156.089 22.0245C155.822 21.6725 155.478 21.4965 155.057 21.4965C154.63 21.4965 154.283 21.6725 154.017 22.0245C153.755 22.3765 153.625 22.8591 153.625 23.4725C153.625 24.0858 153.755 24.5685 154.017 24.9205C154.283 25.2725 154.63 25.4485 155.057 25.4485ZM160.736 26.3685C160.219 26.3685 159.776 26.2485 159.408 26.0085C159.04 25.7631 158.755 25.4245 158.552 24.9925C158.355 24.5551 158.256 24.0485 158.256 23.4725C158.256 22.9018 158.355 22.3978 158.552 21.9605C158.755 21.5231 159.04 21.1845 159.408 20.9445C159.776 20.6991 160.219 20.5765 160.736 20.5765C161.254 20.5765 161.696 20.6991 162.064 20.9445C162.432 21.1845 162.715 21.5231 162.912 21.9605C163.115 22.3978 163.216 22.9018 163.216 23.4725C163.216 24.0485 163.115 24.5551 162.912 24.9925C162.715 25.4245 162.432 25.7631 162.064 26.0085C161.696 26.2485 161.254 26.3685 160.736 26.3685ZM160.736 25.4485C161.158 25.4485 161.502 25.2725 161.768 24.9205C162.035 24.5685 162.168 24.0858 162.168 23.4725C162.168 22.8591 162.035 22.3765 161.768 22.0245C161.502 21.6725 161.158 21.4965 160.736 21.4965C160.31 21.4965 159.963 21.6725 159.696 22.0245C159.435 22.3765 159.304 22.8591 159.304 23.4725C159.304 24.0858 159.435 24.5685 159.696 24.9205C159.963 25.2725 160.31 25.4485 160.736 25.4485ZM166.416 26.3685C165.899 26.3685 165.456 26.2485 165.088 26.0085C164.72 25.7631 164.435 25.4245 164.232 24.9925C164.035 24.5551 163.936 24.0485 163.936 23.4725C163.936 22.9018 164.035 22.3978 164.232 21.9605C164.435 21.5231 164.72 21.1845 165.088 20.9445C165.456 20.6991 165.899 20.5765 166.416 20.5765C166.934 20.5765 167.376 20.6991 167.744 20.9445C168.112 21.1845 168.395 21.5231 168.592 21.9605C168.795 22.3978 168.896 22.9018 168.896 23.4725C168.896 24.0485 168.795 24.5551 168.592 24.9925C168.395 25.4245 168.112 25.7631 167.744 26.0085C167.376 26.2485 166.934 26.3685 166.416 26.3685ZM166.416 25.4485C166.838 25.4485 167.182 25.2725 167.448 24.9205C167.715 24.5685 167.848 24.0858 167.848 23.4725C167.848 22.8591 167.715 22.3765 167.448 22.0245C167.182 21.6725 166.838 21.4965 166.416 21.4965C165.99 21.4965 165.643 21.6725 165.376 22.0245C165.115 22.3765 164.984 22.8591 164.984 23.4725C164.984 24.0858 165.115 24.5685 165.376 24.9205C165.643 25.2725 165.99 25.4485 166.416 25.4485Z" fill="white"/>
<path d="M74.1817 49.0481C73.907 49.0481 73.6697 48.9881 73.4697 48.8681C73.2724 48.7454 73.119 48.5761 73.0097 48.3601C72.9004 48.1414 72.8457 47.8881 72.8457 47.6001C72.8457 47.3147 72.9004 47.0641 73.0097 46.8481C73.119 46.6294 73.2724 46.4587 73.4697 46.3361C73.6697 46.2134 73.907 46.1521 74.1817 46.1521C74.5017 46.1521 74.7617 46.2294 74.9617 46.3841C75.1644 46.5361 75.2937 46.7494 75.3497 47.0241H74.9777C74.935 46.8507 74.847 46.7121 74.7137 46.6081C74.583 46.5014 74.4057 46.4481 74.1817 46.4481C73.9817 46.4481 73.807 46.4947 73.6577 46.5881C73.5084 46.6787 73.3924 46.8107 73.3097 46.9841C73.2297 47.1547 73.1897 47.3601 73.1897 47.6001C73.1897 47.8401 73.2297 48.0467 73.3097 48.2201C73.3924 48.3907 73.5084 48.5227 73.6577 48.6161C73.807 48.7067 73.9817 48.7521 74.1817 48.7521C74.4057 48.7521 74.583 48.7014 74.7137 48.6001C74.847 48.4961 74.935 48.3587 74.9777 48.1881H75.3497C75.2937 48.4574 75.1644 48.6681 74.9617 48.8201C74.7617 48.9721 74.5017 49.0481 74.1817 49.0481ZM76.7166 49.0481C76.5299 49.0481 76.3619 49.0054 76.2126 48.9201C76.0633 48.8347 75.9446 48.7147 75.8566 48.5601C75.7713 48.4027 75.7286 48.2187 75.7286 48.0081C75.7286 47.7974 75.7726 47.6147 75.8606 47.4601C75.9486 47.3027 76.0673 47.1814 76.2166 47.0961C76.3686 47.0107 76.5379 46.9681 76.7246 46.9681C76.9113 46.9681 77.0793 47.0107 77.2286 47.0961C77.3779 47.1814 77.4953 47.3027 77.5806 47.4601C77.6686 47.6147 77.7126 47.7974 77.7126 48.0081C77.7126 48.2187 77.6686 48.4027 77.5806 48.5601C77.4926 48.7147 77.3726 48.8347 77.2206 48.9201C77.0713 49.0054 76.9033 49.0481 76.7166 49.0481ZM76.7166 48.7601C76.8313 48.7601 76.9379 48.7321 77.0366 48.6761C77.1353 48.6201 77.2153 48.5361 77.2766 48.4241C77.3379 48.3121 77.3686 48.1734 77.3686 48.0081C77.3686 47.8427 77.3379 47.7041 77.2766 47.5921C77.2179 47.4801 77.1393 47.3961 77.0406 47.3401C76.9419 47.2841 76.8366 47.2561 76.7246 47.2561C76.6099 47.2561 76.5033 47.2841 76.4046 47.3401C76.3059 47.3961 76.2259 47.4801 76.1646 47.5921C76.1033 47.7041 76.0726 47.8427 76.0726 48.0081C76.0726 48.1734 76.1033 48.3121 76.1646 48.4241C76.2259 48.5361 76.3046 48.6201 76.4006 48.6761C76.4993 48.7321 76.6046 48.7601 76.7166 48.7601ZM79.0798 49.0481C78.8825 49.0481 78.7091 49.0027 78.5598 48.9121C78.4131 48.8214 78.2985 48.6974 78.2158 48.5401C78.1358 48.3827 78.0958 48.2041 78.0958 48.0041C78.0958 47.8041 78.1371 47.6267 78.2198 47.4721C78.3025 47.3147 78.4171 47.1921 78.5638 47.1041C78.7105 47.0134 78.8838 46.9681 79.0838 46.9681C79.2465 46.9681 79.3905 47.0014 79.5158 47.0681C79.6411 47.1347 79.7385 47.2281 79.8078 47.3481V46.1201H80.1438V49.0001H79.8398L79.8078 48.6721C79.7438 48.7681 79.6518 48.8547 79.5318 48.9321C79.4118 49.0094 79.2611 49.0481 79.0798 49.0481ZM79.1158 48.7561C79.2491 48.7561 79.3665 48.7254 79.4678 48.6641C79.5718 48.6001 79.6518 48.5121 79.7078 48.4001C79.7665 48.2881 79.7958 48.1574 79.7958 48.0081C79.7958 47.8587 79.7665 47.7281 79.7078 47.6161C79.6518 47.5041 79.5718 47.4174 79.4678 47.3561C79.3665 47.2921 79.2491 47.2601 79.1158 47.2601C78.9851 47.2601 78.8678 47.2921 78.7638 47.3561C78.6625 47.4174 78.5825 47.5041 78.5238 47.6161C78.4678 47.7281 78.4398 47.8587 78.4398 48.0081C78.4398 48.1574 78.4678 48.2881 78.5238 48.4001C78.5825 48.5121 78.6625 48.6001 78.7638 48.6641C78.8678 48.7254 78.9851 48.7561 79.1158 48.7561ZM81.5835 49.0481C81.3942 49.0481 81.2262 49.0054 81.0795 48.9201C80.9328 48.8321 80.8168 48.7107 80.7315 48.5561C80.6488 48.4014 80.6075 48.2187 80.6075 48.0081C80.6075 47.8001 80.6488 47.6187 80.7315 47.4641C80.8142 47.3067 80.9288 47.1854 81.0755 47.1001C81.2248 47.0121 81.3968 46.9681 81.5915 46.9681C81.7835 46.9681 81.9488 47.0121 82.0875 47.1001C82.2288 47.1854 82.3368 47.2987 82.4115 47.4401C82.4862 47.5814 82.5235 47.7334 82.5235 47.8961C82.5235 47.9254 82.5222 47.9547 82.5195 47.9841C82.5195 48.0134 82.5195 48.0467 82.5195 48.0841H80.9395C80.9475 48.2361 80.9822 48.3627 81.0435 48.4641C81.1075 48.5627 81.1862 48.6374 81.2795 48.6881C81.3755 48.7387 81.4768 48.7641 81.5835 48.7641C81.7222 48.7641 81.8382 48.7321 81.9315 48.6681C82.0248 48.6041 82.0928 48.5174 82.1355 48.4081H82.4675C82.4142 48.5921 82.3115 48.7454 82.1595 48.8681C82.0102 48.9881 81.8182 49.0481 81.5835 49.0481ZM81.5835 47.2521C81.4235 47.2521 81.2808 47.3014 81.1555 47.4001C81.0328 47.4961 80.9622 47.6374 80.9435 47.8241H82.1915C82.1835 47.6454 82.1222 47.5054 82.0075 47.4041C81.8928 47.3027 81.7515 47.2521 81.5835 47.2521Z" fill="white"/>
<path d="M73.7777 61.0001L74.0737 59.6001H72.9217V58.6801H74.2737L74.5217 57.5121H73.3457V56.5921H74.7217L75.0177 55.2161H75.9777L75.6817 56.5921H77.2017L77.4977 55.2161H78.4577L78.1697 56.5921H79.2097V57.5121H77.9697L77.7217 58.6801H78.7857V59.6001H77.5217L77.2257 61.0001H76.2577L76.5617 59.6001H75.0417L74.7457 61.0001H73.7777ZM75.2337 58.6801H76.7537L77.0097 57.5121H75.4897L75.2337 58.6801ZM80.6925 61.0001V56.5681L79.7725 56.7841V56.0001L81.1245 55.4001H81.7565V61.0001H80.6925ZM82.7063 61.0001V60.2561C83.0477 59.9734 83.3783 59.6934 83.6983 59.4161C84.0237 59.1387 84.3117 58.8641 84.5623 58.5921C84.8183 58.3201 85.021 58.0561 85.1703 57.8001C85.325 57.5387 85.4023 57.2854 85.4023 57.0401C85.4023 56.8107 85.3383 56.6081 85.2103 56.4321C85.0877 56.2561 84.8823 56.1681 84.5943 56.1681C84.301 56.1681 84.0797 56.2641 83.9303 56.4561C83.781 56.6481 83.7063 56.8801 83.7063 57.1521H82.7143C82.725 56.7414 82.8157 56.4001 82.9863 56.1281C83.157 55.8507 83.3837 55.6454 83.6663 55.5121C83.949 55.3734 84.2663 55.3041 84.6183 55.3041C85.189 55.3041 85.6317 55.4614 85.9463 55.7761C86.2663 56.0854 86.4263 56.4881 86.4263 56.9841C86.4263 57.2934 86.3543 57.5947 86.2103 57.8881C86.0717 58.1814 85.8877 58.4641 85.6583 58.7361C85.429 59.0081 85.181 59.2641 84.9143 59.5041C84.6477 59.7387 84.389 59.9574 84.1383 60.1601H86.5623V61.0001H82.7063ZM87.0526 61.0001L89.1006 55.4001H90.2526L92.3006 61.0001H91.2126L90.7646 59.7041H88.5806L88.1246 61.0001H87.0526ZM88.8606 58.9041H90.4846L89.6686 56.5761L88.8606 58.9041ZM93.022 61.0001V55.4001H95.27C95.8513 55.4001 96.294 55.5361 96.598 55.8081C96.9073 56.0747 97.062 56.4187 97.062 56.8401C97.062 57.1921 96.966 57.4747 96.774 57.6881C96.5873 57.8961 96.358 58.0374 96.086 58.1121C96.406 58.1761 96.67 58.3361 96.878 58.5921C97.086 58.8427 97.19 59.1361 97.19 59.4721C97.19 59.9147 97.03 60.2801 96.71 60.5681C96.39 60.8561 95.9367 61.0001 95.35 61.0001H93.022ZM94.046 57.7521H95.118C95.406 57.7521 95.6273 57.6854 95.782 57.5521C95.9367 57.4187 96.014 57.2294 96.014 56.9841C96.014 56.7494 95.9367 56.5654 95.782 56.4321C95.6327 56.2934 95.406 56.2241 95.102 56.2241H94.046V57.7521ZM94.046 60.1681H95.19C95.494 60.1681 95.7287 60.0987 95.894 59.9601C96.0647 59.8161 96.15 59.6161 96.15 59.3601C96.15 59.0987 96.062 58.8934 95.886 58.7441C95.71 58.5947 95.4727 58.5201 95.174 58.5201H94.046V60.1681ZM100.605 61.0961C100.04 61.0961 99.5542 60.9761 99.1489 60.7361C98.7436 60.4907 98.4316 60.1521 98.2129 59.7201C97.9942 59.2827 97.8849 58.7787 97.8849 58.2081C97.8849 57.6374 97.9942 57.1334 98.2129 56.6961C98.4316 56.2587 98.7436 55.9174 99.1489 55.6721C99.5542 55.4267 100.04 55.3041 100.605 55.3041C101.277 55.3041 101.826 55.4721 102.253 55.8081C102.685 56.1387 102.954 56.6054 103.061 57.2081H101.933C101.864 56.9041 101.714 56.6667 101.485 56.4961C101.261 56.3201 100.962 56.2321 100.589 56.2321C100.072 56.2321 99.6662 56.4081 99.3729 56.7601C99.0796 57.1121 98.9329 57.5947 98.9329 58.2081C98.9329 58.8214 99.0796 59.3041 99.3729 59.6561C99.6662 60.0027 100.072 60.1761 100.589 60.1761C100.962 60.1761 101.261 60.0961 101.485 59.9361C101.714 59.7707 101.864 59.5441 101.933 59.2561H103.061C102.954 59.8321 102.685 60.2827 102.253 60.6081C101.826 60.9334 101.277 61.0961 100.605 61.0961ZM106.527 61.0001V59.9601H103.767V59.1441L106.391 55.4001H107.551V59.0721H108.287V59.9601H107.551V61.0001H106.527ZM104.863 59.0721H106.591V56.5281L104.863 59.0721ZM111.004 61.0961C110.615 61.0961 110.287 61.0214 110.02 60.8721C109.754 60.7174 109.546 60.5174 109.396 60.2721C109.247 60.0267 109.159 59.7627 109.132 59.4801H110.084C110.127 59.7254 110.228 59.9147 110.388 60.0481C110.554 60.1814 110.762 60.2481 111.012 60.2481C111.37 60.2481 111.658 60.0854 111.876 59.7601C112.095 59.4294 112.212 58.9281 112.228 58.2561C112.1 58.4747 111.906 58.6561 111.644 58.8001C111.388 58.9441 111.106 59.0161 110.796 59.0161C110.487 59.0161 110.196 58.9414 109.924 58.7921C109.652 58.6427 109.431 58.4321 109.26 58.1601C109.09 57.8881 109.004 57.5681 109.004 57.2001C109.004 56.8641 109.087 56.5521 109.252 56.2641C109.418 55.9761 109.647 55.7441 109.94 55.5681C110.234 55.3921 110.578 55.3041 110.972 55.3041C111.394 55.3041 111.748 55.3814 112.036 55.5361C112.324 55.6907 112.554 55.8987 112.724 56.1601C112.9 56.4214 113.026 56.7121 113.1 57.0321C113.18 57.3521 113.22 57.6801 113.22 58.0161C113.22 58.6401 113.132 59.1841 112.956 59.6481C112.786 60.1067 112.532 60.4641 112.196 60.7201C111.866 60.9707 111.468 61.0961 111.004 61.0961ZM111.036 58.1521C111.234 58.1521 111.412 58.1094 111.572 58.0241C111.732 57.9334 111.858 57.8161 111.948 57.6721C112.039 57.5227 112.084 57.3574 112.084 57.1761C112.084 56.8881 111.983 56.6507 111.78 56.4641C111.583 56.2774 111.332 56.1841 111.028 56.1841C110.73 56.1841 110.482 56.2774 110.284 56.4641C110.087 56.6454 109.988 56.8774 109.988 57.1601C109.988 57.4587 110.087 57.6987 110.284 57.8801C110.482 58.0614 110.732 58.1521 111.036 58.1521ZM116.075 61.0961C115.685 61.0961 115.357 61.0214 115.091 60.8721C114.824 60.7174 114.616 60.5174 114.467 60.2721C114.317 60.0267 114.229 59.7627 114.203 59.4801H115.155C115.197 59.7254 115.299 59.9147 115.459 60.0481C115.624 60.1814 115.832 60.2481 116.083 60.2481C116.44 60.2481 116.728 60.0854 116.947 59.7601C117.165 59.4294 117.283 58.9281 117.299 58.2561C117.171 58.4747 116.976 58.6561 116.715 58.8001C116.459 58.9441 116.176 59.0161 115.867 59.0161C115.557 59.0161 115.267 58.9414 114.995 58.7921C114.723 58.6427 114.501 58.4321 114.331 58.1601C114.16 57.8881 114.075 57.5681 114.075 57.2001C114.075 56.8641 114.157 56.5521 114.323 56.2641C114.488 55.9761 114.717 55.7441 115.011 55.5681C115.304 55.3921 115.648 55.3041 116.043 55.3041C116.464 55.3041 116.819 55.3814 117.107 55.5361C117.395 55.6907 117.624 55.8987 117.795 56.1601C117.971 56.4214 118.096 56.7121 118.171 57.0321C118.251 57.3521 118.291 57.6801 118.291 58.0161C118.291 58.6401 118.203 59.1841 118.027 59.6481C117.856 60.1067 117.603 60.4641 117.267 60.7201C116.936 60.9707 116.539 61.0961 116.075 61.0961ZM116.107 58.1521C116.304 58.1521 116.483 58.1094 116.643 58.0241C116.803 57.9334 116.928 57.8161 117.019 57.6721C117.109 57.5227 117.155 57.3574 117.155 57.1761C117.155 56.8881 117.053 56.6507 116.851 56.4641C116.653 56.2774 116.403 56.1841 116.099 56.1841C115.8 56.1841 115.552 56.2774 115.355 56.4641C115.157 56.6454 115.059 56.8774 115.059 57.1601C115.059 57.4587 115.157 57.6987 115.355 57.8801C115.552 58.0614 115.803 58.1521 116.107 58.1521ZM120.697 61.0961C120.153 61.0961 119.716 60.9441 119.385 60.6401C119.06 60.3307 118.897 59.8934 118.897 59.3281H119.921C119.926 59.5894 119.988 59.7974 120.105 59.9521C120.222 60.1067 120.412 60.1841 120.673 60.1841C120.918 60.1841 121.097 60.1121 121.209 59.9681C121.321 59.8187 121.377 59.6241 121.377 59.3841V55.4001H122.401V59.3841C122.401 59.9334 122.246 60.3574 121.937 60.6561C121.633 60.9494 121.22 61.0961 120.697 61.0961Z" fill="white"/>
<g opacity="0.1">
<path d="M53.0102 57.4199C47.1378 69.2106 32.8703 73.9384 21.0184 68.0354C9.1664 62.1324 4.34293 47.8993 10.2191 36.1086C16.0532 24.3983 30.3169 19.6705 42.1689 25.5735C54.0209 31.4766 58.8443 45.7096 53.0102 57.4199Z" fill="white"/>
<path d="M56.7807 23.155C57.8016 21.1055 53.8213 17.049 47.8905 14.0946C41.9596 11.1401 36.3241 10.4065 35.3031 12.456C34.2822 14.5055 38.2624 18.562 44.1933 21.5164C50.1242 24.4709 55.7597 25.2045 56.7807 23.155Z" fill="white"/>
</g>
<g clip-path="url(#clip0_1_20)">
<path d="M79.8056 12.6436C79.3594 13.5395 78.2754 13.8987 77.375 13.4502C76.4745 13.0017 76.108 11.9203 76.5545 11.0245C76.9977 10.1347 78.0814 9.77554 78.9819 10.224C79.8824 10.6725 80.2489 11.7539 79.8056 12.6436V12.6436Z" fill="white"/>
<path d="M80.0921 10.0402C80.1697 9.8845 79.8673 9.5763 79.4167 9.35182C78.9661 9.12735 78.5379 9.07162 78.4603 9.22733C78.3827 9.38305 78.6852 9.69125 79.1358 9.91572C79.5864 10.1402 80.0145 10.1959 80.0921 10.0402Z" fill="white"/>
<path d="M83.1434 13.552H82.6981V12.9391C82.3453 13.408 81.9175 13.6424 81.414 13.6424C81.156 13.6424 80.9237 13.5726 80.7171 13.4327C80.5106 13.2931 80.3643 13.1102 80.2785 12.8842C80.1925 12.6585 80.1494 12.326 80.1494 11.8874V10.126H80.588V11.7583C80.588 12.1582 80.6063 12.4293 80.643 12.5712C80.6793 12.7132 80.7355 12.8336 80.8108 12.9325C80.8861 13.0313 80.9818 13.1067 81.0979 13.1582C81.2139 13.2096 81.3547 13.2355 81.5205 13.2355C81.6863 13.2355 81.8486 13.1948 82.0077 13.1131C82.1668 13.0313 82.3023 12.9173 82.4143 12.771C82.526 12.6247 82.6013 12.4744 82.64 12.3193C82.6787 12.1643 82.6981 11.8528 82.6981 11.3837V10.126H83.1434V13.552Z" fill="white"/>
<path d="M86.9888 10.8357L86.6404 11.055C86.3393 10.6551 85.9263 10.455 85.4016 10.455C84.9886 10.455 84.6425 10.5873 84.3627 10.8517C84.0829 11.1161 83.9433 11.4442 83.9433 11.8357C83.9433 12.2271 84.0809 12.5625 84.3563 12.8423C84.6314 13.1221 84.9799 13.2617 85.4016 13.2617C85.9048 13.2617 86.3178 13.0616 86.6404 12.6617L86.9888 12.8941C86.8166 13.1436 86.5854 13.335 86.2951 13.4682C86.0049 13.6017 85.6919 13.6683 85.3562 13.6683C84.8272 13.6683 84.3851 13.4941 84.0303 13.1457C83.6754 12.7972 83.498 12.3714 83.498 11.8682C83.498 11.3651 83.6774 10.9337 84.0367 10.5745C84.3959 10.2153 84.8571 10.0359 85.4205 10.0359C85.7518 10.0359 86.0581 10.1068 86.3399 10.2488C86.6215 10.3907 86.8379 10.5864 86.9882 10.836L86.9888 10.8357Z" fill="white"/>
<path d="M87.3306 8.80322H87.7759V10.7388C88.1284 10.27 88.5565 10.0356 89.06 10.0356C89.318 10.0356 89.5503 10.1057 89.7569 10.2453C89.9634 10.3852 90.1094 10.5678 90.1955 10.7938C90.2816 11.0195 90.3246 11.352 90.3246 11.7906V13.552H89.8793V11.9197C89.8793 11.5672 89.8685 11.324 89.847 11.1905C89.8255 11.0573 89.7781 10.9302 89.7051 10.8098C89.6318 10.6894 89.5341 10.5981 89.4116 10.5355C89.2889 10.4733 89.1405 10.4419 88.9663 10.4419C88.7921 10.4419 88.6254 10.4829 88.4663 10.5643C88.3072 10.6461 88.1717 10.7601 88.0597 10.9064C87.9477 11.0527 87.8727 11.203 87.834 11.3581C87.7953 11.5131 87.7759 11.8249 87.7759 12.2937V13.552H87.3306V8.80322V8.80322Z" fill="white"/>
<path d="M93.6665 12.4424L94.0408 12.6361C93.6709 13.3242 93.1246 13.6683 92.4019 13.6683C91.8856 13.6683 91.4598 13.4909 91.1244 13.1361C90.7888 12.7812 90.6213 12.3542 90.6213 11.8551C90.6213 11.356 90.79 10.9282 91.1276 10.571C91.4653 10.2141 91.8827 10.0356 92.3795 10.0356C92.8762 10.0356 93.2933 10.2011 93.6313 10.5323C93.969 10.8636 94.1444 11.3153 94.1572 11.8874H91.073C91.0858 12.3004 91.2161 12.6326 91.4633 12.8842C91.7105 13.1358 92.0107 13.2617 92.3635 13.2617C92.944 13.2617 93.3786 12.9886 93.6668 12.4424H93.6665ZM93.6665 11.5067C93.6063 11.1798 93.4556 10.9238 93.2148 10.7388C92.974 10.5539 92.6965 10.4614 92.3824 10.4614C91.7373 10.4614 91.3155 10.8098 91.1178 11.5067H93.6662H93.6665Z" fill="white"/>
<path d="M94.3247 10.126H94.7764V10.6228C94.8968 10.4207 95.014 10.2723 95.128 10.1775C95.242 10.083 95.3689 10.0356 95.5088 10.0356C95.6487 10.0356 95.7894 10.0742 95.9314 10.1516L95.699 10.5259C95.6344 10.4873 95.5678 10.4678 95.4989 10.4678C95.3654 10.4678 95.2397 10.5367 95.1213 10.6743C95.003 10.8119 94.916 10.9893 94.8602 11.2065C94.8043 11.4238 94.7764 11.8185 94.7764 12.3906V13.552H94.3247V10.126Z" fill="white"/>
<path d="M97.6733 10.5001L97.3894 10.7903C97.1529 10.5623 96.9226 10.4483 96.6989 10.4483C96.5526 10.4483 96.4302 10.4945 96.3313 10.587C96.2324 10.6795 96.183 10.7935 96.183 10.9291C96.183 11.0646 96.2356 11.1807 96.3409 11.2775C96.4462 11.3744 96.628 11.4904 96.8862 11.6259C97.1442 11.7615 97.3411 11.9078 97.4767 12.0646C97.6122 12.2216 97.68 12.4142 97.68 12.6419C97.68 12.9301 97.5799 13.1733 97.3798 13.3711C97.1797 13.5688 96.9336 13.6677 96.641 13.6677C96.4476 13.6677 96.2615 13.6247 96.0829 13.5386C95.9043 13.4525 95.7528 13.3321 95.628 13.1774L95.9055 12.8676C96.1335 13.1215 96.372 13.2483 96.6216 13.2483C96.7978 13.2483 96.9485 13.1902 97.0733 13.0741C97.198 12.9581 97.2603 12.8214 97.2603 12.6643C97.2603 12.5072 97.2053 12.3784 97.0956 12.2772C96.986 12.1762 96.8031 12.0611 96.5471 11.9319C96.2911 11.8028 96.0998 11.662 95.973 11.5093C95.8461 11.3566 95.7827 11.1588 95.7827 10.9157C95.7827 10.6725 95.872 10.4652 96.0506 10.293C96.2292 10.1211 96.4657 10.035 96.7603 10.035C97.0549 10.035 97.3592 10.1897 97.6733 10.4995V10.5001Z" fill="white"/>
<path d="M72.6582 10.1289H73.0965V10.7543C73.4447 10.2773 73.8981 10.0388 74.4568 10.0388C74.9382 10.0388 75.353 10.2162 75.7011 10.5707C76.0493 10.9253 76.2235 11.352 76.2235 11.8505C76.2235 12.349 76.0516 12.7769 75.7078 13.1334C75.364 13.4903 74.9513 13.6686 74.4699 13.6686C73.9455 13.6686 73.4877 13.4345 73.0968 12.9659V14.8032H72.6582V10.1289ZM75.7852 11.8569C75.7852 11.4744 75.6531 11.1466 75.3887 10.8738C75.1243 10.601 74.8009 10.4643 74.4184 10.4643C74.036 10.4643 73.7146 10.5987 73.4546 10.8671C73.1945 11.1359 73.0645 11.4677 73.0645 11.8633C73.0645 12.2588 73.1977 12.5907 73.4642 12.8595C73.7306 13.1282 74.0496 13.2623 74.4216 13.2623C74.7936 13.2623 75.1136 13.1259 75.3823 12.8528C75.6508 12.5799 75.7852 12.2478 75.7852 11.8566V11.8569Z" fill="white"/>
</g>
<defs>
<clipPath id="clip0_1_20">
<rect width="25.0215" height="6" fill="white" transform="translate(72.6582 8.80322)"/>
</clipPath>
</defs>
</svg>
