<svg width="177" height="80" viewBox="0 0 177 80" fill="none" xmlns="http://www.w3.org/2000/svg">
<path d="M166.388 4.56614e-07H74.7171C74.1393 -0.000330504 73.5758 0.17926 73.1048 0.51383C72.6338 0.8484 72.2787 1.32134 72.0888 1.86697C71.7018 2.98395 70.9764 3.95258 70.0134 4.63813C69.0503 5.32368 67.8976 5.69207 66.7155 5.69207C65.5334 5.69207 64.3807 5.32368 63.4177 4.63813C62.4547 3.95258 61.7292 2.98395 61.3423 1.86697C61.1525 1.32339 60.7989 0.851998 60.3302 0.517657C59.8615 0.183316 59.3006 0.00246722 58.7249 4.56614e-07H9.81936C9.81936 1.28941 9.56536 2.56619 9.07187 3.75743C8.57837 4.94866 7.85506 6.03102 6.94322 6.94269C6.03139 7.85436 4.9489 8.57747 3.75757 9.07074C2.56624 9.56401 1.28941 9.81777 0 9.81753V70.0524C1.28941 70.0521 2.56624 70.3059 3.75757 70.7992C4.9489 71.2924 6.03139 72.0156 6.94322 72.9272C7.85506 73.8389 8.57837 74.9213 9.07187 76.1125C9.56536 77.3037 9.81936 78.5805 9.81936 79.8699H58.7249C59.3027 79.8705 59.8663 79.691 60.3374 79.3564C60.8084 79.0218 61.1635 78.5487 61.3532 78.0029C61.7402 76.886 62.4656 75.9173 63.4286 75.2318C64.3916 74.5462 65.5443 74.1778 66.7264 74.1778C67.9086 74.1778 69.0613 74.5462 70.0243 75.2318C70.9873 75.9173 71.7127 76.886 72.0997 78.0029C72.2892 78.5467 72.6428 79.0182 73.1115 79.3526C73.5803 79.687 74.1413 79.8677 74.7171 79.8699H166.383C166.383 78.5807 166.637 77.304 167.13 76.1129C167.623 74.9218 168.346 73.8395 169.258 72.9279C170.17 72.0162 171.252 71.2931 172.443 70.7997C173.634 70.3063 174.911 70.0524 176.2 70.0524V9.81753C173.597 9.81608 171.102 8.7811 169.262 6.94011C167.422 5.09913 166.388 2.60283 166.388 4.56614e-07V4.56614e-07ZM66.2492 8.53889C66.2452 8.4741 66.2545 8.40918 66.2765 8.34813C66.2986 8.28707 66.3329 8.23118 66.3773 8.18388C66.4218 8.13659 66.4754 8.0989 66.535 8.07313C66.5946 8.04737 66.6588 8.03408 66.7237 8.03408C66.7886 8.03408 66.8528 8.04737 66.9124 8.07313C66.972 8.0989 67.0257 8.13659 67.0701 8.18388C67.1146 8.23118 67.1489 8.28707 67.1709 8.34813C67.1929 8.40918 67.2022 8.4741 67.1982 8.53889V14.0414C67.2022 14.1062 67.1929 14.1711 67.1709 14.2322C67.1489 14.2933 67.1146 14.3491 67.0701 14.3964C67.0257 14.4437 66.972 14.4814 66.9124 14.5072C66.8528 14.533 66.7886 14.5462 66.7237 14.5462C66.6588 14.5462 66.5946 14.533 66.535 14.5072C66.4754 14.4814 66.4218 14.4437 66.3773 14.3964C66.3329 14.3491 66.2986 14.2933 66.2765 14.2322C66.2545 14.1711 66.2452 14.1062 66.2492 14.0414V8.53889ZM66.2492 17.963C66.2452 17.8982 66.2545 17.8333 66.2765 17.7722C66.2986 17.7112 66.3329 17.6553 66.3773 17.608C66.4218 17.5607 66.4754 17.523 66.535 17.4972C66.5946 17.4715 66.6588 17.4582 66.7237 17.4582C66.7886 17.4582 66.8528 17.4715 66.9124 17.4972C66.972 17.523 67.0257 17.5607 67.0701 17.608C67.1146 17.6553 67.1489 17.7112 67.1709 17.7722C67.1929 17.8333 67.2022 17.8982 67.1982 17.963V23.4655C67.1983 23.5593 67.1706 23.651 67.1186 23.7289C67.0665 23.8069 66.9925 23.8677 66.9059 23.9036C66.8193 23.9395 66.724 23.9489 66.6321 23.9305C66.5401 23.9122 66.4557 23.867 66.3895 23.8007C66.3449 23.7571 66.3095 23.7049 66.2854 23.6473C66.2613 23.5898 66.249 23.5279 66.2492 23.4655V17.963ZM66.2492 27.3871C66.2452 27.3223 66.2545 27.2574 66.2765 27.1963C66.2986 27.1353 66.3329 27.0794 66.3773 27.0321C66.4218 26.9848 66.4754 26.9471 66.535 26.9213C66.5946 26.8956 66.6588 26.8823 66.7237 26.8823C66.7886 26.8823 66.8528 26.8956 66.9124 26.9213C66.972 26.9471 67.0257 26.9848 67.0701 27.0321C67.1146 27.0794 67.1489 27.1353 67.1709 27.1963C67.1929 27.2574 67.2022 27.3223 67.1982 27.3871V32.8896C67.1983 32.9834 67.1706 33.0751 67.1186 33.153C67.0665 33.231 66.9925 33.2918 66.9059 33.3277C66.8193 33.3636 66.724 33.373 66.6321 33.3546C66.5401 33.3363 66.4557 33.2911 66.3895 33.2248C66.3449 33.1812 66.3095 33.129 66.2854 33.0714C66.2613 33.0139 66.249 32.9521 66.2492 32.8896V27.3871ZM66.2492 36.8112C66.2492 36.6851 66.2993 36.5642 66.3885 36.475C66.4776 36.3859 66.5985 36.3358 66.7246 36.3358C66.787 36.3356 66.8488 36.3479 66.9064 36.3719C66.964 36.396 67.0161 36.4314 67.0598 36.476C67.1038 36.52 67.1387 36.5723 67.1625 36.6298C67.1862 36.6873 67.1984 36.749 67.1982 36.8112V42.3138C67.1977 42.4392 67.1477 42.5594 67.059 42.6481C66.9703 42.7368 66.8501 42.7868 66.7246 42.7873C66.5991 42.7864 66.4791 42.7362 66.3902 42.6477C66.3013 42.5591 66.2507 42.4392 66.2492 42.3138V36.8112ZM66.2492 46.2353C66.2452 46.1705 66.2545 46.1056 66.2765 46.0445C66.2986 45.9835 66.3329 45.9276 66.3773 45.8803C66.4218 45.833 66.4754 45.7953 66.535 45.7695C66.5946 45.7438 66.6588 45.7305 66.7237 45.7305C66.7886 45.7305 66.8528 45.7438 66.9124 45.7695C66.972 45.7953 67.0257 45.833 67.0701 45.8803C67.1146 45.9276 67.1489 45.9835 67.1709 46.0445C67.1929 46.1056 67.2022 46.1705 67.1982 46.2353V51.7379C67.1983 51.8316 67.1706 51.9233 67.1186 52.0012C67.0665 52.0792 66.9925 52.14 66.9059 52.1759C66.8193 52.2118 66.724 52.2212 66.6321 52.2029C66.5401 52.1845 66.4557 52.1393 66.3895 52.073C66.3449 52.0294 66.3095 51.9772 66.2854 51.9196C66.2613 51.8621 66.249 51.8003 66.2492 51.7379V46.2353ZM67.1982 70.5842C67.1982 70.71 67.1484 70.8307 67.0596 70.9198C66.9708 71.0089 66.8504 71.0591 66.7246 71.0596C66.5988 71.0587 66.4785 71.0083 66.3895 70.9193C66.3006 70.8304 66.2502 70.71 66.2492 70.5842V65.0817C66.2452 65.0169 66.2545 64.952 66.2765 64.8909C66.2986 64.8299 66.3329 64.774 66.3773 64.7267C66.4218 64.6794 66.4754 64.6417 66.535 64.6159C66.5946 64.5902 66.6588 64.5769 66.7237 64.5769C66.7886 64.5769 66.8528 64.5902 66.9124 64.6159C66.972 64.6417 67.0257 64.6794 67.0701 64.7267C67.1146 64.774 67.1489 64.8299 67.1709 64.8909C67.1929 64.952 67.2022 65.0169 67.1982 65.0817V70.5842ZM67.1982 61.162C67.1983 61.2557 67.1706 61.3474 67.1186 61.4254C67.0665 61.5033 66.9925 61.5641 66.9059 61.6C66.8193 61.6359 66.724 61.6453 66.6321 61.627C66.5401 61.6086 66.4557 61.5634 66.3895 61.4971L66.3749 61.4825C66.2944 61.3951 66.2496 61.2808 66.2492 61.162V55.6594C66.2493 55.5655 66.2771 55.4737 66.3292 55.3957C66.3814 55.3176 66.4554 55.2567 66.5421 55.2206C66.6288 55.1846 66.7242 55.175 66.8164 55.1931C66.9085 55.2113 66.9932 55.2562 67.0598 55.3224C67.1423 55.405 67.1911 55.5154 67.1964 55.6321C67.1973 55.6412 67.1973 55.6503 67.1964 55.6594L67.1982 61.162Z" fill="#00BB64"/>
<path d="M157.553 49.215V46.415H159.285V46.691H157.889V47.667H159.165V47.939H157.889V48.939H159.285V49.215H157.553ZM159.591 49.215L160.279 48.223L159.591 47.231H159.955L160.511 48.051L161.071 47.231H161.431L160.743 48.223L161.431 49.215H161.071L160.511 48.395L159.955 49.215H159.591ZM161.783 50.095V47.231H162.087L162.119 47.559C162.183 47.463 162.274 47.3764 162.391 47.299C162.511 47.2217 162.663 47.183 162.847 47.183C163.044 47.183 163.216 47.2284 163.363 47.319C163.51 47.4097 163.623 47.5337 163.703 47.691C163.786 47.8484 163.827 48.027 163.827 48.227C163.827 48.427 163.786 48.6057 163.703 48.763C163.623 48.9177 163.508 49.0404 163.359 49.131C163.212 49.219 163.04 49.263 162.843 49.263C162.68 49.263 162.535 49.2297 162.407 49.163C162.282 49.0964 162.186 49.003 162.119 48.883V50.095H161.783ZM162.807 48.971C162.94 48.971 163.058 48.9404 163.159 48.879C163.26 48.815 163.34 48.727 163.399 48.615C163.458 48.503 163.487 48.3724 163.487 48.223C163.487 48.0737 163.458 47.943 163.399 47.831C163.34 47.719 163.26 47.6324 163.159 47.571C163.058 47.507 162.94 47.475 162.807 47.475C162.674 47.475 162.556 47.507 162.455 47.571C162.354 47.6324 162.274 47.719 162.215 47.831C162.156 47.943 162.127 48.0737 162.127 48.223C162.127 48.3724 162.156 48.503 162.215 48.615C162.274 48.727 162.354 48.815 162.455 48.879C162.556 48.9404 162.674 48.971 162.807 48.971ZM164.499 46.791C164.432 46.791 164.376 46.7697 164.331 46.727C164.288 46.6817 164.267 46.6257 164.267 46.559C164.267 46.495 164.288 46.4417 164.331 46.399C164.376 46.3564 164.432 46.335 164.499 46.335C164.563 46.335 164.617 46.3564 164.663 46.399C164.708 46.4417 164.731 46.495 164.731 46.559C164.731 46.6257 164.708 46.6817 164.663 46.727C164.617 46.7697 164.563 46.791 164.499 46.791ZM164.331 49.215V47.231H164.667V49.215H164.331ZM165.252 49.215V47.231H165.556L165.584 47.611C165.645 47.4804 165.738 47.3764 165.864 47.299C165.989 47.2217 166.144 47.183 166.328 47.183V47.535H166.236C166.118 47.535 166.01 47.5564 165.912 47.599C165.813 47.639 165.734 47.7084 165.676 47.807C165.617 47.9057 165.588 48.0417 165.588 48.215V49.215H165.252ZM166.921 50.095L167.413 49.023H167.297L166.509 47.231H166.873L167.529 48.775L168.225 47.231H168.573L167.273 50.095H166.921Z" fill="#E9E6FD"/>
<path d="M137.558 62.215V58.579L136.88 58.729V58.381L137.726 58.015H138.068V62.215H137.558ZM138.889 62.215V61.861C139.173 61.637 139.441 61.411 139.693 61.183C139.949 60.951 140.175 60.723 140.371 60.499C140.571 60.275 140.727 60.055 140.839 59.839C140.955 59.623 141.013 59.415 141.013 59.215C141.013 59.067 140.987 58.929 140.935 58.801C140.887 58.673 140.807 58.571 140.695 58.495C140.583 58.415 140.431 58.375 140.239 58.375C140.055 58.375 139.901 58.417 139.777 58.501C139.653 58.581 139.559 58.689 139.495 58.825C139.435 58.961 139.405 59.107 139.405 59.263H138.919C138.919 58.987 138.977 58.751 139.093 58.555C139.209 58.355 139.367 58.203 139.567 58.099C139.767 57.995 139.993 57.943 140.245 57.943C140.617 57.943 140.921 58.049 141.157 58.261C141.397 58.469 141.517 58.781 141.517 59.197C141.517 59.445 141.455 59.691 141.331 59.935C141.207 60.175 141.049 60.409 140.857 60.637C140.665 60.861 140.459 61.071 140.239 61.267C140.023 61.463 139.821 61.639 139.633 61.795H141.661V62.215H138.889ZM142.112 62.785L143.618 57.631H144.116L142.61 62.785H142.112ZM146.253 62.287C145.881 62.287 145.559 62.197 145.287 62.017C145.019 61.833 144.813 61.579 144.669 61.255C144.525 60.927 144.453 60.547 144.453 60.115C144.453 59.683 144.525 59.305 144.669 58.981C144.813 58.653 145.019 58.399 145.287 58.219C145.559 58.035 145.881 57.943 146.253 57.943C146.625 57.943 146.945 58.035 147.213 58.219C147.481 58.399 147.687 58.653 147.831 58.981C147.975 59.305 148.047 59.683 148.047 60.115C148.047 60.547 147.975 60.927 147.831 61.255C147.687 61.579 147.481 61.833 147.213 62.017C146.945 62.197 146.625 62.287 146.253 62.287ZM146.253 61.843C146.497 61.843 146.715 61.775 146.907 61.639C147.103 61.499 147.255 61.301 147.363 61.045C147.475 60.785 147.531 60.475 147.531 60.115C147.531 59.755 147.475 59.447 147.363 59.191C147.255 58.935 147.103 58.739 146.907 58.603C146.715 58.463 146.497 58.393 146.253 58.393C146.005 58.393 145.785 58.463 145.593 58.603C145.401 58.739 145.249 58.935 145.137 59.191C145.025 59.447 144.969 59.755 144.969 60.115C144.969 60.475 145.025 60.785 145.137 61.045C145.249 61.301 145.401 61.499 145.593 61.639C145.785 61.775 146.005 61.843 146.253 61.843ZM150.677 62.215V61.315H148.547V60.925L150.587 58.015H151.175V60.871H151.799V61.315H151.175V62.215H150.677ZM149.105 60.871H150.701V58.573L149.105 60.871ZM152.132 62.785L153.638 57.631H154.136L152.63 62.785H152.132ZM154.686 62.215V61.861C154.97 61.637 155.238 61.411 155.49 61.183C155.746 60.951 155.972 60.723 156.168 60.499C156.368 60.275 156.524 60.055 156.636 59.839C156.752 59.623 156.81 59.415 156.81 59.215C156.81 59.067 156.784 58.929 156.732 58.801C156.684 58.673 156.604 58.571 156.492 58.495C156.38 58.415 156.228 58.375 156.036 58.375C155.852 58.375 155.698 58.417 155.574 58.501C155.45 58.581 155.356 58.689 155.292 58.825C155.232 58.961 155.202 59.107 155.202 59.263H154.716C154.716 58.987 154.774 58.751 154.89 58.555C155.006 58.355 155.164 58.203 155.364 58.099C155.564 57.995 155.79 57.943 156.042 57.943C156.414 57.943 156.718 58.049 156.954 58.261C157.194 58.469 157.314 58.781 157.314 59.197C157.314 59.445 157.252 59.691 157.128 59.935C157.004 60.175 156.846 60.409 156.654 60.637C156.462 60.861 156.256 61.071 156.036 61.267C155.82 61.463 155.618 61.639 155.43 61.795H157.458V62.215H154.686ZM159.765 62.287C159.393 62.287 159.071 62.197 158.799 62.017C158.531 61.833 158.325 61.579 158.181 61.255C158.037 60.927 157.965 60.547 157.965 60.115C157.965 59.683 158.037 59.305 158.181 58.981C158.325 58.653 158.531 58.399 158.799 58.219C159.071 58.035 159.393 57.943 159.765 57.943C160.137 57.943 160.457 58.035 160.725 58.219C160.993 58.399 161.199 58.653 161.343 58.981C161.487 59.305 161.559 59.683 161.559 60.115C161.559 60.547 161.487 60.927 161.343 61.255C161.199 61.579 160.993 61.833 160.725 62.017C160.457 62.197 160.137 62.287 159.765 62.287ZM159.765 61.843C160.009 61.843 160.227 61.775 160.419 61.639C160.615 61.499 160.767 61.301 160.875 61.045C160.987 60.785 161.043 60.475 161.043 60.115C161.043 59.755 160.987 59.447 160.875 59.191C160.767 58.935 160.615 58.739 160.419 58.603C160.227 58.463 160.009 58.393 159.765 58.393C159.517 58.393 159.297 58.463 159.105 58.603C158.913 58.739 158.761 58.935 158.649 59.191C158.537 59.447 158.481 59.755 158.481 60.115C158.481 60.475 158.537 60.785 158.649 61.045C158.761 61.301 158.913 61.499 159.105 61.639C159.297 61.775 159.517 61.843 159.765 61.843ZM162.162 62.215V61.861C162.446 61.637 162.714 61.411 162.966 61.183C163.222 60.951 163.448 60.723 163.644 60.499C163.844 60.275 164 60.055 164.112 59.839C164.228 59.623 164.286 59.415 164.286 59.215C164.286 59.067 164.26 58.929 164.208 58.801C164.16 58.673 164.08 58.571 163.968 58.495C163.856 58.415 163.704 58.375 163.512 58.375C163.328 58.375 163.174 58.417 163.05 58.501C162.926 58.581 162.832 58.689 162.768 58.825C162.708 58.961 162.678 59.107 162.678 59.263H162.192C162.192 58.987 162.25 58.751 162.366 58.555C162.482 58.355 162.64 58.203 162.84 58.099C163.04 57.995 163.266 57.943 163.518 57.943C163.89 57.943 164.194 58.049 164.43 58.261C164.67 58.469 164.79 58.781 164.79 59.197C164.79 59.445 164.728 59.691 164.604 59.935C164.48 60.175 164.322 60.409 164.13 60.637C163.938 60.861 163.732 61.071 163.512 61.267C163.296 61.463 163.094 61.639 162.906 61.795H164.934V62.215H162.162ZM165.596 62.215V61.861C165.88 61.637 166.148 61.411 166.4 61.183C166.656 60.951 166.882 60.723 167.078 60.499C167.278 60.275 167.434 60.055 167.546 59.839C167.662 59.623 167.72 59.415 167.72 59.215C167.72 59.067 167.694 58.929 167.642 58.801C167.594 58.673 167.514 58.571 167.402 58.495C167.29 58.415 167.138 58.375 166.946 58.375C166.762 58.375 166.608 58.417 166.484 58.501C166.36 58.581 166.266 58.689 166.202 58.825C166.142 58.961 166.112 59.107 166.112 59.263H165.626C165.626 58.987 165.684 58.751 165.8 58.555C165.916 58.355 166.074 58.203 166.274 58.099C166.474 57.995 166.7 57.943 166.952 57.943C167.324 57.943 167.628 58.049 167.864 58.261C168.104 58.469 168.224 58.781 168.224 59.197C168.224 59.445 168.162 59.691 168.038 59.935C167.914 60.175 167.756 60.409 167.564 60.637C167.372 60.861 167.166 61.071 166.946 61.267C166.73 61.463 166.528 61.639 166.34 61.795H168.368V62.215H165.596Z" fill="white"/>
<path d="M149.958 16.2726L148.38 12.0726H148.926L150.252 15.7386L151.59 12.0726H152.124L150.546 16.2726H149.958ZM153.326 16.3446C153.078 16.3446 152.872 16.3026 152.708 16.2186C152.544 16.1346 152.422 16.0226 152.342 15.8826C152.262 15.7426 152.222 15.5906 152.222 15.4266C152.222 15.1226 152.338 14.8886 152.57 14.7246C152.802 14.5606 153.118 14.4786 153.518 14.4786H154.322V14.4426C154.322 14.1826 154.254 13.9866 154.118 13.8546C153.982 13.7186 153.8 13.6506 153.572 13.6506C153.376 13.6506 153.206 13.7006 153.062 13.8006C152.922 13.8966 152.834 14.0386 152.798 14.2266H152.282C152.302 14.0106 152.374 13.8286 152.498 13.6806C152.626 13.5326 152.784 13.4206 152.972 13.3446C153.16 13.2646 153.36 13.2246 153.572 13.2246C153.988 13.2246 154.3 13.3366 154.508 13.5606C154.72 13.7806 154.826 14.0746 154.826 14.4426V16.2726H154.376L154.346 15.7386C154.262 15.9066 154.138 16.0506 153.974 16.1706C153.814 16.2866 153.598 16.3446 153.326 16.3446ZM153.404 15.9186C153.596 15.9186 153.76 15.8686 153.896 15.7686C154.036 15.6686 154.142 15.5386 154.214 15.3786C154.286 15.2186 154.322 15.0506 154.322 14.8746V14.8686H153.56C153.264 14.8686 153.054 14.9206 152.93 15.0246C152.81 15.1246 152.75 15.2506 152.75 15.4026C152.75 15.5586 152.806 15.6846 152.918 15.7806C153.034 15.8726 153.196 15.9186 153.404 15.9186ZM155.582 16.2726V11.9526H156.086V16.2726H155.582ZM157.998 16.3446C157.646 16.3446 157.366 16.2386 157.158 16.0266C156.95 15.8106 156.846 15.4806 156.846 15.0366V13.2966H157.35V14.9826C157.35 15.6026 157.604 15.9126 158.112 15.9126C158.372 15.9126 158.586 15.8206 158.754 15.6366C158.926 15.4486 159.012 15.1826 159.012 14.8386V13.2966H159.516V16.2726H159.06L159.024 15.7386C158.932 15.9266 158.794 16.0746 158.61 16.1826C158.43 16.2906 158.226 16.3446 157.998 16.3446ZM161.684 16.3446C161.4 16.3446 161.148 16.2806 160.928 16.1526C160.708 16.0206 160.534 15.8386 160.406 15.6066C160.282 15.3746 160.22 15.1006 160.22 14.7846C160.22 14.4726 160.282 14.2006 160.406 13.9686C160.53 13.7326 160.702 13.5506 160.922 13.4226C161.146 13.2906 161.404 13.2246 161.696 13.2246C161.984 13.2246 162.232 13.2906 162.44 13.4226C162.652 13.5506 162.814 13.7206 162.926 13.9326C163.038 14.1446 163.094 14.3726 163.094 14.6166C163.094 14.6606 163.092 14.7046 163.088 14.7486C163.088 14.7926 163.088 14.8426 163.088 14.8986H160.718C160.73 15.1266 160.782 15.3166 160.874 15.4686C160.97 15.6166 161.088 15.7286 161.228 15.8046C161.372 15.8806 161.524 15.9186 161.684 15.9186C161.892 15.9186 162.066 15.8706 162.206 15.7746C162.346 15.6786 162.448 15.5486 162.512 15.3846H163.01C162.93 15.6606 162.776 15.8906 162.548 16.0746C162.324 16.2546 162.036 16.3446 161.684 16.3446ZM161.684 13.6506C161.444 13.6506 161.23 13.7246 161.042 13.8726C160.858 14.0166 160.752 14.2286 160.724 14.5086H162.596C162.584 14.2406 162.492 14.0306 162.32 13.8786C162.148 13.7266 161.936 13.6506 161.684 13.6506Z" fill="#E9E6FD"/>
<path d="M128.491 29.2726V26.8026H127.911V26.0626H128.491V25.3426H127.911V24.6026H128.491V22.1326H130.061L130.841 24.6026H131.751V22.1326H132.861V24.6026H133.431V25.3426H132.861V26.0626H133.431V26.8026H132.861V29.2726H131.281L130.481 26.8026H129.601V29.2726H128.491ZM129.601 26.0626H130.261L130.041 25.3426H129.581L129.601 26.0626ZM131.781 27.7126H131.831L131.791 26.8026H131.521L131.781 27.7126ZM129.561 24.6026H129.841L129.551 23.6426H129.511L129.561 24.6026ZM131.311 26.0626H131.771L131.751 25.3426H131.081L131.311 26.0626ZM136.723 29.3926C136.21 29.3926 135.767 29.3026 135.393 29.1226C135.027 28.9426 134.737 28.6959 134.523 28.3826C134.317 28.0626 134.197 27.7026 134.163 27.3026H135.413C135.473 27.5892 135.62 27.8292 135.853 28.0226C136.087 28.2092 136.377 28.3026 136.723 28.3026C137.097 28.3026 137.4 28.1659 137.633 27.8926C137.873 27.6192 137.993 27.2792 137.993 26.8726C137.993 26.4526 137.873 26.1192 137.633 25.8726C137.4 25.6259 137.103 25.5026 136.743 25.5026C136.443 25.5026 136.183 25.5759 135.963 25.7226C135.743 25.8692 135.587 26.0526 135.493 26.2726H134.263L134.863 22.2726H138.743V23.3926H135.823L135.503 25.0126C135.65 24.8526 135.85 24.7226 136.103 24.6226C136.357 24.5159 136.64 24.4626 136.953 24.4626C137.453 24.4626 137.87 24.5759 138.203 24.8026C138.537 25.0226 138.79 25.3159 138.963 25.6826C139.137 26.0426 139.223 26.4359 139.223 26.8626C139.223 27.3492 139.117 27.7826 138.903 28.1626C138.697 28.5426 138.403 28.8426 138.023 29.0626C137.65 29.2826 137.217 29.3926 136.723 29.3926ZM139.875 30.4326L140.445 27.9426H141.685L140.715 30.4326H139.875ZM145.599 29.3926C144.952 29.3926 144.399 29.2426 143.939 28.9426C143.479 28.6359 143.122 28.2126 142.869 27.6726C142.622 27.1259 142.499 26.4926 142.499 25.7726C142.499 25.0592 142.622 24.4292 142.869 23.8826C143.122 23.3359 143.479 22.9126 143.939 22.6126C144.399 22.3059 144.952 22.1526 145.599 22.1526C146.246 22.1526 146.799 22.3059 147.259 22.6126C147.719 22.9126 148.072 23.3359 148.319 23.8826C148.572 24.4292 148.699 25.0592 148.699 25.7726C148.699 26.4926 148.572 27.1259 148.319 27.6726C148.072 28.2126 147.719 28.6359 147.259 28.9426C146.799 29.2426 146.246 29.3926 145.599 29.3926ZM145.599 28.2426C146.126 28.2426 146.556 28.0226 146.889 27.5826C147.222 27.1426 147.389 26.5392 147.389 25.7726C147.389 25.0059 147.222 24.4026 146.889 23.9626C146.556 23.5226 146.126 23.3026 145.599 23.3026C145.066 23.3026 144.632 23.5226 144.299 23.9626C143.972 24.4026 143.809 25.0059 143.809 25.7726C143.809 26.5392 143.972 27.1426 144.299 27.5826C144.632 28.0226 145.066 28.2426 145.599 28.2426ZM152.699 29.3926C152.052 29.3926 151.499 29.2426 151.039 28.9426C150.579 28.6359 150.222 28.2126 149.969 27.6726C149.722 27.1259 149.599 26.4926 149.599 25.7726C149.599 25.0592 149.722 24.4292 149.969 23.8826C150.222 23.3359 150.579 22.9126 151.039 22.6126C151.499 22.3059 152.052 22.1526 152.699 22.1526C153.345 22.1526 153.899 22.3059 154.359 22.6126C154.819 22.9126 155.172 23.3359 155.419 23.8826C155.672 24.4292 155.799 25.0592 155.799 25.7726C155.799 26.4926 155.672 27.1259 155.419 27.6726C155.172 28.2126 154.819 28.6359 154.359 28.9426C153.899 29.2426 153.345 29.3926 152.699 29.3926ZM152.699 28.2426C153.225 28.2426 153.655 28.0226 153.989 27.5826C154.322 27.1426 154.489 26.5392 154.489 25.7726C154.489 25.0059 154.322 24.4026 153.989 23.9626C153.655 23.5226 153.225 23.3026 152.699 23.3026C152.165 23.3026 151.732 23.5226 151.399 23.9626C151.072 24.4026 150.909 25.0059 150.909 25.7726C150.909 26.5392 151.072 27.1426 151.399 27.5826C151.732 28.0226 152.165 28.2426 152.699 28.2426ZM159.798 29.3926C159.152 29.3926 158.598 29.2426 158.138 28.9426C157.678 28.6359 157.322 28.2126 157.068 27.6726C156.822 27.1259 156.698 26.4926 156.698 25.7726C156.698 25.0592 156.822 24.4292 157.068 23.8826C157.322 23.3359 157.678 22.9126 158.138 22.6126C158.598 22.3059 159.152 22.1526 159.798 22.1526C160.445 22.1526 160.998 22.3059 161.458 22.6126C161.918 22.9126 162.272 23.3359 162.518 23.8826C162.772 24.4292 162.898 25.0592 162.898 25.7726C162.898 26.4926 162.772 27.1259 162.518 27.6726C162.272 28.2126 161.918 28.6359 161.458 28.9426C160.998 29.2426 160.445 29.3926 159.798 29.3926ZM159.798 28.2426C160.325 28.2426 160.755 28.0226 161.088 27.5826C161.422 27.1426 161.588 26.5392 161.588 25.7726C161.588 25.0059 161.422 24.4026 161.088 23.9626C160.755 23.5226 160.325 23.3026 159.798 23.3026C159.265 23.3026 158.832 23.5226 158.498 23.9626C158.172 24.4026 158.008 25.0059 158.008 25.7726C158.008 26.5392 158.172 27.1426 158.498 27.5826C158.832 28.0226 159.265 28.2426 159.798 28.2426Z" fill="white"/>
<path d="M74.9437 49.2264C74.5317 49.2264 74.1757 49.1364 73.8757 48.9564C73.5797 48.7724 73.3497 48.5184 73.1857 48.1944C73.0217 47.8664 72.9397 47.4864 72.9397 47.0544C72.9397 46.6264 73.0217 46.2504 73.1857 45.9264C73.3497 45.5984 73.5797 45.3424 73.8757 45.1584C74.1757 44.9744 74.5317 44.8824 74.9437 44.8824C75.4237 44.8824 75.8137 44.9984 76.1137 45.2304C76.4177 45.4584 76.6117 45.7784 76.6957 46.1904H76.1377C76.0737 45.9304 75.9417 45.7224 75.7417 45.5664C75.5457 45.4064 75.2797 45.3264 74.9437 45.3264C74.6437 45.3264 74.3817 45.3964 74.1577 45.5364C73.9337 45.6724 73.7597 45.8704 73.6357 46.1304C73.5157 46.3864 73.4557 46.6944 73.4557 47.0544C73.4557 47.4144 73.5157 47.7244 73.6357 47.9844C73.7597 48.2404 73.9337 48.4384 74.1577 48.5784C74.3817 48.7144 74.6437 48.7824 74.9437 48.7824C75.2797 48.7824 75.5457 48.7064 75.7417 48.5544C75.9417 48.3984 76.0737 48.1924 76.1377 47.9364H76.6957C76.6117 48.3404 76.4177 48.6564 76.1137 48.8844C75.8137 49.1124 75.4237 49.2264 74.9437 49.2264ZM78.7461 49.2264C78.4661 49.2264 78.2141 49.1624 77.9901 49.0344C77.7661 48.9064 77.5881 48.7264 77.4561 48.4944C77.3281 48.2584 77.2641 47.9824 77.2641 47.6664C77.2641 47.3504 77.3301 47.0764 77.4621 46.8444C77.5941 46.6084 77.7721 46.4264 77.9961 46.2984C78.2241 46.1704 78.4781 46.1064 78.7581 46.1064C79.0381 46.1064 79.2901 46.1704 79.5141 46.2984C79.7381 46.4264 79.9141 46.6084 80.0421 46.8444C80.1741 47.0764 80.2401 47.3504 80.2401 47.6664C80.2401 47.9824 80.1741 48.2584 80.0421 48.4944C79.9101 48.7264 79.7301 48.9064 79.5021 49.0344C79.2781 49.1624 79.0261 49.2264 78.7461 49.2264ZM78.7461 48.7944C78.9181 48.7944 79.0781 48.7524 79.2261 48.6684C79.3741 48.5844 79.4941 48.4584 79.5861 48.2904C79.6781 48.1224 79.7241 47.9144 79.7241 47.6664C79.7241 47.4184 79.6781 47.2104 79.5861 47.0424C79.4981 46.8744 79.3801 46.7484 79.2321 46.6644C79.0841 46.5804 78.9261 46.5384 78.7581 46.5384C78.5861 46.5384 78.4261 46.5804 78.2781 46.6644C78.1301 46.7484 78.0101 46.8744 77.9181 47.0424C77.8261 47.2104 77.7801 47.4184 77.7801 47.6664C77.7801 47.9144 77.8261 48.1224 77.9181 48.2904C78.0101 48.4584 78.1281 48.5844 78.2721 48.6684C78.4201 48.7524 78.5781 48.7944 78.7461 48.7944ZM82.2908 49.2264C81.9948 49.2264 81.7348 49.1584 81.5108 49.0224C81.2908 48.8864 81.1188 48.7004 80.9948 48.4644C80.8748 48.2284 80.8148 47.9604 80.8148 47.6604C80.8148 47.3604 80.8768 47.0944 81.0008 46.8624C81.1248 46.6264 81.2968 46.4424 81.5168 46.3104C81.7368 46.1744 81.9968 46.1064 82.2968 46.1064C82.5408 46.1064 82.7568 46.1564 82.9448 46.2564C83.1328 46.3564 83.2788 46.4964 83.3828 46.6764V44.8344H83.8868V49.1544H83.4308L83.3828 48.6624C83.2868 48.8064 83.1488 48.9364 82.9688 49.0524C82.7888 49.1684 82.5628 49.2264 82.2908 49.2264ZM82.3448 48.7884C82.5448 48.7884 82.7208 48.7424 82.8728 48.6504C83.0288 48.5544 83.1488 48.4224 83.2328 48.2544C83.3208 48.0864 83.3648 47.8904 83.3648 47.6664C83.3648 47.4424 83.3208 47.2464 83.2328 47.0784C83.1488 46.9104 83.0288 46.7804 82.8728 46.6884C82.7208 46.5924 82.5448 46.5444 82.3448 46.5444C82.1488 46.5444 81.9728 46.5924 81.8168 46.6884C81.6648 46.7804 81.5448 46.9104 81.4568 47.0784C81.3728 47.2464 81.3308 47.4424 81.3308 47.6664C81.3308 47.8904 81.3728 48.0864 81.4568 48.2544C81.5448 48.4224 81.6648 48.5544 81.8168 48.6504C81.9728 48.7424 82.1488 48.7884 82.3448 48.7884ZM86.0464 49.2264C85.7624 49.2264 85.5104 49.1624 85.2904 49.0344C85.0704 48.9024 84.8964 48.7204 84.7684 48.4884C84.6444 48.2564 84.5824 47.9824 84.5824 47.6664C84.5824 47.3544 84.6444 47.0824 84.7684 46.8504C84.8924 46.6144 85.0644 46.4324 85.2844 46.3044C85.5084 46.1724 85.7664 46.1064 86.0584 46.1064C86.3464 46.1064 86.5944 46.1724 86.8024 46.3044C87.0144 46.4324 87.1764 46.6024 87.2884 46.8144C87.4004 47.0264 87.4564 47.2544 87.4564 47.4984C87.4564 47.5424 87.4544 47.5864 87.4504 47.6304C87.4504 47.6744 87.4504 47.7244 87.4504 47.7804H85.0804C85.0924 48.0084 85.1444 48.1984 85.2364 48.3504C85.3324 48.4984 85.4504 48.6104 85.5904 48.6864C85.7344 48.7624 85.8864 48.8004 86.0464 48.8004C86.2544 48.8004 86.4284 48.7524 86.5684 48.6564C86.7084 48.5604 86.8104 48.4304 86.8744 48.2664H87.3724C87.2924 48.5424 87.1384 48.7724 86.9104 48.9564C86.6864 49.1364 86.3984 49.2264 86.0464 49.2264ZM86.0464 46.5324C85.8064 46.5324 85.5924 46.6064 85.4044 46.7544C85.2204 46.8984 85.1144 47.1104 85.0864 47.3904H86.9584C86.9464 47.1224 86.8544 46.9124 86.6824 46.7604C86.5104 46.6084 86.2984 46.5324 86.0464 46.5324Z" fill="white"/>
<path d="M73.7777 63.1544L74.0737 61.7544H72.9217V60.8344H74.2737L74.5217 59.6664H73.3457V58.7464H74.7217L75.0177 57.3704H75.9777L75.6817 58.7464H77.2017L77.4977 57.3704H78.4577L78.1697 58.7464H79.2097V59.6664H77.9697L77.7217 60.8344H78.7857V61.7544H77.5217L77.2257 63.1544H76.2577L76.5617 61.7544H75.0417L74.7457 63.1544H73.7777ZM75.2337 60.8344H76.7537L77.0097 59.6664H75.4897L75.2337 60.8344ZM80.6925 63.1544V58.7224L79.7725 58.9384V58.1544L81.1245 57.5544H81.7565V63.1544H80.6925ZM82.7063 63.1544V62.4104C83.0477 62.1277 83.3783 61.8477 83.6983 61.5704C84.0237 61.293 84.3117 61.0184 84.5623 60.7464C84.8183 60.4744 85.021 60.2104 85.1703 59.9544C85.325 59.693 85.4023 59.4397 85.4023 59.1944C85.4023 58.965 85.3383 58.7624 85.2103 58.5864C85.0877 58.4104 84.8823 58.3224 84.5943 58.3224C84.301 58.3224 84.0797 58.4184 83.9303 58.6104C83.781 58.8024 83.7063 59.0344 83.7063 59.3064H82.7143C82.725 58.8957 82.8157 58.5544 82.9863 58.2824C83.157 58.005 83.3837 57.7997 83.6663 57.6664C83.949 57.5277 84.2663 57.4584 84.6183 57.4584C85.189 57.4584 85.6317 57.6157 85.9463 57.9304C86.2663 58.2397 86.4263 58.6424 86.4263 59.1384C86.4263 59.4477 86.3543 59.749 86.2103 60.0424C86.0717 60.3357 85.8877 60.6184 85.6583 60.8904C85.429 61.1624 85.181 61.4184 84.9143 61.6584C84.6477 61.893 84.389 62.1117 84.1383 62.3144H86.5623V63.1544H82.7063ZM87.0526 63.1544L89.1006 57.5544H90.2526L92.3006 63.1544H91.2126L90.7646 61.8584H88.5806L88.1246 63.1544H87.0526ZM88.8606 61.0584H90.4846L89.6686 58.7304L88.8606 61.0584ZM93.022 63.1544V57.5544H95.27C95.8513 57.5544 96.294 57.6904 96.598 57.9624C96.9073 58.229 97.062 58.573 97.062 58.9944C97.062 59.3464 96.966 59.629 96.774 59.8424C96.5873 60.0504 96.358 60.1917 96.086 60.2664C96.406 60.3304 96.67 60.4904 96.878 60.7464C97.086 60.997 97.19 61.2904 97.19 61.6264C97.19 62.069 97.03 62.4344 96.71 62.7224C96.39 63.0104 95.9367 63.1544 95.35 63.1544H93.022ZM94.046 59.9064H95.118C95.406 59.9064 95.6273 59.8397 95.782 59.7064C95.9367 59.573 96.014 59.3837 96.014 59.1384C96.014 58.9037 95.9367 58.7197 95.782 58.5864C95.6327 58.4477 95.406 58.3784 95.102 58.3784H94.046V59.9064ZM94.046 62.3224H95.19C95.494 62.3224 95.7287 62.253 95.894 62.1144C96.0647 61.9704 96.15 61.7704 96.15 61.5144C96.15 61.253 96.062 61.0477 95.886 60.8984C95.71 60.749 95.4727 60.6744 95.174 60.6744H94.046V62.3224ZM100.605 63.2504C100.04 63.2504 99.5542 63.1304 99.1489 62.8904C98.7436 62.645 98.4316 62.3064 98.2129 61.8744C97.9942 61.437 97.8849 60.933 97.8849 60.3624C97.8849 59.7917 97.9942 59.2877 98.2129 58.8504C98.4316 58.413 98.7436 58.0717 99.1489 57.8264C99.5542 57.581 100.04 57.4584 100.605 57.4584C101.277 57.4584 101.826 57.6264 102.253 57.9624C102.685 58.293 102.954 58.7597 103.061 59.3624H101.933C101.864 59.0584 101.714 58.821 101.485 58.6504C101.261 58.4744 100.962 58.3864 100.589 58.3864C100.072 58.3864 99.6662 58.5624 99.3729 58.9144C99.0796 59.2664 98.9329 59.749 98.9329 60.3624C98.9329 60.9757 99.0796 61.4584 99.3729 61.8104C99.6662 62.157 100.072 62.3304 100.589 62.3304C100.962 62.3304 101.261 62.2504 101.485 62.0904C101.714 61.925 101.864 61.6984 101.933 61.4104H103.061C102.954 61.9864 102.685 62.437 102.253 62.7624C101.826 63.0877 101.277 63.2504 100.605 63.2504ZM106.527 63.1544V62.1144H103.767V61.2984L106.391 57.5544H107.551V61.2264H108.287V62.1144H107.551V63.1544H106.527ZM104.863 61.2264H106.591V58.6824L104.863 61.2264ZM111.004 63.2504C110.615 63.2504 110.287 63.1757 110.02 63.0264C109.754 62.8717 109.546 62.6717 109.396 62.4264C109.247 62.181 109.159 61.917 109.132 61.6344H110.084C110.127 61.8797 110.228 62.069 110.388 62.2024C110.554 62.3357 110.762 62.4024 111.012 62.4024C111.37 62.4024 111.658 62.2397 111.876 61.9144C112.095 61.5837 112.212 61.0824 112.228 60.4104C112.1 60.629 111.906 60.8104 111.644 60.9544C111.388 61.0984 111.106 61.1704 110.796 61.1704C110.487 61.1704 110.196 61.0957 109.924 60.9464C109.652 60.797 109.431 60.5864 109.26 60.3144C109.09 60.0424 109.004 59.7224 109.004 59.3544C109.004 59.0184 109.087 58.7064 109.252 58.4184C109.418 58.1304 109.647 57.8984 109.94 57.7224C110.234 57.5464 110.578 57.4584 110.972 57.4584C111.394 57.4584 111.748 57.5357 112.036 57.6904C112.324 57.845 112.554 58.053 112.724 58.3144C112.9 58.5757 113.026 58.8664 113.1 59.1864C113.18 59.5064 113.22 59.8344 113.22 60.1704C113.22 60.7944 113.132 61.3384 112.956 61.8024C112.786 62.261 112.532 62.6184 112.196 62.8744C111.866 63.125 111.468 63.2504 111.004 63.2504ZM111.036 60.3064C111.234 60.3064 111.412 60.2637 111.572 60.1784C111.732 60.0877 111.858 59.9704 111.948 59.8264C112.039 59.677 112.084 59.5117 112.084 59.3304C112.084 59.0424 111.983 58.805 111.78 58.6184C111.583 58.4317 111.332 58.3384 111.028 58.3384C110.73 58.3384 110.482 58.4317 110.284 58.6184C110.087 58.7997 109.988 59.0317 109.988 59.3144C109.988 59.613 110.087 59.853 110.284 60.0344C110.482 60.2157 110.732 60.3064 111.036 60.3064ZM116.075 63.2504C115.685 63.2504 115.357 63.1757 115.091 63.0264C114.824 62.8717 114.616 62.6717 114.467 62.4264C114.317 62.181 114.229 61.917 114.203 61.6344H115.155C115.197 61.8797 115.299 62.069 115.459 62.2024C115.624 62.3357 115.832 62.4024 116.083 62.4024C116.44 62.4024 116.728 62.2397 116.947 61.9144C117.165 61.5837 117.283 61.0824 117.299 60.4104C117.171 60.629 116.976 60.8104 116.715 60.9544C116.459 61.0984 116.176 61.1704 115.867 61.1704C115.557 61.1704 115.267 61.0957 114.995 60.9464C114.723 60.797 114.501 60.5864 114.331 60.3144C114.16 60.0424 114.075 59.7224 114.075 59.3544C114.075 59.0184 114.157 58.7064 114.323 58.4184C114.488 58.1304 114.717 57.8984 115.011 57.7224C115.304 57.5464 115.648 57.4584 116.043 57.4584C116.464 57.4584 116.819 57.5357 117.107 57.6904C117.395 57.845 117.624 58.053 117.795 58.3144C117.971 58.5757 118.096 58.8664 118.171 59.1864C118.251 59.5064 118.291 59.8344 118.291 60.1704C118.291 60.7944 118.203 61.3384 118.027 61.8024C117.856 62.261 117.603 62.6184 117.267 62.8744C116.936 63.125 116.539 63.2504 116.075 63.2504ZM116.107 60.3064C116.304 60.3064 116.483 60.2637 116.643 60.1784C116.803 60.0877 116.928 59.9704 117.019 59.8264C117.109 59.677 117.155 59.5117 117.155 59.3304C117.155 59.0424 117.053 58.805 116.851 58.6184C116.653 58.4317 116.403 58.3384 116.099 58.3384C115.8 58.3384 115.552 58.4317 115.355 58.6184C115.157 58.7997 115.059 59.0317 115.059 59.3144C115.059 59.613 115.157 59.853 115.355 60.0344C115.552 60.2157 115.803 60.3064 116.107 60.3064ZM120.697 63.2504C120.153 63.2504 119.716 63.0984 119.385 62.7944C119.06 62.485 118.897 62.0477 118.897 61.4824H119.921C119.926 61.7437 119.988 61.9517 120.105 62.1064C120.222 62.261 120.412 62.3384 120.673 62.3384C120.918 62.3384 121.097 62.2664 121.209 62.1224C121.321 61.973 121.377 61.7784 121.377 61.5384V57.5544H122.401V61.5384C122.401 62.0877 122.246 62.5117 121.937 62.8104C121.633 63.1037 121.22 63.2504 120.697 63.2504Z" fill="white"/>
<g opacity="0.1">
<path d="M53.0102 57.4199C47.1378 69.2106 32.8703 73.9384 21.0183 68.0354C9.16637 62.1324 4.3429 47.8993 10.2191 36.1086C16.0532 24.3983 30.3169 19.6705 42.1689 25.5735C54.0208 31.4766 58.8443 45.7096 53.0102 57.4199Z" fill="white"/>
<path d="M56.7806 23.155C57.8016 21.1055 53.8213 17.049 47.8905 14.0946C41.9596 11.1401 36.324 10.4065 35.3031 12.456C34.2821 14.5055 38.2624 18.562 44.1933 21.5164C50.1241 24.4709 55.7597 25.2045 56.7806 23.155Z" fill="white"/>
</g>
<g clip-path="url(#clip0_1_49)">
<path d="M80.239 12.8768C79.7657 13.827 78.6159 14.208 77.6608 13.7322C76.7056 13.2565 76.3169 12.1095 76.7905 11.1593C77.2606 10.2156 78.4101 9.83457 79.3653 10.3103C80.3204 10.786 80.7091 11.933 80.239 12.8768V12.8768Z" fill="white"/>
<path d="M80.5428 10.1153C80.6251 9.95013 80.3044 9.62322 79.8264 9.38513C79.3484 9.14703 78.8943 9.08791 78.812 9.25308C78.7297 9.41825 79.0505 9.74516 79.5284 9.98325C80.0064 10.2213 80.4606 10.2805 80.5428 10.1153Z" fill="white"/>
<path d="M83.7794 13.8402H83.3071V13.1902C82.9328 13.6875 82.479 13.9362 81.945 13.9362C81.6714 13.9362 81.4249 13.8621 81.2058 13.7137C80.9868 13.5657 80.8316 13.3716 80.7406 13.1319C80.6493 12.8925 80.6036 12.5399 80.6036 12.0746V10.2063H81.0688V11.9377C81.0688 12.3619 81.0883 12.6494 81.1271 12.7999C81.1657 12.9505 81.2253 13.0782 81.3052 13.1831C81.3851 13.288 81.4866 13.3679 81.6097 13.4225C81.7327 13.4771 81.8821 13.5046 82.0579 13.5046C82.2338 13.5046 82.4059 13.4614 82.5747 13.3747C82.7434 13.288 82.8872 13.1671 83.006 13.0119C83.1244 12.8567 83.2043 12.6972 83.2454 12.5328C83.2864 12.3683 83.3071 12.0379 83.3071 11.5403V10.2063H83.7794V13.8402Z" fill="white"/>
<path d="M87.8582 10.9591L87.4886 11.1917C87.1693 10.7675 86.7312 10.5552 86.1746 10.5552C85.7366 10.5552 85.3694 10.6956 85.0726 10.976C84.7759 11.2565 84.6278 11.6045 84.6278 12.0197C84.6278 12.435 84.7737 12.7907 85.0659 13.0875C85.3577 13.3842 85.7273 13.5323 86.1746 13.5323C86.7084 13.5323 87.1464 13.3201 87.4886 12.8959L87.8582 13.1424C87.6755 13.4071 87.4303 13.6101 87.1224 13.7514C86.8145 13.893 86.4825 13.9636 86.1265 13.9636C85.5653 13.9636 85.0964 13.7788 84.72 13.4092C84.3436 13.0396 84.1555 12.588 84.1555 12.0543C84.1555 11.5206 84.3458 11.063 84.7268 10.682C85.1078 10.301 85.5971 10.1107 86.1947 10.1107C86.5461 10.1107 86.8709 10.186 87.1699 10.3365C87.4685 10.4871 87.698 10.6947 87.8575 10.9594L87.8582 10.9591Z" fill="white"/>
<path d="M88.2207 8.80323H88.693V10.8563C89.0669 10.359 89.521 10.1104 90.055 10.1104C90.3287 10.1104 90.5752 10.1847 90.7942 10.3328C91.0133 10.4812 91.1681 10.6749 91.2594 10.9146C91.3508 11.1541 91.3964 11.5067 91.3964 11.9719V13.8402H90.9241V12.1089C90.9241 11.735 90.9127 11.4771 90.8899 11.3355C90.867 11.1942 90.8167 11.0593 90.7393 10.9316C90.6616 10.8039 90.5579 10.707 90.428 10.6407C90.2978 10.5747 90.1405 10.5414 89.9557 10.5414C89.7709 10.5414 89.5941 10.5849 89.4254 10.6712C89.2566 10.7579 89.1129 10.8789 88.9941 11.034C88.8753 11.1892 88.7957 11.3487 88.7547 11.5132C88.7136 11.6776 88.693 12.0083 88.693 12.5056V13.8402H88.2207V8.80323V8.80323Z" fill="white"/>
<path d="M94.9412 12.6633L95.3382 12.8687C94.9458 13.5987 94.3664 13.9636 93.5998 13.9636C93.0522 13.9636 92.6005 13.7754 92.2448 13.3991C91.8888 13.0227 91.7111 12.5698 91.7111 12.0404C91.7111 11.511 91.89 11.0572 92.2482 10.6783C92.6064 10.2998 93.0491 10.1104 93.576 10.1104C94.103 10.1104 94.5454 10.2859 94.9038 10.6373C95.262 10.9887 95.448 11.4678 95.4616 12.0746H92.1902C92.2038 12.5127 92.342 12.865 92.6042 13.1319C92.8665 13.3987 93.1848 13.5323 93.5591 13.5323C94.1748 13.5323 94.6358 13.2426 94.9415 12.6633H94.9412ZM94.9412 11.6708C94.8773 11.324 94.7175 11.0526 94.4621 10.8563C94.2066 10.6601 93.9123 10.562 93.5791 10.562C92.8948 10.562 92.4475 10.9316 92.2377 11.6708H94.9409H94.9412Z" fill="white"/>
<path d="M95.6393 10.2063H96.1184V10.7332C96.2462 10.5188 96.3705 10.3615 96.4914 10.2609C96.6124 10.1607 96.7469 10.1104 96.8953 10.1104C97.0437 10.1104 97.193 10.1514 97.3435 10.2335L97.097 10.6305C97.0285 10.5895 96.9579 10.5688 96.8848 10.5688C96.7432 10.5688 96.6099 10.6419 96.4843 10.7879C96.3588 10.9338 96.2665 11.122 96.2073 11.3524C96.1481 11.5829 96.1184 12.0015 96.1184 12.6084V13.8402H95.6393V10.2063Z" fill="white"/>
<path d="M99.1912 10.6031L98.8901 10.9109C98.6392 10.6691 98.3949 10.5481 98.1577 10.5481C98.0025 10.5481 97.8726 10.5972 97.7677 10.6953C97.6628 10.7934 97.6104 10.9143 97.6104 11.0581C97.6104 11.2019 97.6662 11.325 97.7779 11.4277C97.8896 11.5304 98.0824 11.6535 98.3563 11.7973C98.63 11.9411 98.8389 12.0962 98.9826 12.2625C99.1264 12.4291 99.1983 12.6333 99.1983 12.8749C99.1983 13.1806 99.0921 13.4385 98.8799 13.6483C98.6676 13.8581 98.4066 13.963 98.0963 13.963C97.8911 13.963 97.6937 13.9173 97.5043 13.826C97.3148 13.7347 97.1541 13.607 97.0217 13.4429L97.3161 13.1143C97.5579 13.3836 97.8109 13.5181 98.0756 13.5181C98.2626 13.5181 98.4224 13.4564 98.5547 13.3333C98.6871 13.2102 98.7531 13.0653 98.7531 12.8987C98.7531 12.7321 98.6948 12.5954 98.5785 12.488C98.4622 12.381 98.2681 12.2588 97.9966 12.1218C97.7251 11.9849 97.5221 11.8355 97.3876 11.6736C97.2531 11.5116 97.1859 11.3018 97.1859 11.0439C97.1859 10.786 97.2806 10.566 97.47 10.3834C97.6594 10.2011 97.9102 10.1098 98.2228 10.1098C98.5353 10.1098 98.858 10.2739 99.1912 10.6024V10.6031Z" fill="white"/>
<path d="M72.6577 10.2094H73.1226V10.8727C73.4919 10.3667 73.9729 10.1138 74.5655 10.1138C75.0761 10.1138 75.516 10.302 75.8853 10.678C76.2546 11.0541 76.4394 11.5067 76.4394 12.0355C76.4394 12.5642 76.2571 13.0181 75.8924 13.3963C75.5277 13.7748 75.09 13.9639 74.5794 13.9639C74.0232 13.9639 73.5376 13.7156 73.1229 13.2186V15.1674H72.6577V10.2094ZM75.9745 12.0422C75.9745 11.6366 75.8344 11.2889 75.554 10.9995C75.2735 10.7101 74.9305 10.5651 74.5248 10.5651C74.1191 10.5651 73.7782 10.7076 73.5024 10.9924C73.2266 11.2775 73.0887 11.6295 73.0887 12.049C73.0887 12.4686 73.23 12.8206 73.5126 13.1057C73.7952 13.3907 74.1336 13.533 74.5282 13.533C74.9228 13.533 75.2621 13.3883 75.5472 13.0986C75.8319 12.8092 75.9745 12.4569 75.9745 12.0419V12.0422Z" fill="white"/>
</g>
<defs>
<clipPath id="clip0_1_49">
<rect width="26.5403" height="6.36419" fill="white" transform="translate(72.6577 8.80323)"/>
</clipPath>
</defs>
</svg>
