<svg width="20" height="20" viewBox="0 0 20 20" fill="none" xmlns="http://www.w3.org/2000/svg">
<mask id="mask0_1547_2806" style="mask-type:luminance" maskUnits="userSpaceOnUse" x="0" y="7" width="20" height="13">
<path fill-rule="evenodd" clip-rule="evenodd" d="M0.833984 7.06055H19.167V19.6592H0.833984V7.06055Z" fill="white"/>
</mask>
<g mask="url(#mask0_1547_2806)">
<path fill-rule="evenodd" clip-rule="evenodd" d="M15.1019 19.6592H4.8994C2.65815 19.6592 0.833984 17.836 0.833984 15.5938V11.125C0.833984 8.8838 2.65815 7.06055 4.8994 7.06055H5.75465C6.13415 7.06055 6.44215 7.36855 6.44215 7.74805C6.44215 8.12755 6.13415 8.43555 5.75465 8.43555H4.8994C3.41532 8.43555 2.20898 9.64188 2.20898 11.125V15.5938C2.20898 17.0779 3.41532 18.2842 4.8994 18.2842H15.1019C16.5851 18.2842 17.7923 17.0779 17.7923 15.5938V11.1168C17.7923 9.63821 16.5897 8.43555 15.112 8.43555H14.2476C13.8681 8.43555 13.5601 8.12755 13.5601 7.74805C13.5601 7.36855 13.8681 7.06055 14.2476 7.06055H15.112C17.3477 7.06055 19.1673 8.88013 19.1673 11.1168V15.5938C19.1673 17.836 17.3432 19.6592 15.1019 19.6592Z" fill="#5034C4"/>
</g>
<mask id="mask1_1547_2806" style="mask-type:luminance" maskUnits="userSpaceOnUse" x="9" y="0" width="2" height="14">
<path fill-rule="evenodd" clip-rule="evenodd" d="M9.3125 0.833008H10.6875V13.2455H9.3125V0.833008Z" fill="white"/>
</mask>
<g mask="url(#mask1_1547_2806)">
<path fill-rule="evenodd" clip-rule="evenodd" d="M10 13.2456C9.6205 13.2456 9.3125 12.9376 9.3125 12.5581V1.52051C9.3125 1.14101 9.6205 0.833008 10 0.833008C10.3795 0.833008 10.6875 1.14101 10.6875 1.52051V12.5581C10.6875 12.9376 10.3795 13.2456 10 13.2456Z" fill="#5034C4"/>
</g>
<path fill-rule="evenodd" clip-rule="evenodd" d="M7.3279 4.89278C7.15281 4.89278 6.97681 4.82586 6.84298 4.69203C6.5744 4.42436 6.57256 3.98986 6.84115 3.72036L9.51323 1.03636C9.77081 0.776943 10.2291 0.776943 10.4867 1.03636L13.1597 3.72036C13.4274 3.98986 13.4265 4.42436 13.1579 4.69203C12.8884 4.95969 12.4539 4.95969 12.1862 4.69019L9.99998 2.49569L7.81465 4.69019C7.68081 4.82586 7.5039 4.89278 7.3279 4.89278Z" fill="#5034C4"/>
</svg>
