<svg width="13" height="8" viewBox="0 0 13 8" fill="none" xmlns="http://www.w3.org/2000/svg">
<path d="M4.38323 4.5736L4.68318 4.97364L4.34682 5.22585L4.04061 4.93777L4.38323 4.5736ZM6.91335 2.67645L6.6134 2.27641L6.95001 2.02402L7.25623 2.31253L6.91335 2.67645ZM12.3219 7.28647C12.3301 7.56249 12.113 7.79291 11.837 7.80113L7.33899 7.93505C7.06297 7.94327 6.83255 7.72618 6.82433 7.45016C6.81611 7.17414 7.03321 6.94371 7.30923 6.9355L11.3075 6.81645L11.1884 2.81822C11.1802 2.5422 11.3973 2.31178 11.6733 2.30356C11.9493 2.29535 12.1797 2.51244 12.188 2.78846L12.3219 7.28647ZM0.79927 0.515279L4.72584 4.20944L4.04061 4.93777L0.114046 1.24361L0.79927 0.515279ZM4.08327 4.17357L6.6134 2.27641L7.21331 3.07648L4.68318 4.97364L4.08327 4.17357ZM7.25623 2.31253L12.165 6.93743L11.4792 7.66527L6.57048 3.04037L7.25623 2.31253Z" fill="#AE1313"/>
</svg>
