<svg width="14" height="17" viewBox="0 0 14 17" fill="none" xmlns="http://www.w3.org/2000/svg">
<path fill-rule="evenodd" clip-rule="evenodd" d="M3.63832 12.5462H2.84657V13.5359H3.63832C3.93523 13.5359 4.13317 13.338 4.13317 13.0411C4.13317 12.7441 3.93523 12.5462 3.63832 12.5462ZM8.78471 0.669922H0.867188V16.505H13.7332V5.61838L8.78471 0.669922ZM5.02389 13.14C5.02389 13.9318 4.43007 14.5256 3.63832 14.5256H2.84657V15.5153H1.85688V11.5565H3.63832C4.43007 11.5565 5.02389 12.1503 5.02389 12.9421V13.14ZM9.08162 13.6349C9.08162 14.6246 8.28987 15.5153 7.20121 15.5153H5.81564V11.5565H7.20121C8.1909 11.5565 9.08162 12.3483 9.08162 13.4369V13.6349ZM12.7435 12.5462H10.7641V13.5359H12.2486V14.5256H10.7641V15.5153H9.7744V11.5565H12.7435V12.5462ZM12.7435 10.5668H1.85688V1.65961H8.78471V5.61838H12.7435V10.5668ZM7.20121 12.5462H6.80533V14.5256H7.20121C7.79502 14.5256 8.1909 14.1297 8.1909 13.5359C8.1909 12.9421 7.69605 12.5462 7.20121 12.5462Z" fill="#326CF6"/>
</svg>
