<svg width="105" height="104" viewBox="0 0 105 104" fill="none" xmlns="http://www.w3.org/2000/svg">
<path d="M92.5249 61.1154C91.8966 61.9819 91.6104 63.0499 91.7211 64.1145L92.8858 75.3162L82.5889 79.9093C81.6097 80.3461 80.8266 81.1296 80.3904 82.1092L75.8141 92.3855L64.6145 91.2211C63.5499 91.1104 62.4819 91.3966 61.6154 92.0249L52.5 98.6345L43.3846 92.0249C42.5181 91.3966 41.4501 91.1104 40.3855 91.2211L29.1838 92.3858L24.5907 82.0889C24.1539 81.1097 23.3703 80.3266 22.3908 79.8904L12.1145 75.3141L13.2789 64.1145C13.3896 63.0499 13.1034 61.9819 12.475 61.1154L5.86548 52L12.475 42.8846C13.1034 42.0181 13.3896 40.9501 13.2789 39.8855L12.1142 28.6838L22.4111 24.0907C23.3903 23.6539 24.1734 22.8703 24.6096 21.8908L29.1859 11.6145L40.3855 12.7789C41.4501 12.8896 42.5181 12.6034 43.3846 11.975L52.5 5.36548L61.6154 11.975C62.4819 12.6034 63.5499 12.8896 64.6145 12.7789L75.8162 11.6142L80.4093 21.9111C80.8461 22.8903 81.6297 23.6734 82.6092 24.1096L92.8855 28.6859L91.7211 39.8855C91.6104 40.9501 91.8966 42.0181 92.5249 42.8846L99.1345 52L92.5249 61.1154Z" fill="#E8A706" stroke="#F4F4FB" stroke-width="8.6875" stroke-linejoin="round"/>
<path d="M52.585 69.334L52.4983 47.6673M52.585 34.6673H52.4983" stroke="#F4F4FB" stroke-width="8.6875" stroke-linecap="round" stroke-linejoin="round"/>
</svg>
