<svg width="43" height="10" viewBox="0 0 43 10" fill="none" xmlns="http://www.w3.org/2000/svg">
<g clip-path="url(#clip0_4286_47283)">
<path d="M12.7758 6.42291C12.0399 7.90052 10.2518 8.49301 8.76656 7.75324C7.28127 7.01348 6.6768 5.22979 7.4132 3.75218C8.14433 2.28464 9.93186 1.69215 11.4171 2.43192C12.9024 3.17169 13.5069 4.95537 12.7758 6.42291Z" fill="white"/>
<path d="M13.2484 2.12964C13.3764 1.8728 12.8776 1.36444 12.1343 0.994192C11.3911 0.623942 10.6848 0.532008 10.5569 0.788851C10.4289 1.04569 10.9277 1.55405 11.671 1.9243C12.4142 2.29455 13.1205 2.38649 13.2484 2.12964Z" fill="white"/>
<path d="M18.2813 7.92434H17.5468V6.91352C16.9648 7.68687 16.2591 8.07354 15.4287 8.07354C15.0032 8.07354 14.6199 7.9584 14.2792 7.72765C13.9386 7.49737 13.6973 7.19561 13.5558 6.82285C13.4138 6.45057 13.3428 5.90222 13.3428 5.17877V2.27344H14.0662V4.96576C14.0662 5.62541 14.0965 6.07253 14.1569 6.30665C14.2169 6.54076 14.3095 6.73937 14.4337 6.90249C14.558 7.0656 14.7158 7.18985 14.9072 7.27477C15.0986 7.35968 15.3308 7.40238 15.6043 7.40238C15.8777 7.40238 16.1454 7.33522 16.4079 7.20041C16.6703 7.0656 16.8938 6.87754 17.0785 6.63623C17.2628 6.39492 17.387 6.14689 17.4508 5.89119C17.5146 5.63548 17.5468 5.12168 17.5468 4.34785V2.27344H18.2813V7.92434Z" fill="white"/>
<path d="M24.6239 3.44039L24.0491 3.80212C23.5526 3.14247 22.8714 2.8124 22.0059 2.8124C21.3247 2.8124 20.7538 3.03069 20.2922 3.46678C19.8307 3.90286 19.6005 4.44401 19.6005 5.08975C19.6005 5.73548 19.8274 6.28863 20.2817 6.75014C20.7355 7.21166 21.3103 7.44193 22.0059 7.44193C22.8358 7.44193 23.5171 7.11187 24.0491 6.45222L24.6239 6.83554C24.3398 7.24716 23.9584 7.56283 23.4797 7.78255C23.0009 8.00275 22.4847 8.11262 21.9311 8.11262C21.0584 8.11262 20.3292 7.82525 19.7439 7.25052C19.1586 6.67578 18.866 5.97344 18.866 5.14348C18.866 4.31352 19.162 3.60206 19.7545 3.00958C20.3469 2.4171 21.1078 2.12109 22.0371 2.12109C22.5835 2.12109 23.0887 2.23815 23.5535 2.47227C24.0179 2.70638 24.3749 3.02925 24.6229 3.44087L24.6239 3.44039Z" fill="white"/>
<path d="M25.1877 0.0898438H25.9222V3.28254C26.5037 2.50919 27.2099 2.12252 28.0403 2.12252C28.4658 2.12252 28.8492 2.23814 29.1898 2.46841C29.5304 2.69917 29.7712 3.00045 29.9132 3.37321C30.0552 3.74549 30.1262 4.29384 30.1262 5.01729V7.92262H29.3917V5.2303C29.3917 4.64885 29.374 4.24778 29.3385 4.02758C29.303 3.80786 29.2248 3.59821 29.1044 3.3996C28.9835 3.20098 28.8223 3.05034 28.6203 2.9472C28.4179 2.84453 28.1732 2.79272 27.8858 2.79272C27.5985 2.79272 27.3236 2.86037 27.0611 2.99469C26.7987 3.1295 26.5752 3.31756 26.3905 3.55887C26.2058 3.80018 26.082 4.04821 26.0182 4.30391C25.9544 4.55962 25.9222 5.0739 25.9222 5.84725V7.92262H25.1877V0.0898438Z" fill="white"/>
<path d="M35.6384 6.09098L36.2558 6.41049C35.6456 7.54556 34.7446 8.1131 33.5525 8.1131C32.7009 8.1131 31.9986 7.82045 31.4454 7.23517C30.8918 6.64988 30.6155 5.94561 30.6155 5.12237C30.6155 4.29913 30.8937 3.59343 31.4507 3.0043C32.0077 2.41566 32.6961 2.12109 33.5155 2.12109C34.3349 2.12109 35.0229 2.39407 35.5804 2.9405C36.1373 3.48693 36.4266 4.23197 36.4477 5.17562H31.3605C31.3816 5.85686 31.5966 6.40473 32.0043 6.81971C32.4121 7.23468 32.9072 7.44241 33.4891 7.44241C34.4467 7.44241 35.1635 6.99193 35.6389 6.09098H35.6384ZM35.6384 4.54764C35.5391 4.00841 35.2906 3.58623 34.8934 3.28111C34.4961 2.976 34.0385 2.82344 33.5203 2.82344C32.4563 2.82344 31.7606 3.39817 31.4344 4.54764H35.6379H35.6384Z" fill="white"/>
<path d="M36.7241 2.27029H37.4692V3.0897C37.6678 2.75627 37.8611 2.51161 38.0492 2.35521C38.2372 2.19929 38.4464 2.12109 38.6772 2.12109C38.9079 2.12109 39.1401 2.1849 39.3742 2.31251L38.9909 2.92994C38.8844 2.86614 38.7745 2.83399 38.6608 2.83399C38.4406 2.83399 38.2334 2.94769 38.0381 3.17461C37.8429 3.40153 37.6994 3.69417 37.6073 4.05254C37.5152 4.41091 37.4692 5.06192 37.4692 6.00558V7.9212H36.7241V2.27029Z" fill="white"/>
<path d="M42.2473 2.8882L41.7791 3.36699C41.3891 2.99087 41.0091 2.80281 40.6402 2.80281C40.3989 2.80281 40.1969 2.87909 40.0338 3.03165C39.8707 3.18421 39.7891 3.37227 39.7891 3.59583C39.7891 3.81939 39.876 4.01081 40.0496 4.17056C40.2233 4.33031 40.5231 4.52173 40.9492 4.74529C41.3747 4.96885 41.6995 5.21017 41.923 5.46875C42.1466 5.72781 42.2584 6.0454 42.2584 6.42104C42.2584 6.89647 42.0933 7.29753 41.7633 7.62376C41.4332 7.94998 41.0274 8.1131 40.5447 8.1131C40.2257 8.1131 39.9187 8.04209 39.6241 7.90009C39.3295 7.75809 39.0796 7.55947 38.8738 7.30425L39.3315 6.79332C39.7076 7.21214 40.101 7.42131 40.5126 7.42131C40.8033 7.42131 41.0518 7.32536 41.2576 7.13394C41.4634 6.94252 41.5661 6.71704 41.5661 6.45798C41.5661 6.19892 41.4754 5.98639 41.2946 5.81944C41.1137 5.65297 40.8119 5.46299 40.3898 5.24998C39.9676 5.03698 39.6519 4.80478 39.4428 4.55292C39.2336 4.30105 39.129 3.97482 39.129 3.57376C39.129 3.17269 39.2763 2.83064 39.5708 2.54663C39.8654 2.2631 40.2554 2.12109 40.7414 2.12109C41.2274 2.12109 41.7292 2.37632 42.2473 2.88724V2.8882Z" fill="white"/>
<path d="M0.986572 2.27763H1.70955V3.30908C2.2838 2.5223 3.03172 2.12891 3.95331 2.12891C4.74729 2.12891 5.4314 2.42155 6.00565 3.00636C6.57991 3.59117 6.86727 4.29495 6.86727 5.11723C6.86727 5.93951 6.58375 6.64522 6.01669 7.23338C5.44963 7.82203 4.76887 8.11611 3.9749 8.11611C3.10992 8.11611 2.3548 7.72992 1.71003 6.95705V9.98759H0.986572V2.27763ZM6.1443 5.12779C6.1443 4.49692 5.9265 3.95625 5.49041 3.50625C5.05432 3.05625 4.52085 2.83077 3.88998 2.83077C3.25912 2.83077 2.729 3.05241 2.30011 3.49522C1.87122 3.9385 1.65677 4.48589 1.65677 5.13834C1.65677 5.79079 1.8765 6.33818 2.31594 6.78146C2.75539 7.22475 3.28167 7.44591 3.89526 7.44591C4.50885 7.44591 5.03657 7.22091 5.47985 6.77043C5.92266 6.32043 6.1443 5.77256 6.1443 5.12731V5.12779Z" fill="white"/>
</g>
<defs>
<clipPath id="clip0_4286_47283">
<rect width="41.2714" height="9.89664" fill="white" transform="translate(0.986572 0.0898438)"/>
</clipPath>
</defs>
</svg>
