<svg width="20" height="20" viewBox="0 0 20 20" fill="none" xmlns="http://www.w3.org/2000/svg">
<g clip-path="url(#clip0_1_42254)">
<path d="M17.7691 5.60353L17.7691 5.60355C17.6231 5.74968 17.4048 5.79512 17.2131 5.72014L14.1743 5.6198L14.1743 5.6198L14.1759 5.56982C13.9171 5.56148 13.7144 5.34468 13.7229 5.08599C13.7313 4.82715 13.948 4.62427 14.2067 4.63291L17.7691 5.60353ZM17.7691 5.60353C17.9149 5.4574 17.9601 5.23904 17.8848 5.04738L17.7848 2.00986C17.7848 2.0098 17.7847 2.00975 17.7847 2.00969C17.7782 1.72331 17.5407 1.49648 17.2544 1.5028L17.2543 1.5028C16.9683 1.50928 16.7411 1.7464 16.7473 2.03248M17.7691 5.60353L16.7473 2.03248M16.7473 2.03248C16.7473 2.03229 16.7473 2.03211 16.7473 2.03193H16.7973L16.7473 2.03307L16.7473 2.03248ZM16.2958 4.65179L14.2084 4.58294L16.7476 2.04482L16.8013 3.66987C16.1752 3.01784 15.4658 2.45101 14.6914 1.98456L14.6913 1.98452C13.2198 1.10158 11.5684 0.63457 9.91572 0.63457C7.27643 0.63457 4.84275 1.72304 3.06469 3.69873C1.49028 5.44815 0.549609 7.80316 0.549609 10.0007C0.549609 10.2871 0.781751 10.5194 1.06836 10.5194C1.35497 10.5194 1.58711 10.2871 1.58711 10.0007C1.58711 8.05514 2.42718 5.95788 3.83584 4.39287C5.41522 2.63832 7.57398 1.67207 9.91572 1.67207C11.3796 1.67207 12.8464 2.08761 14.1575 2.87446C14.9564 3.35516 15.6775 3.9544 16.2958 4.65179ZM16.7976 2.04204L16.8531 3.72424L16.7976 2.04204ZM17.7348 2.01099C17.7289 1.75215 17.5143 1.54707 17.2555 1.55278L17.7348 2.01099Z" fill="#5034C4" stroke="#5034C4" stroke-width="0.1"/>
<path d="M3.65301 15.349C4.27135 16.0463 4.99244 16.6456 5.79137 17.1264C7.10244 17.9132 8.56926 18.3285 10.0331 18.3285C12.3749 18.3285 14.5336 17.3625 16.113 15.608C17.5217 14.0428 18.3617 11.9454 18.3617 10C18.3617 9.7134 18.5939 9.48125 18.8805 9.48125C19.1671 9.48125 19.3992 9.7134 19.3992 10C19.3992 12.1977 18.4586 14.5527 16.8841 16.3022C15.1061 18.2779 12.6724 19.3663 10.0331 19.3663C8.38043 19.3663 6.72905 18.8994 5.25748 18.0163L5.2574 18.0163C4.483 17.5495 3.77364 16.983 3.14759 16.3308L3.20121 17.9559L3.65301 15.349ZM3.65301 15.349L5.7405 15.4179L5.74053 15.4179C6.0268 15.4271 6.26655 15.2026 6.27596 14.9163C6.28536 14.6301 6.061 14.3903 5.77458 14.3807L5.77456 14.3807L2.73574 14.2805C2.54403 14.2056 2.32569 14.2512 2.17974 14.3971L2.1797 14.3972C2.03389 14.5433 1.98878 14.7615 2.06405 14.9532L2.16408 17.9907C2.16408 17.9908 2.16409 17.9909 2.16409 17.9909C2.17071 18.2774 2.4081 18.5044 2.69447 18.4979M3.65301 15.349L3.15157 17.9687H3.20157V17.9683C3.20157 17.9682 3.20156 17.9681 3.20156 17.968C3.20786 18.2543 2.98065 18.4916 2.69447 18.4979M2.69447 18.4979L2.69337 18.4479L2.6945 18.4979C2.69449 18.4979 2.69448 18.4979 2.69447 18.4979Z" fill="#5034C4" stroke="#5034C4" stroke-width="0.1"/>
</g>
<defs>
<clipPath id="clip0_1_42254">
<rect width="20" height="20" fill="white"/>
</clipPath>
</defs>
</svg>
