<svg width="40" height="40" viewBox="0 0 40 40" fill="none" xmlns="http://www.w3.org/2000/svg">
<g clip-path="url(#clip0_3343_45857)">
<path d="M2.23319 26.2082H15.6996C15.9601 26.2093 16.1988 26.0626 16.3154 25.8296C16.8581 24.7428 18.3842 21.692 18.3842 21.692C18.4922 21.4782 18.4816 21.2236 18.356 21.0196C18.2305 20.8155 18.008 20.6913 17.7684 20.6914H4.30191C4.04076 20.6916 3.80211 20.8391 3.6854 21.0728L1.61668 25.2104C1.50989 25.4241 1.5213 25.6778 1.64691 25.8811C1.77245 26.0843 1.99422 26.2081 2.23319 26.2082Z" fill="#5034C4"/>
<path d="M4.82928 39.9999H19.3107V22.9229L17.3599 26.8287C17.1267 27.2958 16.6483 27.5899 16.1262 27.5872H4.13965V39.3103C4.13965 39.6912 4.44837 39.9999 4.82928 39.9999Z" fill="#5034C4"/>
<path d="M35.8605 39.3103V27.5872H23.874C23.3509 27.5893 22.8722 27.2934 22.6403 26.8245L20.6895 22.9229V39.9999H35.1709C35.5518 39.9999 35.8605 39.6911 35.8605 39.3103Z" fill="#5034C4"/>
<path d="M35.6976 20.6914H22.2312C21.9923 20.6916 21.7705 20.8153 21.6449 21.0186C21.5194 21.2218 21.5079 21.4756 21.6147 21.6893L23.6835 25.8269C23.8002 26.0605 24.0389 26.2081 24.3 26.2083H37.7664C38.0053 26.2081 38.2271 26.0844 38.3527 25.8811C38.4782 25.6778 38.4897 25.4241 38.3829 25.2104L36.3141 21.0728C36.1973 20.8391 35.9587 20.6916 35.6976 20.6914Z" fill="#5034C4"/>
<path d="M14.4284 15.7436C14.3291 16.2054 14.5038 16.6831 14.8774 16.972C15.2511 17.2609 15.7574 17.3096 16.1793 17.0973L19.4424 15.3126C19.7893 15.1216 20.2099 15.1216 20.5568 15.3126L23.8199 17.0959C24.2418 17.3082 24.7481 17.2595 25.1218 16.9706C25.4954 16.6817 25.6701 16.2039 25.5708 15.7422L24.9564 12.0184C24.886 11.6034 25.0177 11.1798 25.3108 10.8778L27.9009 8.25246C28.2375 7.91343 28.3604 7.41675 28.2209 6.95984C28.0814 6.50293 27.7019 6.15968 27.2334 6.06648L23.6227 5.52036C23.223 5.45638 22.8813 5.19789 22.711 4.83073L21.0829 1.39861C20.8932 0.969898 20.4684 0.693359 19.9996 0.693359C19.5307 0.693359 19.106 0.969819 18.9162 1.39861L17.2881 4.83073C17.1178 5.19789 16.7761 5.4563 16.3764 5.52036L12.7657 6.06586C12.2972 6.15905 11.9178 6.5023 11.7783 6.95921C11.6387 7.41613 11.7617 7.9128 12.0982 8.25184L14.6897 10.8778C14.9829 11.1798 15.1145 11.6034 15.0441 12.0184L14.4284 15.7436Z" fill="#5034C4" fill-opacity="0.4"/>
<path d="M4.2424 14.0606C4.38895 14.2114 4.45472 14.4229 4.41965 14.6302L4.1121 16.4921C4.0628 16.723 4.1503 16.9616 4.33715 17.1059C4.52393 17.2502 4.77696 17.2745 4.98788 17.1686L6.62219 16.2777C6.79569 16.1825 7.00583 16.1825 7.1794 16.2777L8.81098 17.1693C9.0219 17.2753 9.27492 17.251 9.4617 17.1067C9.64848 16.9624 9.73598 16.7237 9.68676 16.4929L9.37921 14.631C9.34406 14.4238 9.40991 14.2122 9.55646 14.0614L10.8515 12.7512C11.02 12.5818 11.0816 12.3333 11.0119 12.1048C10.9421 11.8762 10.7522 11.7046 10.5178 11.6582L8.71239 11.3823C8.51257 11.3504 8.34172 11.2212 8.25658 11.0375L7.44282 9.32313C7.34814 9.10831 7.1355 8.96973 6.90084 8.96973C6.66609 8.96973 6.45353 9.10831 6.35885 9.32313L5.54236 11.0368C5.45721 11.2204 5.28637 11.3497 5.08654 11.3816L3.28115 11.6575C3.04672 11.7039 2.85682 11.8755 2.78706 12.1041C2.7173 12.3326 2.77885 12.5811 2.94743 12.7505L4.2424 14.0606Z" fill="#5034C4" fill-opacity="0.4"/>
<path d="M32.5602 9.32118L31.7465 11.0369C31.6613 11.2205 31.4905 11.3498 31.2906 11.3817L29.4853 11.6575C29.2508 11.7039 29.0609 11.8756 28.9912 12.1041C28.9214 12.3327 28.983 12.5811 29.1515 12.7506L30.4466 14.0608C30.5931 14.2115 30.6589 14.4231 30.6238 14.6304L30.3163 16.4923C30.267 16.7231 30.3545 16.9618 30.5413 17.106C30.7281 17.2503 30.9811 17.2747 31.1921 17.1688L32.8264 16.2778C32.9999 16.1826 33.21 16.1826 33.3836 16.2778L35.0152 17.1695C35.2261 17.2755 35.4791 17.2511 35.6659 17.1068C35.8527 16.9625 35.9402 16.7239 35.8909 16.4931L35.5834 14.6312C35.5482 14.4239 35.6141 14.2123 35.7606 14.0615L37.0557 12.7513C37.2242 12.5819 37.2858 12.3335 37.2161 12.1049C37.1463 11.8763 36.9564 11.7047 36.722 11.6583L34.9166 11.3825C34.7167 11.3505 34.5459 11.2213 34.4608 11.0377L33.647 9.32337C33.5535 9.10675 33.3402 8.96621 33.1043 8.96582C32.8683 8.96528 32.6546 9.10495 32.5602 9.32118Z" fill="#5034C4" fill-opacity="0.4"/>
</g>
<defs>
<clipPath id="clip0_3343_45857">
<rect width="40" height="40" fill="white"/>
</clipPath>
</defs>
</svg>
