<svg width="16" height="16" viewBox="0 0 16 16" fill="none" xmlns="http://www.w3.org/2000/svg">
<g clip-path="url(#clip0_3155_43754)">
<path d="M13.0485 9.11306C10.5977 9.20863 8.27738 9.84592 6.20998 10.9021L3.55157 12.4372C2.84852 12.8425 1.95066 12.5992 1.54718 11.8998L0.19614 9.56041C-0.208205 8.85972 0.0328019 7.96036 0.733489 7.55602L2.93599 6.28421C3.06352 6.21058 3.22663 6.25424 3.3003 6.38181L5.03095 9.3794C5.10588 9.50917 5.27342 9.55224 5.40203 9.47297C5.5264 9.3963 5.56036 9.2297 5.48729 9.10316L3.74414 6.08391C3.67491 5.96397 3.70891 5.81086 3.82275 5.73196C5.64103 4.47132 7.17934 2.86571 8.36071 0.993157C8.80826 0.28317 9.85112 0.30217 10.2718 1.03049L13.9715 7.43934C14.392 8.1661 13.8886 9.08039 13.0485 9.11306ZM13.5233 4.64953C13.6602 3.86557 13.2008 3.07928 12.4581 2.81014C12.2247 2.72554 12.0129 2.97958 12.137 3.19462C12.4325 3.70654 12.729 4.22022 13.0288 4.73937C13.1541 4.95621 13.4802 4.89624 13.5233 4.64953ZM7.36735 14.0855L6.10185 11.8887C6.02831 11.761 5.86501 11.7173 5.73737 11.7909C5.05152 12.1866 5.02558 12.202 4.11072 12.7301C3.98315 12.8037 3.93928 12.9669 4.01295 13.0945L5.28062 15.2899C5.44313 15.571 5.73537 15.7239 6.03298 15.7239C6.32165 15.7239 6.43206 15.6263 7.05001 15.2696C7.46402 15.0306 7.60636 14.4992 7.36735 14.0855ZM15.4704 2.62187C15.5979 2.54824 15.6417 2.38513 15.568 2.25759C15.4944 2.13009 15.3313 2.08632 15.2037 2.15999L14.5137 2.55837C14.2776 2.69471 14.3764 3.05605 14.6473 3.05605C14.7422 3.05602 14.7232 3.05328 15.4704 2.62187ZM13.0182 1.24L13.1865 0.612112C13.2247 0.469842 13.1402 0.323637 12.998 0.285503C12.8556 0.247435 12.7095 0.331804 12.6713 0.474075L12.5031 1.10196C12.4578 1.27103 12.5852 1.43774 12.7608 1.43774C12.8785 1.4377 12.9863 1.35913 13.0182 1.24ZM15.9909 5.46935C16.029 5.32708 15.9445 5.18085 15.8023 5.14274L15.1744 4.97451C15.0321 4.93647 14.8859 5.02084 14.8478 5.16308C14.8096 5.30532 14.8941 5.45155 15.0363 5.48969C15.7231 5.67369 15.6854 5.66709 15.7334 5.66709C15.8512 5.66709 15.9589 5.58849 15.9909 5.46935Z" fill="#5034C4"/>
</g>
<defs>
<clipPath id="clip0_3155_43754">
<rect width="16" height="16" fill="white"/>
</clipPath>
</defs>
</svg>
