<svg width="23" height="18" viewBox="0 0 23 18" fill="none" xmlns="http://www.w3.org/2000/svg">
<path d="M8.1403 8.58843L7.5643 8.46363C7.52717 8.45634 7.49208 8.44102 7.46151 8.41873C7.43093 8.39645 7.4056 8.36774 7.3873 8.33462C7.369 8.3015 7.35818 8.26477 7.35559 8.22702C7.353 8.18927 7.3587 8.15142 7.3723 8.11611L8.17678 6.01562L9.09646 6.20763L8.44174 8.40219C8.42452 8.46569 8.38379 8.52027 8.32781 8.55486C8.27184 8.58944 8.2048 8.60144 8.1403 8.58843Z" fill="#6463FD"/>
<path d="M10.3714 5.89761C10.3335 5.88942 10.2976 5.87382 10.2658 5.8517C10.2339 5.82957 10.2068 5.80137 10.1859 5.76871C10.165 5.73604 10.1508 5.69957 10.1441 5.66139C10.1374 5.62321 10.1383 5.58408 10.1468 5.54625L10.2236 5.18529C10.2317 5.14719 10.2474 5.1111 10.2696 5.07912C10.2919 5.04714 10.3203 5.0199 10.3532 4.999C10.386 4.97809 10.4227 4.96393 10.4611 4.95735C10.4995 4.95077 10.5389 4.95189 10.5768 4.96065C10.6535 4.97721 10.7204 5.02353 10.7629 5.08942C10.8053 5.15531 10.8199 5.23537 10.8034 5.31201L10.7247 5.67105C10.7077 5.74783 10.661 5.81475 10.5948 5.8572C10.5286 5.89965 10.4483 5.91418 10.3714 5.89761Z" fill="#6463FD"/>
<path d="M9.80298 4.11182C9.80298 4.11182 7.61417 3.86223 6.84809 3.47055C5.04713 2.54511 3.32489 0.337107 2.96009 0.258387C2.36489 0.127827 1.55466 1.53711 1.14762 3.40527C0.740575 5.27343 0.894175 6.89007 1.48938 7.01871C1.8561 7.09935 4.33673 5.80527 6.36041 5.71119C7.22057 5.67279 9.30953 6.36207 9.30953 6.36207L9.80298 4.11182Z" fill="#6463FD"/>
<path opacity="0.3" d="M9.80298 4.11183C9.80298 4.11183 7.61417 3.86223 6.84809 3.47055C5.04713 2.54511 3.32489 0.337107 2.96009 0.258387C2.36489 0.127827 1.55466 1.53711 1.14762 3.40527C0.740575 5.27343 0.894175 6.89007 1.48938 7.01871C1.8561 7.09935 4.33673 5.80527 6.36041 5.71119C7.22057 5.67279 9.30954 6.36207 9.30954 6.36207L9.80298 4.11183Z" fill="white"/>
<path d="M3.30175 3.86592C2.89663 5.73216 2.08447 7.14145 1.48927 7.01089C0.894065 6.88032 0.742385 5.26368 1.14751 3.39744C1.55263 1.5312 2.36478 0.120004 2.95998 0.250564C3.55518 0.381124 3.70879 2.00544 3.30175 3.86592Z" fill="#6463FD"/>
<path opacity="0.4" d="M3.30175 3.86592C2.89663 5.73216 2.08447 7.14145 1.48927 7.01089C0.894065 6.88032 0.742385 5.26368 1.14751 3.39744C1.55263 1.5312 2.36478 0.120004 2.95998 0.250564C3.55518 0.381124 3.70879 2.00544 3.30175 3.86592Z" fill="black"/>
<path d="M9.44801 3.86506L8.43232 3.64426C8.36695 3.62984 8.2993 3.62903 8.2336 3.64189C8.1679 3.65475 8.10555 3.681 8.05043 3.71901C7.99531 3.75701 7.94862 3.80596 7.91324 3.8628C7.87786 3.91964 7.85457 3.98315 7.8448 4.04938C7.80832 4.30474 7.76225 4.56778 7.70465 4.83658C7.64705 5.10538 7.57793 5.36458 7.51265 5.60458C7.49402 5.66904 7.48885 5.73664 7.49744 5.80318C7.50603 5.86973 7.52821 5.93379 7.5626 5.99141C7.59699 6.04902 7.64285 6.09895 7.69734 6.1381C7.75183 6.17725 7.81379 6.20478 7.87937 6.21898L9.08321 6.4801C9.80513 6.63754 10.3254 6.12874 10.4714 5.40298C10.5366 5.06364 10.4659 4.71223 10.2745 4.42454C10.0831 4.13685 9.78623 3.93591 9.44801 3.86506Z" fill="#263238"/>
<path d="M2.2573 3.49338L2.19394 3.78714C2.1755 3.86924 2.1868 3.95522 2.22583 4.02976C2.26486 4.1043 2.32908 4.16257 2.40706 4.19418L3.14434 4.50138C3.20194 4.29978 3.2557 4.0905 3.30178 3.87546C3.34786 3.66042 3.38818 3.44538 3.42082 3.23802L2.62018 3.21114C2.53623 3.20831 2.45395 3.235 2.38765 3.28657C2.32134 3.33814 2.27522 3.41132 2.2573 3.49338Z" fill="#263238"/>
<path opacity="0.8" d="M2.2573 3.49338L2.19394 3.78714C2.1755 3.86924 2.1868 3.95522 2.22583 4.02976C2.26486 4.1043 2.32908 4.16257 2.40706 4.19418L3.14434 4.50138C3.20194 4.29978 3.2557 4.0905 3.30178 3.87546C3.34786 3.66042 3.38818 3.44538 3.42082 3.23802L2.62018 3.21114C2.53623 3.20831 2.45395 3.235 2.38765 3.28657C2.32134 3.33814 2.27522 3.41132 2.2573 3.49338Z" fill="white"/>
<path opacity="0.2" d="M2.81412 3.76595C2.7738 3.95795 2.72964 4.13075 2.68164 4.30739L3.14436 4.49939C3.20196 4.29779 3.25572 4.08851 3.3018 3.87347C3.34788 3.65843 3.3882 3.44339 3.42084 3.23603L2.9178 3.21875C2.88964 3.39411 2.85508 3.57651 2.81412 3.76595Z" fill="black"/>
<path d="M20.5531 3.87891C20.7365 3.94912 20.934 3.97476 21.1293 3.95373C21.3245 3.9327 21.512 3.8656 21.6763 3.75795C22.2657 3.37395 23.3717 3.85779 23.0376 5.43027C22.4616 8.13363 21.2597 10.0748 22.0392 10.8927C22.0392 10.8927 19.4433 11.0117 19.8273 8.71923C20.1153 6.99123 22.068 5.04819 21.5976 4.66035C21.4401 4.52979 21.2136 4.59699 20.4744 4.59699L20.5531 3.87891Z" fill="#263238"/>
<path d="M20.4744 4.59871C20.8301 4.58695 21.1856 4.62968 21.5284 4.72542C21.6495 4.37737 21.6965 4.0079 21.6667 3.64062C21.2885 3.68405 20.9156 3.76443 20.5531 3.88063L20.4744 4.59871Z" fill="#6463FD"/>
<path d="M18.0301 1.91164C18.0301 1.91164 16.9511 1.60444 17.6634 0.907479C18.5927 -0.000680983 19.9136 1.70044 19.9136 1.70044C19.9136 1.70044 23.0106 3.05404 20.4551 6.19324C20.4551 6.19324 19.5315 7.84444 19.3395 7.20124C19.1475 6.55804 20.4301 4.73596 20.4301 4.73596L20.3533 3.10396L19.9981 2.46844L18.8826 1.831L18.0301 1.91164Z" fill="#263238"/>
<path d="M13.7504 11.1097C13.6772 10.99 13.5811 10.8859 13.4677 10.8034C13.3542 10.7208 13.2256 10.6614 13.0892 10.6286C12.9528 10.5958 12.8112 10.5902 12.6726 10.6121C12.5341 10.6341 12.4012 10.6831 12.2816 10.7565H12.2662C11.9302 10.9619 11.5731 11.1904 11.2198 11.4016L10.1542 12.0409C9.65499 12.3341 9.15323 12.6189 8.64891 12.8953C8.62009 12.512 8.61368 12.1274 8.62971 11.7433C8.64315 11.2941 8.67579 10.8352 8.71035 10.3763C8.74491 9.91741 8.79099 9.44701 8.82939 8.99197V8.98045C8.83911 8.85253 8.80243 8.72539 8.72607 8.6223C8.64971 8.51921 8.53877 8.44708 8.41357 8.4191C8.28837 8.39112 8.15728 8.40917 8.0443 8.46995C7.93132 8.53073 7.84401 8.63016 7.79835 8.75005C7.62747 9.21277 7.49307 9.66973 7.35867 10.1382C7.22427 10.6067 7.12251 11.079 7.03227 11.5667C6.93376 12.073 6.8798 12.587 6.87099 13.1027C6.86338 13.4272 6.90546 13.7509 6.99579 14.0627C7.07817 14.3415 7.23796 14.5911 7.45659 14.7827C7.6224 14.9228 7.82027 15.0198 8.03259 15.0649C8.21775 15.1008 8.40808 15.1008 8.59323 15.0649C8.63777 15.055 8.68143 15.0415 8.72379 15.0246L8.78715 14.9997C9.19611 14.8307 9.60315 14.6617 9.99867 14.4697C10.3942 14.2777 10.7897 14.0857 11.1756 13.8841C11.5616 13.6825 11.9436 13.4656 12.3276 13.2409C12.7116 13.0163 13.0688 12.7917 13.447 12.5305C13.6668 12.3751 13.8201 12.1427 13.8763 11.8794C13.9325 11.6161 13.8875 11.3414 13.7504 11.1097Z" fill="#CE7A63"/>
<path d="M14.6856 9.70878C15.3327 11.0125 14.4015 12.1433 12.6946 13.9558C11.8031 13.2329 11.1804 12.2315 10.9263 11.1123C10.9263 11.1123 12.9 9.48414 14.6856 9.70878Z" fill="#6463FD"/>
<path opacity="0.2" d="M14.7528 11.2511C14.1211 10.8671 13.4087 10.6943 12.9153 11.3222C12.5302 11.8277 12.0839 12.2837 11.5867 12.6796C11.889 13.159 12.2648 13.5879 12.7003 13.9506C13.7256 12.8678 14.459 12.0287 14.7528 11.2511Z" fill="black"/>
<path d="M8.34959 6.55484L8.78735 6.84476C8.86902 6.89792 8.93663 6.97002 8.98443 7.05493C9.03224 7.13984 9.05882 7.23505 9.06191 7.33244L9.09647 8.25596C9.10219 8.43769 9.06481 8.6182 8.98739 8.78272C8.90997 8.94723 8.79471 9.09109 8.65103 9.20252L8.46863 9.34268C7.70063 8.91068 7.20335 7.8854 7.20335 7.8854L7.02671 7.60892C6.98885 7.55321 6.96243 7.49054 6.94897 7.42453C6.93552 7.35853 6.9353 7.29052 6.94834 7.22443C6.96138 7.15835 6.98741 7.09551 7.02492 7.03956C7.06244 6.98361 7.11069 6.93567 7.16687 6.89852L7.70831 6.5414C7.80509 6.48148 7.91714 6.45087 8.03094 6.45325C8.14474 6.45564 8.25541 6.49092 8.34959 6.55484Z" fill="#CE7A63"/>
<path d="M12.397 12.1301C12.1798 13.0646 12.0259 14.0127 11.9362 14.9679C11.771 16.3599 11.6501 17.7346 11.4907 20.0328L18.4526 21.1445C18.6235 19.1631 19.2053 16.9647 21.1541 12.7503C21.2642 12.531 21.3239 12.29 21.3288 12.0447C21.3337 11.7994 21.2837 11.5562 21.1825 11.3327C21.0812 11.1093 20.9313 10.9113 20.7437 10.7533C20.5561 10.5952 20.3355 10.4812 20.0981 10.4194C19.8274 10.3483 19.5394 10.2792 19.2418 10.2159C18.2009 9.97451 17.1441 9.80768 16.0795 9.71665C15.732 9.69361 15.3691 9.68017 15.0216 9.67249C13.7659 9.63985 12.6293 10.9109 12.397 12.1301Z" fill="#6463FD"/>
<path d="M19.5816 6.60938C19.1458 7.58282 18.5141 9.39338 19.067 10.1767C19.067 10.1767 18.1262 9.87914 15.8818 10.8199C15.4229 9.87722 15.9067 9.66794 15.9067 9.66794C17.1029 9.58154 17.2699 8.74442 17.2507 7.93994L19.5816 6.60938Z" fill="#CE7A63"/>
<path d="M16.3523 10.6402C16.473 10.6845 16.5827 10.7543 16.6742 10.8447C16.7656 10.9351 16.8365 11.0441 16.8822 11.1643C16.9204 11.2517 16.9767 11.33 17.0473 11.3941C17.1179 11.4582 17.2013 11.5066 17.292 11.5362C17.3827 11.5657 17.4786 11.5758 17.5734 11.5656C17.6682 11.5555 17.7599 11.5254 17.8422 11.4773C18.4182 11.1528 19.144 10.6901 19.5069 10.2792C19.3189 10.1361 19.1388 9.98291 18.9673 9.82031C18.9673 9.82031 16.8073 10.3138 16.3523 10.6402Z" fill="white"/>
<path d="M15.728 10.4299C15.5637 10.4564 15.4083 10.5223 15.2749 10.6219C15.2379 10.6488 15.1933 10.6633 15.1476 10.6633C15.1018 10.6633 15.0572 10.6489 15.0201 10.6221C14.9831 10.5952 14.9554 10.5573 14.9412 10.5139C14.927 10.4704 14.9268 10.4235 14.9408 10.3799C15.1808 9.70026 15.5956 9.61194 15.5956 9.61194C15.7959 9.5356 16.0173 9.5356 16.2176 9.61194C16.0515 9.6669 15.9107 9.77974 15.8208 9.92988C15.7309 10.08 15.698 10.2575 15.728 10.4299Z" fill="white"/>
<path opacity="0.2" d="M18.6329 7.15625L17.2582 7.94345C17.2646 8.13611 17.2531 8.32895 17.2236 8.51945C17.6729 8.51945 18.3756 8.15081 18.5292 7.71113C18.5978 7.53416 18.6329 7.34603 18.6329 7.15625Z" fill="black"/>
<path d="M20.774 4.71003C20.198 6.30363 20.006 6.98715 18.9365 7.62651C17.341 8.58651 15.5036 7.65531 15.5823 5.95227C15.6552 4.41627 16.573 2.07003 18.3509 1.79547C18.7308 1.72371 19.1231 1.75488 19.4869 1.88574C19.8507 2.01661 20.1729 2.2424 20.4201 2.53972C20.6673 2.83704 20.8304 3.19507 20.8927 3.57668C20.9549 3.95829 20.9139 4.3496 20.774 4.71003Z" fill="#CE7A63"/>
<path d="M18.6332 4.65244C18.5909 4.78876 18.4873 4.88284 18.3989 4.86172C18.3106 4.8406 18.2741 4.71388 18.3145 4.57756C18.3548 4.44124 18.4623 4.34908 18.5506 4.3702C18.6389 4.39132 18.6754 4.51804 18.6332 4.65244Z" fill="#263238"/>
<path d="M16.9339 4.19333C16.8917 4.32773 16.7861 4.42181 16.6978 4.40069C16.6095 4.37957 16.573 4.25285 16.6152 4.11845C16.6575 3.98405 16.7631 3.88805 16.8514 3.90917C16.9397 3.93029 16.9762 4.05317 16.9339 4.19333Z" fill="#263238"/>
<path d="M16.8877 3.92869L16.592 3.75781C16.592 3.75781 16.6804 4.05541 16.8877 3.92869Z" fill="#263238"/>
<path d="M17.4273 4.47656C17.2109 4.75849 16.9593 5.01144 16.6785 5.2292C16.734 5.29478 16.8036 5.3471 16.882 5.38232C16.9604 5.41753 17.0457 5.43476 17.1316 5.43272L17.4273 4.47656Z" fill="#BA4D3C"/>
<path d="M19.1495 3.86857C19.1386 3.86762 19.1281 3.86419 19.1188 3.85853C19.1095 3.85287 19.1016 3.84513 19.0957 3.83593C19.0433 3.74995 18.9701 3.67851 18.8829 3.62819C18.7957 3.57787 18.6972 3.55027 18.5965 3.54793C18.586 3.54819 18.5756 3.54634 18.5658 3.5425C18.556 3.53866 18.5471 3.5329 18.5396 3.52556C18.5321 3.51823 18.5261 3.50946 18.522 3.49979C18.518 3.49011 18.5159 3.47971 18.5159 3.46921C18.5172 3.44674 18.5268 3.42555 18.5427 3.40964C18.5586 3.39372 18.5798 3.38418 18.6023 3.38281C18.7295 3.38503 18.8542 3.41883 18.9651 3.48116C19.076 3.5435 19.1697 3.63242 19.2378 3.73993C19.2452 3.75415 19.2486 3.77012 19.2477 3.78613C19.2467 3.80215 19.2414 3.81759 19.2323 3.83081C19.2232 3.84404 19.2107 3.85454 19.1961 3.86119C19.1815 3.86784 19.1654 3.8704 19.1495 3.86857Z" fill="#263238"/>
<path d="M16.569 3.05773C16.5595 3.05387 16.5509 3.04814 16.5436 3.04089C16.5363 3.03363 16.5306 3.025 16.5268 3.01549C16.52 2.99486 16.5217 2.97242 16.5314 2.95302C16.5411 2.93362 16.5581 2.91882 16.5786 2.91181C16.7016 2.86007 16.8348 2.83732 16.968 2.84531C17.1011 2.8533 17.2307 2.89182 17.3466 2.95789C17.3552 2.96396 17.3625 2.97173 17.368 2.98074C17.3735 2.98974 17.3771 2.99978 17.3785 3.01023C17.38 3.02067 17.3792 3.03131 17.3764 3.04146C17.3735 3.05162 17.3686 3.06108 17.362 3.06925C17.3486 3.08673 17.3292 3.09859 17.3075 3.1025C17.2858 3.1064 17.2635 3.10208 17.2448 3.09037C17.1523 3.03863 17.049 3.00895 16.9432 3.00362C16.8373 2.99829 16.7316 3.01747 16.6343 3.05965C16.6238 3.06368 16.6127 3.06558 16.6014 3.06525C16.5902 3.06492 16.5792 3.06236 16.569 3.05773Z" fill="#263238"/>
<path d="M18.587 4.38963L18.2932 4.21875C18.2932 4.21875 18.3796 4.51251 18.587 4.38963Z" fill="#263238"/>
<path d="M12.2549 17.364H10.596C10.5154 17.3605 10.4381 17.3309 10.3758 17.2796C10.3135 17.2284 10.2695 17.1583 10.2504 17.0799L9.48243 13.4856C9.4726 13.4519 9.47098 13.4162 9.47771 13.3817C9.48444 13.3472 9.49931 13.3148 9.5211 13.2871C9.54289 13.2595 9.57096 13.2375 9.60297 13.223C9.63499 13.2084 9.67002 13.2017 9.70515 13.2034H11.364C11.4444 13.2068 11.5215 13.2362 11.5838 13.287C11.6461 13.3379 11.6902 13.4076 11.7096 13.4856L12.4776 17.0799C12.4874 17.1137 12.489 17.1494 12.4822 17.184C12.4755 17.2186 12.4606 17.2511 12.4389 17.2789C12.4172 17.3066 12.3891 17.3288 12.3572 17.3436C12.3252 17.3584 12.2901 17.3654 12.2549 17.364Z" fill="#263238"/>
<path d="M12.0628 17.364H10.4039C10.3233 17.3605 10.246 17.3309 10.1837 17.2796C10.1213 17.2284 10.0773 17.1583 10.0583 17.0799L9.29029 13.4856C9.28046 13.4519 9.27884 13.4162 9.28557 13.3817C9.2923 13.3472 9.30717 13.3148 9.32896 13.2871C9.35075 13.2595 9.37882 13.2375 9.41083 13.223C9.44285 13.2084 9.47788 13.2017 9.51301 13.2034H11.1719C11.2522 13.2068 11.3293 13.2362 11.3916 13.287C11.4539 13.3379 11.4981 13.4076 11.5175 13.4856L12.2855 17.0799C12.2952 17.1137 12.2968 17.1494 12.2901 17.184C12.2833 17.2186 12.2685 17.2511 12.2468 17.2789C12.225 17.3066 12.197 17.3288 12.165 17.3436C12.133 17.3584 12.098 17.3654 12.0628 17.364Z" fill="#263238"/>
<path opacity="0.2" d="M12.0628 17.364H10.4039C10.3233 17.3605 10.246 17.3309 10.1837 17.2796C10.1213 17.2284 10.0773 17.1583 10.0583 17.0799L9.29029 13.4856C9.28046 13.4519 9.27884 13.4162 9.28557 13.3817C9.2923 13.3472 9.30717 13.3148 9.32896 13.2871C9.35075 13.2595 9.37882 13.2375 9.41083 13.223C9.44285 13.2084 9.47788 13.2017 9.51301 13.2034H11.1719C11.2522 13.2068 11.3293 13.2362 11.3916 13.287C11.4539 13.3379 11.4981 13.4076 11.5175 13.4856L12.2855 17.0799C12.2952 17.1137 12.2968 17.1494 12.2901 17.184C12.2833 17.2186 12.2685 17.2511 12.2468 17.2789C12.225 17.3066 12.197 17.3288 12.165 17.3436C12.133 17.3584 12.098 17.3654 12.0628 17.364Z" fill="white"/>
<path d="M11.4677 15.2528L11.9823 15.1395C12.0773 15.1184 12.176 15.1203 12.2702 15.1451C12.3643 15.1698 12.4512 15.2166 12.5237 15.2816L13.2111 15.8998C13.3458 16.0222 13.4496 16.1747 13.514 16.3449C13.5784 16.5151 13.6016 16.6981 13.5816 16.879L13.5547 17.1056C12.7157 17.3532 11.6347 17.0038 11.6347 17.0038L11.3122 16.9385C11.2458 16.927 11.1823 16.9023 11.1256 16.8661C11.0688 16.8298 11.0197 16.7826 10.9813 16.7272C10.9429 16.6719 10.9159 16.6094 10.9018 16.5435C10.8878 16.4776 10.8869 16.4096 10.8994 16.3433L11.0203 15.704C11.044 15.5939 11.0987 15.4929 11.178 15.4129C11.2573 15.333 11.3578 15.2774 11.4677 15.2528Z" fill="#CE7A63"/>
<path d="M20.3169 11.5048C20.0354 11.478 19.7547 11.5641 19.5366 11.7441C19.3184 11.9241 19.1806 12.1833 19.1534 12.4648V12.5013C19.1342 12.6933 19.1092 12.9275 19.0843 13.1445C19.0593 13.3614 19.0286 13.5861 18.996 13.8069C18.9307 14.2504 18.8519 14.6881 18.7636 15.1221C18.6753 15.556 18.5716 15.9822 18.4468 16.3989C18.3451 16.7329 18.2279 17.0555 18.1031 17.3704C17.9483 17.3766 17.7933 17.367 17.6404 17.3416C17.1446 17.2671 16.6545 17.1586 16.1735 17.0171C15.7223 16.875 15.2673 16.7099 14.8123 16.5371C14.3572 16.3643 13.8984 16.1781 13.451 15.9995H13.4395C13.3191 15.9495 13.1846 15.9453 13.0614 15.9879C12.9382 16.0305 12.835 16.1169 12.7713 16.2306C12.7075 16.3443 12.6878 16.4774 12.7158 16.6047C12.7437 16.732 12.8175 16.8446 12.923 16.9211C13.3454 17.2321 13.7716 17.4971 14.2113 17.7736C14.651 18.0501 15.106 18.2862 15.5803 18.5147C16.1262 18.754 16.6914 18.9467 17.2699 19.0907C17.5828 19.177 17.9053 19.2235 18.2299 19.2289C18.4472 19.2315 18.6637 19.1997 18.8711 19.1349C19.1621 19.0458 19.4217 18.8761 19.62 18.6453C19.6544 18.6024 19.6852 18.5569 19.7121 18.5089L19.7313 18.4725C19.9796 18.0153 20.1951 17.5412 20.3764 17.0536C20.5513 16.5782 20.7 16.0937 20.8219 15.6021C20.9467 15.1163 21.0427 14.6267 21.1214 14.1352C21.1579 13.8875 21.1905 13.6417 21.2193 13.3941C21.2481 13.1464 21.2692 12.9064 21.2827 12.6261C21.2973 12.3507 21.205 12.0803 21.025 11.8714C20.8451 11.6625 20.5914 11.5311 20.3169 11.5048Z" fill="#CE7A63"/>
<path d="M20.6374 10.6562C21.8239 11.4953 21.8815 12.751 21.2402 15.1548C20.382 15.5849 18.2969 15.0415 18.2969 15.0415C18.2969 15.0415 18.9535 11.3091 20.6374 10.6562Z" fill="#6463FD"/>
<path d="M16.3676 5.89745C16.3676 5.89745 16.9436 5.78417 18.5084 5.83217C18.3164 6.30065 17.9554 6.67313 17.1471 6.64817C16.9531 6.6608 16.762 6.59591 16.6158 6.46774C16.4697 6.33958 16.3804 6.15862 16.3676 5.96465C16.3676 5.94161 16.3656 5.92049 16.3676 5.89745Z" fill="#263238"/>
<path d="M17.5311 6.27874C17.2212 6.25246 16.9108 6.32433 16.644 6.48418C16.7915 6.58559 16.9662 6.63982 17.1452 6.6397C17.4545 6.6669 17.7645 6.59495 18.0303 6.43426C17.8845 6.33093 17.7097 6.27649 17.5311 6.27874Z" fill="#BA4D3C"/>
<path d="M16.4385 5.88877C16.4528 5.94684 16.4828 5.99989 16.5251 6.04219C16.5674 6.08449 16.6204 6.11443 16.6785 6.12877C17.1458 6.14198 17.6134 6.11564 18.0762 6.05005C18.15 6.04519 18.2215 6.02235 18.2844 5.98353C18.3473 5.94471 18.3998 5.89108 18.4372 5.82733C17.7704 5.795 17.102 5.81555 16.4385 5.88877Z" fill="white"/>
<path d="M18.3643 1.69457C18.2636 1.70993 18.1641 1.73238 18.0667 1.76177V1.85393C18.3192 1.85053 18.5707 1.88748 18.8116 1.96337C20.1403 2.36849 20.3476 3.11537 19.9022 4.21937C19.6891 4.74545 19.5739 5.86097 19.8196 6.07025C19.883 6.12401 20.075 6.11633 20.3246 6.07025C20.4897 5.68625 20.6471 5.23889 20.8487 4.67441C20.9906 4.30527 21.0313 3.90496 20.9667 3.51482C20.9021 3.12468 20.7345 2.75886 20.4813 2.45513C20.228 2.1514 19.8983 1.92077 19.5262 1.78707C19.154 1.65337 18.7529 1.62144 18.3643 1.69457Z" fill="#263238"/>
<path d="M20.9255 6.17291C20.8024 6.30153 20.6551 6.40443 20.4919 6.47562C20.3288 6.54682 20.1531 6.58489 19.9751 6.58763C19.5143 6.58763 19.4413 6.11147 19.7005 5.71595C19.9329 5.36075 20.4513 4.93259 20.8525 5.12651C21.2538 5.32043 21.2442 5.84459 20.9255 6.17291Z" fill="#CE7A63"/>
<g opacity="0.9">
<path d="M18.0937 14.3272C14.8604 14.1352 13.4012 13.5304 12.8194 13.1925C12.8007 13.1826 12.7833 13.1703 12.7676 13.156C12.6005 13.0101 12.8118 12.7432 13.0057 12.8546C13.5145 13.1484 14.9161 13.7455 18.1167 13.9432C18.1673 13.9462 18.2147 13.9691 18.2485 14.0068C18.2823 14.0446 18.2998 14.0942 18.2972 14.1448C18.296 14.1702 18.2897 14.1951 18.2788 14.2181C18.2679 14.2411 18.2525 14.2616 18.2336 14.2786C18.2146 14.2955 18.1925 14.3086 18.1685 14.3169C18.1445 14.3253 18.119 14.3288 18.0937 14.3272Z" fill="white"/>
</g>
<path d="M18.0896 2.32818C18.025 2.35548 17.9524 2.35651 17.8871 2.33104C17.8219 2.30558 17.7691 2.25564 17.7401 2.19186C17.714 2.12694 17.7052 2.05633 17.7146 1.98698C17.724 1.91763 17.7514 1.85193 17.7939 1.79634C17.8799 1.68514 17.992 1.59679 18.1203 1.53906C18.0116 1.66812 17.9358 1.82163 17.8995 1.98642C17.9033 2.13618 17.9494 2.37618 18.0896 2.32818Z" fill="#263238"/>
<path d="M19.6929 6.25337C19.6925 6.27099 19.6884 6.28834 19.6808 6.30426C19.6733 6.32019 19.6624 6.33433 19.649 6.34576C19.6356 6.35718 19.6199 6.36564 19.603 6.37056C19.586 6.37549 19.5682 6.37677 19.5508 6.37432C19.5156 6.36671 19.4832 6.34935 19.4574 6.32423C19.4316 6.2991 19.4134 6.26723 19.4049 6.23225C19.3904 6.16129 19.3904 6.08816 19.4049 6.0172C19.4165 5.85359 19.4561 5.69319 19.522 5.54297C19.5883 5.39148 19.7088 5.27026 19.8599 5.20312C19.8869 5.23514 19.9041 5.27423 19.9096 5.31575C19.915 5.35726 19.9084 5.39947 19.8906 5.43737C19.8511 5.50487 19.8061 5.56908 19.7562 5.62937C19.6984 5.71515 19.6608 5.81301 19.6465 5.91549C19.6322 6.01798 19.6415 6.12237 19.6737 6.22073C19.689 6.22457 19.6775 6.25145 19.6929 6.25337Z" fill="#263238"/>
</svg>
