<svg width="16" height="16" viewBox="0 0 16 16" fill="none" xmlns="http://www.w3.org/2000/svg">
<path d="M15 4H1C0.449 4 0 4.449 0 5V14C0 14.552 0.449 15 1 15H15C15.552 15 16 14.552 16 14V5C16 4.449 15.552 4 15 4Z" fill="#5034C4"/>
<path d="M16 6H0V9H16V6Z" fill="#E9E6FD"/>
<path d="M4.5 12H2.5C2.224 12 2 11.776 2 11.5C2 11.224 2.224 11 2.5 11H4.5C4.776 11 5 11.224 5 11.5C5 11.776 4.776 12 4.5 12Z" fill="#FAFAFA"/>
<path d="M16 8.946V5C16 4.449 15.552 4 15 4H7V5C7 8.132 8.192 10.039 11.256 11.803C11.482 11.932 11.74 12 12 12C12.26 12 12.518 11.932 12.747 11.801C14.263 10.93 15.319 10.021 16 8.946Z" fill="#FAFAFA"/>
<path d="M15.697 2.5405L12.197 1.0405C12.07 0.9865 11.929 0.9865 11.802 1.0405L8.302 2.5405C8.119 2.6185 8 2.7995 8 2.9995V4.9995C8 7.7505 9.017 9.3585 11.751 10.9335C11.828 10.9775 11.914 10.9995 12 10.9995C12.086 10.9995 12.172 10.9775 12.249 10.9335C14.983 9.3625 16 7.7545 16 4.9995V2.9995C16 2.7995 15.881 2.6185 15.697 2.5405Z" fill="#5034C4"/>
<path d="M11.4999 7.50169C11.4929 7.50169 11.4849 7.50169 11.4789 7.50169C11.3199 7.49469 11.1729 7.41269 11.0839 7.27969L10.0839 5.77969C9.93091 5.54969 9.99291 5.23969 10.2229 5.08669C10.4509 4.93469 10.7619 4.99469 10.9159 5.22569L11.5369 6.15669L13.1089 4.19069C13.2819 3.97569 13.5969 3.94169 13.8119 4.11269C14.0279 4.28569 14.0619 4.59969 13.8899 4.81569L11.8899 7.31569C11.7949 7.43269 11.6509 7.50169 11.4999 7.50169Z" fill="#FAFAFA"/>
</svg>
