<svg width="45" height="45" viewBox="0 0 45 45" fill="none" xmlns="http://www.w3.org/2000/svg">
<g clip-path="url(#clip0_1_69500)">
<rect width="45" height="45" rx="22.5" fill="#5034C4" fill-opacity="0.3"/>
<ellipse cx="8.09567" cy="22.8144" rx="12.5117" ry="14.4042" fill="#5034C4"/>
<path d="M25.2338 24.4941C25.2338 32.4493 15.497 35.1132 10.6193 35.1132C5.74166 35.1132 5.36231 26.702 5.36231 25.0198C5.36231 11.9824 11.5244 10.0899 16.402 10.0899C21.2797 10.0899 25.2338 16.5388 25.2338 24.4941Z" fill="#5D42CD"/>
<g clip-path="url(#clip1_1_69500)">
<path d="M52.1482 38.6779C52.1482 41.1903 50.1114 43.2271 47.599 43.2271H13.5678C11.0553 43.2271 9.01855 41.1903 9.01855 38.6779V7.00233C9.01855 4.48987 11.0553 2.45312 13.5678 2.45312H47.599C50.1114 2.45312 52.1482 4.48987 52.1482 7.00233V38.6779Z" fill="white"/>
<path d="M52.1482 38.8674C52.1482 41.2752 50.1963 43.2271 47.7885 43.2271H13.3782C10.9704 43.2271 9.01855 41.2752 9.01855 38.8674V6.81278C9.01855 4.40501 10.9704 2.45312 13.3782 2.45312H47.7885C50.1963 2.45312 52.1482 4.40501 52.1482 6.81278V38.8674ZM9.65579 38.265C9.65579 40.6727 11.6077 42.6246 14.0154 42.6246H47.1513C49.5591 42.6246 51.511 40.6727 51.511 38.265V7.41521C51.511 5.00744 49.5591 3.05556 47.1513 3.05556H14.0154C11.6077 3.05556 9.65579 5.00744 9.65579 7.41521V38.265Z" fill="#E9E6FD"/>
<path d="M44.506 8.83203H25.8291V9.38205H44.506V8.83203Z" fill="#E9E6FD"/>
<path d="M44.506 10.2617H25.8291V10.8117H44.506V10.2617Z" fill="#E9E6FD"/>
<path d="M44.506 11.6953H25.8291V12.2453H44.506V11.6953Z" fill="#E9E6FD"/>
<path d="M44.506 21.1094H25.8291V21.6594H44.506V21.1094Z" fill="#E9E6FD"/>
<path d="M44.506 22.543H25.8291V23.093H44.506V22.543Z" fill="#E9E6FD"/>
<path d="M44.506 23.9727H25.8291V24.5227H44.506V23.9727Z" fill="#E9E6FD"/>
<path d="M44.506 33.3867H25.8291V33.9367H44.506V33.3867Z" fill="#E9E6FD"/>
<path d="M44.506 34.8203H25.8291V35.3703H44.506V34.8203Z" fill="#E9E6FD"/>
<path d="M44.506 36.2539H25.8291V36.8039H44.506V36.2539Z" fill="#E9E6FD"/>
<path d="M18.3539 13.2143C18.0348 13.0553 17.7018 12.9228 17.3585 12.8183L17.3147 12.3605L15.5395 12.1797L15.3139 12.7648L14.6768 12.9908C14.654 12.999 14.6323 13.0097 14.6122 13.0226H14.6115C14.5759 13.0454 14.5456 13.0747 14.5225 13.1088C14.4993 13.143 14.4838 13.1813 14.4768 13.2213C14.47 13.2611 14.4716 13.3018 14.4815 13.341L14.5152 13.4715C14.5637 13.4989 14.6135 13.525 14.6633 13.5498L14.695 13.5651C14.7677 13.6007 14.8418 13.6345 14.9179 13.6657C14.9334 13.672 14.9502 13.6784 14.9657 13.6848C14.9671 13.6854 14.9677 13.6854 14.9691 13.6861C15.0048 13.7001 15.0405 13.7134 15.0768 13.7262C15.1963 13.7693 15.3182 13.8063 15.4419 13.8369C15.7576 13.9165 16.0829 13.9567 16.4096 13.9566C16.5288 13.9566 16.6467 13.9515 16.7632 13.9407C17.0294 13.9175 17.2922 13.8673 17.5471 13.7911C17.5478 13.7911 17.5484 13.7905 17.5491 13.7905C17.7101 13.742 17.8674 13.683 18.0199 13.6141C18.0205 13.6135 18.0219 13.6135 18.0226 13.6128C18.0569 13.5976 18.0899 13.581 18.1236 13.5651L18.1397 13.5574C18.1667 13.5441 18.1936 13.5307 18.2206 13.5167C18.2879 13.4817 18.3539 13.4448 18.4192 13.4053C18.4374 13.3951 18.4549 13.3843 18.4731 13.3728C18.4987 13.3569 18.5243 13.3403 18.5492 13.3231C18.4866 13.285 18.4212 13.2487 18.3539 13.2143Z" fill="#FF5FCD"/>
<path d="M15.0204 13.4939L14.9093 13.0195H14.6191C14.6161 13.0196 14.6132 13.0198 14.6103 13.0202H14.6096C14.5053 13.0285 14.4049 13.0613 14.3174 13.1157C14.258 13.1515 14.2052 13.1962 14.1611 13.2481C14.2473 13.3099 14.3369 13.3672 14.4292 13.4219L14.4332 13.4238C14.4595 13.4391 14.4864 13.4544 14.5134 13.469C14.5618 13.4964 14.6117 13.5225 14.6615 13.5473L14.6932 13.5626C14.7659 13.5983 14.84 13.632 14.9161 13.6632C14.9316 13.6696 14.9484 13.6759 14.9639 13.6823C14.9652 13.6829 14.9659 13.6829 14.9672 13.6836C15.003 13.6976 15.0386 13.711 15.075 13.7237L15.0204 13.4939Z" fill="#3F3D56"/>
<path d="M16.3586 11.8901C17.0647 11.8901 17.6371 11.3489 17.6371 10.6814C17.6371 10.0138 17.0647 9.47266 16.3586 9.47266C15.6525 9.47266 15.0801 10.0138 15.0801 10.6814C15.0801 11.3489 15.6525 11.8901 16.3586 11.8901Z" fill="#FFB8B8"/>
<path d="M15.4982 10.0915C15.6306 10.2396 15.8546 10.2814 16.0612 10.2985C16.5442 10.3237 17.0287 10.2863 17.501 10.1873C17.5303 10.4555 17.4505 10.7447 17.6176 10.9653C17.6959 10.6982 17.7414 10.4235 17.7533 10.1466C17.7658 10.0278 17.7494 9.90782 17.7053 9.79592C17.6818 9.73984 17.6421 9.69113 17.5907 9.65533C17.5393 9.61952 17.4784 9.59806 17.4147 9.59338C17.51 9.52507 17.6215 9.47997 17.7396 9.46208L17.3336 9.26921L17.4379 9.16802L16.7029 9.1255L16.9158 8.99765C16.5954 8.95603 16.2713 8.94636 15.9487 8.96879C15.798 8.96886 15.6502 9.00771 15.521 9.08119C15.3997 9.16323 15.3295 9.32628 15.4049 9.44673C15.3106 9.46137 15.2218 9.49854 15.1469 9.5547C15.072 9.61086 15.0135 9.68417 14.977 9.76767C14.9308 9.9004 14.9197 10.0418 14.9445 10.1795C14.9722 10.4005 15.0266 10.6178 15.1065 10.8271L15.4982 10.0915Z" fill="#2F2E41"/>
<path d="M19.9522 9.36913C19.7729 8.88194 19.4832 8.4376 19.1035 8.06711C18.7238 7.69661 18.2632 7.40888 17.7538 7.22397C17.2444 7.03906 16.6985 6.96143 16.1541 6.99648C15.6096 7.03154 15.0799 7.17844 14.6017 7.42694C14.1235 7.67544 13.7084 8.01956 13.3854 8.43531C13.0623 8.85105 12.8391 9.32841 12.7312 9.8341C12.6234 10.3398 12.6335 10.8616 12.7609 11.3632C12.8883 11.8648 13.1299 12.3341 13.4689 12.7384C13.5026 12.7785 13.5376 12.8186 13.5733 12.8575C13.576 12.86 13.578 12.8626 13.5807 12.8651C13.6685 12.9607 13.7618 13.0517 13.8602 13.1376C13.8858 13.1599 13.9127 13.1828 13.9396 13.2045C13.9908 13.2477 14.0434 13.2891 14.0979 13.3286C14.1194 13.3445 14.1403 13.3604 14.1626 13.3757C14.2487 13.4375 14.3383 13.4948 14.4306 13.5495L14.4346 13.5514C14.4609 13.5667 14.4878 13.582 14.5148 13.5966C14.5633 13.624 14.6131 13.6501 14.6629 13.675L14.6946 13.6902C14.7673 13.7259 14.8414 13.7596 14.9175 13.7908C14.933 13.7972 14.9498 13.8036 14.9653 13.8099C14.9667 13.8106 14.9673 13.8106 14.9687 13.8112C15.0044 13.8252 15.0401 13.8386 15.0764 13.8513C15.1959 13.8945 15.3177 13.9314 15.4414 13.9621C15.7571 14.0416 16.0825 14.0819 16.4092 14.0818C16.5284 14.0818 16.6463 14.0767 16.7628 14.0659C17.029 14.0426 17.2918 13.9925 17.5467 13.9163C17.5473 13.9163 17.548 13.9156 17.5487 13.9156C17.7097 13.8671 17.867 13.8082 18.0194 13.7393C18.0201 13.7386 18.0215 13.7386 18.0221 13.738C18.0565 13.7227 18.0895 13.7062 18.1232 13.6902L18.1393 13.6826C18.1662 13.6692 18.1932 13.6559 18.2201 13.6418C18.2875 13.6068 18.3535 13.5699 18.4188 13.5304C18.437 13.5202 18.4545 13.5094 18.4727 13.498C18.4983 13.482 18.5239 13.4655 18.5488 13.4483C18.5818 13.4267 18.6148 13.4044 18.6471 13.3814C18.6572 13.3744 18.668 13.3674 18.6781 13.3598C19.309 12.9071 19.7721 12.2771 20.001 11.5602C20.2299 10.8433 20.2128 10.0763 19.9522 9.36913V9.36913ZM18.5542 13.2051C18.5319 13.2216 18.5091 13.2376 18.4861 13.2522C18.4639 13.2681 18.4417 13.2834 18.4188 13.2974C18.3993 13.3108 18.3797 13.3235 18.3595 13.3356L18.3535 13.3394C18.3387 13.349 18.3239 13.3579 18.309 13.3668C18.2531 13.3999 18.1965 13.4317 18.1393 13.4623L18.1211 13.4719C18.0955 13.4852 18.07 13.498 18.0444 13.5107C18.041 13.5126 18.0369 13.5139 18.0336 13.5158L18.0295 13.5177C17.9972 13.5336 17.9642 13.5489 17.9312 13.5635C17.8039 13.6215 17.6727 13.6717 17.5386 13.7138C17.5211 13.7195 17.5036 13.7253 17.4861 13.7303C17.2448 13.8029 16.996 13.8507 16.7439 13.873C16.6335 13.8825 16.5217 13.8876 16.4092 13.8876C16.1002 13.8882 15.7924 13.8501 15.494 13.7743C15.3408 13.7365 15.1907 13.6884 15.0448 13.6304C15.0374 13.6272 15.0293 13.6247 15.0219 13.6215C15.0138 13.6183 15.0064 13.6157 14.999 13.6126C14.9909 13.6094 14.9835 13.6062 14.9754 13.6024C14.9121 13.5763 14.8495 13.5476 14.7882 13.5177L14.7586 13.5031C14.6838 13.4661 14.6104 13.4267 14.539 13.3846C14.5181 13.3725 14.4966 13.3598 14.4764 13.3464C14.471 13.3432 14.4663 13.3401 14.4609 13.3369C14.4131 13.307 14.3653 13.2758 14.3188 13.2433C14.2872 13.221 14.2555 13.1987 14.2245 13.1758C14.1727 13.1389 14.1228 13.0994 14.0743 13.0587C14.0487 13.0383 14.0238 13.016 13.9996 12.995C13.9041 12.9116 13.8137 12.8232 13.7289 12.7301C13.7006 12.6996 13.673 12.669 13.6467 12.6372C13.6407 12.6309 13.6351 12.6243 13.6298 12.6174C13.1923 12.0954 12.9291 11.4621 12.8738 10.7981C12.8186 10.1341 12.9738 9.4696 13.3196 8.88934C13.6655 8.30908 14.1863 7.83935 14.8157 7.54005C15.445 7.24076 16.1544 7.12547 16.8534 7.20888C17.5524 7.29229 18.2092 7.57063 18.7402 8.00839C19.2711 8.44616 19.6522 9.02351 19.8346 9.66682C20.0171 10.3101 19.9927 10.9902 19.7647 11.6204C19.5366 12.2506 19.1152 12.8023 18.5542 13.2051L18.5542 13.2051Z" fill="#3F3D56"/>
<path d="M19.9522 21.6504C19.7729 21.1632 19.4832 20.7188 19.1035 20.3484C18.7238 19.9779 18.2632 19.6901 17.7538 19.5052C17.2444 19.3203 16.6985 19.2427 16.1541 19.2777C15.6096 19.3128 15.0799 19.4597 14.6017 19.7082C14.1235 19.9567 13.7084 20.3008 13.3854 20.7166C13.0623 21.1323 12.8391 21.6097 12.7312 22.1153C12.6234 22.621 12.6335 23.1429 12.7609 23.6445C12.8883 24.1461 13.1299 24.6154 13.4689 25.0197C13.5025 25.0598 13.5376 25.0999 13.5732 25.1387C13.5759 25.1413 13.578 25.1438 13.5806 25.1463C13.6685 25.242 13.7618 25.3329 13.8602 25.4188C13.8857 25.4411 13.9127 25.4641 13.9396 25.4857C13.9908 25.529 14.0433 25.5704 14.0979 25.6099C14.2044 25.6892 14.3155 25.763 14.4306 25.8308L14.4346 25.8327C14.5093 25.8766 14.5854 25.9174 14.6629 25.9562L14.6945 25.9715C14.7673 26.0071 14.8414 26.0409 14.9175 26.0721C14.933 26.0784 14.9498 26.0848 14.9653 26.0912C14.9666 26.0918 14.9673 26.0918 14.9687 26.0924C15.1224 26.1529 15.2804 26.2033 15.4414 26.2433C15.7571 26.3229 16.0825 26.3631 16.4092 26.363C16.5284 26.363 16.6462 26.3579 16.7627 26.3471C17.0289 26.3239 17.2918 26.2737 17.5466 26.1975C17.5473 26.1975 17.548 26.1969 17.5487 26.1969C17.7097 26.1484 17.867 26.0894 18.0194 26.0205C18.0201 26.0199 18.0215 26.0199 18.0221 26.0192C18.0564 26.004 18.0895 25.9874 18.1231 25.9715L18.1393 25.9638C18.1662 25.9505 18.1932 25.9371 18.2201 25.9231C18.2874 25.8881 18.3534 25.8511 18.4188 25.8117C18.437 25.8015 18.4545 25.7907 18.4726 25.7792C18.5319 25.7423 18.5905 25.7028 18.6471 25.6627C18.6572 25.6557 18.6679 25.6487 18.6781 25.641C19.309 25.1883 19.7721 24.5583 20.001 23.8414C20.2299 23.1245 20.2128 22.3575 19.9522 21.6504V21.6504Z" fill="white"/>
<path d="M17.6453 24.278C17.9558 24.278 18.2075 24.04 18.2075 23.7464C18.2075 23.4528 17.9558 23.2148 17.6453 23.2148C17.3347 23.2148 17.083 23.4528 17.083 23.7464C17.083 24.04 17.3347 24.278 17.6453 24.278Z" fill="#2F2E41"/>
<path d="M17.8042 23.2316C17.9015 23.2316 17.9972 23.2555 18.0818 23.3009C18.1664 23.3463 18.2371 23.4118 18.287 23.4908C18.3369 23.5697 18.3643 23.6596 18.3664 23.7516C18.3685 23.8436 18.3454 23.9345 18.2992 24.0155C18.3479 23.9578 18.3834 23.8912 18.4034 23.8199C18.4234 23.7485 18.4275 23.674 18.4153 23.6011C18.4032 23.5282 18.3751 23.4585 18.3329 23.3964C18.2907 23.3343 18.2352 23.2812 18.1701 23.2405C18.105 23.1998 18.0316 23.1724 17.9547 23.1599C17.8777 23.1475 17.7989 23.1504 17.7231 23.1683C17.6474 23.1863 17.5765 23.219 17.5149 23.2643C17.4532 23.3096 17.4023 23.3666 17.3652 23.4315C17.4178 23.3692 17.4846 23.3188 17.5606 23.2842C17.6366 23.2495 17.7199 23.2316 17.8043 23.2316L17.8042 23.2316Z" fill="#2F2E41"/>
<path d="M16.597 23.7441C17.5093 23.7441 18.2488 23.045 18.2488 22.1826C18.2488 21.3202 17.5093 20.6211 16.597 20.6211C15.6848 20.6211 14.9453 21.3202 14.9453 22.1826C14.9453 23.045 15.6848 23.7441 16.597 23.7441Z" fill="#2F2E41"/>
<path d="M15.2986 21.2116C15.5832 20.9091 15.981 20.7228 16.4081 20.6923C16.8352 20.6617 17.2582 20.7892 17.5877 21.0479C17.5742 21.0357 17.5607 21.0235 17.5468 21.0117C17.2205 20.7354 16.7915 20.5929 16.3541 20.6156C15.9167 20.6384 15.5067 20.8244 15.2144 21.1329C14.9221 21.4413 14.7714 21.8469 14.7955 22.2604C14.8195 22.674 15.0163 23.0615 15.3426 23.3378C15.3457 23.3405 15.3489 23.3431 15.352 23.3458C15.366 23.3576 15.3804 23.3687 15.3948 23.38C15.0845 23.1009 14.901 22.7187 14.8831 22.3142C14.8651 21.9096 15.0141 21.5143 15.2987 21.2116L15.2986 21.2116Z" fill="#2F2E41"/>
<path d="M16.5804 23.7301C17.1679 23.7301 17.6442 23.2799 17.6442 22.7244C17.6442 22.169 17.1679 21.7188 16.5804 21.7188C15.9929 21.7188 15.5166 22.169 15.5166 22.7244C15.5166 23.2799 15.9929 23.7301 16.5804 23.7301Z" fill="#A0616A"/>
<path d="M18.4856 25.3462V25.6837C18.4203 25.7231 18.3543 25.7601 18.2869 25.7951C18.26 25.8091 18.2331 25.8225 18.2061 25.8358L18.1899 25.8435C18.1563 25.8594 18.1233 25.8759 18.0889 25.8912C18.0883 25.8919 18.0869 25.8919 18.0862 25.8925C17.9338 25.9614 17.7765 26.0204 17.6155 26.0688C17.6148 26.0688 17.6141 26.0695 17.6135 26.0695C17.3586 26.1457 17.0958 26.1959 16.8295 26.2191C16.713 26.2299 16.5952 26.235 16.476 26.235C16.1493 26.2351 15.8239 26.1949 15.5082 26.1153C15.3472 26.0753 15.1892 26.0249 15.0355 25.9644C15.0341 25.9638 15.0334 25.9638 15.0321 25.9632C15.0166 25.9568 14.9998 25.9504 14.9843 25.9441C14.9082 25.9129 14.8341 25.8791 14.7614 25.8435L14.7297 25.8282C14.6523 25.7893 14.5762 25.7486 14.5014 25.7047L14.4974 25.7028C14.3823 25.635 14.2712 25.5612 14.1647 25.4818C14.1101 25.4424 14.0576 25.401 14.0064 25.3577C13.9795 25.336 13.9526 25.3131 13.927 25.2908C13.8286 25.2049 13.7353 25.114 13.6475 25.0183C13.6591 24.952 13.6762 24.8867 13.6987 24.8229L13.6993 24.8222C13.7033 24.8114 13.7081 24.8007 13.7135 24.7904C13.7172 24.7813 13.7214 24.7723 13.7263 24.7637C13.8468 24.5504 14.065 24.4975 14.3357 24.4861C14.4886 24.4797 14.6576 24.4867 14.8361 24.4848C14.9304 24.4842 15.028 24.481 15.1257 24.4727C15.7419 24.4199 15.6302 24.0761 15.6577 23.8908C15.6854 23.7112 15.8564 23.8666 15.8679 23.8768L15.8685 23.8774C16.2172 24.0317 16.603 24.0956 16.9865 24.0627C17.0525 24.055 17.1185 24.0506 17.1845 24.0487C17.3582 24.0468 17.3205 24.0939 17.2606 24.1327C17.2315 24.1508 17.2011 24.167 17.1697 24.1811C17.1697 24.1811 17.142 24.3403 17.1138 24.5784C17.0868 24.8063 17.5488 24.9133 17.5872 24.9216C17.588 24.9221 17.5889 24.9223 17.5899 24.9222C17.7586 24.8808 17.9362 24.8852 18.1024 24.9349H18.1031C18.198 24.9679 18.2827 25.0229 18.3495 25.0947C18.4164 25.1665 18.4631 25.253 18.4856 25.3462Z" fill="#6C63FF"/>
<path d="M15.0415 25.7547C15.0415 25.8019 15.0401 25.8471 15.0381 25.8897C15.0374 25.9152 15.0361 25.94 15.0348 25.9636C15.0334 25.9629 15.0327 25.9629 15.0314 25.9623C15.0159 25.9559 14.999 25.9496 14.9835 25.9432C14.9075 25.912 14.8334 25.8783 14.7606 25.8426L14.729 25.8273C14.6515 25.7885 14.5754 25.7477 14.5007 25.7038C14.5027 25.6815 14.5061 25.6592 14.5094 25.637C14.5168 25.5879 14.5229 25.5383 14.527 25.4893C14.5534 25.1448 14.4874 24.7997 14.335 24.4859V24.4852C14.3215 24.4597 14.3135 24.4457 14.3135 24.4457C14.3135 24.4457 14.5094 24.2866 14.7889 24.4457C14.8068 24.4557 14.8225 24.4686 14.8354 24.4839C15.0038 24.6718 15.0495 25.3033 15.0415 25.7547Z" fill="#2F2E41"/>
<path d="M18.0992 25.6695C18.0965 25.7408 18.0925 25.8153 18.0878 25.8911V25.8917C18.0871 25.8924 18.0857 25.8924 18.0851 25.893C17.9326 25.9619 17.7753 26.0209 17.6143 26.0693C17.6136 26.0693 17.613 26.07 17.6123 26.07L17.6049 25.8911L17.6042 25.8675L17.5685 24.9966C17.5676 24.9768 17.5708 24.9571 17.5782 24.9387C17.5855 24.9202 17.5967 24.9033 17.6111 24.889C17.6255 24.8747 17.6428 24.8633 17.662 24.8556C17.6812 24.8478 17.7019 24.8438 17.7227 24.8438H18.0642C18.081 24.8438 18.0931 24.8762 18.1012 24.9348V24.9354C18.1178 25.1799 18.1171 25.4251 18.0992 25.6695Z" fill="#2F2E41"/>
<path d="M15.6719 21.4688V22.4747H15.9182L16.2317 22.1571L16.1898 22.4747H17.2787L17.2114 22.1571L17.3461 22.4747H17.5197V21.4688H15.6719Z" fill="#2F2E41"/>
<path d="M15.5039 22.6583C15.5503 22.6583 15.5879 22.5931 15.5879 22.5127C15.5879 22.4324 15.5503 22.3672 15.5039 22.3672C15.4575 22.3672 15.4199 22.4324 15.4199 22.5127C15.4199 22.5931 15.4575 22.6583 15.5039 22.6583Z" fill="#A0616A"/>
<path d="M17.6592 22.6583C17.7056 22.6583 17.7432 22.5931 17.7432 22.5127C17.7432 22.4324 17.7056 22.3672 17.6592 22.3672C17.6128 22.3672 17.5752 22.4324 17.5752 22.5127C17.5752 22.5931 17.6128 22.6583 17.6592 22.6583Z" fill="#A0616A"/>
<path d="M18.7148 25.5333C18.6582 25.5734 18.5996 25.6129 18.5404 25.6498C18.5222 25.6613 18.5047 25.6721 18.4865 25.6823C18.4212 25.7217 18.3552 25.7587 18.2878 25.7937C18.2609 25.8077 18.234 25.8211 18.207 25.8344V25.1328C18.207 25.1328 18.3148 25.2143 18.4865 25.3499C18.508 25.3671 18.5303 25.3849 18.5539 25.404C18.6037 25.4435 18.6576 25.4868 18.7148 25.5333Z" fill="#6C63FF"/>
<path d="M19.9522 21.6504C19.7729 21.1632 19.4832 20.7188 19.1035 20.3484C18.7238 19.9779 18.2632 19.6901 17.7538 19.5052C17.2444 19.3203 16.6985 19.2427 16.1541 19.2777C15.6096 19.3128 15.0799 19.4597 14.6017 19.7082C14.1235 19.9567 13.7084 20.3008 13.3854 20.7166C13.0623 21.1323 12.8391 21.6097 12.7312 22.1153C12.6234 22.621 12.6335 23.1429 12.7609 23.6445C12.8883 24.1461 13.1299 24.6154 13.4689 25.0197C13.5025 25.0598 13.5376 25.0999 13.5732 25.1387C13.5759 25.1413 13.578 25.1438 13.5806 25.1463C13.6685 25.242 13.7618 25.3329 13.8602 25.4188C13.8857 25.4411 13.9127 25.4641 13.9396 25.4857C13.9908 25.529 14.0433 25.5704 14.0979 25.6099C14.2044 25.6892 14.3155 25.763 14.4306 25.8308L14.4346 25.8327C14.5093 25.8766 14.5854 25.9174 14.6629 25.9562L14.6945 25.9715C14.7673 26.0071 14.8414 26.0409 14.9175 26.0721C14.933 26.0784 14.9498 26.0848 14.9653 26.0912C14.9666 26.0918 14.9673 26.0918 14.9687 26.0924C15.1224 26.1529 15.2804 26.2033 15.4414 26.2433C15.7571 26.3229 16.0825 26.3631 16.4092 26.363C16.5284 26.363 16.6462 26.3579 16.7627 26.3471C17.0289 26.3239 17.2918 26.2737 17.5466 26.1975C17.5473 26.1975 17.548 26.1969 17.5487 26.1969C17.7097 26.1484 17.867 26.0894 18.0194 26.0205C18.0201 26.0199 18.0215 26.0199 18.0221 26.0192C18.0564 26.004 18.0895 25.9874 18.1231 25.9715L18.1393 25.9638C18.1662 25.9505 18.1932 25.9371 18.2201 25.9231C18.2874 25.8881 18.3534 25.8511 18.4188 25.8117C18.437 25.8015 18.4545 25.7907 18.4726 25.7792C18.5319 25.7423 18.5905 25.7028 18.6471 25.6627C18.6572 25.6557 18.6679 25.6487 18.6781 25.641C19.309 25.1883 19.7721 24.5583 20.001 23.8414C20.2299 23.1245 20.2128 22.3575 19.9522 21.6504V21.6504ZM18.5541 25.4863C18.5319 25.5029 18.509 25.5188 18.4861 25.5334C18.4639 25.5494 18.4417 25.5646 18.4188 25.5786C18.3993 25.592 18.3797 25.6048 18.3595 25.6169C18.3427 25.6277 18.3258 25.6379 18.309 25.648C18.2531 25.6812 18.1966 25.713 18.1393 25.7435L18.1211 25.7531C18.0955 25.7665 18.0699 25.7792 18.0443 25.7919C18.0409 25.7938 18.0369 25.7951 18.0336 25.797L18.0295 25.7989C17.9972 25.8149 17.9642 25.8301 17.9312 25.8448C17.8038 25.9028 17.6727 25.9529 17.5386 25.995C17.5211 26.0008 17.5035 26.0065 17.486 26.0116C17.2448 26.0841 16.996 26.1319 16.7439 26.1542C16.6334 26.1638 16.5216 26.1688 16.4092 26.1688C16.1001 26.1694 15.7924 26.1313 15.4939 26.0555C15.3408 26.0177 15.1907 25.9696 15.0448 25.9116C15.0293 25.9059 15.0138 25.8995 14.999 25.8938C14.9909 25.8906 14.9835 25.8874 14.9754 25.8836C14.9121 25.8575 14.8495 25.8289 14.7882 25.7989L14.7585 25.7843C14.6838 25.7474 14.6104 25.7079 14.539 25.6659C14.5127 25.6506 14.4865 25.6347 14.4609 25.6181C14.38 25.5678 14.3013 25.5137 14.2245 25.457C14.1726 25.4201 14.1228 25.3806 14.0743 25.3399C14.0487 25.3195 14.0238 25.2972 13.9996 25.2762C13.9041 25.1929 13.8137 25.1044 13.7288 25.0114C13.7005 24.9808 13.6729 24.9503 13.6466 24.9184C13.6407 24.9121 13.6351 24.9055 13.6298 24.8987C13.1922 24.3767 12.9291 23.7433 12.8738 23.0793C12.8186 22.4153 12.9737 21.7508 13.3196 21.1706C13.6654 20.5903 14.1862 20.1206 14.8156 19.8213C15.445 19.522 16.1544 19.4067 16.8534 19.4901C17.5523 19.5735 18.2092 19.8519 18.7402 20.2896C19.2711 20.7274 19.6521 21.3048 19.8346 21.9481C20.0171 22.5914 19.9927 23.2715 19.7647 23.9017C19.5366 24.5318 19.1152 25.0835 18.5541 25.4863V25.4863Z" fill="#3F3D56"/>
<path d="M16.4309 36.6894C17.2427 36.6894 17.9008 36.0673 17.9008 35.2998C17.9008 34.5323 17.2427 33.9102 16.4309 33.9102C15.619 33.9102 14.9609 34.5323 14.9609 35.2998C14.9609 36.0673 15.619 36.6894 16.4309 36.6894Z" fill="#2F2E41"/>
<path d="M15.2842 34.551C15.5217 34.3264 15.5699 34.0078 15.3917 33.8394C15.2136 33.671 14.8766 33.7165 14.6391 33.9411C14.4015 34.1656 14.3534 34.4842 14.5316 34.6526C14.7097 34.821 15.0467 34.7755 15.2842 34.551Z" fill="#2F2E41"/>
<path d="M17.9629 34.1099C18.0619 33.8908 17.8917 33.6121 17.5828 33.4874C17.2739 33.3626 16.9432 33.4391 16.8442 33.6581C16.7453 33.8771 16.9155 34.1558 17.2244 34.2806C17.5333 34.4053 17.864 34.3289 17.9629 34.1099Z" fill="#2F2E41"/>
<path d="M18.1873 37.9971L18.0141 37.7394C17.9406 37.5843 17.805 37.4629 17.6371 37.402C17.4692 37.3411 17.2826 37.3456 17.1181 37.4145C16.9537 37.4834 16.8249 37.6111 16.7599 37.7697C16.6948 37.9282 16.6989 38.1046 16.7712 38.2603L16.8204 38.4273L16.8765 38.6167C17.1034 38.5896 17.3273 38.5434 17.5455 38.4786C17.5461 38.4786 17.5467 38.4783 17.5472 38.4778C17.7084 38.4296 17.8659 38.3706 18.0183 38.3013C18.0192 38.3005 18.02 38.3005 18.0209 38.2996C18.0548 38.2844 18.0879 38.2684 18.1219 38.2523C18.1274 38.2499 18.1328 38.2473 18.138 38.2443C18.1652 38.2314 18.1924 38.2178 18.2187 38.2041C18.2458 38.1905 18.2721 38.1761 18.2976 38.1608L18.1873 37.9971Z" fill="#CACACA"/>
<path d="M16.477 36.8119C17.166 36.8119 17.7245 36.2838 17.7245 35.6325C17.7245 34.9811 17.166 34.4531 16.477 34.4531C15.788 34.4531 15.2295 34.9811 15.2295 35.6325C15.2295 36.2838 15.788 36.8119 16.477 36.8119Z" fill="#FFB6B6"/>
<path d="M18.2795 37.9467C18.1419 37.7304 17.9711 37.5346 17.7726 37.3657C17.6367 37.2509 17.4608 37.1874 17.2786 37.1875H15.5212C15.42 37.1875 15.3198 37.2071 15.2268 37.2451C15.1339 37.2831 15.0502 37.3387 14.9809 37.4085C14.9116 37.4783 14.8582 37.5608 14.8239 37.6509C14.7897 37.741 14.7753 37.8368 14.7818 37.9323C14.7856 37.9862 14.7959 38.0395 14.8124 38.0912C14.8249 38.1287 14.8405 38.1652 14.859 38.2004L14.9456 38.3641C14.9524 38.3665 14.9592 38.3697 14.966 38.3721C14.9677 38.3729 14.9686 38.3729 14.9694 38.3737C15.005 38.3874 15.0407 38.401 15.0772 38.4138C15.1967 38.457 15.3185 38.494 15.4423 38.5246C15.6415 38.5752 15.8448 38.6098 16.0501 38.6281C16.1698 38.6386 16.2895 38.6442 16.4101 38.6442C16.5298 38.6442 16.6469 38.6386 16.7641 38.6281C16.8023 38.6249 16.8405 38.6209 16.8787 38.6169C17.1056 38.5898 17.3295 38.5436 17.5477 38.4789C17.5483 38.4788 17.5489 38.4785 17.5494 38.4781C17.7106 38.4298 17.8681 38.3708 18.0205 38.3015C18.0214 38.3007 18.0222 38.3007 18.0231 38.2999C18.057 38.2846 18.0901 38.2686 18.1241 38.2525C18.1296 38.2502 18.135 38.2475 18.1402 38.2445C18.1674 38.2317 18.1946 38.218 18.2209 38.2044C18.248 38.1907 18.2743 38.1763 18.2998 38.161C18.327 38.1474 18.3525 38.1321 18.3788 38.1169C18.3465 38.0567 18.3134 38.0005 18.2795 37.9467Z" fill="#FF8264"/>
<path d="M15.838 37.4003C15.6754 37.3284 15.4893 37.3203 15.3203 37.3777C15.1514 37.4352 15.0134 37.5535 14.9365 37.7069L14.7802 37.93L14.7055 38.0368L14.5918 38.1989C14.6155 38.2109 14.6385 38.223 14.6623 38.235L14.6936 38.2503C14.7667 38.2856 14.8405 38.3193 14.917 38.3506C14.9254 38.3546 14.9348 38.3578 14.9441 38.3618C14.9509 38.3642 14.9577 38.3674 14.9645 38.3698C14.9662 38.3707 14.967 38.3707 14.9679 38.3715C15.0035 38.3851 15.0392 38.3987 15.0757 38.4116C15.1951 38.4548 15.317 38.4917 15.4407 38.5223C15.6399 38.5729 15.8432 38.6075 16.0486 38.6259L16.108 38.4357L16.1658 38.2543C16.2419 38.0999 16.2501 37.9233 16.1887 37.7632C16.1272 37.6032 16.0011 37.4726 15.838 37.4003Z" fill="#CACACA"/>
<path d="M15.165 34.8894C15.4501 35.0751 15.7885 35.174 16.1347 35.1727C16.0112 35.2536 15.8706 35.3083 15.7226 35.3329C16.1829 35.4263 16.6587 35.4288 17.1201 35.3404C17.2226 35.3248 17.3216 35.2927 17.4126 35.2454C17.458 35.2214 17.4975 35.1887 17.5286 35.1494C17.5597 35.11 17.5817 35.065 17.5932 35.0171C17.6239 34.8515 17.4874 34.701 17.3455 34.5996C17.1284 34.4468 16.878 34.3415 16.6125 34.2913C16.347 34.2411 16.073 34.2474 15.8104 34.3096C15.6354 34.3429 15.4761 34.428 15.3557 34.5525C15.2974 34.6159 15.2623 34.6953 15.2554 34.7791C15.2485 34.8628 15.2702 34.9464 15.3175 35.0175L15.165 34.8894Z" fill="#2F2E41"/>
<path d="M19.9525 33.9281C19.7732 33.4409 19.4835 32.9965 19.1038 32.6259C18.7241 32.2554 18.2635 31.9676 17.7541 31.7826C17.2447 31.5977 16.6987 31.52 16.1542 31.5551C15.6098 31.5901 15.08 31.737 14.6018 31.9855C14.1235 32.234 13.7084 32.5782 13.3854 32.994C13.0623 33.4098 12.8391 33.8872 12.7312 34.3929C12.6234 34.8986 12.6335 35.4205 12.761 35.9221C12.8884 36.4238 13.1301 36.8931 13.4691 37.2973C13.5022 37.3375 13.5379 37.3776 13.5735 37.4161C13.5756 37.419 13.5778 37.4216 13.5803 37.4241C13.6682 37.5197 13.7618 37.6106 13.8604 37.6962C13.8859 37.7187 13.9122 37.742 13.9394 37.7636C13.9903 37.807 14.043 37.8479 14.0981 37.8872C14.1194 37.9033 14.1406 37.9193 14.1627 37.9346C14.2484 37.9964 14.3384 38.0534 14.4301 38.1087C14.4317 38.1088 14.4332 38.1093 14.4343 38.1103C14.4606 38.1256 14.4878 38.1409 14.515 38.1553C14.5404 38.1697 14.5668 38.1842 14.5923 38.1978C14.616 38.2099 14.6389 38.2219 14.6627 38.2339L14.6941 38.2492C14.7671 38.2845 14.841 38.3182 14.9174 38.3495C14.9259 38.3535 14.9352 38.3567 14.9446 38.3608C14.9514 38.3632 14.9582 38.3664 14.9649 38.3688C14.9666 38.3696 14.9675 38.3696 14.9683 38.3704C15.004 38.384 15.0397 38.3977 15.0761 38.4105C15.1956 38.4537 15.3175 38.4907 15.4412 38.5213C15.6404 38.5718 15.8437 38.6065 16.049 38.6248C16.1687 38.6352 16.2885 38.6409 16.409 38.6409C16.5287 38.6409 16.6459 38.6352 16.763 38.6248C16.8012 38.6216 16.8394 38.6176 16.8776 38.6136C17.1045 38.5865 17.3284 38.5403 17.5466 38.4755C17.5472 38.4754 17.5478 38.4752 17.5483 38.4747C17.7096 38.4265 17.867 38.3675 18.0195 38.2982C18.0203 38.2974 18.0211 38.2974 18.022 38.2965C18.056 38.2813 18.0891 38.2652 18.123 38.2492C18.1286 38.2468 18.134 38.2442 18.1391 38.2412C18.1663 38.2283 18.1935 38.2147 18.2198 38.201C18.247 38.1874 18.2733 38.1729 18.2987 38.1577C18.3259 38.1441 18.3514 38.1288 18.3777 38.1136C18.3913 38.1055 18.4049 38.0975 18.4185 38.0895C18.4372 38.0791 18.4541 38.0686 18.4728 38.0566C18.4983 38.0413 18.5237 38.0245 18.5483 38.0076C18.5814 37.986 18.6146 37.9635 18.6468 37.9402C18.6577 37.9335 18.6682 37.9263 18.6782 37.9185C19.3087 37.4655 19.7714 36.8355 20.0003 36.1188C20.2292 35.4021 20.2124 34.6353 19.9525 33.9281L19.9525 33.9281ZM18.5543 37.7636C18.5322 37.7805 18.5093 37.7965 18.4864 37.811C18.4634 37.827 18.4414 37.8423 18.4185 37.8567C18.3989 37.8696 18.3794 37.8824 18.3591 37.8945C18.3572 37.896 18.3552 37.8973 18.3531 37.8985C18.3387 37.9081 18.3234 37.9169 18.3089 37.9258C18.2987 37.9314 18.2886 37.9378 18.2784 37.9434C18.2487 37.9611 18.219 37.9779 18.1884 37.994C18.1723 38.0036 18.1553 38.0124 18.1392 38.0213C18.1332 38.0245 18.1273 38.0277 18.1213 38.0309C18.095 38.0445 18.0696 38.0566 18.0441 38.0694C18.0407 38.0718 18.0364 38.0726 18.0339 38.075C18.0323 38.0751 18.0308 38.0756 18.0296 38.0766C17.9974 38.0927 17.9643 38.1079 17.9312 38.1224C17.8037 38.1804 17.6724 38.2305 17.5381 38.2725C17.5211 38.2781 17.5033 38.2845 17.4863 38.2893C17.2698 38.3543 17.0472 38.3994 16.8216 38.4242C16.7961 38.4274 16.7698 38.4298 16.7435 38.4322C16.6331 38.4418 16.5219 38.4466 16.409 38.4466C16.3088 38.4466 16.2078 38.4426 16.1085 38.4346C15.9008 38.4183 15.6951 38.3844 15.4939 38.3335C15.3406 38.2957 15.1905 38.2474 15.0448 38.189C15.0371 38.1858 15.0295 38.1834 15.0218 38.1802C15.0133 38.177 15.0065 38.1746 14.9989 38.1714C14.9904 38.1681 14.9836 38.1649 14.9751 38.1609C14.9199 38.1384 14.8648 38.1136 14.8113 38.0879C14.8036 38.0839 14.796 38.0807 14.7884 38.0766L14.7587 38.0622C14.7408 38.0534 14.723 38.0445 14.706 38.0357C14.6491 38.0068 14.5931 37.9755 14.5388 37.9434C14.5184 37.9314 14.4963 37.9185 14.4759 37.9057L14.4607 37.8961C14.4131 37.8656 14.3656 37.8351 14.3189 37.8022C14.2875 37.7797 14.2552 37.758 14.2247 37.7347C14.1729 37.6978 14.1228 37.6585 14.0744 37.6176C14.0489 37.5975 14.0235 37.575 13.9997 37.5542C13.9041 37.4709 13.8137 37.3825 13.7289 37.2893C13.7009 37.2588 13.6728 37.2283 13.6465 37.1962C13.6406 37.1898 13.6355 37.1834 13.6295 37.1762C13.1919 36.6541 12.9286 36.0207 12.8733 35.3566C12.818 34.6925 12.9731 34.0279 13.319 33.4476C13.6648 32.8672 14.1857 32.3974 14.8151 32.098C15.4446 31.7987 16.1541 31.6833 16.8531 31.7667C17.5522 31.8501 18.2092 32.1285 18.7402 32.5663C19.2713 33.0041 19.6523 33.5815 19.8349 34.2249C20.0174 34.8683 19.993 35.5485 19.765 36.1787C19.5369 36.809 19.1154 37.3607 18.5543 37.7636H18.5543Z" fill="#3F3D56"/>
<path d="M22.6854 16.6018C21.3791 15.5596 19.7805 14.899 18.0842 14.7001C16.3879 14.5012 14.667 14.7728 13.131 15.4816C11.5949 16.1905 10.31 17.3062 9.43241 18.6929C8.55485 20.0796 8.12256 21.6776 8.18813 23.2923C8.2537 24.9071 8.81431 26.469 9.80174 27.788C10.7892 29.1071 12.1608 30.1263 13.7499 30.7218C15.3389 31.3173 17.0767 31.4633 18.7519 31.142C20.427 30.8208 21.9674 30.0462 23.1854 28.9125L34.001 37.5402C34.1657 37.6711 34.3785 37.7348 34.5928 37.7176C34.8071 37.7003 35.0054 37.6034 35.1443 37.4481C35.2832 37.2929 35.3513 37.0918 35.3336 36.8892C35.316 36.6865 35.2141 36.4987 35.0502 36.367L35.049 36.3661L24.2333 27.7383C25.4898 26.0336 26.0275 23.9467 25.7412 21.8866C25.4549 19.8265 24.3651 17.9418 22.6854 16.6018ZM21.9882 26.9075C21.1456 27.8516 20.0258 28.5382 18.7705 28.8806C17.5151 29.2229 16.1805 29.2057 14.9355 28.831C13.6905 28.4564 12.591 27.7411 11.776 26.7757C10.961 25.8102 10.4671 24.638 10.3568 23.4072C10.2465 22.1764 10.5248 20.9424 11.1564 19.8611C11.788 18.7798 12.7445 17.8998 13.9051 17.3325C15.0657 16.7652 16.3782 16.5359 17.6766 16.6738C18.975 16.8116 20.201 17.3103 21.1995 18.1069C22.5386 19.1751 23.3739 20.7024 23.5218 22.3528C23.6697 24.0032 23.1181 25.6416 21.9882 26.9075Z" fill="#5034C4"/>
<path opacity="0.3" d="M12.6783 27.6535C11.411 26.6425 10.5922 25.2178 10.3846 23.6625C10.1769 22.1072 10.5955 20.5349 11.5573 19.2578C11.431 19.3781 11.3089 19.504 11.191 19.6356C10.6316 20.2625 10.2082 20.9873 9.94502 21.7688C9.68188 22.5503 9.58414 23.3732 9.65737 24.1904C9.7306 25.0076 9.97338 25.8032 10.3718 26.5317C10.7703 27.2602 11.3166 27.9074 11.9797 28.4363C12.6427 28.9652 13.4094 29.3654 14.2361 29.6142C15.0627 29.863 15.9331 29.9554 16.7975 29.8861C17.662 29.8169 18.5035 29.5874 19.2741 29.2107C20.0447 28.834 20.7293 28.3175 21.2887 27.6907C21.4064 27.5589 21.5171 27.4239 21.6211 27.2857C20.4513 28.3969 18.8823 29.0515 17.2256 29.1196C15.5689 29.1878 13.9457 28.6644 12.6783 27.6535Z" fill="black"/>
</g>
</g>
<defs>
<clipPath id="clip0_1_69500">
<rect width="45" height="45" rx="22.5" fill="white"/>
</clipPath>
<clipPath id="clip1_1_69500">
<rect width="31.0909" height="40.9091" fill="white" transform="translate(8.18164 2.45312)"/>
</clipPath>
</defs>
</svg>
