<svg width="19" height="18" viewBox="0 0 19 18" fill="none" xmlns="http://www.w3.org/2000/svg">
<path d="M16.3486 0.729267L1.79647 5.23812C1.52691 5.30967 1.28765 5.46635 1.11431 5.68484C0.940974 5.90333 0.842815 6.17195 0.834446 6.45072C0.826076 6.72949 0.907943 7.00352 1.06786 7.23201C1.22778 7.46051 1.45721 7.63126 1.72199 7.71885L8.32199 9.93031C8.34605 9.93945 8.36806 9.95328 8.38674 9.97098C8.40543 9.98868 8.42042 10.0099 8.43085 10.0334L10.86 16.3355C10.9583 16.5887 11.1318 16.8057 11.3572 16.9573C11.5825 17.1089 11.8489 17.1878 12.1204 17.1834H12.1548C12.4309 17.1826 12.6997 17.0946 12.923 16.9321C13.1462 16.7696 13.3124 16.5407 13.398 16.2782L18.0272 2.37927C18.0998 2.15673 18.1104 1.91864 18.0579 1.69053C18.0054 1.46242 17.8918 1.25291 17.7293 1.08448C17.5555 0.901964 17.3339 0.77191 17.0898 0.709114C16.8457 0.646317 16.5889 0.6533 16.3486 0.729267Z" fill="#060628"/>
</svg>
