<svg width="22" height="22" viewBox="0 0 22 22" fill="none" xmlns="http://www.w3.org/2000/svg">
<path d="M20.2263 4.00082V10.1472C20.2263 15.7447 16.4251 20.6256 10.9954 22C5.5748 20.6301 1.77356 15.7447 1.77356 10.1472V4.00082C6.04201 3.52 8.45975 1.89608 11 0C13.5402 1.89608 15.9579 3.52 20.2263 4.00082Z" fill="#FFD15C"/>
<path d="M10.8548 19.7729C6.7678 18.4755 3.95996 14.6834 3.95996 10.3469V6.18276C6.8313 5.55678 8.94058 4.40008 10.8548 3.08008C12.8099 4.43637 14.8783 5.57039 17.7497 6.18729V10.3514C17.7497 14.6834 14.9418 18.4755 10.8548 19.7729Z" fill="#F8B64C"/>
<path d="M10.45 12.9343L10.2575 6.59961H12.1412L11.935 12.9343H10.45ZM11.2337 15.9496C10.9037 15.9496 10.6333 15.8526 10.4225 15.6587C10.2208 15.4647 10.12 15.2311 10.12 14.9577C10.12 14.6756 10.2208 14.4376 10.4225 14.2436C10.6333 14.0496 10.9037 13.9527 11.2337 13.9527C11.5454 13.9527 11.8021 14.0496 12.0037 14.2436C12.2146 14.4376 12.32 14.6756 12.32 14.9577C12.32 15.2311 12.2146 15.4647 12.0037 15.6587C11.8021 15.8526 11.5454 15.9496 11.2337 15.9496Z" fill="white"/>
</svg>
