<svg width="16" height="12" viewBox="0 0 16 12" fill="none" xmlns="http://www.w3.org/2000/svg">
<path d="M15.4397 5.7C13.9247 2.1825 11.0747 0 7.99968 0C4.92468 0 2.07468 2.1825 0.559684 5.7C0.518386 5.79462 0.49707 5.89676 0.49707 6C0.49707 6.10324 0.518386 6.20538 0.559684 6.3C2.07468 9.8175 4.92468 12 7.99968 12C11.0747 12 13.9247 9.8175 15.4397 6.3C15.481 6.20538 15.5023 6.10324 15.5023 6C15.5023 5.89676 15.481 5.79462 15.4397 5.7ZM7.99968 10.5C5.62218 10.5 3.37218 8.7825 2.07468 6C3.37218 3.2175 5.62218 1.5 7.99968 1.5C10.3772 1.5 12.6272 3.2175 13.9247 6C12.6272 8.7825 10.3772 10.5 7.99968 10.5ZM7.99968 3C7.40634 3 6.82632 3.17595 6.33297 3.50559C5.83963 3.83524 5.45511 4.30377 5.22804 4.85195C5.00098 5.40013 4.94157 6.00333 5.05733 6.58527C5.17308 7.16721 5.45881 7.70176 5.87836 8.12132C6.29792 8.54088 6.83247 8.8266 7.41441 8.94236C7.99636 9.05811 8.59956 8.9987 9.14773 8.77164C9.69591 8.54458 10.1644 8.16006 10.4941 7.66671C10.8237 7.17336 10.9997 6.59334 10.9997 6C10.9997 5.20435 10.6836 4.44129 10.121 3.87868C9.5584 3.31607 8.79533 3 7.99968 3ZM7.99968 7.5C7.70301 7.5 7.413 7.41203 7.16633 7.2472C6.91965 7.08238 6.7274 6.84811 6.61386 6.57403C6.50033 6.29994 6.47063 5.99834 6.52851 5.70736C6.58638 5.41639 6.72925 5.14912 6.93902 4.93934C7.1488 4.72956 7.41608 4.5867 7.70705 4.52882C7.99802 4.47094 8.29962 4.50065 8.57371 4.61418C8.8478 4.72771 9.08207 4.91997 9.24689 5.16665C9.41171 5.41332 9.49968 5.70333 9.49968 6C9.49968 6.39782 9.34165 6.77936 9.06034 7.06066C8.77904 7.34196 8.39751 7.5 7.99968 7.5Z" fill="#8F8E9B"/>
</svg>
