<svg width="14" height="14" viewBox="0 0 14 14" fill="none" xmlns="http://www.w3.org/2000/svg">
<path d="M7.36604 10.1686C7.36604 10.4635 7.60834 10.7022 7.90765 10.7022L10.5241 10.8494C10.9055 10.8494 11.2143 10.5444 11.2143 10.1686C11.2143 9.79273 10.9055 9.48844 10.5241 9.48844L7.90765 9.6349C7.60834 9.6349 7.36604 9.87365 7.36604 10.1686Z" fill="black"/>
<path d="M2.09914 9.44007C2.09914 9.44007 1.94168 9.59321 1.87313 9.68818C1.76725 9.82594 1.71431 9.99581 1.71431 10.165C1.71431 10.3549 1.77404 10.5315 1.8867 10.6753C1.91317 10.7013 2.01294 10.8124 2.10592 10.904C2.64957 11.4791 4.06874 12.4201 4.81193 12.7076C4.92459 12.7531 5.20965 12.8514 5.36236 12.8574C5.5076 12.8574 5.64742 12.8253 5.77977 12.7598C5.94537 12.6682 6.0784 12.5244 6.15102 12.3545C6.19785 12.2368 6.27047 11.8844 6.27047 11.8777C6.34377 11.4918 6.38314 10.8645 6.38314 10.1717C6.38314 9.51163 6.34377 8.91041 6.28405 8.51852C6.27726 8.51183 6.20464 8.07447 6.12455 7.924C5.97863 7.6498 5.69357 7.47927 5.38883 7.47927H5.36236C5.1635 7.48596 4.74542 7.65649 4.74542 7.66251C4.04228 7.95008 2.65636 8.84554 2.09914 9.44007Z" fill="#5034C4"/>
<path d="M6.34838 4.11754C6.34838 3.82262 6.10608 3.58388 5.80676 3.58388L3.19029 3.43742C2.80885 3.43742 2.50003 3.7417 2.50003 4.11754C2.50003 4.49339 2.80885 4.79834 3.19029 4.79834L5.80676 4.65121C6.10608 4.65121 6.34838 4.41247 6.34838 4.11754Z" fill="black"/>
<path d="M7.93448 1.52649C7.76888 1.61811 7.63653 1.7619 7.56322 1.93176C7.51639 2.04946 7.44377 2.40257 7.44377 2.40859C7.37047 2.79446 7.3311 3.42175 7.3311 4.11459C7.3311 4.77465 7.37047 5.37586 7.43019 5.76776C7.43698 5.77444 7.51028 6.21181 7.58969 6.36228C7.73562 6.63714 8.02068 6.80701 8.32611 6.80701H8.35258C8.55144 6.80032 8.96886 6.63045 8.96886 6.62377C9.67201 6.3362 11.0586 5.4414 11.6152 4.84621C11.6152 4.84621 11.7727 4.69306 11.8405 4.5981C11.9471 4.461 12 4.29114 12 4.12061C12 3.93135 11.9403 3.75546 11.8276 3.61101C11.8012 3.58493 11.7014 3.47392 11.6091 3.3823C11.0647 2.80783 9.64554 1.86622 8.90302 1.57933C8.79035 1.53318 8.50461 1.43487 8.35258 1.42886C8.20665 1.42886 8.06683 1.46096 7.93448 1.52649Z" fill="#5034C4"/>
</svg>
