<svg width="14" height="14" viewBox="0 0 14 14" fill="none" xmlns="http://www.w3.org/2000/svg">
<path d="M7.36523 10.1669C7.36523 10.4618 7.60753 10.7005 7.90684 10.7005L10.5233 10.8477C10.9047 10.8477 11.2135 10.5427 11.2135 10.1669C11.2135 9.79102 10.9047 9.48673 10.5233 9.48673L7.90684 9.63319C7.60753 9.63319 7.36523 9.87194 7.36523 10.1669Z" fill="black"/>
<path d="M2.09869 9.43812C2.09869 9.43812 1.94123 9.59126 1.87268 9.68622C1.76681 9.82399 1.71387 9.99385 1.71387 10.163C1.71387 10.353 1.77359 10.5295 1.88626 10.6733C1.91273 10.6994 2.0125 10.8104 2.10548 10.902C2.64913 11.4772 4.0683 12.4181 4.81149 12.7057C4.92415 12.7511 5.20921 12.8494 5.36192 12.8555C5.50716 12.8555 5.64698 12.8234 5.77932 12.7578C5.94493 12.6662 6.07795 12.5224 6.15058 12.3526C6.19741 12.2349 6.27003 11.8824 6.27003 11.8757C6.34333 11.4899 6.38269 10.8626 6.38269 10.1697C6.38269 9.50967 6.34333 8.90846 6.2836 8.51657C6.27682 8.50988 6.20419 8.07251 6.12411 7.92204C5.97818 7.64785 5.69313 7.47732 5.38839 7.47732H5.36192C5.16306 7.484 4.74497 7.65454 4.74497 7.66056C4.04183 7.94812 2.65591 8.84359 2.09869 9.43812Z" fill="#5034C4"/>
<path d="M6.34835 4.11608C6.34835 3.82116 6.10605 3.58241 5.80673 3.58241L3.19026 3.43595C2.80882 3.43595 2.5 3.74024 2.5 4.11608C2.5 4.49192 2.80882 4.79688 3.19026 4.79688L5.80673 4.64975C6.10605 4.64975 6.34835 4.411 6.34835 4.11608Z" fill="black"/>
<path d="M7.93444 1.52418C7.76883 1.6158 7.63648 1.75958 7.56318 1.92944C7.51635 2.04714 7.44372 2.40025 7.44372 2.40627C7.37042 2.79214 7.33105 3.41944 7.33105 4.11227C7.33105 4.77233 7.37042 5.37355 7.43015 5.76544C7.43694 5.77213 7.51024 6.20949 7.58965 6.35996C7.73557 6.63482 8.02064 6.80469 8.32606 6.80469H8.35253C8.5514 6.798 8.96881 6.62814 8.96881 6.62145C9.67197 6.33388 11.0586 5.43908 11.6151 4.84389C11.6151 4.84389 11.7726 4.69074 11.8405 4.59578C11.947 4.45868 12 4.28882 12 4.11829C12 3.92903 11.9403 3.75315 11.8276 3.60869C11.8011 3.58261 11.7013 3.4716 11.609 3.37998C11.0647 2.80552 9.6455 1.8639 8.90297 1.57701C8.79031 1.53086 8.50456 1.43256 8.35253 1.42654C8.20661 1.42654 8.06679 1.45864 7.93444 1.52418Z" fill="#5034C4"/>
</svg>
