<svg width="20" height="20" viewBox="0 0 20 20" fill="none" xmlns="http://www.w3.org/2000/svg">
<path d="M5.83301 8.056C5.83301 7.46655 6.06716 6.90125 6.48396 6.48445C6.90076 6.06765 7.46606 5.8335 8.05551 5.8335H15.2772C15.569 5.8335 15.858 5.89098 16.1277 6.00267C16.3973 6.11437 16.6423 6.27807 16.8487 6.48445C17.0551 6.69083 17.2188 6.93584 17.3305 7.20548C17.4422 7.47513 17.4997 7.76413 17.4997 8.056V15.2777C17.4997 15.5695 17.4422 15.8585 17.3305 16.1282C17.2188 16.3978 17.0551 16.6428 16.8487 16.8492C16.6423 17.0556 16.3973 17.2193 16.1277 17.331C15.858 17.4427 15.569 17.5002 15.2772 17.5002H8.05551C7.76364 17.5002 7.47464 17.4427 7.20499 17.331C6.93535 17.2193 6.69034 17.0556 6.48396 16.8492C6.27758 16.6428 6.11388 16.3978 6.00219 16.1282C5.89049 15.8585 5.83301 15.5695 5.83301 15.2777V8.056Z" stroke="#326CF6" stroke-width="2" stroke-linecap="round" stroke-linejoin="round"/>
<path d="M3.34333 13.9475C3.08779 13.8018 2.87523 13.5912 2.72715 13.3371C2.57906 13.0829 2.50071 12.7942 2.5 12.5V4.16667C2.5 3.25 3.25 2.5 4.16667 2.5H12.5C13.125 2.5 13.465 2.82083 13.75 3.33333" stroke="#326CF6" stroke-width="2" stroke-linecap="round" stroke-linejoin="round"/>
</svg>
