<svg width="22" height="22" viewBox="0 0 22 22" fill="none" xmlns="http://www.w3.org/2000/svg">
<g clip-path="url(#clip0_692_11502)">
<path d="M15.2539 0.128946C14.9691 -0.08465 14.5651 -0.0269005 14.3515 0.257851L10.9303 4.81955L7.58857 1.47785C7.3369 1.22614 6.92879 1.22614 6.67708 1.47785C6.42537 1.72956 6.42537 2.13763 6.67708 2.38934L10.5442 6.2565C10.6655 6.3778 10.8296 6.4453 10.9999 6.4453C11.0151 6.4453 11.0304 6.44474 11.0456 6.44367C11.232 6.43039 11.4035 6.33694 11.5156 6.18749L15.3827 1.03128C15.5964 0.746488 15.5386 0.342542 15.2539 0.128946ZM6.13203 18.2007C5.81363 18.0415 5.42648 18.1706 5.26729 18.489L3.97823 21.0671C3.81904 21.3855 3.94811 21.7726 4.26647 21.9318C4.35898 21.9781 4.45733 22 4.55418 22C4.7906 22 5.01824 21.8694 5.13116 21.6436L6.42022 19.0655C6.57946 18.7471 6.45042 18.3599 6.13203 18.2007ZM18.0647 21.0671L16.7756 18.489C16.6165 18.1706 16.2293 18.0416 15.9109 18.2008C15.5926 18.36 15.4635 18.7471 15.6227 19.0655L16.9118 21.6436C17.0247 21.8695 17.2523 22 17.4887 22C17.5856 22 17.684 21.9781 17.7765 21.9319C18.0949 21.7726 18.2239 21.3855 18.0647 21.0671Z" fill="black"/>
<path d="M20.0663 5.15625H1.93367C0.867495 5.15625 9.15527e-05 6.02365 9.15527e-05 7.08983V17.4882C9.15527e-05 18.5544 0.867495 19.4218 1.93367 19.4218H20.0663C21.1325 19.4218 21.9999 18.5544 21.9999 17.4882V7.08983C21.9999 6.02365 21.1326 5.15625 20.0663 5.15625Z" fill="#FF6414"/>
<path d="M9.47425 10.0247L13.5081 11.637C13.6394 11.6896 13.7256 11.8168 13.7256 11.9582C13.7256 12.0996 13.6394 12.2268 13.5081 12.2793L9.47425 13.8917C9.43283 13.9082 9.38926 13.9164 9.3459 13.9164C9.27776 13.9164 9.21004 13.8963 9.15199 13.8569C9.05698 13.7926 9.00009 13.6853 9.00009 13.5706V10.3458C9.00009 10.2311 9.05698 10.1238 9.15199 10.0595C9.24703 9.99512 9.36773 9.98214 9.47425 10.0247Z" fill="#E3E9FC"/>
</g>
<defs>
<clipPath id="clip0_692_11502">
<rect width="22" height="22" fill="white"/>
</clipPath>
</defs>
</svg>
