<svg width="24" height="24" viewBox="0 0 24 24" fill="none" xmlns="http://www.w3.org/2000/svg">
<path opacity="0.4" d="M21.25 13.4764C20.429 13.4764 19.761 12.8145 19.761 12.001C19.761 11.1865 20.429 10.5246 21.25 10.5246C21.449 10.5246 21.64 10.4463 21.78 10.3076C21.921 10.1679 22 9.97864 22 9.78146L21.999 7.10415C21.999 4.84102 20.14 3 17.856 3H6.144C3.86 3 2.001 4.84102 2.001 7.10415L2 9.86766C2 10.0648 2.079 10.2541 2.22 10.3938C2.36 10.5325 2.551 10.6108 2.75 10.6108C3.599 10.6108 4.239 11.2083 4.239 12.001C4.239 12.8145 3.571 13.4764 2.75 13.4764C2.336 13.4764 2 13.8093 2 14.2195V16.8949C2 19.158 3.858 21 6.143 21H17.857C20.142 21 22 19.158 22 16.8949V14.2195C22 13.8093 21.664 13.4764 21.25 13.4764Z" fill="#5034C4"/>
<path d="M15.4305 11.5911L14.2515 12.7391L14.5305 14.3621C14.5785 14.6431 14.4655 14.9201 14.2345 15.0861C14.0055 15.2541 13.7065 15.2751 13.4545 15.1411L11.9995 14.3761L10.5415 15.1421C10.4335 15.1991 10.3155 15.2291 10.1985 15.2291C10.0455 15.2291 9.89446 15.1811 9.76446 15.0871C9.53446 14.9201 9.42146 14.6431 9.46946 14.3621L9.74746 12.7391L8.56846 11.5911C8.36446 11.3931 8.29346 11.1021 8.38146 10.8311C8.47046 10.5611 8.70046 10.3691 8.98146 10.3291L10.6075 10.0921L11.3365 8.61513C11.4635 8.36112 11.7175 8.20312 11.9995 8.20312H12.0015C12.2845 8.20413 12.5385 8.36212 12.6635 8.61612L13.3925 10.0921L15.0215 10.3301C15.2995 10.3691 15.5295 10.5611 15.6175 10.8311C15.7065 11.1021 15.6355 11.3931 15.4305 11.5911Z" fill="#5034C4"/>
</svg>
