<svg width="274" height="125" viewBox="0 0 274 125" fill="none" xmlns="http://www.w3.org/2000/svg">
<path d="M258.742 0.402344H116.189C115.29 0.40183 114.414 0.681102 113.682 1.20137C112.949 1.72165 112.397 2.4571 112.102 3.30558C111.5 5.04254 110.372 6.5488 108.874 7.61486C107.377 8.68093 105.584 9.2538 103.746 9.2538C101.908 9.2538 100.115 8.68093 98.6176 7.61486C97.1201 6.5488 95.992 5.04254 95.3903 3.30558C95.0952 2.46029 94.5453 1.72724 93.8164 1.20733C93.0875 0.68741 92.2154 0.40618 91.3201 0.402344H15.2696C15.2696 2.40744 14.8746 4.3929 14.1072 6.24533C13.3398 8.09776 12.215 9.78088 10.7971 11.1986C9.3791 12.6163 7.69578 13.7407 5.8432 14.5078C3.99063 15.2749 2.0051 15.6695 0 15.6691V109.337C2.0051 109.337 3.99063 109.732 5.8432 110.499C7.69578 111.266 9.3791 112.39 10.7971 113.808C12.215 115.225 13.3398 116.909 14.1072 118.761C14.8746 120.613 15.2696 122.599 15.2696 124.604H91.3201C92.2186 124.605 93.0951 124.326 93.8276 123.806C94.5601 123.285 95.1123 122.55 95.4073 121.701C96.009 119.964 97.1371 118.458 98.6346 117.392C100.132 116.325 101.925 115.753 103.763 115.753C105.601 115.753 107.394 116.325 108.891 117.392C110.389 118.458 111.517 119.964 112.119 121.701C112.413 122.546 112.963 123.28 113.692 123.8C114.421 124.32 115.293 124.601 116.189 124.604H258.733C258.733 122.599 259.128 120.614 259.895 118.762C260.663 116.909 261.787 115.226 263.205 113.809C264.622 112.391 266.305 111.267 268.158 110.499C270.01 109.732 271.995 109.337 274 109.337V15.6691C269.952 15.6668 266.071 14.0574 263.21 11.1946C260.349 8.33174 258.742 4.44987 258.742 0.402344V0.402344ZM103.021 13.6807C103.015 13.58 103.029 13.479 103.063 13.3841C103.098 13.2892 103.151 13.2022 103.22 13.1287C103.289 13.0551 103.373 12.9965 103.465 12.9565C103.558 12.9164 103.658 12.8957 103.759 12.8957C103.86 12.8957 103.959 12.9164 104.052 12.9565C104.145 12.9965 104.228 13.0551 104.297 13.1287C104.366 13.2022 104.42 13.2892 104.454 13.3841C104.488 13.479 104.503 13.58 104.497 13.6807V22.2375C104.503 22.3382 104.488 22.4392 104.454 22.5341C104.42 22.6291 104.366 22.716 104.297 22.7895C104.228 22.8631 104.145 22.9217 104.052 22.9617C103.959 23.0018 103.86 23.0225 103.759 23.0225C103.658 23.0225 103.558 23.0018 103.465 22.9617C103.373 22.9217 103.289 22.8631 103.22 22.7895C103.151 22.716 103.098 22.6291 103.063 22.5341C103.029 22.4392 103.015 22.3382 103.021 22.2375V13.6807ZM103.021 28.3357C103.015 28.2349 103.029 28.134 103.063 28.039C103.098 27.9441 103.151 27.8572 103.22 27.7836C103.289 27.7101 103.373 27.6515 103.465 27.6114C103.558 27.5714 103.658 27.5507 103.759 27.5507C103.86 27.5507 103.959 27.5714 104.052 27.6114C104.145 27.6515 104.228 27.7101 104.297 27.7836C104.366 27.8572 104.42 27.9441 104.454 28.039C104.488 28.134 104.503 28.2349 104.497 28.3357V36.8924C104.497 37.0382 104.454 37.1808 104.373 37.302C104.292 37.4233 104.177 37.5178 104.042 37.5736C103.907 37.6294 103.759 37.644 103.616 37.6155C103.473 37.587 103.342 37.5168 103.239 37.4136C103.17 37.3457 103.115 37.2646 103.077 37.1751C103.04 37.0856 103.02 36.9895 103.021 36.8924V28.3357ZM103.021 42.9906C103.015 42.8899 103.029 42.7889 103.063 42.694C103.098 42.5991 103.151 42.5121 103.22 42.4386C103.289 42.365 103.373 42.3064 103.465 42.2664C103.558 42.2263 103.658 42.2056 103.759 42.2056C103.86 42.2056 103.959 42.2263 104.052 42.2664C104.145 42.3064 104.228 42.365 104.297 42.4386C104.366 42.5121 104.42 42.5991 104.454 42.694C104.488 42.7889 104.503 42.8899 104.497 42.9906V51.5474C104.497 51.6932 104.454 51.8357 104.373 51.957C104.292 52.0782 104.177 52.1728 104.042 52.2286C103.907 52.2844 103.759 52.299 103.616 52.2705C103.473 52.242 103.342 52.1717 103.239 52.0685C103.17 52.0007 103.115 51.9196 103.077 51.8301C103.04 51.7406 103.02 51.6444 103.021 51.5474V42.9906ZM103.021 57.6456C103.021 57.4495 103.099 57.2615 103.237 57.1228C103.376 56.9842 103.564 56.9063 103.76 56.9063C103.857 56.9059 103.953 56.9251 104.043 56.9625C104.132 57 104.213 57.055 104.281 57.1244C104.35 57.1928 104.404 57.274 104.441 57.3635C104.478 57.4529 104.497 57.5488 104.497 57.6456V66.2023C104.496 66.3974 104.418 66.5843 104.28 66.7222C104.142 66.8602 103.955 66.938 103.76 66.9388C103.565 66.9373 103.378 66.8593 103.24 66.7216C103.102 66.5839 103.023 66.3974 103.021 66.2023V57.6456ZM103.021 72.3005C103.015 72.1998 103.029 72.0988 103.063 72.0039C103.098 71.909 103.151 71.822 103.22 71.7485C103.289 71.6749 103.373 71.6163 103.465 71.5763C103.558 71.5362 103.658 71.5155 103.759 71.5155C103.86 71.5155 103.959 71.5362 104.052 71.5763C104.145 71.6163 104.228 71.6749 104.297 71.7485C104.366 71.822 104.42 71.909 104.454 72.0039C104.488 72.0988 104.503 72.1998 104.497 72.3005V80.8573C104.497 81.0031 104.454 81.1456 104.373 81.2669C104.292 81.3881 104.177 81.4827 104.042 81.5385C103.907 81.5943 103.759 81.6089 103.616 81.5804C103.473 81.5519 103.342 81.4816 103.239 81.3784C103.17 81.3106 103.115 81.2295 103.077 81.14C103.04 81.0505 103.02 80.9543 103.021 80.8573V72.3005ZM104.497 110.164C104.497 110.36 104.419 110.548 104.281 110.686C104.143 110.825 103.956 110.903 103.76 110.904C103.564 110.902 103.377 110.824 103.239 110.685C103.101 110.547 103.022 110.36 103.021 110.164V101.608C103.015 101.507 103.029 101.406 103.063 101.311C103.098 101.216 103.151 101.129 103.22 101.056C103.289 100.982 103.373 100.923 103.465 100.883C103.558 100.843 103.658 100.823 103.759 100.823C103.86 100.823 103.959 100.843 104.052 100.883C104.145 100.923 104.228 100.982 104.297 101.056C104.366 101.129 104.42 101.216 104.454 101.311C104.488 101.406 104.503 101.507 104.497 101.608V110.164ZM104.497 95.5122C104.497 95.658 104.454 95.8006 104.373 95.9218C104.292 96.0431 104.177 96.1376 104.042 96.1934C103.907 96.2492 103.759 96.2638 103.616 96.2353C103.473 96.2068 103.342 96.1366 103.239 96.0334L103.216 96.0107C103.091 95.8748 103.021 95.697 103.021 95.5122V86.9555C103.021 86.8095 103.064 86.6668 103.145 86.5453C103.226 86.4239 103.342 86.3292 103.476 86.2732C103.611 86.2171 103.76 86.2023 103.903 86.2304C104.046 86.2586 104.178 86.3286 104.281 86.4315C104.41 86.5599 104.485 86.7316 104.494 86.913C104.495 86.9271 104.495 86.9414 104.494 86.9555L104.497 95.5122Z" fill="#5034C4"/>
</svg>
