<svg width="24" height="24" viewBox="0 0 24 24" fill="none" xmlns="http://www.w3.org/2000/svg">
<path d="M23.8762 5.9385L23.6401 4.59947C23.4494 3.52058 22.2947 2.82223 21.0603 3.03975L5 5.87185H23.1924C23.4271 5.87185 23.6556 5.8955 23.8762 5.9385Z" fill="black"/>
<path d="M22.4193 7.93341H1.58096C0.709226 7.93341 0 8.50631 0 9.21022V19.3341C0 20.0381 0.709226 20.611 1.58096 20.611H22.4193C23.2908 20.611 24 20.0381 24 19.3341V9.21022C23.9999 8.50605 23.2908 7.93341 22.4193 7.93341ZM7.43284 19.3108H5.76019V17.8712H7.43284V19.3108ZM7.43284 16.4315H5.76019V14.9919H7.43284V16.4315ZM7.43284 13.5523H5.76019V12.1126H7.43284V13.5523ZM7.43284 10.6731H5.76019V9.23336H7.43284V10.6731ZM19.7226 12.4062L18.4355 13.6103L19.5952 17.4839L18.9456 18.1335C18.8743 18.2045 18.7588 18.2045 18.6875 18.1335L16.9588 14.9917L15.3689 16.5598L15.6221 17.7957L15.2175 18.2005C15.1638 18.2542 15.0765 18.2542 15.0233 18.2008L12.7331 15.9106C12.6793 15.8568 12.6793 15.7698 12.7331 15.7163L13.1376 15.3112L14.3508 15.5587L15.92 13.9627L12.8002 12.2454C12.7289 12.1746 12.7289 12.0591 12.7997 11.9878L13.4499 11.3383L17.2979 12.4901L18.5106 11.1939C18.8649 10.8395 19.4235 10.8239 19.7582 11.1587C20.0923 11.4932 20.0764 12.0519 19.7226 12.4062Z" fill="#00BB64"/>
<path d="M22.4193 7.93341H1.58096C0.709226 7.93341 0 8.50631 0 9.21022V19.3341C0 20.0381 0.709226 20.611 1.58096 20.611H22.4193C23.2908 20.611 24 20.0381 24 19.3341V9.21022C23.9999 8.50605 23.2908 7.93341 22.4193 7.93341ZM7.43284 19.3108H5.76019V17.8712H7.43284V19.3108ZM7.43284 16.4315H5.76019V14.9919H7.43284V16.4315ZM7.43284 13.5523H5.76019V12.1126H7.43284V13.5523ZM7.43284 10.6731H5.76019V9.23336H7.43284V10.6731ZM19.7226 12.4062L18.4355 13.6103L19.5952 17.4839L18.9456 18.1335C18.8743 18.2045 18.7588 18.2045 18.6875 18.1335L16.9588 14.9917L15.3689 16.5598L15.6221 17.7957L15.2175 18.2005C15.1638 18.2542 15.0765 18.2542 15.0233 18.2008L12.7331 15.9106C12.6793 15.8568 12.6793 15.7698 12.7331 15.7163L13.1376 15.3112L14.3508 15.5587L15.92 13.9627L12.8002 12.2454C12.7289 12.1746 12.7289 12.0591 12.7997 11.9878L13.4499 11.3383L17.2979 12.4901L18.5106 11.1939C18.8649 10.8395 19.4235 10.8239 19.7582 11.1587C20.0923 11.4932 20.0764 12.0519 19.7226 12.4062Z" fill="black" fill-opacity="0.2"/>
</svg>
