<svg width="23" height="22" viewBox="0 0 23 22" fill="none" xmlns="http://www.w3.org/2000/svg">
<path opacity="0.4" d="M6.48078 11.8163C6.00768 11.8163 5.62469 12.205 5.62469 12.6852L5.38867 16.8823C5.38867 17.4942 5.87787 17.9896 6.48078 17.9896C7.08369 17.9896 7.57182 17.4942 7.57182 16.8823L7.33688 12.6852C7.33688 12.205 6.95389 11.8163 6.48078 11.8163Z" fill="#05051F"/>
<path d="M7.649 3.36733C7.649 3.36733 7.40333 3.11473 7.25099 3.00477C7.02999 2.83492 6.7575 2.75 6.48608 2.75C6.18141 2.75 5.89819 2.84581 5.66754 3.02654C5.6257 3.06901 5.44761 3.22905 5.30064 3.37821C4.37803 4.25031 2.8686 6.52691 2.4073 7.7191C2.33435 7.89983 2.17665 8.35711 2.16699 8.60208C2.16699 8.83508 2.21849 9.05936 2.32362 9.27167C2.47059 9.53733 2.70125 9.75072 2.97374 9.86722C3.16255 9.94235 3.72792 10.0588 3.73864 10.0588C4.35765 10.1764 5.36393 10.2396 6.47535 10.2396C7.53421 10.2396 8.49865 10.1764 9.12731 10.0806C9.13804 10.0697 9.83965 9.95323 10.081 9.82476C10.5209 9.59068 10.7944 9.1334 10.7944 8.64454V8.60208C10.7837 8.28308 10.5102 7.6124 10.5005 7.6124C10.0392 6.48445 8.60272 4.2612 7.649 3.36733Z" fill="#05051F"/>
<path opacity="0.4" d="M16.1868 10.1838C16.6599 10.1838 17.0429 9.79514 17.0429 9.31499L17.2779 5.11773C17.2779 4.50583 16.7898 4.01044 16.1868 4.01044C15.5839 4.01044 15.0947 4.50583 15.0947 5.11773L15.3307 9.31499C15.3307 9.79514 15.7137 10.1838 16.1868 10.1838Z" fill="#05051F"/>
<path d="M20.3439 12.7282C20.1969 12.4625 19.9662 12.2502 19.6938 12.1326C19.5049 12.0575 18.9385 11.941 18.9288 11.941C18.3098 11.8234 17.3036 11.7603 16.1921 11.7603C15.1333 11.7603 14.1688 11.8234 13.5402 11.9192C13.5294 11.9301 12.8278 12.0477 12.5865 12.1751C12.1455 12.4092 11.873 12.8665 11.873 13.3564V13.3989C11.8838 13.7179 12.1563 14.3875 12.167 14.3875C12.6283 15.5155 14.0637 17.7398 15.0185 18.6327C15.0185 18.6327 15.2642 18.8852 15.4165 18.9941C15.6364 19.1651 15.9089 19.25 16.1825 19.25C16.4861 19.25 16.7682 19.1542 17 18.9734C17.0418 18.931 17.2199 18.7709 17.3669 18.6229C18.2884 17.7496 19.7989 15.473 20.2591 14.2819C20.3331 14.1011 20.4908 13.6428 20.5005 13.3989C20.5005 13.1648 20.449 12.9405 20.3439 12.7282Z" fill="#05051F"/>
</svg>
