<svg width="22" height="22" viewBox="0 0 22 22" fill="none" xmlns="http://www.w3.org/2000/svg">
<path fill-rule="evenodd" clip-rule="evenodd" d="M7.76002 4.79956C7.55554 5.07573 7.57902 5.46967 7.83736 5.71967C8.11236 5.99467 8.56152 5.99467 8.83652 5.71967L10.294 4.25301V8.04801H11.7057V4.25301L13.1632 5.71967L13.2422 5.78786C13.5184 5.9924 13.9124 5.96967 14.1624 5.71967C14.2999 5.58217 14.3732 5.39884 14.3732 5.21551C14.3732 5.04134 14.2999 4.85801 14.1624 4.72051L11.4949 2.04384L11.4117 1.96911C11.2932 1.87994 11.1465 1.83301 10.9999 1.83301C10.8074 1.83301 10.6332 1.90634 10.4957 2.04384L7.82819 4.72051L7.76002 4.79956ZM5.71157 8.0527C3.55443 8.15459 1.83301 9.96919 1.83301 12.1799V16.7312L1.83744 16.926C1.9376 19.1213 3.7216 20.8815 5.91217 20.8815H16.0963L16.2878 20.877C18.4449 20.7751 20.1663 18.9603 20.1663 16.7405V12.1985L20.1619 12.003C20.0612 9.79963 18.2688 8.04819 16.0872 8.04819H11.7055V13.6441L11.699 13.7425C11.6516 14.0958 11.3526 14.3623 10.9997 14.3623C10.6055 14.3623 10.2938 14.0452 10.2938 13.6441V8.04819H5.90301L5.71157 8.0527Z" fill="#5034C4"/>
</svg>
