<svg width="22" height="22" viewBox="0 0 22 22" fill="none" xmlns="http://www.w3.org/2000/svg">
<mask id="mask0_5187_53252" style="mask-type:alpha" maskUnits="userSpaceOnUse" x="1" y="8" width="20" height="13">
<path fill-rule="evenodd" clip-rule="evenodd" d="M1.8335 8.05859H20.1665V20.6573H1.8335V8.05859Z" fill="white"/>
</mask>
<g mask="url(#mask0_5187_53252)">
<path fill-rule="evenodd" clip-rule="evenodd" d="M16.1014 20.6573H5.89891C3.65766 20.6573 1.8335 18.834 1.8335 16.5918V12.1231C1.8335 9.88184 3.65766 8.05859 5.89891 8.05859H6.75416C7.13366 8.05859 7.44166 8.36659 7.44166 8.74609C7.44166 9.12559 7.13366 9.43359 6.75416 9.43359H5.89891C4.41483 9.43359 3.2085 10.6399 3.2085 12.1231V16.5918C3.2085 18.0759 4.41483 19.2823 5.89891 19.2823H16.1014C17.5846 19.2823 18.7918 18.0759 18.7918 16.5918V12.1148C18.7918 10.6363 17.5892 9.43359 16.1115 9.43359H15.2471C14.8676 9.43359 14.5596 9.12559 14.5596 8.74609C14.5596 8.36659 14.8676 8.05859 15.2471 8.05859H16.1115C18.3472 8.05859 20.1668 9.87818 20.1668 12.1148V16.5918C20.1668 18.834 18.3427 20.6573 16.1014 20.6573Z" fill="#5034C4"/>
</g>
<mask id="mask1_5187_53252" style="mask-type:alpha" maskUnits="userSpaceOnUse" x="10" y="1" width="2" height="14">
<path fill-rule="evenodd" clip-rule="evenodd" d="M10.3125 1.83203H11.6875V14.2445H10.3125V1.83203Z" fill="white"/>
</mask>
<g mask="url(#mask1_5187_53252)">
<path fill-rule="evenodd" clip-rule="evenodd" d="M11 14.2446C10.6205 14.2446 10.3125 13.9366 10.3125 13.5571V2.51953C10.3125 2.14003 10.6205 1.83203 11 1.83203C11.3795 1.83203 11.6875 2.14003 11.6875 2.51953V13.5571C11.6875 13.9366 11.3795 14.2446 11 14.2446Z" fill="#5034C4"/>
</g>
<path fill-rule="evenodd" clip-rule="evenodd" d="M8.3279 5.89082C8.15281 5.89082 7.97681 5.82391 7.84298 5.69007C7.5744 5.42241 7.57256 4.98791 7.84115 4.71841L10.5132 2.03441C10.7708 1.77499 11.2291 1.77499 11.4867 2.03441L14.1597 4.71841C14.4274 4.98791 14.4265 5.42241 14.1579 5.69007C13.8884 5.95774 13.4539 5.95774 13.1862 5.68824L11 3.49374L8.81465 5.68824C8.68081 5.82391 8.5039 5.89082 8.3279 5.89082Z" fill="#5034C4"/>
</svg>
