<svg width="22" height="22" viewBox="0 0 22 22" fill="none" xmlns="http://www.w3.org/2000/svg">
<path fill-rule="evenodd" clip-rule="evenodd" d="M7.76038 4.80054C7.55591 5.07671 7.57939 5.47065 7.83772 5.72065C8.11272 5.99565 8.56189 5.99565 8.83689 5.72065L10.2944 4.25398V8.04898H11.7061V4.25398L13.1636 5.72065L13.2426 5.78883C13.5188 5.99338 13.9127 5.97065 14.1627 5.72065C14.3002 5.58315 14.3736 5.39982 14.3736 5.21648C14.3736 5.04232 14.3002 4.85898 14.1627 4.72148L11.4952 2.04482L11.4121 1.97009C11.2936 1.88092 11.1469 1.83398 11.0002 1.83398C10.8077 1.83398 10.6336 1.90732 10.4961 2.04482L7.82856 4.72148L7.76038 4.80054ZM5.71194 8.05368C3.55479 8.15557 1.83337 9.97017 1.83337 12.1808V16.7322L1.83781 16.927C1.93796 19.1223 3.72197 20.8825 5.91254 20.8825H16.0967L16.2881 20.878C18.4453 20.7761 20.1667 18.9612 20.1667 16.7415V12.1995L20.1623 12.0039C20.0616 9.80061 18.2692 8.04917 16.0875 8.04917H11.7059V13.6451L11.6993 13.7435C11.652 14.0968 11.353 14.3632 11 14.3632C10.6059 14.3632 10.2942 14.0461 10.2942 13.6451V8.04917H5.90337L5.71194 8.05368Z" fill="#5034C4"/>
</svg>
