<svg width="20" height="17" viewBox="0 0 20 17" fill="none" xmlns="http://www.w3.org/2000/svg">
<path d="M12.3247 13.7807C12.1504 13.8654 11.9594 13.9099 11.7657 13.9109H2.53623C2.36201 13.9109 2.1895 13.8765 2.02863 13.8096C1.86775 13.7427 1.72168 13.6447 1.5988 13.5212C1.47592 13.3977 1.37866 13.2511 1.3126 13.0899C1.24655 12.9287 1.213 12.756 1.21388 12.5818C1.21388 11.1284 1.79126 9.73448 2.819 8.70675C3.84673 7.67901 5.24064 7.10163 6.69408 7.10163H7.61007C8.14799 7.09894 8.68344 7.17457 9.19957 7.32614C9.12192 7.46007 9.07148 7.60801 9.05112 7.76148C9.03076 7.91495 9.0409 8.07093 9.08094 8.22047C9.12099 8.37002 9.19016 8.51019 9.28448 8.63295C9.37881 8.75571 9.49644 8.85864 9.63062 8.93585L9.75635 9.00993C9.74288 9.15586 9.7339 9.30179 9.7339 9.45895C9.7339 9.6161 9.7339 9.75305 9.75635 9.90796L9.63062 9.9798C9.49636 10.0572 9.37868 10.1604 9.28433 10.2833C9.18998 10.4063 9.1208 10.5466 9.08076 10.6964C9.04073 10.8461 9.03061 11.0023 9.051 11.1559C9.07138 11.3095 9.12187 11.4577 9.19957 11.5918L9.81472 12.6582C9.89193 12.7926 9.99496 12.9105 10.1179 13.0051C10.2408 13.0996 10.3812 13.1689 10.531 13.2089C10.6809 13.249 10.8371 13.259 10.9908 13.2385C11.1445 13.2179 11.2926 13.1672 11.4267 13.0892L11.5412 13.0129C11.78 13.1876 12.0357 13.3381 12.3045 13.4619V13.6078C12.3069 13.6659 12.3136 13.7237 12.3247 13.7807Z" fill="#5034C4"/>
<path d="M7.15059 5.93595C8.78976 5.93595 10.1186 4.60714 10.1186 2.96797C10.1186 1.32881 8.78976 0 7.15059 0C5.51142 0 4.18262 1.32881 4.18262 2.96797C4.18262 4.60714 5.51142 5.93595 7.15059 5.93595Z" fill="#5034C4"/>
<path d="M18.1353 10.7706L17.4618 10.3822C17.6189 9.79384 17.6189 9.17455 17.4618 8.58617L18.1353 8.19778C18.1673 8.17939 18.1954 8.15487 18.218 8.12561C18.2405 8.09635 18.2571 8.06293 18.2667 8.02726C18.2762 7.9916 18.2787 7.95439 18.2739 7.91777C18.2691 7.88115 18.2571 7.84584 18.2386 7.81387L17.6234 6.7295C17.6051 6.69747 17.5805 6.66938 17.5513 6.64684C17.522 6.6243 17.4886 6.60776 17.4529 6.59817C17.4173 6.58857 17.3801 6.58611 17.3434 6.59093C17.3068 6.59574 17.2715 6.60774 17.2395 6.62623L16.566 7.01463C16.1304 6.58216 15.5882 6.27238 14.9945 6.1166V5.33532C14.9945 5.26089 14.9649 5.18951 14.9123 5.13688C14.8596 5.08425 14.7883 5.05469 14.7138 5.05469H13.4903C13.4159 5.05469 13.3445 5.08425 13.2918 5.13688C13.2392 5.18951 13.2096 5.26089 13.2096 5.33532V6.10987C12.616 6.26604 12.074 6.57576 11.6381 7.00789L10.9646 6.6195C10.9326 6.60101 10.8973 6.58901 10.8607 6.58419C10.8241 6.57938 10.7869 6.58184 10.7512 6.59143C10.7155 6.60102 10.6821 6.61757 10.6528 6.6401C10.6236 6.66264 10.5991 6.69073 10.5807 6.72277L9.97002 7.79591C9.95144 7.82775 9.93931 7.86293 9.93433 7.89946C9.92935 7.93599 9.93162 7.97314 9.941 8.00879C9.95038 8.04444 9.96669 8.0779 9.98901 8.10724C10.0113 8.13659 10.0392 8.16125 10.071 8.17981L10.7446 8.56821C10.5875 9.15659 10.5875 9.77588 10.7446 10.3643L10.071 10.7527C10.038 10.7712 10.009 10.7963 9.98591 10.8263C9.9628 10.8564 9.94602 10.8908 9.93658 10.9275C9.92713 10.9642 9.92523 11.0025 9.93098 11.0399C9.93673 11.0774 9.95001 11.1133 9.97002 11.1455L10.5852 12.2119C10.6227 12.2762 10.6841 12.3231 10.7559 12.3424C10.8278 12.3617 10.9044 12.352 10.9691 12.3152L11.6426 11.9268C12.0778 12.3599 12.6201 12.6698 13.2141 12.8248V13.6016C13.2141 13.6761 13.2437 13.7474 13.2963 13.8001C13.349 13.8527 13.4203 13.8823 13.4948 13.8823H14.7273C14.8017 13.8823 14.8731 13.8527 14.9257 13.8001C14.9784 13.7474 15.0079 13.6761 15.0079 13.6016V12.8248C15.6022 12.6702 16.1445 12.3602 16.5795 11.9268L17.253 12.3152C17.3177 12.352 17.3943 12.3617 17.4662 12.3424C17.538 12.3231 17.5994 12.2762 17.6369 12.2119L18.2521 11.1455C18.2855 11.0802 18.292 11.0043 18.2702 10.9343C18.2484 10.8642 18.1999 10.8054 18.1353 10.7706ZM14.0942 10.8986C13.8136 10.8986 13.5392 10.8154 13.3059 10.6595C13.0726 10.5036 12.8907 10.282 12.7833 10.0227C12.6759 9.76342 12.6478 9.47813 12.7026 9.2029C12.7573 8.92766 12.8925 8.67484 13.0909 8.47641C13.2893 8.27797 13.5422 8.14284 13.8174 8.08809C14.0926 8.03334 14.3779 8.06144 14.6372 8.16883C14.8964 8.27622 15.118 8.45808 15.274 8.69142C15.4299 8.92475 15.5131 9.19908 15.5131 9.47971C15.5107 9.85252 15.3617 10.2094 15.0983 10.4733C14.8349 10.7371 14.4782 10.8867 14.1054 10.8896L14.0942 10.8986Z" fill="#5034C4"/>
</svg>
