<svg width="159" height="98" viewBox="0 0 159 98" fill="none" xmlns="http://www.w3.org/2000/svg">
<path d="M0 8C0 3.58172 3.58172 0 8 0H151C155.418 0 159 3.58172 159 8V56C159 60.4183 155.418 64 151 64H139.239C135.809 64 132.76 66.1871 131.661 69.4368L123.595 93.2851C122.936 95.2326 120.339 95.5968 119.17 93.9055L100.885 67.4514C99.3917 65.2901 96.9318 64 94.3045 64H8C3.58172 64 0 60.4183 0 56V8Z" fill="#E9E6FD"/>
<path d="M27.2507 20.8955C27.3635 19.9352 28.7575 19.9352 28.8703 20.8955L29.771 28.5647C29.8265 29.0375 30.2737 29.3624 30.7406 29.2691L38.3127 27.7558C39.2609 27.5663 39.6917 28.8922 38.8132 29.2962L31.7977 32.5227C31.3652 32.7216 31.1944 33.2473 31.4274 33.6625L35.2065 40.3964C35.6798 41.2396 34.5519 42.059 33.8962 41.3484L28.6597 35.6733C28.3369 35.3234 27.7841 35.3234 27.4612 35.6733L22.2248 41.3484C21.569 42.059 20.4412 41.2396 20.9145 40.3964L24.6936 33.6625C24.9266 33.2473 24.7558 32.7216 24.3232 32.5227L17.3078 29.2962C16.4293 28.8922 16.8601 27.5663 17.8083 27.7558L25.3804 29.2691C25.8473 29.3624 26.2945 29.0375 26.35 28.5647L27.2507 20.8955Z" fill="#6463FD"/>
<rect x="49" y="17.7266" width="25" height="25" rx="12.5" fill="white"/>
<rect x="81" y="17.7266" width="25" height="25" rx="2" fill="white"/>
<path d="M119.448 41.7266L120.741 35.735H116V32.6747H121.438L122.532 27.714H117.592V24.6537H123.195L124.521 18.7266H127.837L126.511 24.6537H133.208L134.534 18.7266H137.85L136.557 24.6537H141V27.714H135.861L134.767 32.6747H139.408V35.735H134.103L132.777 41.7266H129.462L130.788 35.735H124.09L122.764 41.7266H119.448ZM124.753 32.6747H131.451L132.545 27.714H125.847L124.753 32.6747Z" fill="#6463FD"/>
</svg>
