<svg width="199" height="199" viewBox="0 0 199 199" fill="none" xmlns="http://www.w3.org/2000/svg">
<rect width="199" height="199" rx="99.5" fill="#E0E0FF" fill-opacity="0.3"/>
<path d="M92.8123 39.01C102.453 37.882 112.364 39.0388 121.461 42.4438C129.673 45.515 137.242 50.349 143.409 56.5884C138.134 61.8188 132.908 67.0977 127.639 72.3347C124.243 69.0043 120.286 66.2301 115.931 64.3038C110.145 61.7102 103.71 60.5691 97.3858 61.0062C90.2409 61.4668 83.2386 63.9492 77.4128 68.1118C70.1841 73.2088 64.7704 80.834 62.3901 89.3569C60.6052 95.6093 60.4573 102.308 61.8981 108.646C63.0562 113.829 65.3122 118.76 68.4476 123.044C71.3579 127.029 75.0298 130.456 79.2068 133.082C84.0212 136.123 89.5133 138.084 95.1664 138.772C100.011 139.38 104.968 139.064 109.698 137.856C110.218 137.606 110.515 138.198 110.841 138.492C116.172 143.851 121.529 149.183 126.862 154.539C117.269 159.198 106.449 161.326 95.809 160.574C86.904 159.984 78.1338 157.423 70.3293 153.092C67.0749 151.312 64.018 149.19 61.126 146.871C58.8412 144.933 56.5839 142.944 54.6197 140.675C51.2945 137.09 48.4418 133.07 46.0916 128.783C45.5681 127.773 44.9609 126.805 44.5343 125.748C43.9494 124.563 43.439 123.345 42.9313 122.127C42.2822 120.39 41.5887 118.667 41.115 116.873C41.0587 116.636 40.9148 116.437 40.7852 116.238C39.6991 112.488 39.0906 108.605 38.7647 104.717C38.4219 99.8282 38.5907 94.8961 39.3903 90.057C40.9841 80.1797 45.0709 70.7238 51.1493 62.7806C55.0908 57.6117 59.8554 53.0696 65.2114 49.3872C73.3823 43.7458 82.9468 40.1367 92.8123 39.01ZM99.248 45.6158C98.5021 45.7454 97.8137 46.1078 97.2353 46.5881C95.8744 47.7567 95.385 49.8347 96.1662 51.4665C96.9946 53.432 99.4586 54.4894 101.448 53.6911C103.467 53.0054 104.69 50.6146 104.031 48.5798C103.494 46.5606 101.293 45.2049 99.248 45.6158ZM64.1829 60.2707C63.4854 60.3074 62.7971 60.522 62.199 60.8832C60.6981 61.8031 59.8593 63.7281 60.3199 65.4449C60.7243 67.2874 62.5157 68.7243 64.4106 68.6654C66.3774 68.719 68.216 67.1749 68.5379 65.2408C68.831 63.889 68.3272 62.4208 67.3418 61.4655C66.5253 60.6372 65.3397 60.2066 64.1829 60.2707ZM49.0084 95.8645C48.1421 96.0255 47.3282 96.4638 46.7131 97.0946C45.4765 98.3665 45.1795 100.441 46.0562 101.991C46.9932 103.818 49.3905 104.721 51.288 103.904C53.2535 103.183 54.4273 100.84 53.7822 98.8389C53.2535 96.8224 51.0524 95.4418 49.0084 95.8645ZM63.6621 131.465C62.1585 131.72 60.8512 132.868 60.4115 134.328C59.9051 135.85 60.3945 137.62 61.5762 138.693C62.3809 139.411 63.4605 139.832 64.5427 139.782C66.0031 139.749 67.419 138.883 68.0916 137.584C68.7368 136.428 68.7656 134.964 68.1845 133.776C67.4229 132.103 65.4614 131.115 63.6621 131.465ZM99.2637 146.125C97.7247 146.389 96.3952 147.574 95.9804 149.082C95.474 150.727 96.1283 152.648 97.5389 153.635C98.5675 154.393 99.9494 154.639 101.173 154.271C102.43 153.908 103.489 152.931 103.93 151.696C104.58 150.028 103.977 147.99 102.546 146.925C101.627 146.211 100.406 145.921 99.2637 146.125Z" fill="#A0A0A0"/>
<path d="M99.2475 45.6145C101.293 45.2036 103.494 46.5593 104.03 48.5785C104.69 50.6134 103.466 53.0042 101.447 53.6899C99.4582 54.4881 96.9941 53.4308 96.1657 51.4653C95.3845 49.8334 95.8739 47.7554 97.2349 46.5868C97.8133 46.1066 98.5016 45.7441 99.2475 45.6145Z" fill="#C1C1C1"/>
<path d="M49.008 95.8634C51.0521 95.4407 53.2531 96.8213 53.7818 98.8378C54.4269 100.839 53.2531 103.182 51.2876 103.903C49.3902 104.72 46.9928 103.817 46.0559 101.99C45.1791 100.44 45.4762 98.3654 46.7128 97.0935C47.3278 96.4627 48.1418 96.0244 49.008 95.8634Z" fill="#C1C1C1"/>
<path d="M143.408 56.5867L143.423 56.5723C146.647 59.8595 149.568 63.4555 152.008 67.3642C156.721 74.8442 159.779 83.3579 160.89 92.1294C161.632 98.0023 161.58 103.985 160.622 109.831C158.96 120.301 154.479 130.298 147.81 138.536C142.275 145.404 135.265 151.104 127.343 154.993L127.26 154.959C127.128 154.815 126.995 154.676 126.861 154.538C121.529 149.181 116.171 143.849 110.84 138.49C110.514 138.196 110.217 137.604 109.698 137.854C104.967 139.062 100.01 139.379 95.1658 138.77C89.5126 138.082 84.0205 136.122 79.2062 133.081C75.0291 130.454 71.3572 127.027 68.4469 123.042C65.3115 118.758 63.0555 113.827 61.8974 108.644C60.4566 102.306 60.6045 95.6076 62.3894 89.3552C64.7698 80.8323 70.1834 73.2071 77.4121 68.1101C83.2379 63.9475 90.2402 61.4651 97.3851 61.0045C103.71 60.5674 110.144 61.7085 115.931 64.3021C120.286 66.2284 124.243 69.0026 127.639 72.333C132.907 67.096 138.133 61.8171 143.408 56.5867ZM97.3786 80.6609C94.6005 81.0338 91.8969 82.0061 89.5427 83.5319C86.5225 85.4228 84.0781 88.1879 82.4894 91.3717C80.5815 95.1928 80.0502 99.6433 80.8537 103.826C81.368 106.423 82.4279 108.913 83.9367 111.09C84.9744 112.597 86.2464 113.924 87.555 115.196C95.0572 122.709 102.553 130.226 110.061 137.731C116.485 136.021 122.45 132.636 127.211 127.995C133.114 122.324 137.111 114.721 138.505 106.657C138.536 106.521 138.534 106.277 138.747 106.317C142.625 106.322 146.502 106.316 150.381 106.324C152.872 106.284 155.205 104.391 155.714 101.945C155.743 101.787 155.714 101.642 155.627 101.507C155.786 100.76 155.899 99.9914 155.807 99.2259L155.776 99.2782C155.508 96.6165 153.049 94.4207 150.378 94.4142C139.825 94.405 129.273 94.4129 118.719 94.405C117.876 91.5156 116.298 88.8657 114.266 86.6542C110.89 83.0556 106.119 80.7642 101.177 80.5274C99.9107 80.53 98.6335 80.4567 97.3786 80.6609ZM134.853 131.475C133.199 131.744 131.795 133.122 131.49 134.77C131.296 135.835 131.471 136.997 132.109 137.891C132.862 139.095 134.307 139.822 135.722 139.756C136.81 139.76 137.852 139.239 138.622 138.492C139.259 137.759 139.727 136.834 139.756 135.848C139.869 134.36 139.094 132.825 137.81 132.058C136.957 131.475 135.862 131.306 134.853 131.475Z" fill="#686868"/>
<path d="M64.1826 60.2699C65.3394 60.2058 66.525 60.6363 67.3415 61.4647C68.3269 62.42 68.8307 63.8882 68.5376 65.24C68.2157 67.1741 66.3771 68.7182 64.4103 68.6646C62.5154 68.7234 60.724 67.2866 60.3196 65.4441C59.859 63.7272 60.6978 61.8023 62.1988 60.8824C62.7968 60.5212 63.4851 60.3066 64.1826 60.2699Z" fill="#C3C3C3"/>
<path d="M97.3787 80.6618C98.6337 80.4576 99.9109 80.5309 101.178 80.5283C106.119 80.7651 110.89 83.0565 114.266 86.6551C116.298 88.8666 117.877 91.5165 118.719 94.4059C112.481 94.4046 106.242 94.4046 100.002 94.4046C98.4073 94.3902 96.8317 95.1139 95.7875 96.3165C95.001 97.2129 94.5129 98.3644 94.4213 99.5539C94.2656 101.408 95.1227 103.31 96.6053 104.432C97.6025 105.206 98.8666 105.61 100.128 105.584C116.707 105.579 133.287 105.576 149.865 105.588C150.488 105.593 151.12 105.568 151.723 105.394C153.583 104.894 155.128 103.37 155.627 101.508C155.715 101.642 155.743 101.788 155.715 101.946C155.205 104.392 152.872 106.285 150.381 106.325C146.502 106.317 142.625 106.323 138.747 106.318C138.534 106.277 138.537 106.522 138.505 106.658C137.112 114.722 133.114 122.325 127.211 127.996C122.45 132.636 116.486 136.022 110.062 137.732C102.553 130.227 95.0573 122.709 87.5551 115.197C86.2465 113.925 84.9746 112.598 83.9368 111.09C82.428 108.914 81.3681 106.424 80.8538 103.826C80.0503 99.6442 80.5816 95.1937 82.4895 91.3726C84.0782 88.1888 86.5226 85.4237 89.5429 83.5328C91.897 82.007 94.6006 81.0347 97.3787 80.6618Z" fill="#474747"/>
<path d="M95.788 96.3164C96.8323 95.1138 98.4079 94.3901 100.003 94.4045C106.242 94.4045 112.482 94.4045 118.72 94.4058C129.274 94.4137 139.826 94.4058 150.379 94.415C153.049 94.4215 155.508 96.6173 155.777 99.279C155.752 99.3222 155.701 99.406 155.675 99.4478C155.193 97.0256 152.852 95.1085 150.379 95.1229C134.025 95.136 117.672 95.1386 101.318 95.1452C100.307 95.1622 99.2584 95.0405 98.2888 95.4017C97.1032 95.7733 96.0995 96.5925 95.3745 97.587C94.9375 98.1824 94.8001 98.927 94.4219 99.5538C94.5135 98.3643 95.0016 97.2128 95.788 96.3164Z" fill="#BFBFBF"/>
<path d="M63.6619 131.465C65.4612 131.115 67.4228 132.103 68.1844 133.775C68.7654 134.964 68.7366 136.428 68.0915 137.584C67.4189 138.883 66.003 139.749 64.5426 139.782C63.4604 139.832 62.3808 139.41 61.576 138.693C60.3943 137.62 59.9049 135.85 60.4114 134.328C60.851 132.867 62.1583 131.72 63.6619 131.465Z" fill="#BFBFBF"/>
<path d="M98.2884 95.4019C99.258 95.0407 100.306 95.1624 101.318 95.1454C117.671 95.1388 134.025 95.1362 150.378 95.1231C152.851 95.1087 155.193 97.0258 155.674 99.448C155.7 99.4062 155.751 99.3224 155.776 99.2792L155.808 99.2269C155.899 99.9924 155.787 100.761 155.627 101.508C155.128 103.37 153.583 104.894 151.723 105.394C151.12 105.568 150.488 105.593 149.865 105.588C133.287 105.576 116.707 105.579 100.128 105.584C98.8667 105.61 97.6026 105.206 96.6055 104.432C95.1229 103.31 94.2657 101.408 94.4215 99.554C94.7996 98.9272 94.937 98.1826 95.3741 97.5872C96.0991 96.5927 97.1028 95.7735 98.2884 95.4019Z" fill="#B0B0B0"/>
<path d="M40.7852 116.236C40.9147 116.435 41.0587 116.634 41.1149 116.871C41.5886 118.665 42.2822 120.388 42.9312 122.125C43.439 123.343 43.9493 124.562 44.5343 125.746C44.9609 126.803 45.5681 127.772 46.0915 128.782C48.4417 133.069 51.2945 137.089 54.6196 140.673C56.5838 142.942 58.8411 144.931 61.1259 146.869C64.0179 149.188 67.0748 151.311 70.3293 153.09C78.1337 157.422 86.9039 159.983 95.8089 160.573C106.449 161.324 117.269 159.196 126.862 154.538C126.995 154.676 127.129 154.815 127.261 154.959L127.265 155.039C121.727 157.791 115.765 159.688 109.656 160.654C102.209 161.819 94.5474 161.634 87.1722 160.065C78.2881 158.187 69.8438 154.28 62.6465 148.744C54.3343 142.381 47.6867 133.862 43.5594 124.238C42.4575 121.638 41.4748 118.975 40.7852 116.236Z" fill="#939393"/>
<path d="M134.853 131.476C135.862 131.307 136.957 131.476 137.81 132.06C139.094 132.827 139.869 134.362 139.756 135.85C139.727 136.835 139.259 137.76 138.622 138.493C137.852 139.24 136.81 139.761 135.722 139.757C134.307 139.824 132.862 139.096 132.109 137.892C131.471 136.998 131.296 135.836 131.49 134.771C131.795 133.124 133.199 131.746 134.853 131.476Z" fill="#767676"/>
<path d="M99.263 146.124C100.405 145.92 101.626 146.211 102.545 146.924C103.977 147.989 104.58 150.028 103.929 151.695C103.488 152.93 102.43 153.908 101.172 154.27C99.9487 154.638 98.5668 154.392 97.5383 153.634C96.1276 152.648 95.4733 150.727 95.9797 149.082C96.3946 147.573 97.7241 146.389 99.263 146.124Z" fill="#BEBEBE"/>
</svg>
