<svg width="78" height="28" viewBox="0 0 78 28" fill="none" xmlns="http://www.w3.org/2000/svg">
<path fill-rule="evenodd" clip-rule="evenodd" d="M26.8916 14.0087C26.8916 21.3778 20.9178 27.3516 13.5487 27.3516C6.17928 27.3516 0.205322 21.3778 0.205322 14.0087C0.205322 6.6396 6.17928 0.665802 13.5487 0.665802C20.9178 0.665802 26.8916 6.6396 26.8916 14.0087Z" fill="#ED342B"/>
<path fill-rule="evenodd" clip-rule="evenodd" d="M13.5485 19.7238C10.5639 12.9587 8.37559 6.63876 8.37559 6.63876H3.80029C3.80029 6.63876 6.58503 14.7504 11.7577 24.8945H15.3392C20.5119 14.7504 23.2965 6.63876 23.2965 6.63876L18.7212 6.63876C18.7212 6.63876 16.533 12.9587 13.5485 19.7238Z" fill="#FEFEFE"/>
<path fill-rule="evenodd" clip-rule="evenodd" d="M71.0117 13.3109C68.4252 13.3109 68.2266 16.0962 68.2266 16.0962H73.7962C73.7962 16.0962 73.5976 13.3109 71.0117 13.3109ZM77.1784 18.8809H68.2266C68.2266 18.8809 68.4252 21.8653 72.4043 21.8653C74.3933 21.8653 76.3827 21.2679 76.3827 21.2679L76.7808 24.4507C76.7808 24.4507 74.7914 25.2469 72.0062 25.2469C68.0276 25.2469 64.4468 23.2574 64.4468 17.6874C64.4468 13.3109 67.2321 10.5258 71.2106 10.5258C77.1784 10.5258 77.576 16.4938 77.1784 18.8809ZM46.7389 14.1805L47.3549 10.8959C47.3549 10.8959 42.5986 9.45263 38.7327 12.1272V25.2656L42.8383 25.2656V14.5906C44.4805 13.3594 46.7389 14.1805 46.7389 14.1805ZM29.6255 13.3109C27.0396 13.3109 26.8408 16.0962 26.8408 16.0962H32.4106C32.4106 16.0962 32.212 13.3109 29.6255 13.3109ZM35.7923 18.8809H26.8408C26.8408 18.8809 27.0396 21.8653 31.0182 21.8653C33.007 21.8653 34.9966 21.2679 34.9966 21.2679L35.3947 24.4507C35.3947 24.4507 33.4051 25.2469 30.6201 25.2469C26.6415 25.2469 23.0605 23.2574 23.0605 17.6874C23.0605 13.3109 25.8458 10.5258 29.8243 10.5258C35.7923 10.5258 36.1899 16.4938 35.7923 18.8809ZM56.7584 20.2442C54.6737 15.2405 53.6317 10.5282 53.6317 10.5282L49.4631 10.5287C49.4631 10.5287 51.5476 18.5762 55.0915 25.2445H58.4252C61.9693 18.5762 64.0539 10.5299 64.0539 10.5299L59.8851 10.5299C59.8851 10.5299 58.8431 15.2405 56.7584 20.2442Z" fill="white"/>
</svg>
