<svg width="78" height="28" viewBox="0 0 78 28" fill="none" xmlns="http://www.w3.org/2000/svg">
<g clip-path="url(#clip0_1_64680)">
<path fill-rule="evenodd" clip-rule="evenodd" d="M26.8913 14.0098C26.8913 21.3789 20.9176 27.3527 13.5485 27.3527C6.17904 27.3527 0.205078 21.3789 0.205078 14.0098C0.205078 6.64069 6.17904 0.666901 13.5485 0.666901C20.9176 0.666901 26.8913 6.64069 26.8913 14.0098Z" fill="#ED342B"/>
<path fill-rule="evenodd" clip-rule="evenodd" d="M13.548 19.7252C10.5634 12.96 8.3751 6.6401 8.3751 6.6401H3.7998C3.7998 6.6401 6.58454 14.7518 11.7573 24.8959H15.3387C20.5114 14.7518 23.296 6.6401 23.296 6.6401L18.7207 6.6401C18.7207 6.6401 16.5325 12.96 13.548 19.7252Z" fill="#FEFEFE"/>
<path fill-rule="evenodd" clip-rule="evenodd" d="M71.0117 13.3138C68.4252 13.3138 68.2266 16.0991 68.2266 16.0991H73.7962C73.7962 16.0991 73.5976 13.3138 71.0117 13.3138ZM77.1784 18.8838H68.2266C68.2266 18.8838 68.4252 21.8682 72.4043 21.8682C74.3933 21.8682 76.3827 21.2708 76.3827 21.2708L76.7808 24.4536C76.7808 24.4536 74.7914 25.2499 72.0062 25.2499C68.0276 25.2499 64.4468 23.2603 64.4468 17.6903C64.4468 13.3138 67.2321 10.5288 71.2106 10.5288C77.1784 10.5288 77.576 16.4967 77.1784 18.8838ZM46.7389 14.1834L47.3549 10.8988C47.3549 10.8988 42.5986 9.45556 38.7327 12.1302V25.2686L42.8383 25.2686V14.5936C44.4805 13.3624 46.7389 14.1834 46.7389 14.1834ZM29.6255 13.3138C27.0396 13.3138 26.8408 16.0991 26.8408 16.0991H32.4106C32.4106 16.0991 32.212 13.3138 29.6255 13.3138ZM35.7923 18.8838H26.8408C26.8408 18.8838 27.0396 21.8682 31.0182 21.8682C33.007 21.8682 34.9966 21.2708 34.9966 21.2708L35.3947 24.4536C35.3947 24.4536 33.4051 25.2499 30.6201 25.2499C26.6415 25.2499 23.0605 23.2603 23.0605 17.6903C23.0605 13.3138 25.8458 10.5288 29.8243 10.5288C35.7923 10.5288 36.1899 16.4967 35.7923 18.8838ZM56.7584 20.2472C54.6737 15.2434 53.6317 10.5312 53.6317 10.5312L49.4631 10.5317C49.4631 10.5317 51.5476 18.5791 55.0915 25.2474H58.4252C61.9693 18.5791 64.0539 10.5328 64.0539 10.5328L59.8851 10.5328C59.8851 10.5328 58.8431 15.2434 56.7584 20.2472Z" fill="white"/>
</g>
<defs>
<clipPath id="clip0_1_64680">
<rect width="77.4783" height="27" fill="white" transform="translate(0 0.5)"/>
</clipPath>
</defs>
</svg>
