<svg width="89" height="28" viewBox="0 0 89 28" fill="none" xmlns="http://www.w3.org/2000/svg">
<g clip-path="url(#clip0_1_65212)">
<path d="M34.9951 27.1105H27.8604L32.3229 0.973755L39.4572 0.973755L34.9951 27.1105Z" fill="white"/>
<path d="M60.8592 1.61274C59.4519 1.0839 57.2199 0.5 54.4599 0.5C47.4142 0.5 42.4526 4.05886 42.4222 9.14695C42.3637 12.9009 45.9745 14.986 48.6752 16.2377C51.4355 17.5167 52.3738 18.3516 52.3738 19.4917C52.3457 21.2426 50.1433 22.0497 48.0891 22.0497C45.2406 22.0497 43.7144 21.6336 41.3949 20.6595L40.4554 20.2419L39.457 26.109C41.1304 26.8311 44.2134 27.4719 47.4142 27.5C54.9004 27.5 59.7742 23.9962 59.8319 18.574C59.8604 15.5987 57.9537 13.3189 53.8431 11.456C51.3477 10.2601 49.8195 9.45368 49.8195 8.23007C49.8487 7.1177 51.112 5.97835 53.9289 5.97835C56.2484 5.92254 57.9526 6.45064 59.2436 6.97911L59.8889 7.25665L60.8592 1.61274Z" fill="white"/>
<path d="M70.3413 17.8512C70.9289 16.3496 73.1898 10.5383 73.1898 10.5383C73.1602 10.5941 73.7762 9.00908 74.1285 8.03603L74.6271 10.2881C74.6271 10.2881 75.9782 16.5444 76.2716 17.8512C75.1566 17.8512 71.7505 17.8512 70.3413 17.8512ZM79.1482 0.973755L73.6295 0.973755C71.9277 0.973755 70.6347 1.44605 69.9004 3.14233L59.3027 27.1101H66.789C66.789 27.1101 68.0215 23.8842 68.2864 23.1894C69.1076 23.1894 76.3902 23.1894 77.4468 23.1894C77.6516 24.1071 78.2981 27.1101 78.2981 27.1101H84.9041L79.1482 0.973755Z" fill="white"/>
<path d="M21.9011 0.973755L14.9139 18.7965L14.1503 15.1818C12.8586 11.011 8.80721 6.47945 4.28613 4.22625L10.6862 27.0828H18.2309L29.4455 0.973755L21.9011 0.973755Z" fill="white"/>
<path d="M8.42559 0.973755L-3.05346 0.973755L-3.1709 1.50185C5.78348 3.6708 11.7138 8.89895 14.1503 15.1829L11.6549 3.17079C11.244 1.50149 9.98152 1.02882 8.42559 0.973755Z" fill="white"/>
</g>
<defs>
<clipPath id="clip0_1_65212">
<rect width="88.0752" height="27" fill="white" transform="translate(0 0.5)"/>
</clipPath>
</defs>
</svg>
