<svg width="84" height="27" viewBox="0 0 84 27" fill="none" xmlns="http://www.w3.org/2000/svg">
<g clip-path="url(#clip0_2933_47842)">
<path d="M33.3769 26.6094H26.5723L30.8283 0.472656L37.6326 0.472656L33.3769 26.6094Z" fill="white"/>
<path d="M58.0437 1.11274C56.7016 0.583904 54.5728 0 51.9406 0C45.2208 0 40.4888 3.55886 40.4598 8.64695C40.404 12.4009 43.8478 14.486 46.4234 15.7377C49.056 17.0167 49.9509 17.8516 49.9509 18.9917C49.9242 20.7426 47.8236 21.5497 45.8645 21.5497C43.1478 21.5497 41.6922 21.1336 39.4801 20.1595L38.584 19.7419L37.6318 25.609C39.2278 26.3311 42.1681 26.9719 45.2208 27C52.3607 27 57.0089 23.4962 57.064 18.074C57.0912 15.0987 55.2727 12.8189 51.3523 10.956C48.9723 9.76006 47.5148 8.95368 47.5148 7.73007C47.5427 6.6177 48.7476 5.47835 51.4341 5.47835C53.6463 5.42254 55.2716 5.95064 56.5029 6.47911L57.1183 6.75665L58.0437 1.11274Z" fill="white"/>
<path d="M67.0874 17.352C67.6478 15.8505 69.8041 10.0392 69.8041 10.0392C69.7758 10.095 70.3634 8.50994 70.6994 7.53689L71.1749 9.78898C71.1749 9.78898 72.4635 16.0453 72.7433 17.352C71.6798 17.352 68.4314 17.352 67.0874 17.352ZM75.4868 0.474609L70.2234 0.474609C68.6003 0.474609 67.3672 0.946906 66.6669 2.64318L56.5596 26.611H63.6994C63.6994 26.611 64.8749 23.3851 65.1275 22.6903C65.9108 22.6903 72.8564 22.6903 73.8641 22.6903C74.0594 23.6079 74.676 26.611 74.676 26.611H80.9764L75.4868 0.474609Z" fill="white"/>
<path d="M20.8888 0.472656L14.2249 18.2954L13.4967 14.6807C12.2646 10.5099 8.40076 5.97835 4.08887 3.72515L10.1928 26.5817L17.3885 26.5817L28.0841 0.472656L20.8888 0.472656Z" fill="white"/>
<path d="M8.03648 0.474609L-2.91144 0.474609L-3.02344 1.00271C5.51662 3.17165 11.1725 8.39981 13.4963 14.6838L11.1164 2.67164C10.7245 1.00234 9.52042 0.529674 8.03648 0.474609Z" fill="white"/>
</g>
<defs>
<clipPath id="clip0_2933_47842">
<rect width="84" height="27" fill="white"/>
</clipPath>
</defs>
</svg>
