<svg width="24" height="24" viewBox="0 0 24 24" fill="none" xmlns="http://www.w3.org/2000/svg">
<g clip-path="url(#clip0_692_11555)">
<path d="M10.8333 13.4513V14.3085C9.51057 14.3102 8.23853 13.7987 7.28523 12.8816V17.8381H21.4296C22.1397 17.8381 22.7154 17.2624 22.7154 16.5523V12.2661H7.88065C8.67468 13.0277 9.73283 13.4526 10.8333 13.4513ZM19.7151 15.2664H20.5724V16.1237H19.7151V15.2664ZM18.0007 15.2664H18.8579V16.1237H18.0007V15.2664ZM16.2862 15.2664H17.1434V16.1237H16.2862V15.2664ZM14.5717 15.2664H15.429V16.1237H14.5717V15.2664Z" fill="#FF8264"/>
<path d="M4.40065 8.40869C3.93436 8.41351 3.5363 8.74627 3.44882 9.20419C3.36112 9.66211 3.60871 10.1181 4.04005 10.2946L6.14818 11.1411L5.30371 9.02148C5.15742 8.65105 4.79913 8.40786 4.40065 8.40869Z" fill="#FF8264"/>
<path d="M18.3181 21.5839C18.5908 21.7145 18.9041 21.731 19.1888 21.6297C19.4736 21.5287 19.7061 21.3181 19.835 21.0448L20.9539 18.6956H12.2999L18.3181 21.5839Z" fill="black"/>
<path d="M1.28459 7.12277V11.4089H4.51031L3.72047 11.0917C2.94255 10.7836 2.47166 9.9881 2.57588 9.15786C2.68011 8.32762 3.33266 7.67319 4.16248 7.56666C4.99251 7.46013 5.78926 7.92872 6.09963 8.70559L6.428 9.52976V5.83691H2.57044C1.86034 5.83691 1.28459 6.41266 1.28459 7.12277Z" fill="#FF8264"/>
<path d="M5.68169 2.51981C5.4092 2.38921 5.0959 2.37289 4.81127 2.47397C4.52643 2.57527 4.29391 2.78581 4.16479 3.05914L3.25063 4.97975H10.8075L5.68169 2.51981Z" fill="black"/>
<path d="M2.99906 13.4513C4.09948 13.4526 5.15763 13.0277 5.95187 12.2661H1.28459V16.5523C1.28459 17.2624 1.86034 17.8381 2.57044 17.8381H6.428V12.9905C5.48809 13.8399 4.26587 14.3098 2.99906 14.3085V13.4513Z" fill="#FF8264"/>
<path d="M0.427366 12.9619V10.9109L0.110926 11.5762C-0.116777 12.0555 0.0140268 12.6287 0.427366 12.9619Z" fill="#FF8264"/>
<path d="M23.5727 11.1418V13.1924L23.8889 12.5275C24.1168 12.0481 23.986 11.475 23.5727 11.1418Z" fill="#FF8264"/>
<path d="M21.4296 5.83691H7.28523V9.82904L7.73269 8.70559C8.04515 7.93333 8.8396 7.46934 9.66565 7.57629C10.4919 7.68344 11.1417 8.33453 11.2472 9.161C11.3525 9.98726 10.887 10.7807 10.1141 11.0917L9.322 11.4089H22.7154V7.12277C22.7154 6.41266 22.1397 5.83691 21.4296 5.83691ZM15.429 8.83723H14.5717V7.12277H15.429V8.83723ZM17.1434 8.83723H16.2862V7.12277H17.1434V8.83723ZM18.8579 8.83723H18.0007V7.12277H18.8579V8.83723ZM20.5724 8.83723H19.7151V7.12277H20.5724V8.83723Z" fill="#FF8264"/>
<path d="M10.4046 9.38697C10.4078 8.91921 10.0771 8.5155 9.61772 8.42634C9.15833 8.33719 8.70063 8.58812 8.52859 9.02323L7.68475 11.1427L9.79268 10.2944C10.1635 10.1463 10.4061 9.78649 10.4046 9.38697Z" fill="#FF8264"/>
</g>
<defs>
<clipPath id="clip0_692_11555">
<rect width="24" height="24" fill="white"/>
</clipPath>
</defs>
</svg>
