<svg width="41" height="40" viewBox="0 0 41 40" fill="none" xmlns="http://www.w3.org/2000/svg">
<path d="M25.5 6.87496V3.38379L30.8662 8.74996H27.375C26.3399 8.74879 25.5012 7.91004 25.5 6.87496Z" fill="#5034C4"/>
<path d="M29.25 22.5C25.1102 22.5047 21.7547 25.8602 21.75 30C21.75 34.1422 25.1078 37.5 29.25 37.5C33.3922 37.5 36.75 34.1422 36.75 30C36.75 25.8578 33.3922 22.5 29.25 22.5ZM33.625 30.625H29.25C29.2281 30.625 29.2055 30.6242 29.1836 30.6219C28.9672 30.5937 28.8438 30.4883 28.7672 30.3977C28.3906 29.9477 27.6102 29.0109 26.9234 28.1859C26.2375 27.3617 25.6445 26.65 25.6445 26.65C25.4242 26.3852 25.4594 25.9906 25.725 25.7695C25.9898 25.5484 26.3844 25.5844 26.6055 25.85L29.543 29.375H33.625C33.9703 29.375 34.25 29.6547 34.25 30C34.25 30.3453 33.9703 30.625 33.625 30.625Z" fill="#5034C4" fill-opacity="0.4"/>
<path d="M27.375 10C25.65 9.99844 24.2516 8.6 24.25 6.875V2.5H6.125C5.08984 2.50156 4.25156 3.33984 4.25 4.375V35.625C4.25156 36.6602 5.08984 37.4984 6.125 37.5H24.7477C21.3203 35.4437 19.7227 31.3266 20.8648 27.4969C22.2469 22.8664 27.1203 20.2328 31.75 21.6148V10H27.375ZM7.375 8.75H14.875C15.2203 8.75 15.5 9.02969 15.5 9.375C15.5 9.72031 15.2203 10 14.875 10H7.375C7.02969 10 6.75 9.72031 6.75 9.375C6.75 9.02969 7.02969 8.75 7.375 8.75ZM7.375 12.5H11.125C11.4703 12.5 11.75 12.7797 11.75 13.125C11.75 13.4703 11.4703 13.75 11.125 13.75H7.375C7.02969 13.75 6.75 13.4703 6.75 13.125C6.75 12.7797 7.02969 12.5 7.375 12.5ZM7.375 16.25H19.875C20.2203 16.25 20.5 16.5297 20.5 16.875C20.5 17.2203 20.2203 17.5 19.875 17.5H7.375C7.02969 17.5 6.75 17.2203 6.75 16.875C6.75 16.5297 7.02969 16.25 7.375 16.25ZM7.375 20H14.875C15.2203 20 15.5 20.2797 15.5 20.625C15.5 20.9703 15.2203 21.25 14.875 21.25H7.375C7.02969 21.25 6.75 20.9703 6.75 20.625C6.75 20.2797 7.02969 20 7.375 20ZM12.375 32.5H7.375C7.02969 32.5 6.75 32.2203 6.75 31.875C6.75 31.5297 7.02969 31.25 7.375 31.25H12.375C12.7203 31.25 13 31.5297 13 31.875C13 32.2203 12.7203 32.5 12.375 32.5ZM6.75 28.125C6.75 27.7797 7.02969 27.5 7.375 27.5H11.125C11.4703 27.5 11.75 27.7797 11.75 28.125C11.75 28.4703 11.4703 28.75 11.125 28.75H7.375C7.02969 28.75 6.75 28.4703 6.75 28.125ZM17.375 32.5H14.875C14.5297 32.5 14.25 32.2203 14.25 31.875C14.25 31.5297 14.5297 31.25 14.875 31.25H17.375C17.7203 31.25 18 31.5297 18 31.875C18 32.2203 17.7203 32.5 17.375 32.5ZM17.375 28.75H13.625C13.2797 28.75 13 28.4703 13 28.125C13 27.7797 13.2797 27.5 13.625 27.5H17.375C17.7203 27.5 18 27.7797 18 28.125C18 28.4703 17.7203 28.75 17.375 28.75ZM18.625 25H13H7.375C7.02969 25 6.75 24.7203 6.75 24.375C6.75 24.0297 7.02969 23.75 7.375 23.75H18.625C18.9703 23.75 19.25 24.0297 19.25 24.375C19.25 24.7203 18.9703 25 18.625 25ZM22.375 21.25H17.375C17.0297 21.25 16.75 20.9703 16.75 20.625C16.75 20.2797 17.0297 20 17.375 20H22.375C22.7203 20 23 20.2797 23 20.625C23 20.9703 22.7203 21.25 22.375 21.25ZM28.625 17.5H22.375C22.0297 17.5 21.75 17.2203 21.75 16.875C21.75 16.5297 22.0297 16.25 22.375 16.25H28.625C28.9703 16.25 29.25 16.5297 29.25 16.875C29.25 17.2203 28.9703 17.5 28.625 17.5ZM28.625 13.75H13.625C13.2797 13.75 13 13.4703 13 13.125C13 12.7797 13.2797 12.5 13.625 12.5H28.625C28.9703 12.5 29.25 12.7797 29.25 13.125C29.25 13.4703 28.9703 13.75 28.625 13.75Z" fill="#5034C4"/>
</svg>
