<svg width="14" height="14" viewBox="0 0 14 14" fill="none" xmlns="http://www.w3.org/2000/svg">
<path fill-rule="evenodd" clip-rule="evenodd" d="M12.5694 4.78549H10.1496C9.02346 4.78747 8.1112 5.67693 8.10917 6.77488C8.10765 7.87531 9.02092 8.76873 10.1496 8.77022H12.5714V8.94504C12.5714 10.8646 11.4077 11.9997 9.43844 11.9997H4.27628C2.3065 11.9997 1.14282 10.8646 1.14282 8.94504V4.76419C1.14282 2.84463 2.3065 1.71399 4.27628 1.71399H9.43641C11.4057 1.71399 12.5694 2.84463 12.5694 4.76419V4.78549ZM3.85114 4.78103H7.074H7.07603H7.08009C7.32136 4.78004 7.51641 4.58838 7.51539 4.35265C7.51438 4.11741 7.3173 3.92723 7.07603 3.92822H3.85114C3.61139 3.92921 3.41685 4.11889 3.41584 4.35314C3.41482 4.58838 3.60987 4.78004 3.85114 4.78103Z" fill="#5034C4"/>
<path d="M9.1642 7.02638C9.2837 7.56992 9.76024 7.95233 10.3043 7.94238H12.1614C12.3878 7.94238 12.5714 7.75491 12.5714 7.52317V6.07657C12.5709 5.84533 12.3878 5.65736 12.1614 5.65686H10.2606C9.64171 5.65885 9.14185 6.17255 9.14282 6.80559C9.14282 6.87969 9.15011 6.95378 9.1642 7.02638Z" fill="black"/>
<ellipse cx="10.2857" cy="6.7997" rx="0.571429" ry="0.571429" fill="#5034C4"/>
</svg>
