<svg width="12" height="11" viewBox="0 0 12 11" fill="none" xmlns="http://www.w3.org/2000/svg">
<path fill-rule="evenodd" clip-rule="evenodd" d="M11.5691 3.78634H9.14931C8.02321 3.78833 7.11096 4.67778 7.10893 5.77574C7.1074 6.87617 8.02067 7.76959 9.14931 7.77107H11.5711V7.9459C11.5711 9.86546 10.4075 11.0006 8.4382 11.0006H3.27604C1.30626 11.0006 0.142578 9.86546 0.142578 7.9459V3.76505C0.142578 1.84548 1.30626 0.714844 3.27604 0.714844H8.43616C10.4054 0.714844 11.5691 1.84548 11.5691 3.76505V3.78634ZM2.8509 3.78189H6.07375H6.07578H6.07985C6.32112 3.7809 6.51617 3.58924 6.51515 3.3535C6.51413 3.11826 6.31705 2.92809 6.07578 2.92908H2.8509C2.61115 2.93007 2.41661 3.11975 2.41559 3.354C2.41458 3.58924 2.60963 3.7809 2.8509 3.78189Z" fill="#5034C4"/>
<path d="M8.16395 6.02577C8.28345 6.56931 8.75999 6.95172 9.30406 6.94177H11.1612C11.3875 6.94177 11.5711 6.7543 11.5711 6.52256V5.07596C11.5707 4.84472 11.3875 4.65675 11.1612 4.65625H9.26034C8.64147 4.65824 8.14161 5.17194 8.14258 5.80498C8.14258 5.87908 8.14987 5.95317 8.16395 6.02577Z" fill="black"/>
<ellipse cx="9.2853" cy="5.8019" rx="0.571429" ry="0.571429" fill="#5034C4"/>
</svg>
