<svg width="22" height="22" viewBox="0 0 22 22" fill="none" xmlns="http://www.w3.org/2000/svg">
<path d="M10.0122 3.77954H11.3013V6.43845H10.0122V3.77954Z" fill="#5034C4"/>
<path d="M10.6567 3.77954H11.3013V6.43845H10.6567V3.77954Z" fill="#5034C4"/>
<path d="M17.2603 7.09156V11.9402H13.6346C12.9063 12.8275 11.8093 13.3508 10.6568 13.3508C9.50485 13.3508 8.40786 12.8275 7.67954 11.9402H6.38833V15.3811H1.53931V10.9184C1.53931 8.80816 3.25634 7.09156 5.36653 7.09156H7.65505C8.38337 6.18535 9.48938 5.65082 10.6568 5.65082C11.8243 5.65082 12.9303 6.18535 13.6586 7.09156H17.2603Z" fill="#5034C4"/>
<path d="M17.2602 7.09156V11.9402H13.6345C12.9062 12.8275 11.8092 13.3508 10.6567 13.3508V5.65082C11.8242 5.65082 12.9302 6.18535 13.6585 7.09156H17.2602Z" fill="#5034C4"/>
<path d="M18.1015 2.2C18.1015 3.41301 17.1145 4.4 15.9015 4.4C15.3644 4.4 14.0263 4.19848 12.8009 3.87277C11.7709 3.59906 11.0688 3.31246 10.6567 2.98934C10.2451 3.31246 9.54299 3.59906 8.5126 3.87277C7.28713 4.19848 5.94908 4.4 5.4124 4.4C4.19939 4.4 3.2124 3.41301 3.2124 2.2C3.2124 0.986992 4.19939 0 5.4124 0C5.94908 0 7.28713 0.201523 8.5126 0.527227C9.54299 0.800938 10.2451 1.08754 10.6567 1.41066C11.0688 1.08754 11.7709 0.800938 12.8009 0.527227C14.0263 0.201523 15.3644 0 15.9015 0C17.1145 0 18.1015 0.986992 18.1015 2.2Z" fill="#5034C4"/>
<path d="M18.1015 2.2C18.1015 3.41301 17.1145 4.4 15.9015 4.4C15.3644 4.4 14.0263 4.19848 12.8009 3.87277C11.7709 3.59906 11.0688 3.31246 10.6567 2.98934V1.41066C11.0688 1.08754 11.7709 0.800938 12.8009 0.527227C14.0263 0.201523 15.3644 0 15.9015 0C17.1145 0 18.1015 0.986992 18.1015 2.2Z" fill="#5034C4"/>
<path d="M5.18596 17.8026C4.79623 17.246 4.40891 16.8298 4.39258 16.8124L3.92164 16.3083L3.45071 16.8124C3.43438 16.8298 3.04706 17.246 2.65733 17.8026C2.08344 18.6222 1.80444 19.3027 1.80444 19.8828C1.80444 21.0503 2.75422 22 3.9216 22C5.08897 22 6.03876 21.0502 6.03876 19.8828C6.0388 19.3027 5.75985 18.6222 5.18596 17.8026Z" fill="black"/>
<path d="M10.6567 4.42578C11.8789 4.42578 12.8696 3.43504 12.8696 2.21289C12.8696 0.990745 11.8789 0 10.6567 0C9.43459 0 8.44385 0.990745 8.44385 2.21289C8.44385 3.43504 9.43459 4.42578 10.6567 4.42578Z" fill="#5034C4"/>
<path d="M17.9442 5.65073C17.0931 5.65073 16.4006 6.34321 16.4006 7.19434V12.0347C16.4006 12.8858 17.0931 13.5783 17.9442 13.5783H20.2459V5.65073H17.9442Z" fill="#5034C4"/>
<path d="M20.1721 4.73157H21.4612V14.4975H20.1721V4.73157Z" fill="black"/>
<path d="M10.6567 4.42578V0C11.8771 0 12.8696 0.992578 12.8696 2.21289C12.8696 3.4332 11.8771 4.42578 10.6567 4.42578Z" fill="#5034C4"/>
</svg>
