<svg width="22" height="22" viewBox="0 0 22 22" fill="none" xmlns="http://www.w3.org/2000/svg">
<g clip-path="url(#clip0_692_11528)">
<path d="M10.9953 15.5676C9.94382 15.5676 9.08841 16.4203 9.08841 17.4678C9.08841 18.5156 9.94382 19.3686 10.9953 19.3686C12.0471 19.3686 12.9026 18.5156 12.9026 17.4678C12.9026 16.4203 12.047 15.5676 10.9953 15.5676Z" fill="black"/>
<path d="M15.6478 12.9786C14.4064 11.7378 12.7538 11.0542 10.9953 11.0542C9.24351 11.0542 7.59549 11.7333 6.35436 12.9663C5.85308 13.4652 5.85221 14.2779 6.35228 14.7776C6.59519 15.0209 6.91862 15.1545 7.26287 15.1545C7.60555 15.1545 7.92777 15.0216 8.17034 14.7804C8.92563 14.0298 9.92888 13.6163 10.9953 13.6163C12.0657 13.6163 13.0717 14.0324 13.8275 14.7875C14.0704 15.0301 14.3937 15.164 14.7376 15.164C15.0806 15.164 15.4027 15.0311 15.6454 14.7899C16.1474 14.291 16.1483 13.4787 15.6478 12.9786Z" fill="#FF6414"/>
<path d="M21.6245 7.02175C18.7862 4.19042 15.0111 2.63159 10.9953 2.63159C6.98491 2.63159 3.21362 4.18678 0.376174 7.01139C-0.125102 7.51023 -0.125449 8.32297 0.37548 8.82268C0.618224 9.06473 0.94113 9.19781 1.28468 9.19781C1.62806 9.19781 1.95062 9.06525 2.19337 8.82337C4.54533 6.48235 7.67115 5.19281 10.9953 5.19281C14.3243 5.19281 17.4532 6.48495 19.8057 8.83222C20.0485 9.07445 20.3719 9.20805 20.7153 9.20805C21.0585 9.20805 21.381 9.07479 21.6236 8.83326C22.1251 8.33403 22.1256 7.52099 21.6245 7.02175Z" fill="#FF6414"/>
<path d="M18.5604 10.0749C16.54 8.05918 13.8534 6.94922 10.9953 6.94922C8.14239 6.94922 5.45972 8.05571 3.44108 10.0643C3.19799 10.306 3.06421 10.6275 3.06369 10.9698C3.06369 11.3118 3.19695 11.6337 3.43969 11.8758C3.68243 12.118 4.00551 12.2516 4.34907 12.2516C4.6921 12.2516 5.01466 12.1183 5.25775 11.8771C6.79125 10.3514 8.82898 9.51095 10.9953 9.51095C13.1661 9.51095 15.2066 10.3544 16.7411 11.8853C16.9842 12.1279 17.3071 12.2615 17.6509 12.2615C17.9941 12.2615 18.3168 12.1282 18.5592 11.8867C18.8019 11.645 18.9361 11.3235 18.9362 10.9811C18.9366 10.6388 18.803 10.3173 18.5604 10.0749Z" fill="#FF6414"/>
</g>
<defs>
<clipPath id="clip0_692_11528">
<rect width="22" height="22" fill="white"/>
</clipPath>
</defs>
</svg>
